<svg width="47" height="30" viewBox="0 0 47 30" fill="none" xmlns="http://www.w3.org/2000/svg">
<path d="M8.16897 14.0605C10.1233 14.0605 11.9057 14.8003 13.254 16.0162L10.1406 17.4849C9.5422 17.2026 8.87367 17.0449 8.16897 17.0449C6.88672 17.0449 5.72565 17.5667 4.8856 18.4105C4.04556 19.2541 3.52617 20.4198 3.52617 21.7076C3.52617 22.9955 4.04556 24.1614 4.8856 25.005C5.72565 25.8486 6.88672 26.3706 8.16897 26.3706C9.11305 26.3706 9.99131 26.0874 10.7243 25.6016C11.8498 25.9206 12.9805 26.2149 14.1201 26.478C13.9428 26.7008 13.7534 26.9135 13.5528 27.1148C12.1749 28.4985 10.2713 29.3546 8.16897 29.3546C6.06625 29.3546 4.16263 28.4985 2.78474 27.1146C1.40704 25.7311 0.554688 23.8193 0.554688 21.7075C0.554688 19.5962 1.40704 17.6843 2.78474 16.3003C4.16282 14.9166 6.06625 14.0605 8.16897 14.0605ZM39.5859 14.0715C41.5245 14.1752 43.2712 15.0074 44.5585 16.3003C45.9365 17.6843 46.7889 19.5962 46.7889 21.7075C46.7889 23.8189 45.9365 25.731 44.5585 27.1146C43.1808 28.4987 41.2771 29.3546 39.1746 29.3546C37.0722 29.3546 35.1686 28.4987 33.7906 27.1146C32.4125 25.731 31.5601 23.8189 31.5601 21.7075C31.5601 19.5962 32.4125 17.6843 33.7906 16.3003C33.8603 16.23 33.9317 16.1614 34.0042 16.0941L35.1714 19.3439C34.7648 20.0371 34.5316 20.845 34.5316 21.7076C34.5316 22.9953 35.0514 24.1614 35.8914 25.005C36.7315 25.8488 37.8922 26.3708 39.1744 26.3708C40.4567 26.3708 41.6174 25.8488 42.4576 25.005C43.2975 24.1616 43.8172 22.9955 43.8172 21.7076C43.8172 20.42 43.2978 19.2543 42.4576 18.4105C41.9803 17.9314 41.4 17.5561 40.7527 17.3212L39.5859 14.0715Z" fill="#AF4300"/>
<path d="M16.0874 16.7394C15.6102 15.7569 15.0246 14.9042 14.3257 14.1586C12.2073 11.9001 8.9683 10.5348 4.47445 9.46176C3.87602 9.31933 3.50558 8.71642 3.64746 8.11537C3.75447 7.66291 4.1208 7.34039 4.5507 7.26918C6.15044 6.90079 7.86409 6.58965 9.62528 6.4722C11.4349 6.35158 13.2927 6.43789 15.1296 6.87973C16.2657 7.15285 16.9454 8.21791 17.6758 9.59356C18.5971 9.55274 19.4452 9.57007 20.2698 9.63588C21.0198 9.69573 21.7591 9.79882 22.5252 9.93641C23.6206 7.9845 25.014 6.79192 26.7608 6.28185C28.1499 5.876 29.7183 5.92801 31.4991 6.3952C31.5561 5.88774 31.5656 5.37208 31.5336 4.85791C31.4745 3.9213 31.2785 2.99531 30.9704 2.13569C30.7636 1.55646 31.0636 0.918314 31.6408 0.710633C31.8481 0.636061 32.063 0.627113 32.2629 0.673347L32.2633 0.671297C35.1954 1.34561 37.684 2.36369 39.234 4.00034C40.9029 5.76321 41.4749 8.11854 40.3755 11.3266C40.2055 11.8247 39.7198 12.1241 39.2196 12.0775L39.1747 12.0773V12.0816C38.4232 12.0816 37.6907 12.1691 36.9875 12.3342L40.2195 21.3316C40.426 21.9111 40.1262 22.5492 39.5491 22.7571C38.9722 22.9644 38.3367 22.6631 38.1302 22.0839L34.9001 13.091C33.9687 13.5578 33.1227 14.1724 32.3934 14.9051C30.6639 16.6417 29.5899 19.0419 29.5899 21.7079C29.5899 22.1545 29.6188 22.8827 29.6766 23.5699C29.7194 24.0811 29.7759 24.5572 29.844 24.8479C29.9836 25.4489 29.6111 26.05 29.0125 26.1898C28.8919 26.2181 28.7709 26.2252 28.6538 26.214C24.4993 26.1133 21.2088 25.871 18.0078 25.3477C14.7782 24.8195 11.6497 24.008 7.82979 22.7703C7.24552 22.5818 6.92412 21.9536 7.11148 21.3671C7.2142 21.0447 7.44947 20.8024 7.73732 20.6801L16.0874 16.7394ZM17.6154 23.0162C17.4832 21.4409 17.2418 20.0533 16.8835 18.8272L11.2394 21.4901C13.5035 22.1529 15.5546 22.648 17.6154 23.0162ZM24.8654 10.3781C25.9107 10.6064 26.9021 10.8898 27.8332 11.211C29.1436 11.6627 30.3501 12.192 31.4299 12.7489C32.2388 12.0436 33.1438 11.4474 34.1212 10.9821C33.9903 10.6674 33.8477 10.3654 33.6883 10.0962C33.4288 9.65956 33.1216 9.30777 32.7347 9.15508C30.5395 8.28819 28.7711 8.01694 27.3788 8.42354C26.4081 8.70672 25.5779 9.34804 24.8654 10.3781Z" fill="#AF4300"/>
</svg>
