<svg width="102" height="38" viewBox="0 0 102 38" fill="none" xmlns="http://www.w3.org/2000/svg">
<path d="M73.9931 24.1612C77.6965 24.1612 80.6907 27.1554 80.6907 30.8588C80.6907 34.5622 77.6965 37.5565 73.9931 37.5565C70.2897 37.5565 67.2954 34.5622 67.2954 30.8588C67.2954 27.1554 70.2897 24.1612 73.9931 24.1612ZM73.9931 34.5623C76.0418 34.5623 77.6965 32.9075 77.6965 30.8588C77.6965 28.8101 76.0418 27.1554 73.9931 27.1554C71.9444 27.1554 70.2897 28.8101 70.2897 30.8588C70.2897 32.9075 71.9444 34.5623 73.9931 34.5623ZM3.54949 0.443604H97.0015C98.6562 0.443604 99.9957 1.78313 99.9957 3.43785V18.0151L101.414 19.3546V28.6526C101.414 30.3073 100.075 31.6468 98.4198 31.6468H82.0303C82.0303 31.4104 82.0303 31.174 82.0303 30.9376C82.0303 30.1497 81.9515 29.4405 81.7151 28.7314H97.0015C97.7894 28.7314 98.4986 28.101 98.4986 27.2342V19.0394L97.0015 17.5423V4.93497C97.0015 4.14701 96.3711 3.43785 95.5044 3.43785H5.04661C4.25865 3.43785 3.54949 4.06822 3.54949 4.93497V24.24C3.54949 25.0279 4.17986 25.7371 5.04661 25.7371L24.194 28.6526H24.588C24.3516 29.3617 24.2728 30.0709 24.2728 30.8588C24.2728 31.0952 24.2728 31.3316 24.2728 31.568H24.0364L3.4707 28.5738C1.81598 28.5738 0.47644 27.2342 0.47644 25.5795V3.43785C0.555237 1.78313 1.89478 0.443604 3.54949 0.443604ZM66.1135 28.6526C65.8771 29.3617 65.7983 30.0709 65.7983 30.8588C65.7983 31.0952 65.7983 31.3316 65.7983 31.568H40.5048C40.5048 31.3316 40.5048 31.0952 40.5048 30.8588C40.5048 30.0709 40.426 29.3617 40.1896 28.6526H66.1135ZM32.4676 24.1612C36.171 24.1612 39.1653 27.1554 39.1653 30.8588C39.1653 34.5622 36.171 37.5565 32.4676 37.5565C28.7642 37.5565 25.77 34.5622 25.77 30.8588C25.77 27.1554 28.7642 24.1612 32.4676 24.1612ZM32.4676 34.5623C34.5163 34.5623 36.171 32.9075 36.171 30.8588C36.171 28.8101 34.5163 27.1554 32.4676 27.1554C30.4189 27.1554 28.7642 28.8101 28.7642 30.8588C28.7642 32.9075 30.4189 34.5623 32.4676 34.5623Z" fill="#333333"/>
<path d="M61.3863 15.3349H45.0755V4.93384H61.3863V15.3349ZM59.8892 6.43096H46.5726V13.8378H59.8892V6.43096ZM22.7763 4.93384V15.3349H6.46551V4.93384H22.7763ZM7.96263 13.8378H21.2791V6.43096H7.96263V13.8378ZM94.0078 27.1543H82.1096V4.93384H94.0078V27.1543ZM92.5107 6.43096H83.6067V25.736H92.5107V6.43096ZM79.1942 15.3349H64.3805V4.93384H79.1942V15.3349ZM77.697 6.43096H65.7989V13.8378H77.697V6.43096ZM42.0813 15.3349H25.7705V4.93384H42.0813V15.3349ZM40.5842 6.43096H27.2676V13.8378H40.5842V6.43096Z" fill="#333333"/>
</svg>
