<svg width="55" height="28" viewBox="0 0 55 28" fill="none" xmlns="http://www.w3.org/2000/svg">
<path fill-rule="evenodd" clip-rule="evenodd" d="M41.1821 9.96866C40.4885 8.82463 39.7223 7.77603 39.2278 7.39692C39.1992 7.37583 39.1719 7.35355 39.1456 7.33048C38.4337 6.95847 37.7895 6.71934 37.2569 6.67301C35.4044 6.51135 33.4922 6.42875 31.6305 6.43368L31.1917 12.385C33.3418 12.266 35.4854 12.1232 37.4927 11.9898C39.1382 11.8804 40.691 11.7773 42.1233 11.6966C41.8711 11.1641 41.5418 10.5621 41.1821 9.96866ZM53.5829 19.9394C53.935 20.1109 54.2558 20.4354 54.2558 20.8315V21.8154C54.2558 22.4601 53.8545 23.0509 53.1659 23.1345L50.9247 23.4079C50.9348 23.2869 50.8907 23.1654 50.8907 23.0434V23.0407V23.0383V23.0371V23.0355V23.0332V23.0304V23.0288V23.0276V23.0253V23.0225V23.0202V23.0198V23.0174V23.0146V23.0119V23.0095V23.0067V23.0044V23.0032V23.0016V22.9989V22.9965V22.9947V22.9939V22.9912V22.9888V22.9864V22.986V22.9833V22.9809V22.9782V22.9778V22.9758V22.973V22.9703V22.9695V22.9679V22.9626V22.961V22.9602V22.9575V22.9547V22.9498V22.947V22.9446V22.9443V22.9419V22.9395V22.9368V22.936V22.934V22.9312V22.9289V22.9273V22.9261V22.9237V22.921V22.919V22.9182V22.9159V22.9131V22.9103V22.908V22.9052V22.9025V22.9021V22.9001V22.8973V22.8946V22.8934V22.8922V22.8894V22.8867V22.8849V22.8845V22.8818V22.8794V22.8766V22.8047V22.793L50.8911 22.7865L50.8907 22.7136V22.7075C50.8907 22.6824 50.9407 22.6572 50.9394 22.6318L50.9647 22.6213L50.9741 22.5476L50.98 22.5372L50.9344 22.4725L50.8907 22.4652V22.454V22.3871V22.3826V22.3785L50.9275 22.3124L50.9479 22.3002L50.9582 22.2982L50.9624 22.2862L50.9594 22.2312L50.9596 22.218L50.9594 22.2095L50.9519 22.1413L50.9508 22.1312L50.943 22.0668L50.9394 22.0405L50.9382 22.0321L50.9321 21.9879L50.9317 21.983L50.9279 21.9591L50.9193 21.9022L50.914 21.8704L50.9079 21.832L50.901 21.792L50.8911 21.736L50.8896 21.7291L50.889 21.7249L50.8768 21.6628L50.874 21.6486L50.8717 21.6378L50.8629 21.5942L50.8612 21.5865L50.8538 21.552L50.8534 21.5508L50.844 21.5073L50.8429 21.5027L50.8358 21.4708L50.8341 21.4639L50.8238 21.4209L50.8151 21.385L50.8135 21.3778L50.8027 21.3348L50.7962 21.3086L50.7868 21.2723L50.7712 21.2151L50.7668 21.1989L50.7569 21.1631L50.7445 21.1205L50.7321 21.0777L50.719 21.0353L50.7167 21.0276L50.7058 20.9927L50.6927 20.9503L50.6797 20.9103L50.6789 20.9083L50.665 20.8662L50.6519 20.8277L50.6482 20.8165L50.6235 20.7467L50.6193 20.7355L50.5918 20.6605L50.5888 20.6532L50.5745 20.6156L50.5586 20.574L50.5569 20.5699L50.5422 20.5332L50.5257 20.492L50.5087 20.451L50.4915 20.4098L50.4753 20.3721L50.474 20.369L50.4561 20.3284C50.4383 20.2875 50.42 20.2475 50.4012 20.2073L50.4004 20.2057L50.3659 20.1326C50.014 19.4016 49.5208 18.7293 48.901 18.1491C47.5569 16.8916 45.7458 16.1893 43.8447 16.1893C41.9437 16.1893 40.1324 16.8916 38.7885 18.1491C37.4443 19.4069 36.6939 21.0775 36.6939 22.8565C36.6939 23.1209 36.7107 23.4229 36.7431 23.6197H17.9261C17.9589 23.4229 17.9757 23.1209 17.9757 22.8565C17.9757 21.0777 17.2251 19.3945 15.8811 18.1371C14.537 16.8797 12.7257 16.183 10.8246 16.183C8.92357 16.183 7.11231 16.889 5.76837 18.1462C4.99523 18.8701 4.41854 19.7395 4.06794 20.685L4.05721 20.715L4.03849 20.7674L4.03492 20.7776L4.03239 20.7851L4.02083 20.8181L4.01578 20.833L4.0019 20.8742L3.99853 20.8843L3.98759 20.9172L3.98675 20.9204L3.9775 20.9492L3.96152 20.9996L3.95436 21.0225L3.93691 21.0807L3.92976 21.1053L3.92618 21.1173L3.91651 21.1506L3.95752 21.1522L3.98991 21.1838V21.1842L3.93922 21.2181L3.9102 21.2482L3.89905 21.2514L3.8919 21.2583L3.87423 21.3164L3.86729 21.3391L3.85299 21.3943L3.84668 21.4193L3.80777 21.4773L3.77917 21.487V21.4882L3.80251 21.4962L3.80146 21.5581L3.8023 21.5834L3.79347 21.6415L3.79368 21.648L3.79179 21.6589L3.77917 21.7275V21.7287V21.7291L3.76676 21.7996L3.76297 21.8235L3.75393 21.8781L3.74909 21.9091L3.74068 21.9645L3.74026 21.9686L3.73963 21.9721L3.73816 21.9826L3.72953 22.0445L3.72722 22.0626L3.7186 22.1316L3.71818 22.1356L3.71754 22.1421L3.70955 22.2121L3.70892 22.2174L3.70871 22.2213L3.70177 22.2911L3.74278 22.3089L3.77917 22.3806V22.3826L3.73605 22.3867L3.7554 22.4571L3.77917 22.4652V22.4691L3.7289 22.5435L3.75561 22.5508C3.75414 22.5774 3.77917 22.604 3.77917 22.6308V22.6328C3.77917 22.6566 3.77875 22.6799 3.77812 22.7033L3.77917 22.7138V22.7211V22.7891V22.7968V22.8094L3.56885 22.8802V22.8922V22.8975V22.9044V22.9157V22.9172V22.9295V22.9332V22.9417L3.77917 22.9513V22.9541V22.9667V22.9691V22.9791V22.9868V22.9914V23.0036V23.0048V23.016V23.0225V23.0286V23.0407V23.041V23.0533V23.0582V23.0655V23.0759V23.0779V23.0901V23.0937V23.103V23.1116V23.1152V23.1274V23.1294V23.1471V23.152V23.1767V23.1828L3.73058 23.195L3.75561 23.2254H3.77917V23.2181V23.2262V23.2358V23.2386L3.73227 23.2508L3.71145 23.3001L3.70009 23.3066L3.69462 23.3123L3.69252 23.3243L3.72259 23.3247C3.72932 23.4188 3.77917 23.5126 3.77917 23.6061V23.6065L3.74888 23.6185L3.76318 23.6242L3.77917 23.6421V23.6429L3.75267 23.6674C3.76697 23.7815 3.76991 23.8953 3.79053 24.0082L1.5113 23.7251C0.822502 23.6414 0.414062 23.0505 0.414062 22.4064V21.4221C0.414062 20.9982 0.772026 20.6564 1.16217 20.4961L1.34914 17.4814C1.44252 17.496 1.54137 17.496 1.6398 17.479L3.78485 17.1102C4.2404 17.0323 4.54242 16.623 4.45892 16.1968C4.37542 15.7706 3.93838 15.4885 3.48304 15.5665L1.44757 15.9171L1.47029 15.546C1.49468 15.1311 1.74622 14.7776 2.10587 14.5864C3.51206 13.7307 5.39147 12.9737 7.43052 12.3683C9.49438 11.7556 11.7465 11.2866 13.8478 11.0214C15.4559 9.66013 17.6289 7.97297 19.7441 6.6738C21.4735 5.61139 23.2005 4.79265 24.6409 4.5685L24.7021 4.55904C24.7026 4.50818 24.7082 4.45633 24.7198 4.40468L25.4942 0.872455C25.5769 0.501628 25.8627 0.246721 26.2833 0.246918V0.200195H37.2799C37.7392 0.200195 38.1121 0.566685 38.1211 0.99429L38.3876 4.48058C39.802 4.8518 41.3958 5.77541 42.9902 6.92772C44.6995 8.16341 46.4367 9.67905 47.9275 11.0413C49.9036 11.287 50.6198 11.4916 51.7778 11.8206C51.9071 11.8577 52.0459 11.8975 52.5078 12.0243C53.0693 12.1786 53.4288 12.6676 53.4113 13.1906L53.43 13.9652C53.384 13.9579 53.3367 13.9764 53.2883 13.9764H51.1441C50.6795 13.9764 50.3028 14.3289 50.3028 14.7636C50.3028 15.1983 50.6795 15.5508 51.1441 15.5508H53.2883C53.3499 15.5508 53.4128 15.5222 53.4706 15.5106L53.5829 19.9394ZM29.9445 6.46325C28.2033 6.52042 26.5376 6.66098 25.0452 6.89322C24.002 7.05547 22.5977 7.74271 21.1242 8.6478C19.506 9.6416 17.8474 10.8799 16.4641 12.0014C16.6858 12.0742 16.9222 12.1414 17.1725 12.2033C18.0823 12.4276 19.1484 12.5692 20.3277 12.6149C23.0112 12.7194 26.224 12.6338 29.5016 12.4738L29.9445 6.46325ZM36.6857 4.24282L36.4981 1.77439H27.0281L26.4505 4.3136C27.7867 4.17559 29.2139 4.09496 30.6817 4.06795C32.6518 4.03227 34.6942 4.09398 36.6857 4.24282ZM18.0809 15.5506H20.1841V17.5185H18.0809V15.5506ZM20.1841 17.5185L22.2873 17.5187V19.4866H20.1841V17.5185ZM22.2873 15.5506H24.3904V17.5185L22.2873 17.5187V15.5506ZM24.3904 17.5185L26.4936 17.5187V19.4866H24.3904V17.5185ZM26.4936 15.5506H28.5968V17.5185L26.4936 17.5187V15.5506ZM28.5968 17.5185L30.7 17.5187V19.4866H28.5968V17.5185ZM30.7 15.5506H32.8032V17.5185L30.7 17.5187V15.5506ZM32.8032 17.5185L34.9064 17.5187V19.4866H32.8032V17.5185ZM34.9064 15.5506H37.0096V17.5185L34.9064 17.5187V15.5506Z" fill="#AF4300"/>
<path d="M43.8406 17.96C45.2922 17.96 46.6067 18.5108 47.5584 19.4011C48.5099 20.2918 49.0986 21.5218 49.0986 22.8801C49.0986 24.2384 48.5099 25.4684 47.5584 26.3589C46.6069 27.2492 45.2924 27.8 43.8406 27.8C42.3887 27.8 41.0745 27.2492 40.1226 26.3589C39.1713 25.4682 38.5826 24.2382 38.5826 22.8801C38.5826 21.5216 39.1713 20.2916 40.1226 19.4011C41.0745 18.5108 42.389 17.96 43.8406 17.96ZM10.8205 17.96C12.2723 17.96 13.5868 18.5108 14.5383 19.4011C15.4898 20.2918 16.0785 21.5218 16.0785 22.8801C16.0785 24.2384 15.4898 25.4684 14.5383 26.3589C13.5866 27.2492 12.2721 27.8 10.8205 27.8C9.36886 27.8 8.05415 27.2492 7.10267 26.3589C6.15118 25.4682 5.5625 24.2382 5.5625 22.8801C5.5625 21.5216 6.15097 20.2916 7.10267 19.4011C8.05415 18.5108 9.36865 17.96 10.8205 17.96ZM12.1589 21.6272C11.8165 21.3071 11.3431 21.1087 10.8203 21.1087C10.2974 21.1087 9.82399 21.3071 9.48159 21.6272C9.13919 21.9478 8.9274 22.3906 8.9274 22.8801C8.9274 23.3694 9.13919 23.8122 9.48159 24.1327C9.82399 24.4529 10.2974 24.6514 10.8203 24.6514C11.3431 24.6514 11.8163 24.4529 12.1589 24.1327C12.5013 23.8122 12.7131 23.3694 12.7131 22.8801C12.7134 22.3908 12.5013 21.948 12.1589 21.6272ZM45.1791 21.6272C44.8367 21.3071 44.3634 21.1087 43.8406 21.1087C43.3177 21.1087 42.8445 21.3071 42.5019 21.6272C42.1597 21.9478 41.9477 22.3906 41.9477 22.8801C41.9477 23.3694 42.1597 23.8122 42.5019 24.1327C42.8445 24.4529 43.3177 24.6514 43.8406 24.6514C44.3634 24.6514 44.8367 24.4529 45.1791 24.1327C45.5215 23.8122 45.7335 23.3694 45.7335 22.8801C45.7335 22.3908 45.5215 21.948 45.1791 21.6272Z" fill="#AF4300"/>
</svg>
