<svg width="51" height="26" viewBox="0 0 51 26" fill="none" xmlns="http://www.w3.org/2000/svg">
<path fill-rule="evenodd" clip-rule="evenodd" d="M22.5142 1.70043C27.9758 0.38282 39.2905 0.352877 45.1275 1.48243C47.0747 1.85914 48.4974 2.36266 48.9723 4.6382C49.2588 6.00983 49.4673 8.10103 49.6168 10.3376H47.8037C47.3714 10.3376 47.0209 10.6905 47.0209 11.1255C47.0209 11.5607 47.3714 11.9134 47.8037 11.9134H49.7119C49.8183 13.8791 49.8841 15.8537 49.9207 17.4656C50.244 17.6384 50.4825 17.9609 50.5334 18.3543V19.339C50.617 19.9842 50.1651 20.5754 49.5244 20.6596L47.4896 20.9327C47.5033 20.7578 47.5101 20.5817 47.5101 20.4046C47.5101 18.6241 46.8119 16.9277 45.5612 15.6689C44.3107 14.4102 42.6254 13.7073 40.8565 13.7073C39.0876 13.7073 37.4025 14.4104 36.1518 15.6689C34.9011 16.9278 34.2029 18.6243 34.2029 20.4046C34.2029 20.6695 34.2185 20.9461 34.2488 21.2061L16.74 21.2055C16.7702 20.9455 16.7858 20.6695 16.7858 20.4046C16.7858 18.6241 16.0876 16.9277 14.8369 15.6689C13.5862 14.4102 11.9011 13.7073 10.1322 13.7073C8.3633 13.7073 6.67797 14.4104 5.42748 15.6689C4.17699 16.9278 3.47856 18.6243 3.47856 20.4046C3.47856 20.786 3.51085 21.1637 3.57327 21.5337L1.46427 21.2506C0.823563 21.1664 0.371703 20.5754 0.455265 19.9304V18.9453C0.511038 18.5155 0.790294 18.1703 1.16035 18.0124L1.28658 16.048C1.31671 15.5787 1.38149 15.1349 1.47816 14.7155L1.49812 14.712L3.49343 14.3427C3.91711 14.2644 4.19793 13.855 4.12024 13.4286C4.04255 13.002 3.63589 12.7196 3.21202 12.7977L2.11104 13.0014C2.55644 12.1595 3.16192 11.449 3.88775 10.8533C5.46466 9.55856 7.58561 8.85426 9.82279 8.53488C12.632 6.22099 19.3144 2.47245 22.5142 1.70043ZM27.5929 3.30728L27.404 9.67207C30.8115 9.53528 34.2586 9.39907 37.5991 9.25993L36.7099 3.16208C36.705 3.12803 36.7023 3.09398 36.7015 3.06032C33.6279 2.97284 30.3819 3.05269 27.5929 3.30728ZM25.8412 9.73508L26.0267 3.4748C24.912 3.61374 23.9048 3.78537 23.0553 3.99026C20.9917 4.48811 16.6183 6.77872 14.0586 8.38968C14.1508 9.55817 15.3504 10.1834 16.5304 10.1296C19.497 9.99536 22.6414 9.86463 25.8412 9.73508ZM38.2841 3.12098L39.1696 9.19398C40.6289 9.13214 42.0626 9.06952 43.4584 9.00592C45.326 8.9206 46.9721 7.90064 46.8195 6.02255C46.7716 5.43155 46.6412 4.52196 46.2035 4.24192C45.8966 4.04545 45.3606 3.93057 44.6868 3.80004C42.9651 3.46678 40.7181 3.23899 38.2841 3.12098Z" fill="#AF4300"/>
<path d="M10.1346 15.4805C11.4854 15.4805 12.7083 16.0313 13.5941 16.9227C14.4792 17.8139 15.0269 19.0451 15.0269 20.4047C15.0269 21.7644 14.4792 22.9955 13.5941 23.8869C12.7083 24.7781 11.4852 25.3292 10.1346 25.3292C8.78387 25.3292 7.56059 24.7781 6.67526 23.8869C5.78994 22.9955 5.24219 21.7644 5.24219 20.4047C5.24219 19.0451 5.78974 17.8139 6.67526 16.9227C7.56059 16.0313 8.78368 15.4805 10.1346 15.4805ZM11.38 19.1511C11.0614 18.8304 10.6209 18.6319 10.1344 18.6319C9.64787 18.6319 9.20755 18.8306 8.88877 19.1511C8.57018 19.4719 8.37311 19.9151 8.37311 20.4047C8.37311 20.8946 8.57018 21.338 8.88877 21.6586C9.20736 21.9793 9.64787 22.1773 10.1344 22.1773C10.6209 22.1773 11.0614 21.9791 11.38 21.6586C11.6986 21.3378 11.8956 20.8946 11.8956 20.4047C11.8958 19.9151 11.6986 19.4717 11.38 19.1511Z" fill="#AF4300"/>
<path d="M40.8611 15.4805C42.2118 15.4805 43.4349 16.0313 44.3206 16.9227C45.2057 17.8139 45.7535 19.0451 45.7535 20.4047C45.7535 21.7644 45.2057 22.9955 44.3206 23.8869C43.4351 24.7781 42.212 25.3292 40.8611 25.3292C39.5102 25.3292 38.2873 24.7781 37.4018 23.8869C36.5165 22.9955 35.9688 21.7644 35.9688 20.4047C35.9688 19.0451 36.5165 17.8139 37.4018 16.9227C38.2873 16.0313 39.5104 15.4805 40.8611 15.4805ZM42.1067 19.1511C41.7879 18.8304 41.3476 18.6319 40.8611 18.6319C40.3746 18.6319 39.9343 18.8306 39.6157 19.1511C39.2971 19.4719 39.0999 19.9151 39.0999 20.4047C39.0999 20.8946 39.2971 21.338 39.6157 21.6586C39.9343 21.9793 40.3746 22.1773 40.8611 22.1773C41.3476 22.1773 41.7879 21.9791 42.1067 21.6586C42.4251 21.3378 42.6224 20.8946 42.6224 20.4047C42.6224 19.9151 42.4251 19.4717 42.1067 19.1511Z" fill="#AF4300"/>
</svg>
