<svg width="82" height="36" viewBox="0 0 82 36" fill="none" xmlns="http://www.w3.org/2000/svg">
<path d="M22.7441 1.24707C27.2954 1.09571 32.1072 1.09209 36.3809 1.33691C40.6684 1.58254 44.3673 2.07646 46.7207 2.90039C47.805 3.28036 49.9921 4.5185 52.4268 6.24121C54.8497 7.95569 57.4643 10.1124 59.4111 12.2939L59.54 12.4375L59.7314 12.458H59.7324C59.7335 12.4581 59.7351 12.4587 59.7373 12.459C59.7416 12.4595 59.7482 12.46 59.7568 12.4609C59.7745 12.4629 59.8012 12.4658 59.8359 12.4697C59.9056 12.4775 60.0091 12.4894 60.1426 12.5049C60.4096 12.5359 60.7982 12.5824 61.2822 12.6436C62.2504 12.766 63.6008 12.9472 65.1289 13.1846C68.1927 13.6606 71.9455 14.3562 74.7676 15.2383C77.4813 16.0866 78.9534 17.7108 79.7832 19.4727C80.6236 21.2572 80.813 23.2006 80.9053 24.6826C81.0667 27.2751 78.8528 29.0447 76.2891 29.6309L9.0918 28.4932H9.08301C7.57461 28.4932 5.94816 28.5211 4.53125 28.2295C3.12378 27.9398 2.03279 27.3565 1.47461 26.2158C1.19323 25.6408 1.08151 25.1612 1.11523 23.7666C1.14958 22.3473 1.33036 20.0759 1.59082 15.9375C1.68065 14.509 1.81129 13.6984 2.06836 13.0508C2.32294 12.4097 2.71613 11.8904 3.42578 11.0645C5.17617 9.02714 6.93025 6.98558 8.68066 4.94824L9.19238 4.35254L8.43652 4.14062H8.43457C8.43363 4.14036 8.43246 4.13917 8.43066 4.13867C8.42668 4.13756 8.41986 4.13596 8.41211 4.13379C8.39662 4.12946 8.37375 4.12335 8.34473 4.11523C8.28613 4.09886 8.20135 4.07486 8.09766 4.0459C7.89014 3.98794 7.60558 3.90895 7.29785 3.82324L5.59668 3.35254C5.45581 3.31439 5.36712 3.21928 5.33008 3.12305C5.29863 3.04134 5.31155 2.98654 5.32812 2.95605C5.33721 2.95104 5.35028 2.94327 5.36914 2.93457C5.43339 2.90495 5.53021 2.86871 5.66504 2.82812C5.93406 2.74717 6.31264 2.66074 6.79492 2.57129C7.75687 2.39288 9.08947 2.21151 10.6973 2.04004C13.9106 1.69733 18.1932 1.39843 22.7441 1.24707Z" stroke="black"/>
<path d="M76.3782 18.5241C76.0536 18.489 75.6574 18.4865 75.4806 18.761C75.3026 19.0393 75.4781 19.4016 75.6511 19.6837C76.1263 20.4521 76.6014 21.2206 77.0753 21.9904C77.3373 22.4141 77.6068 22.8466 77.9954 23.1562C78.6874 23.7066 79.6414 23.7818 80.5253 23.7316C80.7935 23.7166 81.0643 23.6915 81.3338 23.6702C81.1985 22.2336 80.9013 20.5086 80.0727 18.9227C78.8404 18.7898 77.6081 18.6569 76.377 18.5253L76.3782 18.5241Z" fill="#FFC466"/>
<path d="M0.596578 23.9419C0.577773 24.8056 0.645471 25.6681 1.02156 26.4354C1.64211 27.7028 3.01232 28.47 4.4001 28.7233C5.78912 28.9765 7.20197 28.9928 9.07866 28.9928L76.3423 30.1323C78.2103 29.7174 80.0193 28.6656 80.883 27.0584C54.1205 26.0192 27.3591 24.9812 0.596578 23.9419Z" fill="#726A5E"/>
<path d="M20.5183 24.9101C19.3111 22.028 16.1707 20.0786 13.0517 20.2754C9.93267 20.4722 7.06184 22.8002 6.22567 25.8114C5.3895 28.8226 6.64815 32.2977 9.21935 34.0741C11.7905 35.8505 15.4863 35.8004 18.0073 33.9538C20.5284 32.1072 22.1769 28.6923 20.5183 24.9113V24.9101Z" fill="#514A42"/>
<path d="M16.9401 26.4098C16.3547 25.0133 14.834 24.0693 13.3221 24.1646C11.8115 24.2598 10.42 25.3881 10.0151 26.8461C9.61014 28.3053 10.2194 29.9889 11.4655 30.8489C12.7104 31.7102 14.5018 31.6851 15.7229 30.79C16.9439 29.8949 17.7425 28.2414 16.9389 26.4086L16.9401 26.4098Z" fill="#91A6A8"/>
<path d="M17.4844 26.0933C16.7636 24.4962 15.006 23.3917 13.2384 23.5446C11.5284 23.6926 10.0103 24.8823 9.46493 26.512C8.9359 28.0941 9.49251 29.9946 10.7499 31.079C12.1302 32.2699 14.2488 32.4392 15.8071 31.4877C17.6085 30.3882 18.3432 28.1931 17.5484 26.2425C17.2475 25.5053 16.034 25.8275 16.3399 26.5759C16.9867 28.1605 16.3925 29.9683 14.7339 30.6314C13.0754 31.2946 11.2677 30.4697 10.7035 28.8224C10.1808 27.2968 10.9154 25.6746 12.3934 25.029C13.9743 24.3382 15.7218 25.217 16.4038 26.7264C16.7347 27.461 17.8154 26.8242 17.4857 26.0933H17.4844Z" fill="black"/>
<path d="M73.9558 24.9101C72.7486 22.028 69.6082 20.0786 66.4892 20.2754C63.3702 20.4722 60.4993 22.8002 59.6632 25.8114C58.827 28.8226 60.0856 32.2977 62.6568 34.0741C65.228 35.8505 68.9238 35.8004 71.4448 33.9538C73.9659 32.1072 75.6144 28.6923 73.9558 24.9113V24.9101Z" fill="#514A42"/>
<path d="M70.3854 26.4098C69.8 25.0133 68.2793 24.0693 66.7675 24.1646C65.2568 24.2598 63.8653 25.3881 63.4604 26.8461C63.0554 28.3053 63.6647 29.9889 64.9108 30.8489C66.1557 31.7102 67.9471 31.6851 69.1682 30.79C70.3892 29.8949 71.1878 28.2414 70.3842 26.4086L70.3854 26.4098Z" fill="#91A6A8"/>
<path d="M70.9219 26.0933C70.2011 24.4962 68.4435 23.3917 66.6759 23.5446C64.9082 23.6976 63.4478 24.8823 62.9024 26.512C62.3734 28.0941 62.93 29.9946 64.1874 31.079C65.5677 32.2699 67.6863 32.4392 69.2446 31.4877C71.046 30.3882 71.7807 28.1931 70.9859 26.2425C70.685 25.5053 69.4715 25.8275 69.7774 26.5759C70.4242 28.1605 69.83 29.9683 68.1714 30.6314C66.5129 31.2946 64.7051 30.4697 64.141 28.8224C63.6182 27.2968 64.3529 25.6746 65.8309 25.029C67.4118 24.3382 69.1593 25.217 69.8413 26.7264C70.1722 27.461 71.2529 26.8242 70.9232 26.0933H70.9219Z" fill="black"/>
<path d="M33.3275 3.44263C28.5938 3.33607 23.7084 3.27464 19.0612 3.2759C16.4536 3.2759 16.1415 3.76607 15.2928 6.83245C14.7111 8.93354 15.2677 9.59421 16.9914 9.9866C28.0247 12.4964 39.3876 13.31 50.7029 13.2874C51.2921 13.2874 52.0693 13.3426 52.5131 13.0856C53.1738 12.702 53.9097 12.0751 54.2557 11.6777C54.4901 11.4095 53.9423 10.7814 53.7743 10.5833C49.0719 5.02095 42.9053 3.85884 33.325 3.44263H33.3275Z" fill="#A1A1A1"/>
<path d="M33.3427 2.81554C29.6219 2.7328 25.8998 2.67639 22.1778 2.65633C20.701 2.64881 19.1515 2.51342 17.686 2.73281C16.8762 2.85441 16.1904 3.2142 15.7291 3.9062C15.1336 4.79879 14.844 5.99977 14.6096 7.03151C14.389 8.00433 14.3363 9.1163 15.1437 9.83839C16.109 10.7009 17.7713 10.8049 18.971 11.0532C20.79 11.4305 22.6178 11.7627 24.4519 12.0548C31.6941 13.2082 39.0229 13.7447 46.3516 13.8776C48.1117 13.9102 49.9194 14.023 51.677 13.9077C52.4104 13.8588 52.9307 13.6093 53.5124 13.1768C53.9674 12.8396 54.7572 12.3406 54.9227 11.7514C55.0744 11.2136 54.6845 10.6921 54.3699 10.3022C53.99 9.83087 53.575 9.38333 53.1463 8.95584C52.3176 8.12969 51.405 7.38378 50.4297 6.73816C45.4578 3.44361 39.1181 3.06878 33.3401 2.81429C32.5341 2.77919 32.5353 4.03282 33.3401 4.06792C38.1478 4.27979 43.2978 4.54305 47.7181 6.6479C49.5998 7.54425 51.2771 8.77657 52.7013 10.2985C52.8855 10.4953 53.0648 10.6959 53.2403 10.9002C53.3532 11.0319 53.5086 11.3214 53.6402 11.4192C53.8408 11.5684 53.6064 11.4769 53.733 11.3365C53.6202 11.4618 53.4935 11.5759 53.3682 11.6888C53.0623 11.9633 52.7351 12.2366 52.3778 12.4422C51.8388 12.7506 51.1981 12.6603 50.5964 12.6591C49.7477 12.6591 48.899 12.6566 48.0503 12.6478C41.3421 12.5801 34.6276 12.1977 27.9759 11.3127C24.67 10.8726 21.3792 10.3035 18.1198 9.59143C17.4253 9.43974 15.9711 9.36578 15.7429 8.4945C15.6263 8.04821 15.7742 7.51917 15.8871 7.09043C16.0337 6.53006 16.1942 5.96969 16.3885 5.42436C16.6367 4.72984 16.9401 4.16821 17.6973 3.99772C18.2213 3.87988 18.778 3.90119 19.312 3.90119C20.187 3.90119 21.0621 3.9037 21.9371 3.90746C25.7394 3.92626 29.5404 3.98268 33.3414 4.06792C34.1487 4.08547 34.1487 2.83184 33.3414 2.81429L33.3427 2.81554Z" fill="black"/>
<path d="M37.1978 16.0165C37.9124 16.0466 38.6282 16.0767 39.3428 16.1068C40.1489 16.1406 40.1476 14.887 39.3428 14.8531C38.6282 14.8231 37.9124 14.793 37.1978 14.7629C36.3918 14.729 36.393 15.9827 37.1978 16.0165Z" fill="black"/>
<path d="M17.0832 12.8272C17.6649 12.9902 18.2454 13.1532 18.827 13.3149C19.6056 13.533 19.9378 12.3233 19.1605 12.1064C18.5788 11.9434 17.9984 11.7804 17.4167 11.6187C16.6382 11.4006 16.306 12.6103 17.0832 12.8272Z" fill="black"/>
<path d="M14.6193 11.0419C14.1969 13.4025 14.1906 15.8019 14.5943 18.1663C14.7296 18.9598 15.9381 18.6239 15.8028 17.8328C15.4392 15.7054 15.448 13.499 15.8278 11.3754C15.9695 10.5868 14.761 10.2483 14.6193 11.0419Z" fill="black"/>
<path d="M34.4796 14.6052C34.7579 17.6829 34.7855 20.7731 34.5636 23.8558C34.5059 24.6606 35.7596 24.6568 35.8172 23.8558C36.0391 20.7731 36.0103 17.6829 35.7332 14.6052C35.6618 13.8079 34.4069 13.8004 34.4796 14.6052Z" fill="black"/>
<path d="M56.0183 13.725C57.3948 16.1207 57.9577 18.8486 57.6756 21.5941C57.5929 22.3964 58.8478 22.3902 58.9293 21.5941C59.2326 18.6405 58.5795 15.6632 57.1002 13.092C56.6978 12.3924 55.6147 13.023 56.0183 13.725Z" fill="black"/>
<path d="M32.2046 3.71104C32.6823 6.51542 33.0383 9.33609 33.2765 12.1706C33.3429 12.9691 34.5978 12.9754 34.5301 12.1706C34.2844 9.22452 33.9108 6.29102 33.4144 3.37757C33.279 2.58402 32.0705 2.92 32.2059 3.71104H32.2046Z" fill="black"/>
<path d="M9.72643 4.86103C9.32903 4.7131 8.77492 4.65167 8.30481 4.62158C6.55348 6.65999 4.80091 8.69965 3.04958 10.7381C2.67976 11.1681 2.30868 11.6031 2.00781 12.0832C2.57195 12.2412 3.09596 12.3778 3.54978 12.4819C5.91288 13.0234 6.65002 12.3189 7.54887 10.9838C8.44522 9.65115 9.31649 8.30099 10.1614 6.93453C10.7093 6.04821 10.772 5.2509 9.72518 4.86228L9.72643 4.86103Z" fill="#A1A1A1"/>
<path d="M2.55684 12.8825C3.72523 13.1847 5.03527 13.5319 6.20867 13.0656C7.24167 12.6556 7.83464 11.6841 8.42259 10.799C8.91276 10.0631 9.39416 9.32348 9.86803 8.57757C10.2755 7.93696 10.7757 7.28758 11.0327 6.568C11.5203 5.2053 10.5375 4.34155 9.27131 4.10336C8.48277 3.95543 8.14429 5.16267 8.93784 5.31186C9.29011 5.3783 9.91943 5.446 9.91818 5.90608C9.91692 6.36616 9.45809 6.87514 9.23495 7.22992C8.53166 8.35317 7.81082 9.4664 7.07117 10.5658C6.7164 11.0936 6.32903 11.6903 5.70346 11.9198C4.81338 12.247 3.75782 11.8972 2.8878 11.6728C2.10679 11.471 1.77333 12.6795 2.55434 12.8813L2.55684 12.8825Z" fill="black"/>
<path d="M4.92327 18.0751C4.97718 17.6765 5.03108 17.2728 4.98094 16.8742C4.93079 16.4755 4.76406 16.0756 4.44815 15.8274C4.09587 15.5503 3.62325 15.5002 3.17696 15.4613L1.13479 15.2795C1.1185 15.4889 1.1047 15.697 1.09217 15.9051C1.02196 17.0121 0.953016 18.119 0.882812 19.226C1.75033 19.2749 2.61784 19.32 3.4866 19.3576C3.81631 19.3714 4.17235 19.3777 4.44188 19.1884C4.78287 18.9489 4.86811 18.4876 4.92327 18.0739V18.0751Z" fill="#FF7373"/>
</svg>
