<svg width="19" height="12" viewBox="0 0 19 12" fill="none" xmlns="http://www.w3.org/2000/svg">
<path d="M0.5 12V9.91875C0.5 9.49375 0.60625 9.1 0.81875 8.7375C1.03125 8.375 1.325 8.1 1.7 7.9125C1.875 7.825 2.04375 7.74375 2.20625 7.66875C2.38125 7.59375 2.5625 7.525 2.75 7.4625V12H0.5ZM3.5 6.75C2.875 6.75 2.34375 6.53125 1.90625 6.09375C1.46875 5.65625 1.25 5.125 1.25 4.5C1.25 3.875 1.46875 3.34375 1.90625 2.90625C2.34375 2.46875 2.875 2.25 3.5 2.25C4.125 2.25 4.65625 2.46875 5.09375 2.90625C5.53125 3.34375 5.75 3.875 5.75 4.5C5.75 5.125 5.53125 5.65625 5.09375 6.09375C4.65625 6.53125 4.125 6.75 3.5 6.75ZM3.5 5.25C3.7125 5.25 3.8875 5.18125 4.025 5.04375C4.175 4.89375 4.25 4.7125 4.25 4.5C4.25 4.2875 4.175 4.1125 4.025 3.975C3.8875 3.825 3.7125 3.75 3.5 3.75C3.2875 3.75 3.10625 3.825 2.95625 3.975C2.81875 4.1125 2.75 4.2875 2.75 4.5C2.75 4.7125 2.81875 4.89375 2.95625 5.04375C3.10625 5.18125 3.2875 5.25 3.5 5.25ZM3.5 12V9.9C3.5 9.475 3.60625 9.0875 3.81875 8.7375C4.04375 8.375 4.3375 8.1 4.7 7.9125C5.475 7.525 6.2625 7.2375 7.0625 7.05C7.8625 6.85 8.675 6.75 9.5 6.75C10.325 6.75 11.1375 6.85 11.9375 7.05C12.7375 7.2375 13.525 7.525 14.3 7.9125C14.6625 8.1 14.95 8.375 15.1625 8.7375C15.3875 9.0875 15.5 9.475 15.5 9.9V12H3.5ZM5 10.5H14V9.9C14 9.7625 13.9625 9.6375 13.8875 9.525C13.825 9.4125 13.7375 9.325 13.625 9.2625C12.95 8.925 12.2688 8.675 11.5813 8.5125C10.8938 8.3375 10.2 8.25 9.5 8.25C8.8 8.25 8.10625 8.3375 7.41875 8.5125C6.73125 8.675 6.05 8.925 5.375 9.2625C5.2625 9.325 5.16875 9.4125 5.09375 9.525C5.03125 9.6375 5 9.7625 5 9.9V10.5ZM9.5 6C8.675 6 7.96875 5.70625 7.38125 5.11875C6.79375 4.53125 6.5 3.825 6.5 3C6.5 2.175 6.79375 1.46875 7.38125 0.881251C7.96875 0.29375 8.675 0 9.5 0C10.325 0 11.0312 0.29375 11.6188 0.881251C12.2063 1.46875 12.5 2.175 12.5 3C12.5 3.825 12.2063 4.53125 11.6188 5.11875C11.0312 5.70625 10.325 6 9.5 6ZM9.5 4.5C9.9125 4.5 10.2625 4.35625 10.55 4.06875C10.85 3.76875 11 3.4125 11 3C11 2.5875 10.85 2.2375 10.55 1.95C10.2625 1.65 9.9125 1.5 9.5 1.5C9.0875 1.5 8.73125 1.65 8.43125 1.95C8.14375 2.2375 8 2.5875 8 3C8 3.4125 8.14375 3.76875 8.43125 4.06875C8.73125 4.35625 9.0875 4.5 9.5 4.5ZM15.5 6.75C14.875 6.75 14.3438 6.53125 13.9062 6.09375C13.4688 5.65625 13.25 5.125 13.25 4.5C13.25 3.875 13.4688 3.34375 13.9062 2.90625C14.3438 2.46875 14.875 2.25 15.5 2.25C16.125 2.25 16.6562 2.46875 17.0938 2.90625C17.5313 3.34375 17.75 3.875 17.75 4.5C17.75 5.125 17.5313 5.65625 17.0938 6.09375C16.6562 6.53125 16.125 6.75 15.5 6.75ZM15.5 5.25C15.7125 5.25 15.8875 5.18125 16.025 5.04375C16.175 4.89375 16.25 4.7125 16.25 4.5C16.25 4.2875 16.175 4.1125 16.025 3.975C15.8875 3.825 15.7125 3.75 15.5 3.75C15.2875 3.75 15.1063 3.825 14.9563 3.975C14.8188 4.1125 14.75 4.2875 14.75 4.5C14.75 4.7125 14.8188 4.89375 14.9563 5.04375C15.1063 5.18125 15.2875 5.25 15.5 5.25ZM16.25 12V7.4625C16.4375 7.525 16.6125 7.59375 16.775 7.66875C16.95 7.74375 17.125 7.825 17.3 7.9125C17.675 8.1 17.9688 8.375 18.1813 8.7375C18.3937 9.1 18.5 9.49375 18.5 9.91875V12H16.25Z" fill="url(#paint0_linear_4876_1272)"/>
<defs>
<linearGradient id="paint0_linear_4876_1272" x1="0.5" y1="6" x2="18.5" y2="6" gradientUnits="userSpaceOnUse">
<stop stop-color="#216432"/>
<stop offset="0.894231" stop-color="#114422"/>
</linearGradient>
</defs>
</svg>
