<svg width="100" height="36" viewBox="0 0 100 36" fill="none" xmlns="http://www.w3.org/2000/svg">
<path d="M41.6553 1.33984C44.7952 1.10478 47.7871 1.07262 50.3955 1.27539C53.011 1.47874 55.209 1.91656 56.7812 2.60254C59.352 3.72433 62.9336 5.74225 65.8877 7.49121C67.361 8.3635 68.6722 9.16542 69.6152 9.74902C70.0867 10.0408 70.4663 10.2782 70.7275 10.4424C70.8581 10.5244 70.959 10.5886 71.0273 10.6318C71.0615 10.6534 71.0881 10.6696 71.1055 10.6807C71.114 10.6861 71.1207 10.6906 71.125 10.6934C71.127 10.6946 71.1289 10.6956 71.1299 10.6963L71.1309 10.6973L71.2578 10.7783L71.4082 10.7754C75.4457 10.7046 81.4102 11.0956 86.6523 11.9922C89.2741 12.4406 91.6974 13.0132 93.6016 13.709C94.5534 14.0568 95.3627 14.4307 95.998 14.8281C96.6376 15.2282 97.0706 15.6332 97.3086 16.0293C98.4163 17.8738 99.0039 21.228 99.0039 24.208C99.0039 25.6885 98.858 27.0307 98.5811 28.0059C98.442 28.4952 98.278 28.8641 98.1035 29.1084C97.9298 29.3516 97.7808 29.426 97.6719 29.4404C95.3676 29.7461 87.4188 29.7673 79.4775 29.4365C71.5386 29.1059 19.1746 28.8024 13.627 28.7021C10.8494 28.6515 8.08203 28.2677 5.30762 27.8203L4.11816 27.626C2.77395 27.4036 2.03093 27.0999 1.59863 26.5566C1.16072 26.006 0.946837 25.0904 1.01074 23.377C1.07607 21.6199 1.1423 19.8626 1.20801 18.1055C1.27371 16.3484 1.33897 14.5911 1.4043 12.834C1.47943 10.8172 1.87023 9.97361 2.44336 9.55859C2.74151 9.34285 3.13816 9.20474 3.68652 9.12109C4.23804 9.03699 4.89955 9.01366 5.70898 8.99707C12.6935 8.85242 17.3201 6.7553 23.0391 4.88574L23.0381 4.88477C28.535 3.08786 35.3734 1.81012 41.6553 1.33984Z" stroke="black"/>
<path d="M8.06076 12.7986C5.68181 12.659 3.30286 12.5193 0.92241 12.3811C0.913399 12.5208 0.905891 12.665 0.899883 12.8166C0.847318 14.2299 0.794753 15.6416 0.742188 17.0549C1.62528 17.1976 2.5294 17.3057 3.37045 17.2396C4.72813 17.1345 5.88907 16.355 8.60594 14.727C9.98615 13.8995 9.67376 12.8932 8.06076 12.7986Z" fill="#ED4C4C"/>
<path d="M26.2743 22.8234C24.828 19.3706 21.0658 17.0352 17.3292 17.271C13.5925 17.5068 10.1533 20.2957 9.15154 23.9032C8.1498 27.5107 9.65767 31.6739 12.738 33.802C15.8183 35.9301 20.2458 35.8701 23.266 33.6578C26.2863 31.4456 28.2612 27.3545 26.2743 22.8249V22.8234Z" fill="#514A42"/>
<path d="M21.9922 24.6182C21.2909 22.9451 19.4691 21.8142 17.6579 21.9283C15.8481 22.0425 14.1811 23.3941 13.6959 25.1408C13.2108 26.889 13.9408 28.906 15.4336 29.9363C16.925 30.968 19.0711 30.938 20.5339 29.8657C21.9967 28.7933 22.9534 26.8124 21.9907 24.6167L21.9922 24.6182Z" fill="#91A6A8"/>
<path d="M22.6352 24.2396C21.7717 22.3263 19.6661 21.0031 17.5484 21.1864C15.4999 21.3636 13.6811 22.7888 13.0278 24.7413C12.3941 26.6366 13.0609 28.9134 14.5672 30.2125C16.2208 31.6393 18.7589 31.8421 20.6258 30.7022C22.7839 29.385 23.664 26.7553 22.7118 24.4184C22.3514 23.5353 20.8976 23.9213 21.264 24.8179C22.039 26.7162 21.3271 28.8819 19.3402 29.6764C17.3532 30.4709 15.1875 29.4826 14.5117 27.5092C13.8854 25.6814 14.7655 23.738 16.5362 22.9646C18.43 22.137 20.5236 23.1898 21.3406 24.9981C21.7371 25.8782 23.0317 25.1152 22.6368 24.2396H22.6352Z" fill="black"/>
<path d="M90.2977 22.8234C88.8514 19.3706 85.0893 17.0352 81.3526 17.271C77.616 17.5068 74.1767 20.2957 73.175 23.9032C72.1732 27.5107 73.6811 31.6739 76.7614 33.802C79.8417 35.9301 84.2692 35.8701 87.2895 33.6578C90.3097 31.4456 92.2847 27.3545 90.2977 22.8249V22.8234Z" fill="#514A42"/>
<path d="M86.0157 24.6182C85.3143 22.9451 83.4925 21.8142 81.6813 21.9283C79.8716 22.0425 78.2045 23.3941 77.7194 25.1408C77.2343 26.889 77.9642 28.906 79.457 29.9363C80.9484 30.968 83.0946 30.938 84.5574 29.8657C86.0202 28.7933 86.9769 26.8124 86.0142 24.6167L86.0157 24.6182Z" fill="#91A6A8"/>
<path d="M86.6592 24.2396C85.7956 22.3263 83.69 21.0031 81.5724 21.1864C79.4547 21.3696 77.7051 22.7888 77.0518 24.7413C76.3985 26.6937 77.0848 28.9134 78.5912 30.2125C80.2447 31.6393 82.7829 31.8421 84.6497 30.7022C86.8079 29.385 87.6879 26.7553 86.7358 24.4184C86.3753 23.5353 84.9215 23.9213 85.288 24.8179C86.0629 26.7162 85.351 28.8819 83.3641 29.6764C81.3771 30.4709 79.2114 29.4826 78.5356 27.5092C77.9093 25.6814 78.7894 23.738 80.5601 22.9646C82.454 22.137 84.5476 23.1898 85.3646 24.9981C85.7611 25.8782 87.0557 25.1152 86.6607 24.2396H86.6592Z" fill="black"/>
<path d="M31.8351 4.75007C29.7895 5.09399 27.7755 5.57759 25.8501 6.35105C24.1891 7.01787 22.504 8.10523 21.2034 9.71973C20.915 10.0772 21.1208 10.6118 21.5758 10.6809C36.0177 12.8841 53.6902 13.4443 67.3646 12.5853C67.9293 12.5492 68.1276 11.8163 67.6575 11.5009C59.9785 6.34354 54.5087 4.06071 49.4189 3.34282C43.904 2.56486 38.3622 3.6507 31.8351 4.74856V4.75007Z" fill="#D9D9D9"/>
<path d="M31.6346 4.02622C28.1143 4.62997 24.4002 5.58366 21.7118 8.07525C21.2162 8.53482 20.4983 9.12054 20.3496 9.8114C20.2085 10.4677 20.5899 11.1315 21.2147 11.3583C21.889 11.6031 22.7526 11.6106 23.463 11.7098C24.3236 11.8299 25.1841 11.9425 26.0447 12.0507C33.3122 12.9578 40.6338 13.4459 47.9554 13.6366C51.5974 13.7313 55.2424 13.7478 58.8859 13.6772C60.6131 13.6441 62.3387 13.5901 64.0643 13.5135C64.8543 13.4789 65.6443 13.4384 66.4343 13.3933C67.1071 13.3543 67.8836 13.4294 68.3537 12.8512C69.5371 11.3959 67.2963 10.3536 66.3382 9.73781C64.8078 8.75259 63.2488 7.81092 61.6508 6.94134C59.1337 5.57165 56.5025 4.36565 53.7526 3.53812C46.4355 1.33339 38.9862 2.78719 31.6346 4.02622C30.684 4.18692 31.0865 5.63472 32.0341 5.47402C38.1617 4.44224 44.5071 3.08606 50.7083 4.3221C55.8642 5.34937 60.5875 7.8725 64.991 10.6585C65.6578 11.0805 66.3892 11.7067 67.1011 11.9666L67.1732 11.9485C67.1522 11.8089 67.0606 11.7803 66.8999 11.8629C66.7662 11.8449 66.5604 11.8825 66.4343 11.89C66.0423 11.9125 65.6503 11.9335 65.2583 11.9531C63.761 12.0297 62.2636 12.0867 60.7648 12.1288C57.6439 12.2174 54.52 12.2369 51.3976 12.1994C44.8285 12.1198 38.2578 11.7893 31.7172 11.1676C29.951 10.9994 28.1879 10.8101 26.4277 10.5939C25.5311 10.4842 24.6345 10.3671 23.7408 10.2424C23.3293 10.1854 22.9178 10.1253 22.5078 10.0652C22.3696 10.0442 22.1654 9.98862 22.0182 9.99162C21.7389 9.90902 21.6998 9.92854 21.8981 10.0487L22.0663 9.85495C22.4147 9.63267 22.7346 9.16109 23.053 8.88625C23.3714 8.61141 23.7138 8.3561 24.0682 8.12331C24.7741 7.65923 25.5251 7.27625 26.312 6.96987C28.1548 6.25198 30.0892 5.80593 32.0341 5.47252C32.9848 5.30882 32.5823 3.86252 31.6346 4.02472V4.02622Z" fill="black"/>
<path d="M39.7204 16.7139C40.6381 16.8595 41.5602 16.9542 42.4899 16.9797C43.4195 17.0052 43.4556 15.5049 42.4899 15.4778C41.6954 15.4553 40.9054 15.3892 40.1199 15.2661C39.7159 15.2015 39.3164 15.3697 39.1963 15.7902C39.0942 16.1462 39.3209 16.6508 39.7204 16.7139Z" fill="black"/>
<path d="M36.3866 14.4326C34.5618 18.7489 36.3565 23.1343 38.2023 27.1008C38.6093 27.9763 39.9039 27.2149 39.4984 26.3423C37.9275 22.9631 36.1102 18.9111 37.6827 15.1895C38.0551 14.3094 36.762 13.5435 36.3866 14.4311V14.4326Z" fill="black"/>
<path d="M65.5232 14.9583C66.7097 18.7235 66.9259 22.7094 66.1149 26.5752C65.9167 27.5184 67.3645 27.9209 67.5627 26.9747C68.4293 22.8491 68.2386 18.5823 66.971 14.5588C66.6811 13.6397 65.2303 14.0331 65.5232 14.9583Z" fill="black"/>
<path d="M96.6827 17.2713C96.0204 16.5023 91.5673 15.1852 88.4435 15.9932C87.6009 16.2109 87.3711 16.7847 88.2272 17.3163C89.2364 17.9441 90.483 18.4337 91.4727 18.8212C93.5393 19.6292 94.9661 19.7959 95.8897 19.4069C96.5851 19.114 97.3029 17.9906 96.6842 17.2713H96.6827Z" fill="#FFC466"/>
<path d="M36.3725 4.8822C36.802 7.34375 37.2316 9.80681 37.6611 12.2684C37.8263 13.219 39.2741 12.8165 39.1089 11.8689C38.6793 9.40732 38.2498 6.94425 37.8203 4.4827C37.6551 3.53202 36.2073 3.93453 36.3725 4.8822Z" fill="black"/>
</svg>
