<svg width="98" height="39" viewBox="0 0 98 39" fill="none" xmlns="http://www.w3.org/2000/svg">
<path d="M13.1934 0.733398C18.3408 0.638244 46.4392 0.545326 54.1738 1.29688C56.0331 1.47754 58.4342 2.29334 61.0215 3.44727C63.5982 4.59649 66.3187 6.06241 68.8047 7.50879C71.2893 8.9544 73.5333 10.3769 75.1562 11.4385C75.9676 11.9692 76.6236 12.4096 77.0762 12.7168C77.302 12.8701 77.4771 12.9905 77.5957 13.0723C77.6547 13.113 77.7003 13.1441 77.7305 13.165C77.7456 13.1755 77.7571 13.1842 77.7646 13.1895C77.7684 13.1921 77.7716 13.194 77.7734 13.1953L77.7754 13.1963L78.0625 12.7871L77.7764 13.1973L77.8799 13.2695L78.0059 13.2842H78.0127C78.0174 13.2847 78.0248 13.286 78.0342 13.2871C78.0529 13.2893 78.0814 13.2926 78.1182 13.2969C78.1918 13.3055 78.3006 13.318 78.4404 13.335C78.7207 13.3689 79.1262 13.419 79.626 13.4844C80.6262 13.6152 82.0036 13.8069 83.5107 14.0479C86.5419 14.5324 90.0433 15.2099 92.0869 15.9912C94.1024 16.762 95.2974 17.7976 95.999 18.9756C96.7056 20.1621 96.9453 21.5493 96.9453 23.0801V30.7676C96.9452 31.5434 96.548 32.2589 95.7705 32.7988C94.9861 33.3435 93.82 33.7002 92.3555 33.7002C89.2731 33.7002 84.5169 33.7103 81.4727 33.7002H81.4688C55.5164 33.6179 33.2038 33.5381 9.84082 33.1797C8.57743 33.1602 7.01613 33.0759 5.5957 32.7979C4.24106 32.5327 3.1103 32.1079 2.45312 31.4805L2.32812 31.3525C1.27969 30.1949 1.03312 28.3695 1.00684 26.5596C0.881457 18.0937 2.54057 11.092 6.22461 4.62012L6.57227 4.01074L5.88281 3.88086H5.88184C5.88071 3.88064 5.87861 3.88039 5.87598 3.87988C5.87056 3.87883 5.86186 3.87726 5.85059 3.875C5.82756 3.87038 5.7925 3.8631 5.74805 3.85352C5.65895 3.8343 5.53071 3.80459 5.37695 3.76562C5.06764 3.68723 4.6624 3.57149 4.26758 3.41797C3.86558 3.26165 3.50835 3.08007 3.27051 2.88379C3.02849 2.68406 3.00139 2.55053 3.01172 2.47168C3.01181 2.47102 3.01152 2.46749 3.01367 2.46191C3.01592 2.45614 3.02083 2.44674 3.0293 2.43359C3.04697 2.40616 3.08012 2.36611 3.13867 2.31641C3.25879 2.21448 3.45215 2.10017 3.73145 1.98145C4.28862 1.74461 5.09295 1.5309 6.08008 1.35059C8.04711 0.991286 10.6407 0.780591 13.1934 0.733398Z" stroke="black"/>
<path d="M27.7179 28.2582C26.5116 25.3461 23.3737 23.3765 20.2571 23.5753C17.1405 23.7742 14.2719 26.1264 13.4364 29.1689C12.6009 32.2114 13.8586 35.7226 16.4277 37.5175C18.9969 39.3124 22.6897 39.2617 25.2088 37.3959C27.7279 35.5301 29.3751 32.0797 27.7179 28.2595V28.2582Z" fill="#514A42"/>
<path d="M24.1534 29.7728C23.5684 28.3618 22.0489 27.408 20.5382 27.5042C19.0288 27.6005 17.6383 28.7405 17.2337 30.2136C16.8291 31.688 17.4379 33.3892 18.683 34.2581C19.9269 35.1283 21.7169 35.103 22.937 34.1986C24.1571 33.2942 24.9551 31.6234 24.1521 29.7716L24.1534 29.7728Z" fill="#91A6A8"/>
<path d="M24.6811 29.4537C23.9608 27.8399 22.2046 26.724 20.4384 26.8785C18.7298 27.028 17.2128 28.2301 16.6679 29.8767C16.1393 31.4752 16.6955 33.3955 17.9519 34.4912C19.331 35.6945 21.448 35.8655 23.0051 34.9041C24.8051 33.7933 25.5392 31.5753 24.745 29.6044C24.4444 28.8596 23.2318 29.1851 23.5374 29.9413C24.1838 31.5424 23.5901 33.3689 21.9328 34.039C20.3219 34.69 18.4692 33.8756 17.9055 32.2112C17.3832 30.6697 18.1172 29.0306 19.5941 28.3783C21.1737 27.6803 22.9199 28.5683 23.6013 30.0933C23.932 30.8356 25.0118 30.1921 24.6824 29.4537H24.6811Z" fill="black"/>
<path d="M86.2491 28.2582C85.0428 25.3461 81.9049 23.3765 78.7883 23.5753C75.6717 23.7742 72.8032 26.1264 71.9677 29.1689C71.1321 32.2114 72.3898 35.7226 74.959 37.5175C77.5282 39.3124 81.221 39.2617 83.7401 37.3959C86.2592 35.5301 87.9064 32.0797 86.2491 28.2595V28.2582Z" fill="#514A42"/>
<path d="M82.6846 29.7728C82.0996 28.3618 80.5802 27.408 79.0695 27.5042C77.56 27.6005 76.1696 28.7405 75.765 30.2136C75.3604 31.688 75.9691 33.3892 77.2143 34.2581C78.4582 35.1283 80.2482 35.103 81.4683 34.1986C82.6884 33.2942 83.4863 31.6234 82.6834 29.7716L82.6846 29.7728Z" fill="#91A6A8"/>
<path d="M83.2202 29.4537C82.4999 27.8399 80.7437 26.724 78.9775 26.8785C77.2688 27.028 75.7519 28.2301 75.207 29.8767C74.6783 31.4752 75.2345 33.3955 76.4909 34.4912C77.8701 35.6945 79.9871 35.8655 81.5441 34.9041C83.3442 33.7933 84.0782 31.5753 83.2841 29.6044C82.9834 28.8596 81.7709 29.1851 82.0765 29.9413C82.7229 31.5424 82.1291 33.3689 80.4719 34.039C78.861 34.69 77.0083 33.8756 76.4446 32.2112C75.9222 30.6697 76.6563 29.0306 78.1332 28.3783C79.7128 27.6803 81.459 28.5683 82.1404 30.0933C82.4711 30.8356 83.5509 30.1921 83.2214 29.4537H83.2202Z" fill="black"/>
<path d="M10.3208 13.0466C32.4334 13.737 52.7133 13.8915 74.4263 14.611C67.8396 9.68619 60.5727 5.62906 55.5143 4.56506C50.585 3.52766 42.5715 3.51626 35.7067 3.48966C27.7809 3.45926 21.932 3.45039 14.1403 3.51372C11.7276 3.53272 10.9334 4.89439 10.3722 6.79185C10.2293 7.27571 10.1216 7.61139 8.98918 11.2163C8.80503 11.8028 8.99544 13.0074 10.3195 13.0479L10.3208 13.0466Z" fill="#D9D9D9"/>
<path d="M10.3218 13.6802C18.7424 13.9424 27.1643 14.135 35.5862 14.3098C43.7976 14.4808 52.0103 14.6366 60.2217 14.8392C64.9569 14.9558 69.6933 15.0888 74.4273 15.2446C75.1037 15.2674 75.2052 14.4086 74.743 14.064C70.0692 10.5782 65.0521 7.35578 59.6317 5.19485C54.9579 3.33159 49.897 3.11499 44.9275 2.96679C38.862 2.78693 32.7864 2.83632 26.7183 2.83252C23.7507 2.83125 20.7843 2.83759 17.8167 2.85406C16.3185 2.86293 14.7288 2.72106 13.2468 2.95413C12.2823 3.10613 11.4229 3.56972 10.8204 4.35379C9.98732 5.43805 9.69419 6.88585 9.28832 8.17658C9.11169 8.74025 8.93506 9.30264 8.75717 9.86631C8.57929 10.43 8.29492 11.0658 8.30495 11.6903C8.32499 12.8721 9.2119 13.6004 10.3205 13.6815C11.1248 13.7398 11.121 12.4731 10.3205 12.4148C9.18058 12.3312 9.65535 11.1887 9.87207 10.4984C10.1376 9.65351 10.4032 8.80864 10.6675 7.96251C10.9882 6.93525 11.2049 5.74205 11.9578 4.94405C12.7019 4.15492 13.7429 4.14986 14.7501 4.14226C16.2257 4.13086 17.7014 4.12198 19.1771 4.11438C21.908 4.10172 24.6401 4.09792 27.371 4.10045C33.0382 4.10552 38.7116 4.06879 44.3776 4.21953C49.0264 4.34239 53.8668 4.44119 58.2925 6.03592C63.9948 8.09171 69.2637 11.5459 74.1091 15.1597L74.4248 13.9792C66.0994 13.7043 57.7727 13.5054 49.4448 13.3294C41.1168 13.1533 32.968 13 24.7303 12.8062C19.9262 12.6922 15.1221 12.5656 10.3193 12.4161C9.51255 12.3908 9.5138 13.6574 10.3193 13.6828L10.3218 13.6802Z" fill="black"/>
<path d="M47.4433 3.99879C47.8392 7.16038 48.2363 10.322 48.6321 13.4836C48.7323 14.2816 49.9862 14.2917 49.8848 13.4836C49.4889 10.322 49.0918 7.16038 48.696 3.99879C48.5958 3.20079 47.3419 3.19066 47.4433 3.99879Z" fill="black"/>
<path d="M26.1998 3.47854C25.3092 6.67307 24.5877 9.91066 24.034 13.1812C23.8987 13.9779 25.1063 14.3212 25.2415 13.5181C25.794 10.2463 26.5167 7.00872 27.4074 3.81546C27.6266 3.03013 26.4178 2.69447 26.1998 3.47854Z" fill="black"/>
<path d="M53.691 18.9567C54.3461 18.9668 55 18.9782 55.6551 18.9884C56.4618 19.001 56.4618 17.7344 55.6551 17.7217C55 17.7116 54.3461 17.7002 53.691 17.69C52.8843 17.6774 52.8843 18.944 53.691 18.9567Z" fill="black"/>
<path d="M49.2066 16.5114C49.6588 21.2234 49.8392 25.9569 49.744 30.6904C49.7277 31.5061 50.9803 31.5061 50.9966 30.6904C51.0918 25.9569 50.9114 21.2234 50.4592 16.5114C50.3816 15.707 49.1289 15.6994 49.2066 16.5114Z" fill="black"/>
<path d="M45.2925 18.9885C46.0166 18.9733 46.7419 18.9581 47.4659 18.9417C48.2713 18.9239 48.2738 17.6573 47.4659 17.675C46.7419 17.6902 46.0166 17.7054 45.2925 17.7219C44.4871 17.7396 44.4846 19.0063 45.2925 18.9885Z" fill="black"/>
<path d="M23.798 16.1168C23.6339 18.2245 23.4711 20.3335 23.307 22.4412C23.2443 23.2544 24.497 23.2494 24.5596 22.4412C24.7237 20.3335 24.8866 18.2245 25.0507 16.1168C25.1133 15.3036 23.8606 15.3087 23.798 16.1168Z" fill="black"/>
<path d="M73.6772 16.6795C74.2434 18.6137 74.7169 20.572 75.099 22.5518C75.2531 23.3511 76.4606 23.0129 76.3065 22.2149C75.9245 20.2351 75.451 18.2768 74.8848 16.3426C74.6568 15.5623 73.448 15.8942 73.6772 16.6795Z" fill="black"/>
<path d="M6.26753 16.1169C4.81696 15.6381 3.14843 15.6305 1.50745 15.6001C1.27697 16.673 1.08657 17.7661 0.9375 18.8846C3.97768 18.9428 6.84625 19.0568 9.66973 19.029C8.72648 17.8383 7.70181 16.5894 6.26753 16.1169Z" fill="#ED4C4C"/>
<path d="M95.3765 19.0774C95.0834 18.8469 94.7264 18.7151 94.3732 18.5986C92.2963 17.9095 84.4083 16.2439 89.2148 19.3143C90.8758 20.3757 92.6157 21.3118 94.4145 22.1111C95.602 22.6393 96.1469 22.1731 96.1732 21.3891C96.1807 21.1446 95.9515 19.5296 95.3765 19.0774Z" fill="#FFC466"/>
</svg>
