<svg width="17" height="16" viewBox="0 0 17 16" fill="none" xmlns="http://www.w3.org/2000/svg">
<path d="M8.50313 15.5C7.56563 15.5 6.6875 15.3218 5.86875 14.9656C5.05 14.6093 4.3375 14.1281 3.73125 13.5218C3.125 12.9156 2.64375 12.2031 2.2875 11.3843C1.93125 10.5656 1.75313 9.68745 1.75313 8.74995C1.75313 7.81245 1.93125 6.93433 2.2875 6.11558C2.64375 5.29683 3.125 4.58433 3.73125 3.97808C4.3375 3.37183 5.05 2.89058 5.86875 2.53433C6.6875 2.17808 7.56563 1.99995 8.50313 1.99995C9.44063 1.99995 10.3188 2.17808 11.1375 2.53433C11.9563 2.89058 12.6688 3.37183 13.275 3.97808C13.8813 4.58433 14.3625 5.29683 14.7188 6.11558C15.075 6.93433 15.2531 7.81245 15.2531 8.74995C15.2531 9.68745 15.075 10.5656 14.7188 11.3843C14.3625 12.2031 13.8813 12.9156 13.275 13.5218C12.6688 14.1281 11.9563 14.6093 11.1375 14.9656C10.3188 15.3218 9.44063 15.5 8.50313 15.5ZM10.6031 11.9L11.6531 10.85L9.25313 8.44995V4.99995H7.75313V9.04995L10.6031 11.9ZM3.70313 0.762451L4.75313 1.81245L1.56563 4.99995L0.515625 3.94995L3.70313 0.762451ZM13.3031 0.762451L16.4906 3.94995L15.4406 4.99995L12.2531 1.81245L13.3031 0.762451ZM8.50313 14C9.96563 14 11.2063 13.4906 12.225 12.4718C13.2438 11.4531 13.7531 10.2125 13.7531 8.74995C13.7531 7.28745 13.2438 6.04683 12.225 5.02808C11.2063 4.00933 9.96563 3.49995 8.50313 3.49995C7.04063 3.49995 5.8 4.00933 4.78125 5.02808C3.7625 6.04683 3.25313 7.28745 3.25313 8.74995C3.25313 10.2125 3.7625 11.4531 4.78125 12.4718C5.8 13.4906 7.04063 14 8.50313 14Z" fill="url(#paint0_linear_4876_1236)"/>
<defs>
<linearGradient id="paint0_linear_4876_1236" x1="0.515625" y1="8.1312" x2="16.4906" y2="8.1312" gradientUnits="userSpaceOnUse">
<stop stop-color="#216432"/>
<stop offset="0.894231" stop-color="#114422"/>
</linearGradient>
</defs>
</svg>
