<svg width="98" height="43" viewBox="0 0 98 43" fill="none" xmlns="http://www.w3.org/2000/svg">
<path d="M36.7334 0.724609C42.5248 0.712722 48.5744 0.653644 53.5898 0.737305C56.097 0.779125 58.3373 0.856974 60.1514 0.993164C61.982 1.13061 63.3286 1.3249 64.0791 1.58203C65.2082 1.9693 66.535 2.86125 67.8975 3.93555C69.257 5.00749 70.5828 6.20203 71.75 7.18555V7.18652C74.7933 9.75069 77.0971 11.8314 78.9521 13.3301C80.8091 14.8303 82.3168 15.8347 83.8184 16.2168C85.7888 16.7179 89.2232 17.8155 90.9277 18.7949C92.8736 19.9127 94.1347 22.0417 94.709 24.3096C95.2964 26.6294 95.6428 28.6775 95.8584 31.6152C96.0032 33.5857 95.5194 34.6095 94.7324 35.1875C93.892 35.8046 92.5793 36.0193 90.8184 36.041C62.9707 36.3839 35.1188 36.2522 7.27637 35.6455H7.27539C5.69929 35.6119 4.20669 35.528 3.11523 34.7119C2.27675 34.085 1.81445 33.1447 1.58203 32.0254C1.37789 31.0421 1.35874 29.9566 1.40234 28.8975L1.42383 28.4453C1.87394 20.392 2.77822 12.3648 4.12988 4.41406C4.40042 2.81899 4.75412 1.9505 5.36133 1.44434C5.89584 0.998968 6.71236 0.76308 8.10742 0.711914L8.74219 0.701172C18.0708 0.709085 27.4032 0.74308 36.7334 0.724609Z" stroke="black"/>
<path d="M0.48283 33.288C0.494703 32.0216 1.52764 31.0019 2.79802 31.0032C5.0301 31.0032 7.26613 31.0032 9.50349 31.0032C10.2779 31.0032 10.9045 31.5467 10.9045 32.2168V36.5174C10.9045 37.1876 10.2779 37.7311 9.50349 37.7311H2.7967C1.52632 37.7311 0.493382 36.7113 0.481509 35.4462C0.474914 34.7484 0.474914 34.0518 0.481509 33.2867L0.48283 33.288Z" fill="#B4C0C1"/>
<path d="M24.9746 31.796C23.7042 28.7631 20.3996 26.7118 17.1174 26.9189C13.8353 27.126 10.8143 29.5758 9.93442 32.7445C9.05452 35.9132 10.379 39.57 13.0847 41.4393C15.7903 43.3086 19.6793 43.2558 22.3322 41.3126C24.9851 39.3695 26.7198 35.776 24.9746 31.7973V31.796Z" fill="#514A42"/>
<path d="M21.2072 33.3723C20.5912 31.9027 18.991 30.9094 17.4 31.0096C15.8104 31.1099 14.3461 32.2972 13.92 33.8314C13.4939 35.3669 14.135 37.1386 15.4463 38.0436C16.7563 38.9499 18.6414 38.9235 19.9263 37.9816C21.2112 37.0397 22.0515 35.2997 21.2059 33.371L21.2072 33.3723Z" fill="#91A6A8"/>
<path d="M21.7814 33.0398C21.0229 31.3591 19.1734 30.1969 17.3133 30.3579C15.5139 30.5136 13.9164 31.7655 13.3425 33.4804C12.7858 35.1452 13.3716 37.1451 14.6947 38.2862C16.1472 39.5395 18.3766 39.7176 20.0164 38.7163C21.912 37.5594 22.6851 35.2494 21.8487 33.1968C21.5321 32.4211 20.2551 32.7601 20.577 33.5477C21.2577 35.2152 20.6324 37.1174 18.8871 37.8153C17.1418 38.5131 15.2395 37.6451 14.6459 35.9117C14.0958 34.3062 14.8689 32.5992 16.4242 31.9198C18.0877 31.1929 19.9266 32.1177 20.6443 33.706C20.9926 34.4791 22.1297 33.8089 21.7828 33.0398H21.7814Z" fill="black"/>
<path d="M97.4685 33.288C97.4579 32.0216 96.5846 31.0019 95.5108 31.0032C93.623 31.0032 91.7326 31.0032 89.8409 31.0032C89.1866 31.0032 88.6562 31.5467 88.6562 32.2168V36.5174C88.6562 37.1876 89.1866 37.7311 89.8409 37.7311H95.5121C96.5859 37.7311 97.4606 36.7113 97.4698 35.4462C97.4751 34.7484 97.4751 34.0518 97.4698 33.2867L97.4685 33.288Z" fill="#B4C0C1"/>
<path d="M86.623 31.796C85.3526 28.7631 82.048 26.7118 78.7659 26.9189C75.4837 27.126 72.4628 29.5758 71.5829 32.7445C70.703 35.9132 72.0274 39.57 74.7331 41.4393C77.4388 43.3086 81.3278 43.2558 83.9807 41.3126C86.6336 39.3695 88.3683 35.776 86.623 31.7973V31.796Z" fill="#514A42"/>
<path d="M82.8557 33.3723C82.2396 31.9027 80.6394 30.9094 79.0485 31.0096C77.4588 31.1099 75.9945 32.2972 75.5684 33.8314C75.1423 35.3669 75.7835 37.1386 77.0948 38.0436C78.4047 38.9499 80.2898 38.9235 81.5747 37.9816C82.8596 37.0397 83.7 35.2997 82.8544 33.371L82.8557 33.3723Z" fill="#91A6A8"/>
<path d="M83.4215 33.0398C82.663 31.3591 80.8135 30.1969 78.9534 30.3579C77.154 30.5136 75.5565 31.7655 74.9826 33.4804C74.4088 35.1954 75.0117 37.1451 76.3348 38.2862C77.7873 39.5395 80.0167 39.7176 81.6565 38.7163C83.5521 37.5594 84.3252 35.2494 83.4888 33.1968C83.1722 32.4211 81.8952 32.7601 82.2171 33.5477C82.8978 35.2152 82.2725 37.1174 80.5272 37.8153C78.7819 38.5131 76.8797 37.6451 76.286 35.9117C75.7359 34.3062 76.509 32.5992 78.0643 31.9198C79.7278 31.1929 81.5667 32.1177 82.2844 33.706C82.6327 34.4791 83.7698 33.8089 83.4229 33.0398H83.4215Z" fill="black"/>
<path d="M24.1497 3.49242C19.5998 3.32488 15.0446 3.313 10.4947 3.4568C8.82723 3.50956 8.38003 3.98052 8.26921 5.60577C8.07529 8.48821 7.88004 11.3693 7.68612 14.2518C7.54497 16.3401 8.03834 17.1593 10.4195 17.2952C14.9602 17.5537 19.5127 17.5867 24.056 17.3954C25.3871 17.3387 25.8145 16.9706 25.8448 15.509C25.9134 12.2532 25.982 8.99873 26.0506 5.74296C26.0823 4.2615 25.7894 3.43569 24.1497 3.49374V3.49242Z" fill="#D9D9D9"/>
<path d="M44.6818 3.52025C40.1319 3.35271 35.5767 3.34084 31.0268 3.48463C29.3594 3.5374 28.8475 4.0044 28.8013 5.6336C28.7064 9.00547 28.7644 11.4869 28.8066 14.7466C28.833 16.8388 29.4768 17.2795 31.8606 17.3705C36.9355 17.5657 39.8193 17.5446 44.5881 17.4219C45.9205 17.3876 46.3466 16.9972 46.377 15.5355C46.4456 12.2797 46.5142 9.02526 46.5828 5.76948C46.6144 4.28803 46.3216 3.4622 44.6818 3.52025Z" fill="#D9D9D9"/>
<path d="M58.7825 3.36582C56.4633 3.36582 56.024 3.36318 51.6206 3.47795C49.9531 3.52148 49.4413 3.9977 49.3951 5.62691C49.3001 8.99877 49.3581 11.4802 49.4004 14.7399C49.4267 16.8322 50.0692 17.3018 52.4543 17.3638C58.0305 17.5089 64.9853 17.5353 69.4719 17.5353C71.5879 17.5353 71.5708 15.7267 71.6222 15.1396C71.7607 13.5738 69.4178 11.4142 64.2374 6.64796C61.5396 4.16656 60.9143 3.36582 58.7825 3.3645V3.36582Z" fill="#D9D9D9"/>
<path d="M24.1525 2.83294C21.4838 2.73664 18.8137 2.69046 16.1436 2.69838C14.7862 2.70234 13.4301 2.72081 12.0726 2.75247C11.1254 2.7749 10.0503 2.68123 9.13872 2.9952C7.38551 3.59807 7.59922 5.81828 7.49897 7.30634C7.41058 8.6163 7.32219 9.92625 7.23381 11.2362C7.15202 12.4446 6.99898 13.6714 7.00821 14.8825C7.01877 16.2505 7.58074 17.3428 8.95535 17.7385C9.96585 18.0301 11.0859 17.9918 12.1267 18.038C13.4367 18.096 14.7479 18.1356 16.0605 18.1567C18.7227 18.1989 21.402 18.2029 24.0601 18.0525C24.7329 18.0142 25.4585 17.9259 25.9439 17.4061C26.5086 16.8006 26.5006 15.8943 26.5165 15.1212C26.5785 12.2085 26.6392 9.29568 26.7012 6.3829C26.7196 5.51619 26.808 4.52546 26.3305 3.7511C25.8529 2.97673 24.9796 2.81843 24.1538 2.83162C23.328 2.84481 23.3029 4.16401 24.1538 4.15082C24.6841 4.1429 25.1696 4.16796 25.3266 4.74049C25.5416 5.52673 25.3806 6.48051 25.3635 7.28126C25.3173 9.46585 25.2712 11.6504 25.225 13.835C25.2144 14.3495 25.2052 14.8627 25.192 15.3772C25.1841 15.6898 25.2184 16.1318 25.0456 16.4088C24.7778 16.8388 23.9572 16.7373 23.5351 16.7544C21.2634 16.8415 18.9892 16.8718 16.7149 16.8468C14.5303 16.823 12.3219 16.8019 10.1426 16.6132C9.6532 16.571 9.0002 16.4985 8.64402 16.1133C8.33137 15.7742 8.32477 15.2426 8.32609 14.8086C8.33268 12.7084 8.59522 10.5819 8.73637 8.48701C8.80893 7.41846 8.81684 6.32352 8.96063 5.26289C9.02395 4.79721 9.12553 4.38959 9.6044 4.23128C9.97113 4.10992 10.3774 4.12046 10.7574 4.10859C11.413 4.08748 12.07 4.07167 12.7269 4.05848C13.9525 4.03341 15.178 4.02021 16.4035 4.01758C18.9865 4.0123 21.5695 4.05979 24.1498 4.15214C24.9994 4.18248 24.9981 2.86328 24.1498 2.83294H24.1525Z" fill="black"/>
<path d="M44.6867 2.86071C41.8874 2.75913 39.0854 2.71295 36.2835 2.72747C34.926 2.73406 33.5699 2.75517 32.2124 2.79078C31.2982 2.81453 30.2415 2.72879 29.3907 3.13247C28.7627 3.43061 28.3881 3.99522 28.2482 4.66669C28.0187 5.76426 28.111 6.96341 28.1018 8.07813C28.0807 10.421 28.0174 12.8074 28.1664 15.1464C28.2588 16.5817 28.8986 17.6133 30.3761 17.8837C31.4367 18.0776 32.5396 18.0565 33.6134 18.0895C34.7479 18.1251 35.8837 18.1515 37.0196 18.1647C39.2239 18.1898 41.4283 18.1568 43.6314 18.104C44.4651 18.0842 45.4624 18.1766 46.1906 17.6845C46.841 17.2465 46.9953 16.4497 47.0349 15.7176C47.1945 12.752 47.1629 9.76406 47.2249 6.79455C47.2446 5.85001 47.4069 4.6812 46.8924 3.82372C46.4215 3.04012 45.5429 2.84487 44.6854 2.85806C43.8279 2.87126 43.8345 4.19045 44.6854 4.17726C45.2659 4.16803 45.7276 4.21157 45.8714 4.83027C46.0706 5.68511 45.907 6.69957 45.8885 7.56628C45.8397 9.87883 45.7909 12.1927 45.7421 14.5052C45.7315 15.025 45.9268 16.207 45.4532 16.5935C45.2791 16.7347 44.969 16.7413 44.7593 16.7545C44.2303 16.7875 43.696 16.7835 43.167 16.7954C41.3228 16.8376 39.4772 16.864 37.633 16.8508C35.6173 16.8363 33.5949 16.8072 31.5832 16.6964C31.0726 16.6687 30.3299 16.6674 29.9038 16.3257C29.5608 16.0513 29.5107 15.554 29.4843 15.1451C29.3564 13.1465 29.4105 11.111 29.4144 9.10841C29.4157 8.03459 29.4289 6.96209 29.4579 5.88827C29.4711 5.416 29.4144 4.68383 29.8537 4.3725C30.1228 4.18253 30.5357 4.16671 30.8497 4.14824C31.4776 4.11262 32.1082 4.10866 32.7375 4.09415C34.0501 4.06381 35.364 4.04666 36.6766 4.0427C39.3466 4.03346 42.0167 4.08096 44.6854 4.17726C45.535 4.2076 45.5337 2.88841 44.6854 2.85806L44.6867 2.86071Z" fill="black"/>
<path d="M58.7812 2.70633C57.148 2.70633 55.5175 2.72215 53.8844 2.76173C52.6892 2.79075 51.2724 2.61926 50.1352 3.05723C49.2342 3.40418 48.8648 4.21417 48.7672 5.12573C48.6076 6.61774 48.6801 8.16779 48.6828 9.66639C48.6854 11.165 48.7118 12.7177 48.7316 14.244C48.7448 15.1846 48.7158 16.2597 49.3424 17.0315C49.8912 17.7082 50.7513 17.8876 51.5771 17.9721C52.9768 18.1159 54.4134 18.0697 55.8196 18.0947C57.3301 18.1211 58.8419 18.1396 60.3524 18.1541C63.1609 18.1805 65.9695 18.1924 68.7781 18.195C69.8189 18.195 70.8835 18.1752 71.6064 17.3098C72.0879 16.7333 72.2225 15.9919 72.27 15.2637C72.3505 14.0461 71.5946 13.0369 70.8466 12.1491C69.0419 10.0068 66.8507 8.16251 64.7954 6.26947C63.7744 5.32888 62.7876 4.28145 61.6267 3.50708C60.7653 2.93059 59.8049 2.71557 58.7786 2.70633C57.929 2.69842 57.929 4.01761 58.7786 4.02553C59.5358 4.03213 60.2073 4.16667 60.8524 4.57562C61.7257 5.12837 62.4657 5.90933 63.219 6.60851C65.0421 8.29972 66.9075 9.95267 68.6554 11.723C69.4746 12.5541 70.5418 13.5673 70.9007 14.6398C70.9956 14.9234 70.9772 15.2717 70.9059 15.6819C70.7767 16.4352 70.3466 16.8415 69.5643 16.8732C67.2135 16.9668 64.8363 16.8692 62.4842 16.8534C59.7825 16.8349 57.0808 16.8046 54.3791 16.7492C53.3145 16.7267 52.1589 16.8191 51.1154 16.579C50.4703 16.4299 50.1972 16.1146 50.0996 15.4603C49.9175 14.2348 50.031 12.9156 50.0165 11.6782C50.0007 10.3207 49.9941 8.96194 50.0125 7.60449C50.0218 6.83672 49.9967 6.04916 50.0706 5.28403C50.1022 4.95423 50.1524 4.57035 50.4413 4.36588C50.8199 4.09808 51.4386 4.14425 51.8726 4.13106C52.5731 4.11127 53.2723 4.09411 53.9727 4.07828C55.5756 4.04003 57.1771 4.02421 58.7799 4.02553C59.6281 4.02553 59.6308 2.70633 58.7799 2.70633H58.7812Z" fill="black"/>
<path d="M41.0747 21.7911C41.7857 21.7938 42.4954 21.7977 43.2065 21.8004C44.0561 21.8043 44.0561 20.4851 43.2065 20.4812C42.4954 20.4785 41.7857 20.4746 41.0747 20.4719C40.2251 20.468 40.2251 21.7872 41.0747 21.7911Z" fill="black"/>
<path d="M52.172 22.1051C53.0506 22.0774 53.9279 22.0497 54.8065 22.022C55.6851 21.9943 55.6574 20.6764 54.8065 20.7028C53.9556 20.7292 53.0506 20.7582 52.172 20.7859C51.2934 20.8136 51.3211 22.1315 52.172 22.1051Z" fill="black"/>
<path d="M47.4215 18.3481C47.3648 23.0919 47.3068 27.8371 47.2501 32.5809C47.2395 33.4305 48.5587 33.4305 48.5693 32.5809C48.626 27.8371 48.684 23.0919 48.7407 18.3481C48.7513 17.4985 47.4321 17.4985 47.4215 18.3481Z" fill="black"/>
<path d="M27.0677 18.5365C26.8355 22.043 26.7445 25.556 26.7946 29.069C26.8065 29.9172 28.1257 29.9199 28.1138 29.069C28.0637 25.556 28.1547 22.043 28.3869 18.5365C28.4423 17.6896 27.1231 17.6923 27.0677 18.5365Z" fill="black"/>
<path d="M68.4488 33.8115C69.6308 30.2365 72.3299 27.3409 75.7703 25.8357C76.546 25.4966 75.8758 24.3595 75.1041 24.6972C71.3523 26.3383 68.458 29.5835 67.1771 33.4619C66.9106 34.2693 68.1836 34.6162 68.4488 33.8129V33.8115Z" fill="black"/>
<path d="M65.6571 4.83934C68.963 7.81545 72.2676 10.7916 75.5735 13.7677C77.7858 15.7596 79.2145 16.5432 82.6048 15.224C79.5522 13.7109 71.1173 5.72452 67.6188 3.09009C67.0304 3.25367 66.442 3.41856 65.855 3.58215C65.0358 3.81037 65.049 4.2932 65.6584 4.84066L65.6571 4.83934Z" fill="#D9D9D9"/>
<path d="M67.128 2.54007C66.3194 2.76566 64.797 2.88833 64.5807 3.91599C64.3643 4.94364 65.5529 5.63622 66.1597 6.18237C68.1689 7.99099 70.178 9.79961 72.1871 11.6095C73.1594 12.4842 74.1277 13.3641 75.1039 14.2347C75.7885 14.8468 76.4996 15.4695 77.3135 15.9062C78.9638 16.7927 80.7302 16.5882 82.4439 15.9853C83.2394 15.7056 82.8964 14.43 82.093 14.7136C80.7303 15.1925 79.3121 15.4827 77.9797 14.7677C76.4415 13.9419 75.1817 12.533 73.8981 11.3774C72.2782 9.91833 70.6582 8.4593 69.0369 7.00159C68.2586 6.30109 67.4816 5.60059 66.7032 4.90142C66.5106 4.72729 66.3035 4.56107 66.1202 4.37638C66.0291 4.29987 65.9487 4.2128 65.8827 4.11386L65.8431 4.28801C66.3207 4.04659 66.9658 3.9582 67.4789 3.8144C68.2955 3.58618 67.9486 2.31316 67.128 2.5427V2.54007Z" fill="black"/>
<path d="M2.83439 26.2869C3.07844 26.2777 3.34228 26.2605 3.52829 26.1022C3.742 25.9215 3.78686 25.6141 3.81456 25.3357C3.93725 24.1392 4.0309 22.9388 4.09817 21.737C4.12324 21.2858 4.10214 20.7489 3.72221 20.5048C3.50718 20.3676 3.23542 20.3676 2.98082 20.3729C2.49404 20.3835 2.00726 20.394 1.52048 20.4033C1.33579 22.3847 1.17748 24.3688 1.04688 26.3555C1.64183 26.3317 2.23811 26.3093 2.83307 26.2856L2.83439 26.2869Z" fill="#ED4C4C"/>
<path d="M88.5645 23.0747C88.0936 23.4164 88.2822 24.1485 88.5157 24.6815C88.959 25.6867 89.4959 26.7856 90.5196 27.1827C91.2518 27.4663 92.158 27.3832 92.9443 27.3687C94.3545 27.3436 94.9837 27.3621 95.8663 27.37C95.6856 26.2909 95.4639 25.2672 95.1895 24.1855C95.0695 23.7092 94.9165 23.2356 94.7357 22.7739C92.9271 22.8175 91.1185 22.8597 89.3086 22.9032C89.0487 22.9098 88.7717 22.9217 88.5619 23.0734L88.5645 23.0747Z" fill="#FFC466"/>
</svg>
