<svg width="42" height="43" viewBox="0 0 42 43" fill="none" xmlns="http://www.w3.org/2000/svg">
<path d="M10.5 7.55957V37.3096" stroke="#246132" stroke-width="3" stroke-linecap="round" stroke-linejoin="round"/>
<path d="M29.75 7.55957V37.3096" stroke="#246132" stroke-width="3" stroke-linecap="round" stroke-linejoin="round"/>
<path d="M10.5 7.55957H29.75" stroke="#246132" stroke-width="3" stroke-linecap="round" stroke-linejoin="round"/>
<path d="M17.5 16.3096C18.4665 16.3096 19.25 15.5261 19.25 14.5596C19.25 13.5931 18.4665 12.8096 17.5 12.8096C16.5335 12.8096 15.75 13.5931 15.75 14.5596C15.75 15.5261 16.5335 16.3096 17.5 16.3096Z" fill="#246132"/>
<path d="M17.5 23.3096C18.4665 23.3096 19.25 22.5261 19.25 21.5596C19.25 20.5931 18.4665 19.8096 17.5 19.8096C16.5335 19.8096 15.75 20.5931 15.75 21.5596C15.75 22.5261 16.5335 23.3096 17.5 23.3096Z" fill="#246132"/>
<path d="M17.5 30.3096C18.4665 30.3096 19.25 29.5261 19.25 28.5596C19.25 27.5931 18.4665 26.8096 17.5 26.8096C16.5335 26.8096 15.75 27.5931 15.75 28.5596C15.75 29.5261 16.5335 30.3096 17.5 30.3096Z" fill="#246132"/>
<path d="M22.75 16.3096C23.7165 16.3096 24.5 15.5261 24.5 14.5596C24.5 13.5931 23.7165 12.8096 22.75 12.8096C21.7835 12.8096 21 13.5931 21 14.5596C21 15.5261 21.7835 16.3096 22.75 16.3096Z" fill="#246132"/>
<path d="M22.75 23.3096C23.7165 23.3096 24.5 22.5261 24.5 21.5596C24.5 20.5931 23.7165 19.8096 22.75 19.8096C21.7835 19.8096 21 20.5931 21 21.5596C21 22.5261 21.7835 23.3096 22.75 23.3096Z" fill="#246132"/>
<path d="M22.75 30.3096C23.7165 30.3096 24.5 29.5261 24.5 28.5596C24.5 27.5931 23.7165 26.8096 22.75 26.8096C21.7835 26.8096 21 27.5931 21 28.5596C21 29.5261 21.7835 30.3096 22.75 30.3096Z" fill="#246132"/>
<path d="M10.5 18.0596H5.25V33.8096" stroke="#246132" stroke-width="3" stroke-linecap="round" stroke-linejoin="round"/>
<path d="M31.5 18.0596H36.75V33.8096" stroke="#246132" stroke-width="3" stroke-linecap="round" stroke-linejoin="round"/>
</svg>
