<svg width="22" height="24" viewBox="0 0 22 24" fill="none" xmlns="http://www.w3.org/2000/svg">
<path d="M15.9978 7.50003H15.2078L12.4778 4.77003C11.1578 3.45003 8.84781 3.45003 7.52781 4.77003L4.79781 7.50003H4.00781C2.07781 7.50003 0.507812 9.07003 0.507812 11V15C0.507812 16.93 2.07781 18.5 4.00781 18.5H16.0078C17.9378 18.5 19.5078 16.93 19.5078 15V11C19.5078 9.07003 17.9378 7.50003 16.0078 7.50003H15.9978ZM8.22781 5.47003C9.16781 4.53003 10.8178 4.53003 11.7678 5.47003L13.7978 7.50003H6.20781L8.23781 5.47003H8.22781ZM18.4978 15C18.4978 16.38 17.3778 17.5 15.9978 17.5H3.99781C2.61781 17.5 1.49781 16.38 1.49781 15V11C1.49781 9.62003 2.61781 8.50003 3.99781 8.50003H15.9978C17.3778 8.50003 18.4978 9.62003 18.4978 11V15Z" fill="white"/>
<path d="M12.8661 13.55C13.3261 13.22 13.5061 12.66 13.3261 12.12C13.1561 11.58 12.6761 11.24 12.1161 11.24H11.6161C11.4961 11.24 11.3961 11.16 11.3561 11.05L11.2061 10.58C11.0361 10.04 10.5561 9.69995 9.99612 9.69995C9.43612 9.69995 8.95612 10.05 8.78612 10.58L8.63612 11.05C8.59612 11.16 8.49612 11.24 8.37612 11.24H7.87612C7.31612 11.24 6.83612 11.59 6.66612 12.12C6.49612 12.66 6.66612 13.22 7.12612 13.55L7.52612 13.84C7.62612 13.91 7.66612 14.03 7.62612 14.15L7.47612 14.62C7.30612 15.16 7.47612 15.71 7.93612 16.05C8.38612 16.38 8.97612 16.38 9.43612 16.05L9.83612 15.76C9.93612 15.69 10.0661 15.69 10.1561 15.76L10.5561 16.05C10.7861 16.22 11.0461 16.3 11.3061 16.3C11.5661 16.3 11.8261 16.22 12.0561 16.05C12.5161 15.72 12.6961 15.16 12.5161 14.62L12.3661 14.15C12.3261 14.04 12.3661 13.91 12.4661 13.84L12.8661 13.55ZM12.2761 12.74L11.8761 13.03C11.4261 13.36 11.2461 13.93 11.4161 14.46L11.5661 14.93C11.6261 15.1 11.5161 15.2 11.4661 15.24C11.4161 15.28 11.2861 15.34 11.1461 15.24L10.7461 14.95C10.5261 14.79 10.2561 14.71 9.99612 14.71C9.73612 14.71 9.46612 14.79 9.24612 14.95L8.84612 15.24C8.69612 15.34 8.57612 15.27 8.52612 15.24C8.47612 15.21 8.36612 15.1 8.42612 14.93L8.57612 14.46C8.74612 13.93 8.56612 13.36 8.11612 13.03L7.71612 12.74C7.56612 12.63 7.59612 12.49 7.61612 12.43C7.63612 12.37 7.69612 12.24 7.87612 12.24H8.37612C8.92612 12.24 9.41612 11.89 9.58612 11.36L9.73612 10.89C9.79612 10.72 9.93612 10.7 9.99612 10.7C10.0561 10.7 10.2061 10.72 10.2561 10.89L10.4061 11.36C10.5761 11.89 11.0661 12.24 11.6161 12.24H12.1161C12.2961 12.24 12.3561 12.37 12.3761 12.43C12.3961 12.49 12.4261 12.63 12.2761 12.74Z" fill="white"/>
<path d="M16.2222 11.2501H15.7222C15.6022 11.2501 15.5022 11.1701 15.4622 11.0601L15.3122 10.5901C15.1222 10.0001 14.5622 9.64006 13.9322 9.72006C13.6622 9.75006 13.4622 10.0001 13.5022 10.2801C13.5422 10.5501 13.7922 10.7401 14.0622 10.7101C14.1022 10.7101 14.2922 10.6901 14.3622 10.9001L14.5122 11.3701C14.6822 11.9001 15.1722 12.2501 15.7222 12.2501H16.2222C16.4022 12.2501 16.4622 12.3801 16.4822 12.4401C16.5022 12.5001 16.5322 12.6401 16.3822 12.7501L15.9822 13.0401C15.5322 13.3701 15.3522 13.9401 15.5222 14.4601L15.6722 14.9301C15.7322 15.1001 15.6222 15.2001 15.5722 15.2401C15.5222 15.2801 15.3922 15.3401 15.2522 15.2401L14.8522 14.9501C14.4022 14.6201 13.8022 14.6201 13.3522 14.9501C13.1322 15.1101 13.0822 15.4301 13.2422 15.6501C13.4022 15.8701 13.7222 15.9201 13.9422 15.7601C14.0422 15.6901 14.1722 15.6901 14.2622 15.7601L14.6622 16.0501C14.8922 16.2201 15.1522 16.3001 15.4122 16.3001C15.6722 16.3001 15.9322 16.2201 16.1622 16.0501C16.6222 15.7201 16.8022 15.1601 16.6222 14.6301L16.4722 14.1601C16.4322 14.0501 16.4722 13.9201 16.5722 13.8501L16.9722 13.5601C17.4322 13.2301 17.6122 12.6701 17.4322 12.1301C17.2622 11.5901 16.7822 11.2501 16.2222 11.2501Z" fill="#F6F6F6"/>
<path d="M5.15237 14.95L4.75237 15.24C4.60237 15.34 4.47237 15.27 4.43237 15.24C4.38237 15.2 4.27237 15.1 4.33237 14.93L4.48237 14.46C4.65237 13.93 4.47237 13.36 4.02237 13.03L3.62237 12.74C3.47237 12.63 3.50237 12.49 3.52237 12.43C3.54237 12.37 3.60237 12.24 3.78237 12.24H4.28237C4.83237 12.24 5.32237 11.89 5.49237 11.36L5.64237 10.89C5.71237 10.68 5.90237 10.7 5.94237 10.7C6.21237 10.73 6.46237 10.54 6.50237 10.27C6.53237 10 6.34237 9.75003 6.07237 9.71003C5.45237 9.64003 4.89237 9.99003 4.69237 10.58L4.54237 11.05C4.50237 11.16 4.40237 11.24 4.28237 11.24H3.78237C3.22237 11.24 2.74237 11.59 2.57237 12.12C2.40237 12.66 2.57237 13.22 3.03237 13.55L3.43237 13.84C3.53237 13.91 3.57237 14.03 3.53237 14.15L3.38237 14.62C3.21237 15.16 3.38237 15.71 3.84237 16.05C4.07237 16.22 4.33237 16.3 4.59237 16.3C4.85237 16.3 5.11237 16.22 5.34237 16.05L5.74237 15.76C5.84237 15.69 5.97237 15.69 6.06237 15.76C6.28237 15.92 6.60237 15.87 6.76237 15.65C6.92237 15.43 6.87237 15.11 6.65237 14.95C6.20237 14.62 5.60237 14.62 5.15237 14.95Z" fill="white"/>
</svg>
