<svg width="18" height="18" viewBox="0 0 18 18" fill="none" xmlns="http://www.w3.org/2000/svg">
<path d="M0 15V12.9188C0 12.4938 0.10625 12.1 0.31875 11.7375C0.53125 11.375 0.825 11.1 1.2 10.9125C1.375 10.825 1.54375 10.7438 1.70625 10.6688C1.88125 10.5938 2.0625 10.525 2.25 10.4625V15H0ZM3 9.75C2.375 9.75 1.84375 9.53125 1.40625 9.09375C0.96875 8.65625 0.75 8.125 0.75 7.5C0.75 6.875 0.96875 6.34375 1.40625 5.90625C1.84375 5.46875 2.375 5.25 3 5.25C3.625 5.25 4.15625 5.46875 4.59375 5.90625C5.03125 6.34375 5.25 6.875 5.25 7.5C5.25 8.125 5.03125 8.65625 4.59375 9.09375C4.15625 9.53125 3.625 9.75 3 9.75ZM3 8.25C3.2125 8.25 3.3875 8.18125 3.525 8.04375C3.675 7.89375 3.75 7.7125 3.75 7.5C3.75 7.2875 3.675 7.1125 3.525 6.975C3.3875 6.825 3.2125 6.75 3 6.75C2.7875 6.75 2.60625 6.825 2.45625 6.975C2.31875 7.1125 2.25 7.2875 2.25 7.5C2.25 7.7125 2.31875 7.89375 2.45625 8.04375C2.60625 8.18125 2.7875 8.25 3 8.25ZM3 15V12.9C3 12.475 3.10625 12.0875 3.31875 11.7375C3.54375 11.375 3.8375 11.1 4.2 10.9125C4.975 10.525 5.7625 10.2375 6.5625 10.05C7.3625 9.85 8.175 9.75 9 9.75C9.825 9.75 10.6375 9.85 11.4375 10.05C12.2375 10.2375 13.025 10.525 13.8 10.9125C14.1625 11.1 14.45 11.375 14.6625 11.7375C14.8875 12.0875 15 12.475 15 12.9V15H3ZM4.5 13.5H13.5V12.9C13.5 12.7625 13.4625 12.6375 13.3875 12.525C13.325 12.4125 13.2375 12.325 13.125 12.2625C12.45 11.925 11.7688 11.675 11.0813 11.5125C10.3938 11.3375 9.7 11.25 9 11.25C8.3 11.25 7.60625 11.3375 6.91875 11.5125C6.23125 11.675 5.55 11.925 4.875 12.2625C4.7625 12.325 4.66875 12.4125 4.59375 12.525C4.53125 12.6375 4.5 12.7625 4.5 12.9V13.5ZM9 9C8.175 9 7.46875 8.70625 6.88125 8.11875C6.29375 7.53125 6 6.825 6 6C6 5.175 6.29375 4.46875 6.88125 3.88125C7.46875 3.29375 8.175 3 9 3C9.825 3 10.5313 3.29375 11.1188 3.88125C11.7063 4.46875 12 5.175 12 6C12 6.825 11.7063 7.53125 11.1188 8.11875C10.5313 8.70625 9.825 9 9 9ZM9 7.5C9.4125 7.5 9.7625 7.35625 10.05 7.06875C10.35 6.76875 10.5 6.4125 10.5 6C10.5 5.5875 10.35 5.2375 10.05 4.95C9.7625 4.65 9.4125 4.5 9 4.5C8.5875 4.5 8.23125 4.65 7.93125 4.95C7.64375 5.2375 7.5 5.5875 7.5 6C7.5 6.4125 7.64375 6.76875 7.93125 7.06875C8.23125 7.35625 8.5875 7.5 9 7.5ZM15 9.75C14.375 9.75 13.8438 9.53125 13.4062 9.09375C12.9688 8.65625 12.75 8.125 12.75 7.5C12.75 6.875 12.9688 6.34375 13.4062 5.90625C13.8438 5.46875 14.375 5.25 15 5.25C15.625 5.25 16.1563 5.46875 16.5938 5.90625C17.0313 6.34375 17.25 6.875 17.25 7.5C17.25 8.125 17.0313 8.65625 16.5938 9.09375C16.1563 9.53125 15.625 9.75 15 9.75ZM15 8.25C15.2125 8.25 15.3875 8.18125 15.525 8.04375C15.675 7.89375 15.75 7.7125 15.75 7.5C15.75 7.2875 15.675 7.1125 15.525 6.975C15.3875 6.825 15.2125 6.75 15 6.75C14.7875 6.75 14.6063 6.825 14.4563 6.975C14.3188 7.1125 14.25 7.2875 14.25 7.5C14.25 7.7125 14.3188 7.89375 14.4563 8.04375C14.6063 8.18125 14.7875 8.25 15 8.25ZM15.75 15V10.4625C15.9375 10.525 16.1125 10.5938 16.275 10.6688C16.45 10.7438 16.625 10.825 16.8 10.9125C17.175 11.1 17.4688 11.375 17.6813 11.7375C17.8938 12.1 18 12.4938 18 12.9188V15H15.75Z" fill="url(#paint0_linear_5299_688)"/>
<defs>
<linearGradient id="paint0_linear_5299_688" x1="0" y1="9" x2="18" y2="9" gradientUnits="userSpaceOnUse">
<stop stop-color="#216432"/>
<stop offset="0.894231" stop-color="#114422"/>
</linearGradient>
</defs>
</svg>
