<svg width="19" height="14" viewBox="0 0 19 14" fill="none" xmlns="http://www.w3.org/2000/svg">
<path d="M17.98 10.59C17.79 6.80995 15.07 3.53995 11.36 2.70995C11.15 2.65995 10.99 2.45995 11 2.22995V1.99995C11 1.59995 10.85 1.21995 10.56 0.939951C9.99 0.369951 9 0.369951 8.44 0.939951C8.16 1.21995 8 1.59995 8 1.99995V2.22995C8 2.45995 7.85 2.65995 7.64 2.70995C3.93 3.53995 1.2 6.81995 1.02 10.59C0.43 10.79 0 11.35 0 12C0 12.83 0.67 13.5 1.5 13.5H17.5C18.33 13.5 19 12.83 19 12C19 11.34 18.57 10.79 17.98 10.59ZM17.5 12.5H1.5C1.22 12.5 1 12.28 1 12C1 11.72 1.22 11.5 1.5 11.5H12.5C12.78 11.5 13 11.28 13 11C13 10.72 12.78 10.5 12.5 10.5H2.02C2.24 7.22995 4.63 4.39995 7.86 3.67995C8.53 3.52995 9.01 2.91995 9 2.21995V1.98995C9 1.85995 9.05 1.72995 9.14 1.63995C9.33 1.44995 9.66 1.44995 9.84 1.63995C9.93 1.72995 9.99 1.85995 9.98 1.98995V2.21995C9.98 2.90995 10.46 3.52995 11.12 3.67995C14.35 4.39995 16.73 7.21995 16.96 10.5H15.48C15.2 10.5 14.98 10.72 14.98 11C14.98 11.28 15.2 11.5 15.48 11.5H17.48C17.76 11.5 17.98 11.72 17.98 12C17.98 12.28 17.76 12.5 17.48 12.5H17.5Z" fill="url(#paint0_linear_4169_1473)"/>
<defs>
<linearGradient id="paint0_linear_4169_1473" x1="0" y1="7.0062" x2="19" y2="7.0062" gradientUnits="userSpaceOnUse">
<stop stop-color="#216432"/>
<stop offset="0.894231" stop-color="#114422"/>
</linearGradient>
</defs>
</svg>
