<svg width="43" height="42" viewBox="0 0 43 42" fill="none" xmlns="http://www.w3.org/2000/svg">
<path d="M34.4844 20.125V9.625C34.4844 6.7375 32.1219 4.375 29.2344 4.375C26.3469 4.375 23.9844 6.7375 23.9844 9.625V9.7125C21.9894 10.115 20.4844 11.8825 20.4844 14C20.4844 15.4525 21.6569 16.625 23.1094 16.625H26.6094C28.0619 16.625 29.2344 15.4525 29.2344 14C29.2344 11.8825 27.7294 10.115 25.7344 9.7125V9.625C25.7344 7.7 27.3094 6.125 29.2344 6.125C31.1594 6.125 32.7344 7.7 32.7344 9.625V20.125H8.23438C6.30937 20.125 4.73438 21.7 4.73438 23.625V24.5C4.73438 29.155 8.04188 33.04 12.4344 33.9325L10.2294 36.1375C9.87937 36.4875 9.87937 37.03 10.2294 37.38C10.4044 37.555 10.6319 37.6425 10.8419 37.6425C11.0519 37.6425 11.2969 37.555 11.4544 37.38L14.6919 34.1425H27.9744L31.2119 37.38C31.3869 37.555 31.6144 37.6425 31.8244 37.6425C32.0344 37.6425 32.2794 37.555 32.4369 37.38C32.7869 37.03 32.7869 36.4875 32.4369 36.1375L30.2319 33.9325C34.6244 33.04 37.9319 29.155 37.9319 24.5V23.625C37.9319 21.7 36.3569 20.125 34.4319 20.125H34.4844ZM27.4844 14C27.4844 14.49 27.0994 14.875 26.6094 14.875H23.1094C22.6194 14.875 22.2344 14.49 22.2344 14C22.2344 12.5475 23.4069 11.375 24.8594 11.375C26.3119 11.375 27.4844 12.5475 27.4844 14ZM13.4844 25.375H17.8594C18.3494 25.375 18.7344 24.99 18.7344 24.5C18.7344 24.01 18.3494 23.625 17.8594 23.625H13.4844V21.875H20.4844V26.25C20.4844 26.74 20.0994 27.125 19.6094 27.125H14.3594C13.8694 27.125 13.4844 26.74 13.4844 26.25V25.375ZM36.2344 24.5C36.2344 28.84 32.6994 32.375 28.3594 32.375H14.3594C10.0194 32.375 6.48438 28.84 6.48438 24.5V23.625C6.48438 22.6625 7.27187 21.875 8.23438 21.875H11.7344V26.25C11.7344 27.7025 12.9069 28.875 14.3594 28.875H19.6094C21.0619 28.875 22.2344 27.7025 22.2344 26.25V21.875H34.4844C35.4469 21.875 36.2344 22.6625 36.2344 23.625V24.5Z" fill="#AF4300"/>
</svg>
