<svg width="12" height="16" viewBox="0 0 12 16" fill="none" xmlns="http://www.w3.org/2000/svg">
<path d="M0 12.8096V11.3096H1.5V6.05957C1.5 5.02207 1.8125 4.10332 2.4375 3.30332C3.0625 2.49082 3.875 1.95957 4.875 1.70957V1.18457C4.875 0.87207 4.98125 0.60957 5.19375 0.397069C5.41875 0.17207 5.6875 0.0595703 6 0.0595703C6.3125 0.0595703 6.575 0.17207 6.7875 0.397069C7.0125 0.60957 7.125 0.87207 7.125 1.18457V1.70957C8.125 1.95957 8.9375 2.49082 9.5625 3.30332C10.1875 4.10332 10.5 5.02207 10.5 6.05957V11.3096H12V12.8096H0ZM6 15.0596C5.5875 15.0596 5.23125 14.9158 4.93125 14.6283C4.64375 14.3283 4.5 13.9721 4.5 13.5596H7.5C7.5 13.9721 7.35 14.3283 7.05 14.6283C6.7625 14.9158 6.4125 15.0596 6 15.0596ZM3 11.3096H9V6.05957C9 5.23457 8.70625 4.52832 8.11875 3.94082C7.53125 3.35332 6.825 3.05957 6 3.05957C5.175 3.05957 4.46875 3.35332 3.88125 3.94082C3.29375 4.52832 3 5.23457 3 6.05957V11.3096Z" fill="url(#paint0_linear_4769_2650)"/>
<defs>
<linearGradient id="paint0_linear_4769_2650" x1="0" y1="7.55957" x2="12" y2="7.55957" gradientUnits="userSpaceOnUse">
<stop stop-color="#216432"/>
<stop offset="0.894231" stop-color="#114422"/>
</linearGradient>
</defs>
</svg>
