<svg width="47" height="29" viewBox="0 0 47 29" fill="none" xmlns="http://www.w3.org/2000/svg">
<path d="M8.36429 13.6953C10.3186 13.6953 12.1011 14.4351 13.4493 15.6509L10.336 17.1196C9.73752 16.8374 9.06899 16.6797 8.36429 16.6797C7.08203 16.6797 5.92096 17.2015 5.08091 18.0452C4.24087 18.8888 3.72148 20.0546 3.72148 21.3424C3.72148 22.6303 4.24087 23.7962 5.08091 24.6398C5.92096 25.4834 7.08203 26.0054 8.36429 26.0054C9.30836 26.0054 10.1866 25.7222 10.9197 25.2363C12.0451 25.5553 13.1758 25.8497 14.3154 26.1127C14.1382 26.3355 13.9487 26.5482 13.7481 26.7496C12.3703 28.1332 10.4666 28.9893 8.36429 28.9893C6.26156 28.9893 4.35795 28.1332 2.98005 26.7494C1.60235 25.3659 0.75 23.4541 0.75 21.3422C0.75 19.2309 1.60235 17.3191 2.98005 15.9351C4.35813 14.5514 6.26156 13.6953 8.36429 13.6953ZM39.7812 13.7063C41.7198 13.81 43.4665 14.6422 44.7538 15.9351C46.1318 17.3191 46.9842 19.2309 46.9842 21.3422C46.9842 23.4537 46.1318 25.3657 44.7538 26.7494C43.3761 28.1334 41.4724 28.9893 39.3699 28.9893C37.2676 28.9893 35.3639 28.1334 33.9859 26.7494C32.6078 25.3657 31.7554 23.4537 31.7554 21.3422C31.7554 19.2309 32.6078 17.3191 33.9859 15.9351C34.0556 15.8648 34.127 15.7962 34.1995 15.7289L35.3667 18.9787C34.9601 19.6718 34.7269 20.4798 34.7269 21.3424C34.7269 22.6301 35.2467 23.7962 36.0867 24.6398C36.9268 25.4835 38.0875 26.0055 39.3697 26.0055C40.652 26.0055 41.8127 25.4835 42.6529 24.6398C43.4928 23.7964 44.0125 22.6303 44.0125 21.3424C44.0125 20.0548 43.4931 18.889 42.6529 18.0452C42.1757 17.5661 41.5953 17.1908 40.948 16.9559L39.7812 13.7063Z" fill="#FEFEFE"/>
<path d="M16.2828 16.3741C15.8055 15.3916 15.2199 14.5389 14.521 13.7934C12.4026 11.5348 9.16362 10.1696 4.66976 9.09652C4.07133 8.95409 3.7009 8.35118 3.84277 7.75014C3.94978 7.29768 4.31611 6.97516 4.74601 6.90394C6.34575 6.53556 8.0594 6.22441 9.82059 6.10696C11.6302 5.98634 13.488 6.07266 15.3249 6.51449C16.461 6.78761 17.1407 7.85268 17.8711 9.22833C18.7924 9.1875 19.6405 9.20484 20.4651 9.27065C21.2151 9.33049 21.9545 9.43359 22.7205 9.57117C23.8159 7.61927 25.2093 6.42669 26.9561 5.91662C28.3452 5.51076 29.9136 5.56278 31.6944 6.02997C31.7514 5.52251 31.761 5.00685 31.7289 4.49268C31.6698 3.55606 31.4739 2.63008 31.1657 1.77046C30.9589 1.19122 31.2589 0.553079 31.8361 0.345398C32.0434 0.270827 32.2583 0.261878 32.4582 0.308112L32.4586 0.306062C35.3907 0.980373 37.8793 1.99846 39.4293 3.63511C41.0982 5.39798 41.6702 7.75331 40.5708 10.9614C40.4008 11.4595 39.9151 11.7589 39.415 11.7123L39.37 11.7121V11.7164C38.6185 11.7164 37.8861 11.8038 37.1828 11.969L40.4148 20.9664C40.6213 21.5458 40.3216 22.184 39.7444 22.3918C39.1676 22.5991 38.532 22.2979 38.3255 21.7186L35.0954 12.7257C34.164 13.1925 33.318 13.8072 32.5887 14.5399C30.8592 16.2764 29.7852 18.6767 29.7852 21.3426C29.7852 21.7893 29.8141 22.5175 29.8719 23.2047C29.9148 23.7159 29.9712 24.192 30.0393 24.4826C30.1789 25.0837 29.8064 25.6847 29.2078 25.8245C29.0872 25.8529 28.9662 25.86 28.8491 25.8488C24.6946 25.7481 21.4041 25.5058 18.2031 24.9824C14.9735 24.4543 11.845 23.6428 8.0251 22.4051C7.44083 22.2166 7.11943 21.5883 7.30679 21.0018C7.40951 20.6795 7.64479 20.4371 7.93263 20.3148L16.2828 16.3741ZM17.8107 22.651C17.6785 21.0757 17.4371 19.6881 17.0788 18.4619L11.4347 21.1249C13.6989 21.7876 15.7499 22.2828 17.8107 22.651ZM25.0607 10.0128C26.106 10.2412 27.0975 10.5246 28.0285 10.8458C29.3389 11.2975 30.5454 11.8268 31.6252 12.3836C32.4341 11.6784 33.3391 11.0822 34.3165 10.6168C34.1856 10.3022 34.043 10.0001 33.8836 9.73094C33.6241 9.29432 33.3169 8.94254 32.93 8.78985C30.7349 7.92296 28.9664 7.65171 27.5741 8.05831C26.6034 8.34149 25.7733 8.9828 25.0607 10.0128Z" fill="#F8F8F8"/>
</svg>
