<svg width="43" height="42" viewBox="0 0 43 42" fill="none" xmlns="http://www.w3.org/2000/svg">
<path d="M36.1994 27.2826C35.8669 20.6676 31.1069 14.9451 24.6144 13.4926C24.2469 13.4051 23.9669 13.0551 23.9844 12.6526V12.2501C23.9844 11.5501 23.7219 10.8851 23.2144 10.3951C22.2169 9.3976 20.4844 9.3976 19.5044 10.3951C19.0144 10.8851 18.7344 11.5501 18.7344 12.2501V12.6526C18.7344 13.0551 18.4719 13.4051 18.1044 13.4926C11.6119 14.9451 6.83437 20.6851 6.51937 27.2826C5.48687 27.6326 4.73438 28.6126 4.73438 29.7501C4.73438 31.2026 5.90688 32.3751 7.35938 32.3751H35.3594C36.8119 32.3751 37.9844 31.2026 37.9844 29.7501C37.9844 28.5951 37.2319 27.6326 36.1994 27.2826ZM35.3594 30.6251H7.35938C6.86937 30.6251 6.48438 30.2401 6.48438 29.7501C6.48438 29.2601 6.86937 28.8751 7.35938 28.8751H26.6094C27.0994 28.8751 27.4844 28.4901 27.4844 28.0001C27.4844 27.5101 27.0994 27.1251 26.6094 27.1251H8.26937C8.65438 21.4026 12.8369 16.4501 18.4894 15.1901C19.6619 14.9276 20.5019 13.8601 20.4844 12.6351V12.2326C20.4844 12.0051 20.5719 11.7776 20.7294 11.6201C21.0619 11.2876 21.6394 11.2876 21.9544 11.6201C22.1119 11.7776 22.2169 12.0051 22.1994 12.2326V12.6351C22.1994 13.8426 23.0394 14.9276 24.1944 15.1901C29.8469 16.4501 34.0119 21.3851 34.4144 27.1251H31.8244C31.3344 27.1251 30.9494 27.5101 30.9494 28.0001C30.9494 28.4901 31.3344 28.8751 31.8244 28.8751H35.3244C35.8144 28.8751 36.1994 29.2601 36.1994 29.7501C36.1994 30.2401 35.8144 30.6251 35.3244 30.6251H35.3594Z" fill="#AF4300"/>
</svg>
