<svg width="17" height="19" viewBox="0 0 17 19" fill="none" xmlns="http://www.w3.org/2000/svg">
<path d="M2.5 19C2.21667 19 1.97917 18.9042 1.7875 18.7125C1.59583 18.5208 1.5 18.2833 1.5 18V15.95C1.2 15.6167 0.958333 15.2458 0.775 14.8375C0.591667 14.4292 0.5 13.9833 0.5 13.5V4C0.5 2.61667 1.14167 1.60417 2.425 0.9625C3.70833 0.320833 5.73333 0 8.5 0C11.3667 0 13.4167 0.308333 14.65 0.925C15.8833 1.54167 16.5 2.56667 16.5 4V13.5C16.5 13.9833 16.4083 14.4292 16.225 14.8375C16.0417 15.2458 15.8 15.6167 15.5 15.95V18C15.5 18.2833 15.4042 18.5208 15.2125 18.7125C15.0208 18.9042 14.7833 19 14.5 19H13.5C13.2167 19 12.9792 18.9042 12.7875 18.7125C12.5958 18.5208 12.5 18.2833 12.5 18V17H4.5V18C4.5 18.2833 4.40417 18.5208 4.2125 18.7125C4.02083 18.9042 3.78333 19 3.5 19H2.5ZM2.5 8H14.5V5H2.5V8ZM5 14C5.41667 14 5.77083 13.8542 6.0625 13.5625C6.35417 13.2708 6.5 12.9167 6.5 12.5C6.5 12.0833 6.35417 11.7292 6.0625 11.4375C5.77083 11.1458 5.41667 11 5 11C4.58333 11 4.22917 11.1458 3.9375 11.4375C3.64583 11.7292 3.5 12.0833 3.5 12.5C3.5 12.9167 3.64583 13.2708 3.9375 13.5625C4.22917 13.8542 4.58333 14 5 14ZM12 14C12.4167 14 12.7708 13.8542 13.0625 13.5625C13.3542 13.2708 13.5 12.9167 13.5 12.5C13.5 12.0833 13.3542 11.7292 13.0625 11.4375C12.7708 11.1458 12.4167 11 12 11C11.5833 11 11.2292 11.1458 10.9375 11.4375C10.6458 11.7292 10.5 12.0833 10.5 12.5C10.5 12.9167 10.6458 13.2708 10.9375 13.5625C11.2292 13.8542 11.5833 14 12 14ZM2.95 3H14.15C13.9 2.71667 13.3625 2.47917 12.5375 2.2875C11.7125 2.09583 10.3833 2 8.55 2C6.76667 2 5.4625 2.10417 4.6375 2.3125C3.8125 2.52083 3.25 2.75 2.95 3ZM4.5 15H12.5C13.05 15 13.5208 14.8042 13.9125 14.4125C14.3042 14.0208 14.5 13.55 14.5 13V10H2.5V13C2.5 13.55 2.69583 14.0208 3.0875 14.4125C3.47917 14.8042 3.95 15 4.5 15Z" fill="url(#paint0_linear_4952_1451)"/>
<defs>
<linearGradient id="paint0_linear_4952_1451" x1="0.5" y1="9.5" x2="16.5" y2="9.5" gradientUnits="userSpaceOnUse">
<stop stop-color="#216432"/>
<stop offset="0.894231" stop-color="#114422"/>
</linearGradient>
</defs>
</svg>
