<svg width="43" height="42" viewBox="0 0 43 42" fill="none" xmlns="http://www.w3.org/2000/svg">
<path d="M31.8594 13.125H30.1094C29.6194 13.125 29.2344 13.51 29.2344 14C29.2344 14.49 29.6194 14.875 30.1094 14.875H31.8594C34.2744 14.875 36.2344 16.835 36.2344 19.25V21.875H34.3269C34.4319 21.595 34.4844 21.315 34.4844 21C34.4844 19.5475 33.3119 18.375 31.8594 18.375H26.6094C25.1569 18.375 23.9844 19.5475 23.9844 21C23.9844 21.315 24.0544 21.595 24.1419 21.875H18.5769C18.6819 21.595 18.7344 21.315 18.7344 21C18.7344 19.5475 17.5619 18.375 16.1094 18.375H10.8594C9.40688 18.375 8.23438 19.5475 8.23438 21C8.23438 21.315 8.30438 21.595 8.39188 21.875H6.48438V19.25C6.48438 16.835 8.44438 14.875 10.8594 14.875H12.6094C13.0994 14.875 13.4844 14.49 13.4844 14C13.4844 13.51 13.0994 13.125 12.6094 13.125H10.8594C7.48188 13.125 4.73438 15.8725 4.73438 19.25V34.125C4.73438 35.0875 5.52187 35.875 6.48438 35.875H8.23438C9.19688 35.875 9.98438 35.0875 9.98438 34.125V33.25C9.98438 32.76 10.3694 32.375 10.8594 32.375H31.8594C32.3494 32.375 32.7344 32.76 32.7344 33.25V34.125C32.7344 35.0875 33.5219 35.875 34.4844 35.875H36.2344C37.1969 35.875 37.9844 35.0875 37.9844 34.125V19.25C37.9844 15.8725 35.2369 13.125 31.8594 13.125ZM25.7344 21C25.7344 20.51 26.1194 20.125 26.6094 20.125H31.8594C32.3494 20.125 32.7344 20.51 32.7344 21C32.7344 21.49 32.3494 21.875 31.8594 21.875H26.6094C26.1194 21.875 25.7344 21.49 25.7344 21ZM9.98438 21C9.98438 20.51 10.3694 20.125 10.8594 20.125H16.1094C16.5994 20.125 16.9844 20.51 16.9844 21C16.9844 21.49 16.5994 21.875 16.1094 21.875H10.8594C10.3694 21.875 9.98438 21.49 9.98438 21ZM10.8594 23.625H36.2344V27.125H6.48438V23.625H10.8594ZM34.4844 34.125V33.25C34.4844 31.7975 33.3119 30.625 31.8594 30.625H10.8594C9.40688 30.625 8.23438 31.7975 8.23438 33.25V34.125H6.48438V28.875H36.2344V34.125H34.4844Z" fill="#AF4300"/>
<path d="M19.5025 16.8876C20.01 17.3951 20.6925 17.6576 21.3575 17.6576C22.0225 17.6576 22.705 17.3951 23.2125 16.8876L28.0775 12.0226C28.8825 11.2176 29.075 10.0101 28.5675 8.99508L27.8675 7.59508C27.43 6.70258 26.52 6.14258 25.5225 6.14258H17.1925C16.195 6.14258 15.285 6.70258 14.8475 7.59508L14.1475 8.99508C13.64 10.0101 13.8325 11.2176 14.6375 12.0226L19.5025 16.8876ZM15.705 9.76508L16.405 8.36508C16.545 8.06758 16.86 7.87508 17.1925 7.87508H25.5225C25.855 7.87508 26.1525 8.06758 26.31 8.36508L27.01 9.76508C27.185 10.0976 27.115 10.5001 26.8525 10.7801L21.9875 15.6451C21.6375 15.9951 21.095 15.9951 20.745 15.6451L15.88 10.7801C15.6175 10.5176 15.5475 10.1151 15.7225 9.76508H15.705Z" fill="#AF4300"/>
<path d="M19.2259 11.2875C19.6634 11.4975 20.1884 11.3225 20.3984 10.9025C20.7659 10.15 21.9559 10.15 22.3409 10.9025C22.4984 11.2175 22.7959 11.3925 23.1284 11.3925C23.2684 11.3925 23.3909 11.3575 23.5134 11.305C23.9509 11.095 24.1259 10.57 23.8984 10.1325C23.4084 9.16995 22.4459 8.57495 21.3609 8.57495C20.2759 8.57495 19.3134 9.16995 18.8234 10.1325C18.6134 10.57 18.7884 11.095 19.2084 11.305L19.2259 11.2875Z" fill="#AF4300"/>
</svg>
