<svg width="24" height="25" viewBox="0 0 24 25" fill="none" xmlns="http://www.w3.org/2000/svg">
<path d="M9 17.0596C8.3 17.0596 7.70833 16.8179 7.225 16.3346C6.74167 15.8512 6.5 15.2596 6.5 14.5596C6.5 13.8596 6.74167 13.2679 7.225 12.7846C7.70833 12.3012 8.3 12.0596 9 12.0596C9.7 12.0596 10.2917 12.3012 10.775 12.7846C11.2583 13.2679 11.5 13.8596 11.5 14.5596C11.5 15.2596 11.2583 15.8512 10.775 16.3346C10.2917 16.8179 9.7 17.0596 9 17.0596ZM5 22.5596C4.45 22.5596 3.97917 22.3637 3.5875 21.9721C3.19583 21.5804 3 21.1096 3 20.5596V6.55957C3 6.00957 3.19583 5.53874 3.5875 5.14707C3.97917 4.7554 4.45 4.55957 5 4.55957H6V2.55957H8V4.55957H16V2.55957H18V4.55957H19C19.55 4.55957 20.0208 4.7554 20.4125 5.14707C20.8042 5.53874 21 6.00957 21 6.55957V20.5596C21 21.1096 20.8042 21.5804 20.4125 21.9721C20.0208 22.3637 19.55 22.5596 19 22.5596H5ZM5 20.5596H19V10.5596H5V20.5596Z" fill="#246132"/>
</svg>
