<svg width="40" height="40" viewBox="0 0 40 40" fill="none" xmlns="http://www.w3.org/2000/svg">
<path d="M5 20L11.6667 10H23.3333L28.3333 16.6667C30.2778 16.3889 34.3333 16.6667 35 20" stroke="#AF4300" stroke-width="2" stroke-linecap="round" stroke-linejoin="round"/>
<path d="M11.6693 29.9999C13.5102 29.9999 15.0026 28.5075 15.0026 26.6666C15.0026 24.8256 13.5102 23.3333 11.6693 23.3333C9.82832 23.3333 8.33594 24.8256 8.33594 26.6666C8.33594 28.5075 9.82832 29.9999 11.6693 29.9999Z" stroke="#AF4300" stroke-width="2" stroke-linecap="round" stroke-linejoin="round"/>
<path d="M28.3333 29.9999C30.1743 29.9999 31.6667 28.5075 31.6667 26.6666C31.6667 24.8256 30.1743 23.3333 28.3333 23.3333C26.4924 23.3333 25 24.8256 25 26.6666C25 28.5075 26.4924 29.9999 28.3333 29.9999Z" stroke="#AF4300" stroke-width="2" stroke-linecap="round" stroke-linejoin="round"/>
</svg>
