<svg width="24" height="25" viewBox="0 0 24 25" fill="none" xmlns="http://www.w3.org/2000/svg">
<path d="M6 19.5596V20.5596C6 20.8429 5.90417 21.0804 5.7125 21.2721C5.52083 21.4637 5.28333 21.5596 5 21.5596H4C3.71667 21.5596 3.47917 21.4637 3.2875 21.2721C3.09583 21.0804 3 20.8429 3 20.5596V12.5596L5.1 6.55957C5.2 6.25957 5.37917 6.0179 5.6375 5.83457C5.89583 5.65124 6.18333 5.55957 6.5 5.55957H9V3.55957H15V5.55957H17.5C17.8167 5.55957 18.1042 5.65124 18.3625 5.83457C18.6208 6.0179 18.8 6.25957 18.9 6.55957L21 12.5596V20.5596C21 20.8429 20.9042 21.0804 20.7125 21.2721C20.5208 21.4637 20.2833 21.5596 20 21.5596H19C18.7167 21.5596 18.4792 21.4637 18.2875 21.2721C18.0958 21.0804 18 20.8429 18 20.5596V19.5596H6ZM5.8 10.5596H18.2L17.15 7.55957H6.85L5.8 10.5596ZM7.5 16.5596C7.91667 16.5596 8.27083 16.4137 8.5625 16.1221C8.85417 15.8304 9 15.4762 9 15.0596C9 14.6429 8.85417 14.2887 8.5625 13.9971C8.27083 13.7054 7.91667 13.5596 7.5 13.5596C7.08333 13.5596 6.72917 13.7054 6.4375 13.9971C6.14583 14.2887 6 14.6429 6 15.0596C6 15.4762 6.14583 15.8304 6.4375 16.1221C6.72917 16.4137 7.08333 16.5596 7.5 16.5596ZM16.5 16.5596C16.9167 16.5596 17.2708 16.4137 17.5625 16.1221C17.8542 15.8304 18 15.4762 18 15.0596C18 14.6429 17.8542 14.2887 17.5625 13.9971C17.2708 13.7054 16.9167 13.5596 16.5 13.5596C16.0833 13.5596 15.7292 13.7054 15.4375 13.9971C15.1458 14.2887 15 14.6429 15 15.0596C15 15.4762 15.1458 15.8304 15.4375 16.1221C15.7292 16.4137 16.0833 16.5596 16.5 16.5596ZM5 17.5596H19V12.5596H5V17.5596Z" fill="url(#paint0_linear_4793_2456)"/>
<defs>
<linearGradient id="paint0_linear_4793_2456" x1="3" y1="12.5596" x2="21" y2="12.5596" gradientUnits="userSpaceOnUse">
<stop stop-color="#216432"/>
<stop offset="0.894231" stop-color="#114422"/>
</linearGradient>
</defs>
</svg>
