<svg width="52" height="26" viewBox="0 0 52 26" fill="none" xmlns="http://www.w3.org/2000/svg">
<path fill-rule="evenodd" clip-rule="evenodd" d="M23.0142 1.47338C28.4758 0.155769 39.7905 0.125826 45.6275 1.25538C47.5747 1.63209 48.9974 2.13561 49.4723 4.41115C49.7588 5.78278 49.9673 7.87398 50.1168 10.1106H48.3037C47.8714 10.1106 47.5209 10.4634 47.5209 10.8984C47.5209 11.3337 47.8714 11.6863 48.3037 11.6863H50.2119C50.3183 13.6521 50.3841 15.6266 50.4207 17.2386C50.744 17.4114 50.9825 17.7339 51.0334 18.1272V19.112C51.117 19.7572 50.6651 20.3484 50.0244 20.4325L47.9896 20.7057C48.0033 20.5307 48.0101 20.3546 48.0101 20.1775C48.0101 18.3971 47.3119 16.7006 46.0612 15.4419C44.8107 14.1832 43.1254 13.4802 41.3565 13.4802C39.5876 13.4802 37.9025 14.1834 36.6518 15.4419C35.4011 16.7008 34.7029 18.3973 34.7029 20.1775C34.7029 20.4425 34.7185 20.719 34.7488 20.9791L17.24 20.9785C17.2702 20.7184 17.2858 20.4425 17.2858 20.1775C17.2858 18.3971 16.5876 16.7006 15.3369 15.4419C14.0862 14.1832 12.4011 13.4802 10.6322 13.4802C8.8633 13.4802 7.17797 14.1834 5.92748 15.4419C4.67699 16.7008 3.97856 18.3973 3.97856 20.1775C3.97856 20.5589 4.01085 20.9366 4.07327 21.3067L1.96427 21.0235C1.32356 20.9394 0.871703 20.3484 0.955265 19.7033V18.7182C1.01104 18.2885 1.29029 17.9433 1.66035 17.7853L1.78658 15.821C1.81671 15.3517 1.88149 14.9078 1.97816 14.4885L1.99812 14.4849L3.99343 14.1157C4.41711 14.0374 4.69793 13.628 4.62024 13.2016C4.54255 12.775 4.13589 12.4926 3.71202 12.5707L2.61104 12.7744C3.05644 11.9325 3.66192 11.2219 4.38775 10.6262C5.96466 9.33151 8.0856 8.62721 10.3228 8.30783C13.132 5.99394 19.8144 2.2454 23.0142 1.47338ZM28.0929 3.08023L27.904 9.44501C31.3115 9.30822 34.7586 9.17202 38.0991 9.03288L37.2099 2.93503C37.205 2.90098 37.2023 2.86693 37.2015 2.83327C34.1279 2.74579 30.8819 2.82563 28.0929 3.08023ZM26.3412 9.50803L26.5267 3.24775C25.412 3.38669 24.4048 3.55832 23.5553 3.76321C21.4917 4.26106 17.1183 6.55167 14.5586 8.16263C14.6508 9.33112 15.8504 9.95637 17.0304 9.90255C19.997 9.7683 23.1414 9.63758 26.3412 9.50803ZM38.7841 2.89393L39.6696 8.96693C41.1289 8.90509 42.5626 8.84247 43.9584 8.77887C45.826 8.69355 47.4721 7.67359 47.3195 5.7955C47.2716 5.2045 47.1412 4.29491 46.7035 4.01487C46.3966 3.8184 45.8606 3.70352 45.1868 3.57299C43.4651 3.23972 41.2181 3.01194 38.7841 2.89393Z" fill="#FEFEFE"/>
<path d="M10.6346 15.2532C11.9854 15.2532 13.2083 15.8041 14.0941 16.6954C14.9792 17.5866 15.5269 18.8178 15.5269 20.1774C15.5269 21.5371 14.9792 22.7683 14.0941 23.6596C13.2083 24.5508 11.9852 25.1019 10.6346 25.1019C9.28387 25.1019 8.06059 24.5508 7.17526 23.6596C6.28994 22.7683 5.74219 21.5371 5.74219 20.1774C5.74219 18.8178 6.28974 17.5866 7.17526 16.6954C8.06059 15.8041 9.28368 15.2532 10.6346 15.2532ZM11.88 18.9238C11.5614 18.6031 11.1209 18.4046 10.6344 18.4046C10.1479 18.4046 9.70755 18.6033 9.38877 18.9238C9.07018 19.2446 8.87311 19.6878 8.87311 20.1774C8.87311 20.6673 9.07018 21.1107 9.38877 21.4313C9.70736 21.752 10.1479 21.95 10.6344 21.95C11.1209 21.95 11.5614 21.7518 11.88 21.4313C12.1986 21.1105 12.3956 20.6673 12.3956 20.1774C12.3958 19.6878 12.1986 19.2444 11.88 18.9238Z" fill="#F8F8F8"/>
<path d="M41.3611 15.2532C42.7118 15.2532 43.9349 15.8041 44.8206 16.6954C45.7057 17.5866 46.2535 18.8178 46.2535 20.1774C46.2535 21.5371 45.7057 22.7683 44.8206 23.6596C43.9351 24.5508 42.712 25.1019 41.3611 25.1019C40.0102 25.1019 38.7873 24.5508 37.9018 23.6596C37.0165 22.7683 36.4688 21.5371 36.4688 20.1774C36.4688 18.8178 37.0165 17.5866 37.9018 16.6954C38.7873 15.8041 40.0104 15.2532 41.3611 15.2532ZM42.6067 18.9238C42.2879 18.6031 41.8476 18.4046 41.3611 18.4046C40.8746 18.4046 40.4343 18.6033 40.1157 18.9238C39.7971 19.2446 39.5999 19.6878 39.5999 20.1774C39.5999 20.6673 39.7971 21.1107 40.1157 21.4313C40.4343 21.752 40.8746 21.95 41.3611 21.95C41.8476 21.95 42.2879 21.7518 42.6067 21.4313C42.9251 21.1105 43.1224 20.6673 43.1224 20.1774C43.1224 19.6878 42.9251 19.2444 42.6067 18.9238Z" fill="#F8F8F8"/>
</svg>
