<svg width="52" height="22" viewBox="0 0 52 22" fill="none" xmlns="http://www.w3.org/2000/svg">
<path fill-rule="evenodd" clip-rule="evenodd" d="M23.0142 1.47338C28.4758 0.155769 39.7905 0.125826 45.6275 1.25538C47.5747 1.63209 48.9974 2.13561 49.4723 4.41115C49.7588 5.78278 49.9673 7.87398 50.1168 10.1106H48.3037C47.8714 10.1106 47.5209 10.4634 47.5209 10.8984C47.5209 11.3337 47.8714 11.6863 48.3037 11.6863H50.2119C50.3183 13.6521 50.3841 15.6266 50.4207 17.2386C50.744 17.4114 50.9825 17.7339 51.0334 18.1272V19.112C51.117 19.7572 50.6651 20.3484 50.0244 20.4325L47.9896 20.7057C48.0033 20.5307 48.0101 20.3546 48.0101 20.1775C48.0101 18.3971 47.3119 16.7006 46.0612 15.4419C44.8107 14.1832 43.1254 13.4802 41.3565 13.4802C39.5876 13.4802 37.9025 14.1834 36.6518 15.4419C35.4011 16.7008 34.7029 18.3973 34.7029 20.1775C34.7029 20.4425 34.7185 20.719 34.7488 20.9791L17.24 20.9785C17.2702 20.7184 17.2858 20.4425 17.2858 20.1775C17.2858 18.3971 16.5876 16.7006 15.3369 15.4419C14.0862 14.1832 12.4011 13.4802 10.6322 13.4802C8.8633 13.4802 7.17797 14.1834 5.92748 15.4419C4.67699 16.7008 3.97856 18.3973 3.97856 20.1775C3.97856 20.5589 4.01085 20.9366 4.07327 21.3067L1.96427 21.0235C1.32356 20.9394 0.871703 20.3484 0.955265 19.7033V18.7182C1.01104 18.2885 1.29029 17.9433 1.66035 17.7853L1.78658 15.821C1.81671 15.3517 1.88149 14.9078 1.97816 14.4885L1.99812 14.4849L3.99343 14.1157C4.41711 14.0374 4.69793 13.628 4.62024 13.2016C4.54255 12.775 4.13589 12.4926 3.71202 12.5707L2.61104 12.7744C3.05644 11.9325 3.66192 11.2219 4.38775 10.6262C5.96466 9.33151 8.08561 8.62721 10.3228 8.30783C13.132 5.99394 19.8144 2.2454 23.0142 1.47338ZM28.0929 3.08023L27.904 9.44501C31.3115 9.30822 34.7586 9.17202 38.0991 9.03288L37.2099 2.93503C37.205 2.90098 37.2023 2.86693 37.2015 2.83327C34.1279 2.74579 30.8819 2.82563 28.0929 3.08023ZM26.3412 9.50803L26.5267 3.24775C25.412 3.38669 24.4048 3.55832 23.5553 3.76321C21.4917 4.26106 17.1183 6.55167 14.5586 8.16263C14.6508 9.33112 15.8504 9.95637 17.0304 9.90255C19.997 9.7683 23.1414 9.63758 26.3412 9.50803ZM38.7841 2.89393L39.6696 8.96693C41.1289 8.90509 42.5626 8.84247 43.9584 8.77887C45.826 8.69355 47.4721 7.67359 47.3195 5.7955C47.2716 5.2045 47.1412 4.29491 46.7035 4.01487C46.3966 3.8184 45.8606 3.70352 45.1868 3.57299C43.4651 3.23972 41.2181 3.01194 38.7841 2.89393Z" fill="#FEFEFE"/>
</svg>
