<svg width="54" height="29" viewBox="0 0 54 29" fill="none" xmlns="http://www.w3.org/2000/svg">
<path fill-rule="evenodd" clip-rule="evenodd" d="M40.8462 10.4684C40.1525 9.32439 39.3863 8.27578 38.8919 7.89668C38.8633 7.87558 38.8359 7.8533 38.8097 7.83024C38.0977 7.45823 37.4535 7.21909 36.921 7.17277C35.0685 7.01111 33.1563 6.9285 31.2945 6.93343L30.8558 12.8848C33.0059 12.7657 35.1495 12.623 37.1568 12.4895C38.8023 12.3801 40.3551 12.277 41.7873 12.1964C41.5352 11.6639 41.2058 11.0618 40.8462 10.4684ZM53.247 20.4391C53.5991 20.6107 53.9198 20.9352 53.9198 21.3312V22.3152C53.9198 22.9598 53.5185 23.5507 52.8299 23.6343L50.5888 23.9077C50.5989 23.7866 50.5547 23.6652 50.5547 23.5432V23.5404V23.538V23.5369V23.5353V23.5329V23.5302V23.5286V23.5274V23.525V23.5223V23.5199V23.5195V23.5171V23.5144V23.5116V23.5093V23.5065V23.5041V23.503V23.5014V23.4986V23.4963V23.4945V23.4937V23.4909V23.4886V23.4862V23.4858V23.483V23.4807V23.4779V23.4775V23.4755V23.4728V23.47V23.4692V23.4677V23.4623V23.4608V23.46V23.4572V23.4545V23.4495V23.4468V23.4444V23.444V23.4416V23.4393V23.4365V23.4357V23.4338V23.431V23.4286V23.4271V23.4259V23.4235V23.4207V23.4188V23.418V23.4156V23.4129V23.4101V23.4077V23.405V23.4022V23.4018V23.3998V23.3971V23.3943V23.3931V23.392V23.3892V23.3864V23.3847V23.3843V23.3815V23.3791V23.3764V23.3044V23.2928L50.5551 23.2863L50.5547 23.2134V23.2072C50.5547 23.1822 50.6048 23.157 50.6035 23.1315L50.6287 23.1211L50.6382 23.0474L50.6441 23.0369L50.5985 22.9722L50.5547 22.9649V22.9537V22.8869V22.8823V22.8782L50.5915 22.8122L50.6119 22.7999L50.6222 22.798L50.6264 22.7859L50.6235 22.7309L50.6237 22.7177L50.6235 22.7093L50.6159 22.641L50.6149 22.631L50.6071 22.5665L50.6035 22.5403L50.6022 22.5318L50.5961 22.4877L50.5957 22.4827L50.5919 22.4589L50.5833 22.4019L50.5781 22.3702L50.572 22.3317L50.565 22.2917L50.5551 22.2357L50.5537 22.2288L50.553 22.2247L50.5408 22.1626L50.5381 22.1484L50.5358 22.1375L50.527 22.094L50.5253 22.0863L50.5179 22.0518L50.5175 22.0506L50.508 22.007L50.507 22.0025L50.4998 21.9706L50.4981 21.9637L50.4878 21.9207L50.4792 21.8848L50.4775 21.8775L50.4668 21.8345L50.4603 21.8083L50.4508 21.772L50.4353 21.7149L50.4308 21.6987L50.4209 21.6628L50.4085 21.6202L50.3961 21.5775L50.3831 21.5351L50.3808 21.5274L50.3698 21.4925L50.3568 21.4501L50.3438 21.4101L50.3429 21.4081L50.329 21.3659L50.316 21.3275L50.3122 21.3162L50.2876 21.2465L50.2834 21.2352L50.2558 21.1603L50.2529 21.153L50.2386 21.1153L50.2226 21.0738L50.2209 21.0696L50.2062 21.0329L50.1898 20.9917L50.1728 20.9507L50.1555 20.9095L50.1393 20.8719L50.1381 20.8687L50.1202 20.8281C50.1023 20.7873 50.084 20.7473 50.0653 20.7071L50.0645 20.7055L50.03 20.6323C49.6781 19.9013 49.1849 19.2291 48.5651 18.6489C47.2209 17.3913 45.4099 16.6891 43.5088 16.6891C41.6077 16.6891 39.7965 17.3913 38.4525 18.6489C37.1084 19.9067 36.358 21.5773 36.358 23.3563C36.358 23.6206 36.3748 23.9227 36.4072 24.1194H17.5901C17.6229 23.9227 17.6398 23.6206 17.6398 23.3563C17.6398 21.5775 16.8891 19.8942 15.5452 18.6369C14.2011 17.3795 12.3898 16.6828 10.4887 16.6828C8.58764 16.6828 6.77637 17.3887 5.43243 18.6459C4.6593 19.3698 4.0826 20.2392 3.732 21.1847L3.72127 21.2147L3.70255 21.2671L3.69898 21.2774L3.69646 21.2849L3.68489 21.3178L3.67984 21.3328L3.66596 21.374L3.66259 21.3841L3.65166 21.417L3.65082 21.4201L3.64156 21.4489L3.62558 21.4994L3.61843 21.5223L3.60097 21.5804L3.59382 21.6051L3.59024 21.6171L3.58057 21.6504L3.62158 21.652L3.65397 21.6835V21.6839L3.60328 21.7178L3.57426 21.748L3.56311 21.7511L3.55596 21.758L3.5383 21.8162L3.53135 21.8389L3.51705 21.8941L3.51074 21.9191L3.47183 21.9771L3.44323 21.9867V21.9879L3.46658 21.996L3.46552 22.0579L3.46637 22.0831L3.45753 22.1413L3.45774 22.1478L3.45585 22.1586L3.44323 22.2272V22.2284V22.2288L3.43082 22.2994L3.42704 22.3232L3.41799 22.3779L3.41316 22.4088L3.40474 22.4642L3.40432 22.4683L3.40369 22.4719L3.40222 22.4823L3.3936 22.5442L3.39128 22.5624L3.38266 22.6314L3.38224 22.6353L3.38161 22.6418L3.37362 22.7118L3.37298 22.7171L3.37277 22.7211L3.36583 22.7909L3.40685 22.8086L3.44323 22.8804V22.8823L3.40012 22.8865L3.41946 22.9569L3.44323 22.9649V22.9689L3.39296 23.0432L3.41968 23.0505C3.4182 23.0771 3.44323 23.1037 3.44323 23.1305V23.1325C3.44323 23.1564 3.44281 23.1796 3.44218 23.2031L3.44323 23.2135V23.2208V23.2889V23.2965V23.3092L3.23291 23.3799V23.392V23.3973V23.4042V23.4154V23.417V23.4292V23.433V23.4414L3.44323 23.4511V23.4539V23.4665V23.4688V23.4789V23.4866V23.4911V23.5033V23.5045V23.5158V23.5223V23.5284V23.5404V23.5408V23.553V23.558V23.5653V23.5757V23.5777V23.5899V23.5934V23.6027V23.6114V23.6149V23.6272V23.6291V23.6469V23.6518V23.6764V23.6826L3.39465 23.6948L3.41968 23.7251H3.44323V23.7178V23.7259V23.7356V23.7383L3.39633 23.7506L3.37551 23.7999L3.36415 23.8064L3.35868 23.8121L3.35658 23.8241L3.38666 23.8245C3.39339 23.9185 3.44323 24.0124 3.44323 24.1058V24.1062L3.41294 24.1182L3.42725 24.124L3.44323 24.1419V24.1427L3.41673 24.1671C3.43103 24.2813 3.43398 24.395 3.45459 24.508L1.17536 24.2249C0.486565 24.1411 0.078125 23.5503 0.078125 22.9062V21.9219C0.078125 21.498 0.436088 21.1562 0.82623 20.9959L1.0132 17.9812C1.10659 17.9957 1.20544 17.9958 1.30386 17.9788L3.44891 17.6099C3.90446 17.5321 4.20648 17.1228 4.12298 16.6966C4.03949 16.2704 3.60244 15.9882 3.1471 16.0663L1.11163 16.4168L1.13435 16.0458C1.15874 15.6308 1.41029 15.2773 1.76993 15.0861C3.17613 14.2305 5.05554 13.4735 7.09458 12.868C9.15844 12.2553 11.4105 11.7863 13.5118 11.5212C15.1199 10.1599 17.293 8.47273 19.4081 7.17355C21.1376 6.11115 22.8645 5.29241 24.305 5.06826L24.3662 5.0588C24.3666 5.00793 24.3723 4.95608 24.3839 4.90443L25.1583 1.37221C25.2409 1.00138 25.5267 0.746477 25.9474 0.746674V0.699951H36.9439C37.4032 0.699951 37.7761 1.06644 37.7852 1.49405L38.0517 4.98033C39.4661 5.35155 41.0599 6.27517 42.6543 7.42747C44.3635 8.66317 46.1008 10.1788 47.5915 11.5411C49.5677 11.7867 50.2838 11.9913 51.4418 12.3204C51.5712 12.3574 51.71 12.3973 52.1719 12.524C52.7334 12.6784 53.0928 13.1673 53.0754 13.6903L53.0941 14.4649C53.048 14.4576 53.0007 14.4761 52.9524 14.4761H50.8081C50.3436 14.4761 49.9669 14.8286 49.9669 15.2633C49.9669 15.698 50.3436 16.0505 50.8081 16.0505H52.9524C53.014 16.0505 53.0769 16.0219 53.1347 16.0103L53.247 20.4391ZM29.6086 6.963C27.8674 7.02018 26.2017 7.16074 24.7092 7.39297C23.666 7.55522 22.2617 8.24247 20.7882 9.14755C19.1701 10.1414 17.5115 11.3796 16.1282 12.5012C16.3499 12.5739 16.5863 12.6411 16.8366 12.703C17.7464 12.9274 18.8125 13.0689 19.9918 13.1147C22.6752 13.2192 25.8881 13.1336 29.1657 12.9735L29.6086 6.963ZM36.3498 4.74258L36.1622 2.27414H26.6921L26.1146 4.81335C27.4507 4.67535 28.878 4.59472 30.3458 4.56771C32.3158 4.53203 34.3582 4.59373 36.3498 4.74258ZM17.7449 16.0503H19.8481V18.0182H17.7449V16.0503ZM19.8481 18.0182L21.9513 18.0184V19.9863H19.8481V18.0182ZM21.9513 16.0503H24.0545V18.0182L21.9513 18.0184V16.0503ZM24.0545 18.0182L26.1577 18.0184V19.9863H24.0545V18.0182ZM26.1577 16.0503H28.2609V18.0182L26.1577 18.0184V16.0503ZM28.2609 18.0182L30.3641 18.0184V19.9863H28.2609V18.0182ZM30.3641 16.0503H32.4673V18.0182L30.3641 18.0184V16.0503ZM32.4673 18.0182L34.5705 18.0184V19.9863H32.4673V18.0182ZM34.5705 16.0503H36.6737V18.0182L34.5705 18.0184V16.0503Z" fill="#FEFEFE"/>
<path d="M43.5046 18.46C44.9563 18.46 46.2708 19.0108 47.2225 19.9011C48.1739 20.7918 48.7626 22.0218 48.7626 23.3801C48.7626 24.7384 48.1739 25.9684 47.2225 26.8589C46.271 27.7492 44.9565 28.3 43.5046 28.3C42.0528 28.3 40.7385 27.7492 39.7866 26.8589C38.8354 25.9682 38.2467 24.7382 38.2467 23.3801C38.2467 22.0216 38.8354 20.7916 39.7866 19.9011C40.7385 19.0108 42.053 18.46 43.5046 18.46ZM10.4845 18.46C11.9364 18.46 13.2509 19.0108 14.2024 19.9011C15.1538 20.7918 15.7425 22.0218 15.7425 23.3801C15.7425 24.7384 15.1538 25.9684 14.2024 26.8589C13.2507 27.7492 11.9362 28.3 10.4845 28.3C9.03292 28.3 7.71821 27.7492 6.76673 26.8589C5.81525 25.9682 5.22656 24.7382 5.22656 23.3801C5.22656 22.0216 5.81504 20.7916 6.76673 19.9011C7.71821 19.0108 9.03271 18.46 10.4845 18.46ZM11.823 22.1272C11.4806 21.8071 11.0072 21.6087 10.4843 21.6087C9.96148 21.6087 9.48805 21.8071 9.14565 22.1272C8.80325 22.4478 8.59146 22.8906 8.59146 23.3801C8.59146 23.8694 8.80325 24.3122 9.14565 24.6327C9.48805 24.9529 9.96148 25.1514 10.4843 25.1514C11.0072 25.1514 11.4804 24.9529 11.823 24.6327C12.1654 24.3122 12.3772 23.8694 12.3772 23.3801C12.3774 22.8908 12.1654 22.448 11.823 22.1272ZM44.8431 22.1272C44.5007 21.8071 44.0275 21.6087 43.5046 21.6087C42.9818 21.6087 42.5086 21.8071 42.166 22.1272C41.8238 22.4478 41.6118 22.8906 41.6118 23.3801C41.6118 23.8694 41.8238 24.3122 42.166 24.6327C42.5086 24.9529 42.9818 25.1514 43.5046 25.1514C44.0275 25.1514 44.5007 24.9529 44.8431 24.6327C45.1855 24.3122 45.3975 23.8694 45.3975 23.3801C45.3975 22.8908 45.1855 22.448 44.8431 22.1272Z" fill="#EEEEEE"/>
</svg>
