<svg width="39" height="26" viewBox="0 0 39 26" fill="none" xmlns="http://www.w3.org/2000/svg">
<path d="M13.2828 16.3741C12.8055 15.3916 12.2199 14.5389 11.521 13.7934C9.40262 11.5348 6.16362 10.1696 1.66976 9.09652C1.07133 8.95409 0.700896 8.35118 0.842768 7.75014C0.949778 7.29768 1.31611 6.97516 1.74601 6.90394C3.34575 6.53556 5.0594 6.22441 6.82059 6.10696C8.63025 5.98634 10.488 6.07266 12.3249 6.51449C13.461 6.78761 14.1407 7.85268 14.8711 9.22833C15.7924 9.1875 16.6405 9.20484 17.4651 9.27065C18.2151 9.33049 18.9545 9.43359 19.7205 9.57117C20.8159 7.61927 22.2093 6.42669 23.9561 5.91662C25.3452 5.51076 26.9136 5.56278 28.6944 6.02997C28.7514 5.52251 28.761 5.00685 28.7289 4.49268C28.6698 3.55606 28.4739 2.63008 28.1657 1.77046C27.9589 1.19122 28.2589 0.553079 28.8361 0.345398C29.0434 0.270827 29.2583 0.261878 29.4582 0.308112L29.4586 0.306062C32.3907 0.980373 34.8793 1.99846 36.4293 3.63511C38.0982 5.39798 38.6702 7.75331 37.5708 10.9614C37.4008 11.4595 36.9151 11.7589 36.415 11.7123L36.37 11.7121V11.7164C35.6185 11.7164 34.8861 11.8038 34.1828 11.969L37.4148 20.9664C37.6213 21.5458 37.3216 22.184 36.7444 22.3918C36.1676 22.5991 35.532 22.2979 35.3255 21.7186L32.0954 12.7257C31.164 13.1925 30.318 13.8072 29.5887 14.5399C27.8592 16.2764 26.7852 18.6767 26.7852 21.3426C26.7852 21.7893 26.8141 22.5175 26.8719 23.2047C26.9148 23.7159 26.9712 24.192 27.0393 24.4826C27.1789 25.0837 26.8064 25.6847 26.2078 25.8245C26.0872 25.8529 25.9662 25.86 25.8491 25.8488C21.6946 25.7481 18.4041 25.5058 15.2031 24.9824C11.9735 24.4543 8.84501 23.6428 5.0251 22.4051C4.44083 22.2166 4.11943 21.5883 4.30679 21.0018C4.40951 20.6795 4.64479 20.4371 4.93263 20.3148L13.2828 16.3741ZM14.8107 22.651C14.6785 21.0757 14.4371 19.6881 14.0788 18.4619L8.43468 21.1249C10.6989 21.7876 12.7499 22.2828 14.8107 22.651ZM22.0607 10.0128C23.106 10.2412 24.0975 10.5246 25.0285 10.8458C26.3389 11.2975 27.5454 11.8268 28.6252 12.3836C29.4341 11.6784 30.3391 11.0822 31.3165 10.6168C31.1856 10.3022 31.043 10.0001 30.8836 9.73094C30.6241 9.29432 30.3169 8.94254 29.93 8.78985C27.7349 7.92296 25.9664 7.65171 24.5741 8.05831C23.6034 8.34149 22.7733 8.9828 22.0607 10.0128Z" fill="#F8F8F8"/>
</svg>
