<svg width="46" height="25" viewBox="0 0 46 25" fill="none" xmlns="http://www.w3.org/2000/svg">
<path fill-rule="evenodd" clip-rule="evenodd" d="M6.02811 0.173584H41.9358H43.0077C43.7955 0.173584 44.5101 0.51819 45.0274 1.03644C45.545 1.55505 45.866 2.29428 45.866 3.08282V11.6187V20.0797C45.866 20.6729 45.3862 21.1137 44.7941 21.1137H42.5998C42.6002 21.1137 42.6005 21.0767 42.6005 21.0481C42.6005 19.573 42.0192 18.178 40.9784 17.1351C39.9373 16.0921 38.5349 15.5149 37.0625 15.5149C35.5901 15.5149 34.1874 16.0996 33.1466 17.1426L33.1184 17.1722L33.0904 17.1443C32.0494 16.1014 30.6468 15.5196 29.1745 15.5196C27.7022 15.5196 26.2995 16.102 25.2586 17.1449C24.2176 18.1878 23.6365 19.5732 23.6365 21.0483C23.6365 21.0769 23.6366 21.1138 23.6373 21.1138H16.7951C16.7954 21.1138 16.7958 21.0769 16.7958 21.0483C16.7958 19.5736 16.2145 18.1778 15.1737 17.1352C14.1329 16.0927 12.7298 15.5155 11.2578 15.5155C9.78573 15.5155 8.38265 16.1002 7.34204 17.1427C6.30125 18.1855 5.71994 19.5725 5.71994 21.047C5.71994 21.0756 5.7203 21.1138 5.72066 21.1138H1.20468C0.612832 21.1138 0.132812 20.6731 0.132812 20.0798V14.7085C0.132812 14.2133 0.164969 13.7447 0.233568 13.2704C0.301096 12.8049 0.404532 12.3452 0.548163 11.8602L3.21605 2.78091C3.39541 2.17548 3.66427 1.56577 4.0673 1.10629C4.55285 0.551776 5.19044 0.173584 6.02811 0.173584ZM42.6504 9.26645V3.08282C42.6504 2.88685 42.5698 2.68498 42.4398 2.55475C42.3099 2.42487 42.1314 2.32126 41.9358 2.32126H33.8968V9.42026L42.6507 9.26663L42.6504 9.26645ZM2.42965 13.1339L11.0704 9.98567L11.4661 2.32108H6.02811C5.88215 2.32108 5.76639 2.41094 5.67492 2.51527C5.50057 2.7141 5.36801 3.03369 5.26761 3.37312L2.59972 12.4585C2.53184 12.6877 2.47539 12.9147 2.42965 13.1339ZM12.5086 9.7688L21.7489 9.62981V2.32126H12.8934L12.5086 9.7688ZM23.178 9.6048L32.4676 9.44491V2.32126H23.178V9.6048ZM2.27656 16.0859C2.27656 15.4928 2.7564 15.012 3.34843 15.012C3.94028 15.012 4.4203 15.4926 4.4203 16.0859V17.1856C4.4203 17.7785 3.94028 18.2594 3.34843 18.2594C2.7564 18.2594 2.27656 17.7787 2.27656 17.1856V16.0859Z" fill="#FEFEFE"/>
<path d="M29.1761 17.3096C30.2118 17.3096 31.1499 17.7301 31.8288 18.4106C32.5078 19.0908 32.9276 20.0303 32.9276 21.0681C32.9276 22.1058 32.5076 23.0455 31.8288 23.7256C31.1499 24.4059 30.2118 24.8264 29.1761 24.8264C28.1403 24.8264 27.2024 24.4057 26.5233 23.7256C25.8443 23.0455 25.4247 22.1058 25.4247 21.0681C25.4247 20.0303 25.8445 19.0908 26.5233 18.4106C27.2026 17.7301 28.1404 17.3096 29.1761 17.3096ZM30.1965 20.0457C29.9355 19.7842 29.5748 19.6223 29.1761 19.6223C28.7775 19.6223 28.4166 19.7842 28.1556 20.0457C27.8946 20.3072 27.7331 20.6685 27.7331 21.0681C27.7331 21.4674 27.8946 21.8289 28.1556 22.0905C28.4166 22.3518 28.7773 22.5137 29.1761 22.5137C29.5746 22.5137 29.9355 22.3518 30.1965 22.0905C30.4575 21.8289 30.619 21.4675 30.619 21.0681C30.6191 20.6686 30.4575 20.3072 30.1965 20.0457ZM37.0643 17.3096C38.1001 17.3096 39.038 17.7301 39.717 18.4106C40.3959 19.0908 40.8159 20.0303 40.8159 21.0681C40.8159 22.1058 40.3957 23.0455 39.717 23.7256C39.038 24.4059 38.1001 24.8264 37.0643 24.8264C36.0283 24.8264 35.0905 24.4057 34.4114 23.7256C33.7324 23.0455 33.3128 22.1058 33.3128 21.0681C33.3128 20.0303 33.7326 19.0908 34.4114 18.4106C35.0905 17.7301 36.0283 17.3096 37.0643 17.3096ZM38.0846 20.0457C37.8236 19.7842 37.4629 19.6223 37.0643 19.6223C36.6658 19.6223 36.3049 19.7842 36.0437 20.0457C35.7827 20.3072 35.6214 20.6686 35.6214 21.0681C35.6214 21.4674 35.7827 21.8289 36.0437 22.0905C36.3049 22.3518 36.6656 22.5137 37.0643 22.5137C37.4627 22.5137 37.8236 22.3518 38.0846 22.0905C38.3456 21.8289 38.507 21.4675 38.507 21.0681C38.507 20.6688 38.3456 20.3072 38.0846 20.0457ZM11.2594 17.3096C12.2953 17.3096 13.2332 17.7301 13.9122 18.4106C14.5913 19.0908 15.0109 20.0303 15.0109 21.0681C15.0109 22.1058 14.5911 23.0455 13.9122 23.7256C13.2332 24.4059 12.2953 24.8264 11.2594 24.8264C10.2236 24.8264 9.28569 24.4057 8.60666 23.7256C7.92781 23.0455 7.50781 22.1058 7.50781 21.0681C7.50781 20.0303 7.92781 19.0908 8.60666 18.4106C9.28569 17.7301 10.2238 17.3096 11.2594 17.3096ZM12.28 20.0457C12.0188 19.7842 11.6581 19.6223 11.2594 19.6223C10.861 19.6223 10.5001 19.7842 10.2391 20.0457C9.97812 20.3072 9.81662 20.6686 9.81662 21.0681C9.81662 21.4674 9.97794 21.8289 10.2391 22.0905C10.5001 22.3518 10.861 22.5137 11.2594 22.5137C11.6579 22.5137 12.0188 22.3518 12.28 22.0905C12.541 21.8289 12.7023 21.4675 12.7023 21.0681C12.7025 20.6688 12.541 20.3072 12.28 20.0457Z" fill="#F8F8F8"/>
</svg>
