<svg width="33" height="32" viewBox="0 0 33 32" fill="none" xmlns="http://www.w3.org/2000/svg">
<g filter="url(#filter0_d_4229_1342)">
<path d="M4.35938 4C4.35938 1.79086 6.15024 0 8.35938 0H24.3594C26.5685 0 28.3594 1.79086 28.3594 4V20C28.3594 22.2091 26.5685 24 24.3594 24H8.35938C6.15024 24 4.35938 22.2091 4.35938 20V4Z" fill="#AF4300"/>
<path d="M8.35938 0.5H24.3594C26.2924 0.5 27.8594 2.067 27.8594 4V20C27.8594 21.933 26.2924 23.5 24.3594 23.5H8.35938C6.42638 23.5 4.85938 21.933 4.85938 20V4C4.85938 2.067 6.42638 0.5 8.35938 0.5Z" stroke="#AF4300"/>
</g>
<g clip-path="url(#clip0_4229_1342)">
<path d="M14.3595 14.7799L11.5795 11.9999L10.6328 12.9399L14.3595 16.6666L22.3595 8.66656L21.4195 7.72656L14.3595 14.7799Z" fill="#EEEEEE"/>
</g>
<defs>
<filter id="filter0_d_4229_1342" x="0.359375" y="0" width="32" height="32" filterUnits="userSpaceOnUse" color-interpolation-filters="sRGB">
<feFlood flood-opacity="0" result="BackgroundImageFix"/>
<feColorMatrix in="SourceAlpha" type="matrix" values="0 0 0 0 0 0 0 0 0 0 0 0 0 0 0 0 0 0 127 0" result="hardAlpha"/>
<feOffset dy="4"/>
<feGaussianBlur stdDeviation="2"/>
<feComposite in2="hardAlpha" operator="out"/>
<feColorMatrix type="matrix" values="0 0 0 0 0 0 0 0 0 0 0 0 0 0 0 0 0 0 0.25 0"/>
<feBlend mode="normal" in2="BackgroundImageFix" result="effect1_dropShadow_4229_1342"/>
<feBlend mode="normal" in="SourceGraphic" in2="effect1_dropShadow_4229_1342" result="shape"/>
</filter>
<clipPath id="clip0_4229_1342">
<rect width="16" height="16" fill="white" transform="translate(8.35938 4)"/>
</clipPath>
</defs>
</svg>
