<svg width="19" height="18" viewBox="0 0 19 18" fill="none" xmlns="http://www.w3.org/2000/svg">
<path d="M9.25313 16.5C8.31563 16.5 7.4375 16.3218 6.61875 15.9656C5.8 15.6093 5.0875 15.1281 4.48125 14.5218C3.875 13.9156 3.39375 13.2031 3.0375 12.3843C2.68125 11.5656 2.50313 10.6875 2.50313 9.74995C2.50313 8.81245 2.68125 7.93433 3.0375 7.11558C3.39375 6.29683 3.875 5.58433 4.48125 4.97808C5.0875 4.37183 5.8 3.89058 6.61875 3.53433C7.4375 3.17808 8.31563 2.99995 9.25313 2.99995C10.1906 2.99995 11.0688 3.17808 11.8875 3.53433C12.7063 3.89058 13.4188 4.37183 14.025 4.97808C14.6313 5.58433 15.1125 6.29683 15.4688 7.11558C15.825 7.93433 16.0031 8.81245 16.0031 9.74995C16.0031 10.6875 15.825 11.5656 15.4688 12.3843C15.1125 13.2031 14.6313 13.9156 14.025 14.5218C13.4188 15.1281 12.7063 15.6093 11.8875 15.9656C11.0688 16.3218 10.1906 16.5 9.25313 16.5ZM11.3531 12.9L12.4031 11.85L10.0031 9.44995V5.99995H8.50313V10.05L11.3531 12.9ZM4.45313 1.76245L5.50313 2.81245L2.31563 5.99995L1.26562 4.94995L4.45313 1.76245ZM14.0531 1.76245L17.2406 4.94995L16.1906 5.99995L13.0031 2.81245L14.0531 1.76245ZM9.25313 15C10.7156 15 11.9563 14.4906 12.975 13.4718C13.9938 12.4531 14.5031 11.2125 14.5031 9.74995C14.5031 8.28745 13.9938 7.04683 12.975 6.02808C11.9563 5.00933 10.7156 4.49995 9.25313 4.49995C7.79063 4.49995 6.55 5.00933 5.53125 6.02808C4.5125 7.04683 4.00313 8.28745 4.00313 9.74995C4.00313 11.2125 4.5125 12.4531 5.53125 13.4718C6.55 14.4906 7.79063 15 9.25313 15Z" fill="url(#paint0_linear_4320_2236)"/>
<defs>
<linearGradient id="paint0_linear_4320_2236" x1="1.26562" y1="9.1312" x2="17.2406" y2="9.1312" gradientUnits="userSpaceOnUse">
<stop stop-color="#216432"/>
<stop offset="0.894231" stop-color="#114422"/>
</linearGradient>
</defs>
</svg>
