<svg width="57" height="47" viewBox="0 0 57 47" fill="none" xmlns="http://www.w3.org/2000/svg">
<path d="M9.2625 0.25H47.7375C50.1034 0.249844 52.3797 1.16297 54.0994 2.80206C55.8191 4.44114 56.8518 6.68193 56.9857 9.06475L57 9.59375V36.9062C57.0002 39.2929 56.095 41.5891 54.4701 43.3239C52.8453 45.0587 50.624 46.1005 48.2619 46.2356L47.7375 46.25H9.2625C6.89661 46.2502 4.62034 45.337 2.90064 43.6979C1.18095 42.0589 0.148196 39.8181 0.0142503 37.4352L1.98793e-08 36.9062V9.59375C-0.000154888 7.2071 0.905029 4.91087 2.52986 3.17609C4.1547 1.44131 6.376 0.399496 8.7381 0.264375L9.2625 0.25ZM52.725 15.6974L29.4975 28.0311C29.2352 28.1709 28.947 28.2541 28.6511 28.2753C28.3552 28.2966 28.0582 28.2556 27.7789 28.1547L27.5053 28.034L4.275 15.7002V36.9062C4.27505 38.1689 4.74574 39.3854 5.59364 40.3142C6.44154 41.2431 7.60465 41.8163 8.8521 41.9202L9.2625 41.9375H47.7375C48.9896 41.9374 50.1959 41.4622 51.1168 40.6062C52.0376 39.7503 52.6056 38.5763 52.7079 37.3174L52.725 36.9062V15.6974ZM47.7375 4.5625H9.2625C8.01081 4.56255 6.80489 5.03737 5.88414 5.8927C4.96338 6.74804 4.3951 7.92136 4.2921 9.17975L4.275 9.59375V10.8271L28.5 23.687L52.725 10.8242V9.59375C52.7249 8.33062 52.2538 7.11375 51.4053 6.18484C50.5568 5.25593 49.393 4.68297 48.145 4.57975L47.7375 4.5625Z" fill="url(#paint0_linear_4447_5939)"/>
<defs>
<linearGradient id="paint0_linear_4447_5939" x1="0" y1="23.25" x2="57" y2="23.25" gradientUnits="userSpaceOnUse">
<stop offset="0.9999" stop-color="#216432"/>
<stop offset="1" stop-color="#114422"/>
</linearGradient>
</defs>
</svg>
