<svg width="190" height="62" viewBox="0 0 190 62" fill="none" xmlns="http://www.w3.org/2000/svg">
<rect x="0.359375" width="189" height="62" rx="8" fill="#EEEEEE"/>
<path d="M41.8594 23.125H40.1094C39.6194 23.125 39.2344 23.51 39.2344 24C39.2344 24.49 39.6194 24.875 40.1094 24.875H41.8594C44.2744 24.875 46.2344 26.835 46.2344 29.25V31.875H44.3269C44.4319 31.595 44.4844 31.315 44.4844 31C44.4844 29.5475 43.3119 28.375 41.8594 28.375H36.6094C35.1569 28.375 33.9844 29.5475 33.9844 31C33.9844 31.315 34.0544 31.595 34.1419 31.875H28.5769C28.6819 31.595 28.7344 31.315 28.7344 31C28.7344 29.5475 27.5619 28.375 26.1094 28.375H20.8594C19.4069 28.375 18.2344 29.5475 18.2344 31C18.2344 31.315 18.3044 31.595 18.3919 31.875H16.4844V29.25C16.4844 26.835 18.4444 24.875 20.8594 24.875H22.6094C23.0994 24.875 23.4844 24.49 23.4844 24C23.4844 23.51 23.0994 23.125 22.6094 23.125H20.8594C17.4819 23.125 14.7344 25.8725 14.7344 29.25V44.125C14.7344 45.0875 15.5219 45.875 16.4844 45.875H18.2344C19.1969 45.875 19.9844 45.0875 19.9844 44.125V43.25C19.9844 42.76 20.3694 42.375 20.8594 42.375H41.8594C42.3494 42.375 42.7344 42.76 42.7344 43.25V44.125C42.7344 45.0875 43.5219 45.875 44.4844 45.875H46.2344C47.1969 45.875 47.9844 45.0875 47.9844 44.125V29.25C47.9844 25.8725 45.2369 23.125 41.8594 23.125ZM35.7344 31C35.7344 30.51 36.1194 30.125 36.6094 30.125H41.8594C42.3494 30.125 42.7344 30.51 42.7344 31C42.7344 31.49 42.3494 31.875 41.8594 31.875H36.6094C36.1194 31.875 35.7344 31.49 35.7344 31ZM19.9844 31C19.9844 30.51 20.3694 30.125 20.8594 30.125H26.1094C26.5994 30.125 26.9844 30.51 26.9844 31C26.9844 31.49 26.5994 31.875 26.1094 31.875H20.8594C20.3694 31.875 19.9844 31.49 19.9844 31ZM20.8594 33.625H46.2344V37.125H16.4844V33.625H20.8594ZM44.4844 44.125V43.25C44.4844 41.7975 43.3119 40.625 41.8594 40.625H20.8594C19.4069 40.625 18.2344 41.7975 18.2344 43.25V44.125H16.4844V38.875H46.2344V44.125H44.4844Z" fill="#AF4300"/>
<path d="M29.5025 26.8876C30.01 27.3951 30.6925 27.6576 31.3575 27.6576C32.0225 27.6576 32.705 27.3951 33.2125 26.8876L38.0775 22.0226C38.8825 21.2176 39.075 20.0101 38.5675 18.9951L37.8675 17.5951C37.43 16.7026 36.52 16.1426 35.5225 16.1426H27.1925C26.195 16.1426 25.285 16.7026 24.8475 17.5951L24.1475 18.9951C23.64 20.0101 23.8325 21.2176 24.6375 22.0226L29.5025 26.8876ZM25.705 19.7651L26.405 18.3651C26.545 18.0676 26.86 17.8751 27.1925 17.8751H35.5225C35.855 17.8751 36.1525 18.0676 36.31 18.3651L37.01 19.7651C37.185 20.0976 37.115 20.5001 36.8525 20.7801L31.9875 25.6451C31.6375 25.9951 31.095 25.9951 30.745 25.6451L25.88 20.7801C25.6175 20.5176 25.5475 20.1151 25.7225 19.7651H25.705Z" fill="#AF4300"/>
<path d="M29.2259 21.2875C29.6634 21.4975 30.1884 21.3225 30.3984 20.9025C30.7659 20.15 31.9559 20.15 32.3409 20.9025C32.4984 21.2175 32.7959 21.3925 33.1284 21.3925C33.2684 21.3925 33.3909 21.3575 33.5134 21.305C33.9509 21.095 34.1259 20.57 33.8984 20.1325C33.4084 19.17 32.4459 18.575 31.3609 18.575C30.2759 18.575 29.3134 19.17 28.8234 20.1325C28.6134 20.57 28.7884 21.095 29.2084 21.305L29.2259 21.2875Z" fill="#AF4300"/>
<path d="M59.0474 31.416C59.0474 30.328 59.2927 29.352 59.7834 28.488C60.274 27.6133 60.9407 26.9307 61.7834 26.44C62.6367 25.9493 63.5807 25.704 64.6154 25.704C65.8314 25.704 66.8927 25.9973 67.7994 26.584C68.706 27.1707 69.3674 28.0027 69.7834 29.08H68.0394C67.73 28.408 67.282 27.8907 66.6954 27.528C66.1194 27.1653 65.426 26.984 64.6154 26.984C63.8367 26.984 63.138 27.1653 62.5194 27.528C61.9007 27.8907 61.4154 28.408 61.0634 29.08C60.7114 29.7413 60.5354 30.52 60.5354 31.416C60.5354 32.3013 60.7114 33.08 61.0634 33.752C61.4154 34.4133 61.9007 34.9253 62.5194 35.288C63.138 35.6507 63.8367 35.832 64.6154 35.832C65.426 35.832 66.1194 35.656 66.6954 35.304C67.282 34.9413 67.73 34.424 68.0394 33.752H69.7834C69.3674 34.8187 68.706 35.6453 67.7994 36.232C66.8927 36.808 65.8314 37.096 64.6154 37.096C63.5807 37.096 62.6367 36.856 61.7834 36.376C60.9407 35.8853 60.274 35.208 59.7834 34.344C59.2927 33.48 59.0474 32.504 59.0474 31.416ZM75.7748 37.144C74.9534 37.144 74.2068 36.9573 73.5348 36.584C72.8734 36.2107 72.3508 35.6827 71.9668 35C71.5934 34.3067 71.4068 33.5067 71.4068 32.6C71.4068 31.704 71.5988 30.9147 71.9828 30.232C72.3774 29.5387 72.9108 29.0107 73.5828 28.648C74.2548 28.2747 75.0068 28.088 75.8388 28.088C76.6708 28.088 77.4228 28.2747 78.0948 28.648C78.7668 29.0107 79.2948 29.5333 79.6788 30.216C80.0734 30.8987 80.2708 31.6933 80.2708 32.6C80.2708 33.5067 80.0681 34.3067 79.6628 35C79.2681 35.6827 78.7294 36.2107 78.0468 36.584C77.3641 36.9573 76.6068 37.144 75.7748 37.144ZM75.7748 35.864C76.2974 35.864 76.7881 35.7413 77.2468 35.496C77.7054 35.2507 78.0734 34.8827 78.3508 34.392C78.6388 33.9013 78.7828 33.304 78.7828 32.6C78.7828 31.896 78.6441 31.2987 78.3668 30.808C78.0894 30.3173 77.7268 29.9547 77.2788 29.72C76.8308 29.4747 76.3454 29.352 75.8228 29.352C75.2894 29.352 74.7988 29.4747 74.3508 29.72C73.9134 29.9547 73.5614 30.3173 73.2948 30.808C73.0281 31.2987 72.8948 31.896 72.8948 32.6C72.8948 33.3147 73.0228 33.9173 73.2788 34.408C73.5454 34.8987 73.8974 35.2667 74.3348 35.512C74.7721 35.7467 75.2521 35.864 75.7748 35.864ZM89.9611 28.232V37H88.5051V35.704C88.2278 36.152 87.8385 36.504 87.3371 36.76C86.8465 37.0053 86.3025 37.128 85.7051 37.128C85.0225 37.128 84.4091 36.9893 83.8651 36.712C83.3211 36.424 82.8891 35.9973 82.5691 35.432C82.2598 34.8667 82.1051 34.1787 82.1051 33.368V28.232H83.5451V33.176C83.5451 34.04 83.7638 34.7067 84.2011 35.176C84.6385 35.6347 85.2358 35.864 85.9931 35.864C86.7718 35.864 87.3851 35.624 87.8331 35.144C88.2811 34.664 88.5051 33.9653 88.5051 33.048V28.232H89.9611ZM93.8755 29.848C94.1635 29.3467 94.5902 28.9307 95.1555 28.6C95.7315 28.2587 96.3982 28.088 97.1555 28.088C97.9342 28.088 98.6382 28.2747 99.2675 28.648C99.9075 29.0213 100.409 29.5493 100.772 30.232C101.134 30.904 101.316 31.688 101.316 32.584C101.316 33.4693 101.134 34.2587 100.772 34.952C100.409 35.6453 99.9075 36.184 99.2675 36.568C98.6382 36.952 97.9342 37.144 97.1555 37.144C96.4088 37.144 95.7475 36.9787 95.1715 36.648C94.6062 36.3067 94.1742 35.8853 93.8755 35.384V41.16H92.4195V28.232H93.8755V29.848ZM99.8275 32.584C99.8275 31.9227 99.6942 31.3467 99.4275 30.856C99.1608 30.3653 98.7982 29.992 98.3395 29.736C97.8915 29.48 97.3955 29.352 96.8515 29.352C96.3182 29.352 95.8222 29.4853 95.3635 29.752C94.9155 30.008 94.5528 30.3867 94.2755 30.888C94.0088 31.3787 93.8755 31.9493 93.8755 32.6C93.8755 33.2613 94.0088 33.8427 94.2755 34.344C94.5528 34.8347 94.9155 35.2133 95.3635 35.48C95.8222 35.736 96.3182 35.864 96.8515 35.864C97.3955 35.864 97.8915 35.736 98.3395 35.48C98.7982 35.2133 99.1608 34.8347 99.4275 34.344C99.6942 33.8427 99.8275 33.256 99.8275 32.584ZM104.688 25.16V37H103.232V25.16H104.688ZM115.17 32.28C115.17 32.5573 115.154 32.8507 115.122 33.16H108.114C108.167 34.024 108.46 34.7013 108.994 35.192C109.538 35.672 110.194 35.912 110.962 35.912C111.591 35.912 112.114 35.768 112.53 35.48C112.956 35.1813 113.255 34.7867 113.426 34.296H114.994C114.759 35.1387 114.29 35.8267 113.586 36.36C112.882 36.8827 112.007 37.144 110.962 37.144C110.13 37.144 109.383 36.9573 108.722 36.584C108.071 36.2107 107.559 35.6827 107.186 35C106.812 34.3067 106.626 33.5067 106.626 32.6C106.626 31.6933 106.807 30.8987 107.17 30.216C107.532 29.5333 108.039 29.0107 108.69 28.648C109.351 28.2747 110.108 28.088 110.962 28.088C111.794 28.088 112.53 28.2693 113.17 28.632C113.81 28.9947 114.3 29.496 114.642 30.136C114.994 30.7653 115.17 31.48 115.17 32.28ZM113.666 31.976C113.666 31.4213 113.543 30.9467 113.298 30.552C113.052 30.1467 112.716 29.8427 112.29 29.64C111.874 29.4267 111.41 29.32 110.898 29.32C110.162 29.32 109.532 29.5547 109.01 30.024C108.498 30.4933 108.204 31.144 108.13 31.976H113.666ZM124.925 29.432H123.085V37H121.629V29.432H120.493V28.232H121.629V27.608C121.629 26.6267 121.88 25.912 122.381 25.464C122.893 25.0053 123.709 24.776 124.829 24.776V25.992C124.189 25.992 123.736 26.12 123.469 26.376C123.213 26.6213 123.085 27.032 123.085 27.608V28.232H124.925V29.432ZM128.079 29.656C128.335 29.1547 128.697 28.7653 129.167 28.488C129.647 28.2107 130.228 28.072 130.911 28.072V29.576H130.527C128.895 29.576 128.079 30.4613 128.079 32.232V37H126.623V28.232H128.079V29.656ZM133.343 26.808C133.066 26.808 132.831 26.712 132.639 26.52C132.447 26.328 132.351 26.0933 132.351 25.816C132.351 25.5387 132.447 25.304 132.639 25.112C132.831 24.92 133.066 24.824 133.343 24.824C133.61 24.824 133.834 24.92 134.015 25.112C134.207 25.304 134.303 25.5387 134.303 25.816C134.303 26.0933 134.207 26.328 134.015 26.52C133.834 26.712 133.61 26.808 133.343 26.808ZM134.047 28.232V37H132.591V28.232H134.047ZM144.529 32.28C144.529 32.5573 144.513 32.8507 144.481 33.16H137.473C137.526 34.024 137.82 34.7013 138.353 35.192C138.897 35.672 139.553 35.912 140.321 35.912C140.95 35.912 141.473 35.768 141.889 35.48C142.316 35.1813 142.614 34.7867 142.785 34.296H144.353C144.118 35.1387 143.649 35.8267 142.945 36.36C142.241 36.8827 141.366 37.144 140.321 37.144C139.489 37.144 138.742 36.9573 138.081 36.584C137.43 36.2107 136.918 35.6827 136.545 35C136.172 34.3067 135.985 33.5067 135.985 32.6C135.985 31.6933 136.166 30.8987 136.529 30.216C136.892 29.5333 137.398 29.0107 138.049 28.648C138.71 28.2747 139.468 28.088 140.321 28.088C141.153 28.088 141.889 28.2693 142.529 28.632C143.169 28.9947 143.66 29.496 144.001 30.136C144.353 30.7653 144.529 31.48 144.529 32.28ZM143.025 31.976C143.025 31.4213 142.902 30.9467 142.657 30.552C142.412 30.1467 142.076 29.8427 141.649 29.64C141.233 29.4267 140.769 29.32 140.257 29.32C139.521 29.32 138.892 29.5547 138.369 30.024C137.857 30.4933 137.564 31.144 137.489 31.976H143.025ZM150.723 28.072C151.789 28.072 152.653 28.3973 153.315 29.048C153.976 29.688 154.307 30.616 154.307 31.832V37H152.867V32.04C152.867 31.1653 152.648 30.4987 152.211 30.04C151.773 29.5707 151.176 29.336 150.419 29.336C149.651 29.336 149.037 29.576 148.579 30.056C148.131 30.536 147.907 31.2347 147.907 32.152V37H146.451V28.232H147.907V29.48C148.195 29.032 148.584 28.6853 149.075 28.44C149.576 28.1947 150.125 28.072 150.723 28.072ZM156.141 32.584C156.141 31.688 156.322 30.904 156.685 30.232C157.048 29.5493 157.544 29.0213 158.173 28.648C158.813 28.2747 159.528 28.088 160.317 28.088C161 28.088 161.634 28.248 162.221 28.568C162.808 28.8773 163.256 29.288 163.565 29.8V25.16H165.037V37H163.565V35.352C163.277 35.8747 162.85 36.3067 162.285 36.648C161.72 36.9787 161.058 37.144 160.301 37.144C159.522 37.144 158.813 36.952 158.173 36.568C157.544 36.184 157.048 35.6453 156.685 34.952C156.322 34.2587 156.141 33.4693 156.141 32.584ZM163.565 32.6C163.565 31.9387 163.432 31.3627 163.165 30.872C162.898 30.3813 162.536 30.008 162.077 29.752C161.629 29.4853 161.133 29.352 160.589 29.352C160.045 29.352 159.549 29.48 159.101 29.736C158.653 29.992 158.296 30.3653 158.029 30.856C157.762 31.3467 157.629 31.9227 157.629 32.584C157.629 33.256 157.762 33.8427 158.029 34.344C158.296 34.8347 158.653 35.2133 159.101 35.48C159.549 35.736 160.045 35.864 160.589 35.864C161.133 35.864 161.629 35.736 162.077 35.48C162.536 35.2133 162.898 34.8347 163.165 34.344C163.432 33.8427 163.565 33.2613 163.565 32.6ZM168.954 25.16V37H167.498V25.16H168.954ZM178.987 28.232L173.707 41.128H172.203L173.931 36.904L170.395 28.232H172.011L174.763 35.336L177.483 28.232H178.987Z" fill="black"/>
</svg>
