<svg width="20" height="20" viewBox="0 0 20 20" fill="none" xmlns="http://www.w3.org/2000/svg">
<path d="M2.41667 17.5833H3.96042L14.55 6.99375L13.0063 5.45L2.41667 16.0396V17.5833ZM0.25 19.75V15.1458L14.55 0.872917C14.7667 0.674306 15.0059 0.520833 15.2677 0.4125C15.5295 0.304167 15.8049 0.25 16.0938 0.25C16.3826 0.25 16.6625 0.304167 16.9333 0.4125C17.2042 0.520833 17.4389 0.683333 17.6375 0.9L19.1271 2.41667C19.3438 2.61528 19.5017 2.85 19.601 3.12083C19.7003 3.39167 19.75 3.6625 19.75 3.93333C19.75 4.22222 19.7003 4.49757 19.601 4.75938C19.5017 5.02118 19.3438 5.26042 19.1271 5.47708L4.85417 19.75H0.25ZM13.7646 6.23542L13.0063 5.45L14.55 6.99375L13.7646 6.23542Z" fill="#AF4300"/>
</svg>
