<svg width="40" height="40" viewBox="0 0 40 40" fill="none" xmlns="http://www.w3.org/2000/svg">
<path d="M7.29807 20.4572C5.87478 18.9931 5 17.0049 5 14.8149C5 10.3148 8.69365 6.66675 13.25 6.66675C16.0402 6.66675 18.507 9.70148 20 11.7955C21.493 9.70148 23.9598 6.66675 26.75 6.66675C31.3063 6.66675 35 10.3148 35 14.8149C35 17.1124 34.0373 19.1877 32.4885 20.6689L20 33.3334L7.29807 20.4572Z" stroke="#AF4300" stroke-width="2" stroke-linecap="round" stroke-linejoin="round"/>
<path d="M14.3573 17.7001C13.7247 17.0596 13.3359 16.1897 13.3359 15.2316C13.3359 13.2628 14.9776 11.6667 17.0026 11.6667C18.2428 11.6667 19.3391 12.9944 20.0026 13.9106C20.6661 12.9944 21.7624 11.6667 23.0026 11.6667C25.0276 11.6667 26.6693 13.2628 26.6693 15.2316C26.6693 16.2367 26.2414 17.1447 25.5531 17.7927L20.0026 23.3334L14.3573 17.7001Z" stroke="#AF4300" stroke-width="2" stroke-linecap="round" stroke-linejoin="round"/>
</svg>
