<svg width="18" height="17" viewBox="0 0 18 17" fill="none" xmlns="http://www.w3.org/2000/svg">
<path d="M5.94342 10.9556C5.7448 11.8163 6.67796 12.493 7.4343 12.0368L8.04262 11.6699C8.36207 11.4772 8.76222 11.4783 9.08056 11.6729L9.68574 12.0427C10.4412 12.5044 11.3797 11.829 11.1819 10.966L11.0219 10.2676C10.9392 9.90681 11.0625 9.52991 11.3424 9.28782L11.8782 8.82447C12.546 8.24686 12.1922 7.15036 11.3127 7.07205L10.6088 7.00937C10.2417 6.97668 9.92225 6.74466 9.77765 6.4056L9.47895 5.70519C9.13389 4.89608 7.98754 4.89455 7.64032 5.70274L7.3481 6.38289C7.20298 6.72068 6.8842 6.9516 6.518 6.98421L5.7956 7.04853C4.91855 7.12663 4.56324 8.21818 5.22627 8.79759L5.78644 9.2871C6.06414 9.52978 6.18573 9.90561 6.1028 10.265L5.94342 10.9556ZM4.41084 16.2107C3.65428 16.6671 2.72091 15.9899 2.92004 15.1291L3.87682 10.9928C3.96029 10.632 3.83747 10.2545 3.55761 10.0119L0.347476 7.2288C-0.320053 6.65007 0.0358974 5.55338 0.91606 5.47697L5.16238 5.10837C5.53156 5.07632 5.85275 4.84275 5.99701 4.50141L7.64139 0.61069C7.98553 -0.203577 9.13947 -0.203578 9.48361 0.610689L11.128 4.50141C11.2723 4.84275 11.5934 5.07632 11.9626 5.10837L16.2089 5.47697C17.0891 5.55338 17.4451 6.65007 16.7775 7.2288L13.5674 10.0119C13.2875 10.2545 13.1647 10.632 13.2482 10.9928L14.205 15.1291C14.4041 15.9899 13.4707 16.6671 12.7142 16.2107L9.07903 14.0179C8.76134 13.8262 8.36366 13.8262 8.04597 14.0179L4.41084 16.2107Z" fill="white" fill-opacity="0.79"/>
</svg>
