<svg width="24" height="24" viewBox="0 0 24 24" fill="none" xmlns="http://www.w3.org/2000/svg">
<g clip-path="url(#clip0_5243_3825)">
<path d="M21.6695 18.2325L17.4658 9.56255C17.1245 8.8613 16.322 8.43005 15.3583 8.7863C14.9908 8.92505 14.5783 8.79755 14.3495 8.47505L13.2883 6.9788C12.602 6.01505 11.132 6.0863 10.5545 7.1363L8.92327 10.1138C8.75077 10.4288 8.39452 10.605 8.03827 10.5525L6.77077 10.3688C6.05827 10.2638 5.35327 10.6538 5.06077 11.3138L1.98202 18.2701C0.174523 18.6826 0.410773 21.6338 2.33077 21.6338H21.6733C23.7845 21.6338 23.7808 18.2288 21.6733 18.2288L21.6695 18.2325ZM5.74327 11.6213C5.90077 11.2688 6.27577 11.0625 6.65827 11.115C8.00827 11.31 8.00452 11.3175 8.18077 11.3138C6.93952 13.7925 7.50202 12.8963 5.66827 15.21C5.35702 15.6038 5.95702 16.0575 6.25702 15.675C8.23702 13.17 7.49452 14.3588 9.21952 10.9088C9.28327 10.8525 9.34327 10.7925 9.39952 10.725C10.7608 13.2338 10.8358 12.9075 13.1195 12.255C13.5958 12.12 13.3933 11.4 12.9133 11.535L11.5183 11.9325C11.2033 12.0225 11.1133 12.1088 10.5995 11.2913C10.3295 10.8638 10.0783 10.4213 9.84952 9.97505L11.2108 7.4963C11.5183 6.93755 12.3058 6.8888 12.677 7.41005C14.072 9.37505 13.277 8.0213 15.9733 13.23C16.1983 13.6688 16.8695 13.3275 16.6408 12.885L14.9308 9.57755C15.1633 9.5963 15.3995 9.57005 15.6245 9.48755C16.187 9.27755 16.607 9.5063 16.7945 9.8888L20.8445 18.2325H2.81827L5.74327 11.6213ZM22.502 20.0588C22.502 20.5163 22.1308 20.8876 21.6733 20.8876H2.33077C1.87327 20.8876 1.50202 20.5163 1.50202 20.0588V19.8113C1.50202 19.3463 1.89202 19.0013 2.23327 19.0013C2.27452 19.0013 2.31202 18.9938 2.34952 18.9825H21.6733C22.1308 18.9825 22.502 19.3538 22.502 19.8113V20.0588ZM6.37702 2.36255C5.00077 2.36255 3.88327 3.48005 3.88327 4.8563C3.88327 6.23255 5.00077 7.35005 6.37702 7.35005C7.75327 7.35005 8.87077 6.23255 8.87077 4.8563C8.87077 3.48005 7.75327 2.36255 6.37702 2.36255ZM6.37702 6.60005C5.41702 6.60005 4.63327 5.82005 4.63327 4.8563C4.63327 3.89255 5.41327 3.11255 6.37702 3.11255C7.34077 3.11255 8.12077 3.89255 8.12077 4.8563C8.12077 5.82005 7.33702 6.60005 6.37702 6.60005Z" fill="url(#paint0_linear_5243_3825)"/>
</g>
<defs>
<linearGradient id="paint0_linear_5243_3825" x1="0.75" y1="11.9982" x2="23.2553" y2="11.9982" gradientUnits="userSpaceOnUse">
<stop stop-color="#216432"/>
<stop offset="0.894231" stop-color="#114422"/>
</linearGradient>
<clipPath id="clip0_5243_3825">
<rect width="24" height="24" fill="white"/>
</clipPath>
</defs>
</svg>
