<svg width="18" height="19" viewBox="0 0 18 19" fill="none" xmlns="http://www.w3.org/2000/svg">
<path d="M2.55156 12.8L0.826563 11.1125C0.676563 10.9625 0.601562 10.7875 0.601562 10.5875C0.601562 10.3875 0.676563 10.2125 0.826563 10.0625C1.92656 8.875 3.19531 7.98438 4.63281 7.39062C6.07031 6.79687 7.52656 6.5 9.00156 6.5C10.4766 6.5 11.9297 6.79687 13.3609 7.39062C14.7922 7.98438 16.0641 8.875 17.1766 10.0625C17.3266 10.2125 17.4016 10.3875 17.4016 10.5875C17.4016 10.7875 17.3266 10.9625 17.1766 11.1125L15.4516 12.8C15.3141 12.9375 15.1547 13.0125 14.9734 13.025C14.7922 13.0375 14.6266 12.9875 14.4766 12.875L12.3016 11.225C12.2016 11.15 12.1266 11.0625 12.0766 10.9625C12.0266 10.8625 12.0016 10.75 12.0016 10.625V8.4875C11.5266 8.3375 11.0391 8.21875 10.5391 8.13125C10.0391 8.04375 9.52656 8 9.00156 8C8.47656 8 7.96406 8.04375 7.46406 8.13125C6.96406 8.21875 6.47656 8.3375 6.00156 8.4875V10.625C6.00156 10.75 5.97656 10.8625 5.92656 10.9625C5.87656 11.0625 5.80156 11.15 5.70156 11.225L3.52656 12.875C3.37656 12.9875 3.21094 13.0375 3.02969 13.025C2.84844 13.0125 2.68906 12.9375 2.55156 12.8ZM4.50156 9.0875C4.13906 9.275 3.78906 9.49062 3.45156 9.73438C3.11406 9.97813 2.76406 10.25 2.40156 10.55L3.15156 11.3L4.50156 10.25V9.0875ZM13.5016 9.125V10.25L14.8516 11.3L15.6016 10.5875C15.2391 10.2625 14.8891 9.98125 14.5516 9.74375C14.2141 9.50625 13.8641 9.3 13.5016 9.125Z" fill="url(#paint0_linear_4651_662)"/>
<defs>
<linearGradient id="paint0_linear_4651_662" x1="0.601562" y1="9.76344" x2="17.4016" y2="9.76344" gradientUnits="userSpaceOnUse">
<stop stop-color="#216432"/>
<stop offset="0.894231" stop-color="#114422"/>
</linearGradient>
</defs>
</svg>
