<svg width="100" height="101" viewBox="0 0 100 101" fill="none" xmlns="http://www.w3.org/2000/svg">
<path d="M0.4375 5.92676C0.4375 3.16533 2.67608 0.926758 5.4375 0.926758H61.5664C82.5532 0.926758 99.5664 17.9399 99.5664 38.9268V95.0557C99.5664 97.8171 97.3278 100.056 94.5664 100.056H38.4375C17.4507 100.056 0.4375 83.0425 0.4375 62.0557V5.92676Z" fill="url(#paint0_linear_4121_813)"/>
<path d="M6.316 48.5632C6.316 40.2592 7.804 33.7552 10.78 29.0512C13.804 24.3472 18.796 21.9952 25.756 21.9952C32.716 21.9952 37.684 24.3472 40.66 29.0512C43.684 33.7552 45.196 40.2592 45.196 48.5632C45.196 56.9152 43.684 63.4672 40.66 68.2192C37.684 72.9712 32.716 75.3472 25.756 75.3472C18.796 75.3472 13.804 72.9712 10.78 68.2192C7.804 63.4672 6.316 56.9152 6.316 48.5632ZM35.26 48.5632C35.26 45.0112 35.02 42.0352 34.54 39.6352C34.108 37.1872 33.196 35.1952 31.804 33.6592C30.46 32.1232 28.444 31.3552 25.756 31.3552C23.068 31.3552 21.028 32.1232 19.636 33.6592C18.292 35.1952 17.38 37.1872 16.9 39.6352C16.468 42.0352 16.252 45.0112 16.252 48.5632C16.252 52.2112 16.468 55.2832 16.9 57.7792C17.332 60.2272 18.244 62.2192 19.636 63.7552C21.028 65.2432 23.068 65.9872 25.756 65.9872C28.444 65.9872 30.484 65.2432 31.876 63.7552C33.268 62.2192 34.18 60.2272 34.612 57.7792C35.044 55.2832 35.26 52.2112 35.26 48.5632ZM52.4309 65.2672V57.3472L75.9749 23.6512H87.7109V56.4832H94.0469V65.2672H87.7109V75.4912H77.6309V65.2672H52.4309ZM78.2789 34.4512L63.5189 56.4832H78.2789V34.4512Z" fill="#FEFEFE"/>
<defs>
<linearGradient id="paint0_linear_4121_813" x1="-55.3014" y1="19.3192" x2="245.846" y2="52.6601" gradientUnits="userSpaceOnUse">
<stop stop-color="#216432"/>
<stop offset="0.581731" stop-color="#114422"/>
</linearGradient>
</defs>
</svg>
