<svg width="43" height="43" viewBox="0 0 43 43" fill="none" xmlns="http://www.w3.org/2000/svg">
<circle cx="21.7803" cy="21.0303" r="21.0303" fill="#EEEEEE"/>
<path d="M32.0924 14.4088C31.4966 13.8126 30.7891 13.3397 30.0104 13.017C29.2317 12.6944 28.397 12.5283 27.5541 12.5283C26.7112 12.5283 25.8766 12.6944 25.0979 13.017C24.3192 13.3397 23.6117 13.8126 23.0158 14.4088L21.7791 15.6455L20.5424 14.4088C19.3388 13.2051 17.7063 12.5289 16.0041 12.5289C14.3019 12.5289 12.6694 13.2051 11.4658 14.4088C10.2621 15.6124 9.58594 17.2449 9.58594 18.9471C9.58594 20.6493 10.2621 22.2818 11.4658 23.4855L12.7024 24.7221L21.7791 33.7988L30.8558 24.7221L32.0924 23.4855C32.6886 22.8896 33.1615 22.1821 33.4842 21.4034C33.8068 20.6247 33.9729 19.79 33.9729 18.9471C33.9729 18.1042 33.8068 17.2696 33.4842 16.4909C33.1615 15.7122 32.6886 15.0047 32.0924 14.4088Z" stroke="#246132" stroke-width="2" stroke-linecap="round" stroke-linejoin="round"/>
</svg>
