<svg width="64" height="65" viewBox="0 0 64 65" fill="none" xmlns="http://www.w3.org/2000/svg">
<path d="M42.0016 40.0046L39.1016 39.0046V35.6046C39.5016 35.3046 39.9016 34.9046 40.2016 34.5046C42.1016 32.4046 44.3016 28.7046 44.2016 22.4046C45.2016 21.5046 45.8016 20.5046 45.8016 19.4046V19.3046V14.4046L48.6016 9.30456C48.7016 9.00456 48.8016 8.70457 48.7016 8.50457C48.6016 8.20457 48.4016 8.00457 48.1016 7.90457L32.4016 2.00457C32.2016 1.90457 31.9016 1.90457 31.7016 2.00457L16.0016 8.00457C15.7016 8.10457 15.5016 8.30456 15.4016 8.60457C15.3016 8.90457 15.3016 9.20457 15.5016 9.40457L18.3016 14.5046V19.5046C18.3016 20.6046 18.9016 21.6046 19.8016 22.4046C19.6016 28.7046 21.9016 32.4046 23.8016 34.5046C24.2016 34.9046 24.5016 35.2046 24.9016 35.5046V38.9046L22.0016 39.9046C16.2016 41.9046 8.60156 45.4046 8.60156 53.6046V62.9046C8.60156 63.5046 9.00156 63.9046 9.60156 63.9046H54.4016C55.0016 63.9046 55.4016 63.5046 55.4016 62.9046V52.5046C55.4016 44.6046 48.3016 42.2046 42.0016 40.0046ZM53.4016 52.5046V54.2046H50.2016V49.4046H52.9016C53.2016 50.3046 53.4016 51.4046 53.4016 52.5046ZM40.5016 41.6046L39.3016 47.1046L33.9016 45.1046L38.4016 40.9046L40.5016 41.6046ZM32.0016 46.5046L34.8016 47.5046L32.5016 51.0046H31.7016L29.4016 47.5046L32.0016 46.5046ZM32.0016 44.1046L26.9016 39.3046V37.0046C28.5016 37.8046 30.2016 38.3046 32.0016 38.4046C33.8016 38.4046 35.5016 37.9046 37.1016 37.1046V39.4046L32.0016 44.1046ZM17.8016 9.50457L32.0016 4.00457L46.2016 9.50457L44.1016 13.3046H35.6016L37.5016 11.2046C37.7016 10.9046 37.8016 10.6046 37.7016 10.2046C37.6016 9.90457 37.3016 9.60457 36.9016 9.50457L34.1016 9.00457L32.7016 6.50457C32.5016 6.20457 32.2016 6.00457 31.8016 6.00457C31.4016 6.00457 31.1016 6.20457 30.9016 6.50457L29.5016 9.00457L27.0016 9.50457C26.6016 9.60457 26.4016 9.80457 26.2016 10.2046C26.1016 10.5046 26.2016 10.9046 26.4016 11.2046L28.3016 13.3046H19.8016L17.8016 9.50457ZM33.8016 14.5046L32.4016 13.9046C32.1016 13.8046 31.8016 13.8046 31.6016 13.9046L30.3016 14.5046L30.5016 13.0046C30.5016 12.7046 30.4016 12.4046 30.2016 12.2046L29.2016 11.1046L30.7016 10.8046C31.0016 10.7046 31.2016 10.6046 31.4016 10.3046L32.0016 9.00457L32.7016 10.3046C32.8016 10.6046 33.1016 10.7046 33.4016 10.8046L34.9016 11.1046L33.9016 12.2046C33.7016 12.4046 33.6016 12.7046 33.6016 13.0046L33.8016 14.5046ZM20.2016 15.3046H28.1016L28.0016 16.0046C28.0016 16.4046 28.1016 16.7046 28.4016 16.9046C28.7016 17.1046 29.1016 17.1046 29.4016 17.0046L32.0016 15.9046L34.6016 17.1046C34.7016 17.2046 34.9016 17.2046 35.0016 17.2046C35.2016 17.2046 35.4016 17.1046 35.6016 17.0046C35.9016 16.8046 36.0016 16.4046 36.0016 16.1046L35.9016 15.3046H43.8016V18.6046H20.2016V15.3046ZM20.6016 20.6046H43.3016C42.0016 22.3046 37.6016 23.8046 31.9016 23.8046C26.4016 23.8046 22.0016 22.2046 20.6016 20.6046ZM21.8016 23.8046C24.3016 25.0046 27.9016 25.8046 32.0016 25.8046C36.1016 25.8046 39.7016 25.1046 42.2016 23.8046C42.1016 28.6046 40.3016 31.6046 38.8016 33.2046C37.0016 35.2046 34.5016 36.3046 32.0016 36.3046C29.4016 36.3046 27.0016 35.1046 25.2016 33.2046C23.7016 31.6046 21.9016 28.6046 21.8016 23.8046ZM25.6016 40.9046L30.1016 45.1046L24.6016 47.1046L23.4016 41.7046L25.6016 40.9046ZM10.6016 53.7046C10.6016 52.1046 10.9016 50.7046 11.6016 49.4046H13.8016V54.2046H10.6016V53.7046ZM10.6016 61.9046V56.2046H14.8016C15.4016 56.2046 15.8016 55.8046 15.8016 55.2046V48.4046C15.8016 47.8046 15.4016 47.4046 14.8016 47.4046H13.0016C14.8016 45.4046 17.6016 43.7046 21.5016 42.3046L25.8016 61.9046H10.6016ZM25.0016 49.1046L27.3016 48.3046C27.4016 48.4046 27.4016 48.5046 27.5016 48.6046L30.0016 52.3046L27.4016 59.4046L25.0016 49.1046ZM28.5016 61.9046L31.8016 53.1046H32.3016L35.6016 61.9046H28.5016ZM34.1016 52.2046L36.6016 48.5046C36.6016 48.4046 36.7016 48.3046 36.8016 48.2046L39.0016 49.0046L36.8016 59.2046L34.1016 52.2046ZM38.2016 61.9046L42.4016 42.3046C46.6016 43.8046 49.9016 45.2046 51.7016 47.5046H49.2016C48.6016 47.5046 48.2016 47.9046 48.2016 48.5046V55.3046C48.2016 55.9046 48.6016 56.3046 49.2016 56.3046H53.4016V61.9046H38.2016Z" fill="url(#paint0_linear_4945_5032)"/>
<defs>
<linearGradient id="paint0_linear_4945_5032" x1="8.60156" y1="32.9171" x2="55.4016" y2="32.9171" gradientUnits="userSpaceOnUse">
<stop stop-color="#216432"/>
<stop offset="0.894231" stop-color="#114422"/>
</linearGradient>
</defs>
</svg>
