<svg width="62" height="56" viewBox="0 0 62 56" fill="none" xmlns="http://www.w3.org/2000/svg">
<path d="M41.1016 5.00459C41.7016 5.00459 42.1016 4.60459 42.1016 4.00459V1.20459C42.1016 0.60459 41.7016 0.20459 41.1016 0.20459C40.5016 0.20459 40.1016 0.60459 40.1016 1.20459V4.00459C40.1016 4.60459 40.6016 5.00459 41.1016 5.00459Z" fill="url(#paint0_linear_4945_5040)"/>
<path d="M34.5026 7.30461C34.7026 7.40461 34.9026 7.50461 35.1026 7.50461C35.4026 7.50461 35.7026 7.40461 35.9026 7.10461C36.2026 6.70461 36.1026 6.00461 35.7026 5.70461L33.4026 4.10461C33.0026 3.70461 32.4026 3.80461 32.0026 4.30461C31.7026 4.70461 31.8026 5.40461 32.2026 5.70461L34.5026 7.30461Z" fill="url(#paint1_linear_4945_5040)"/>
<path d="M47.1994 7.50461C47.3994 7.50461 47.5994 7.40461 47.7994 7.30461L49.9994 5.70461C50.3994 5.40461 50.4994 4.70461 50.1994 4.30461C49.8994 3.90461 49.2994 3.80461 48.7994 4.10461L46.4994 5.70461C46.0994 6.00461 45.9994 6.70461 46.2994 7.10461C46.5994 7.30461 46.8994 7.50461 47.1994 7.50461Z" fill="url(#paint2_linear_4945_5040)"/>
<path d="M45.5031 32.3046H42.7031C42.1031 32.3046 41.7031 32.7046 41.7031 33.3046C41.7031 33.9046 42.1031 34.3046 42.7031 34.3046H45.5031C46.1031 34.3046 46.5031 33.9046 46.5031 33.3046C46.5031 32.7046 46.0031 32.3046 45.5031 32.3046Z" fill="url(#paint3_linear_4945_5040)"/>
<path d="M25.0016 24.8046H22.8016V22.6046C22.8016 21.7046 22.1016 21.0046 21.2016 21.0046H16.5016C15.6016 21.0046 14.9016 21.7046 14.9016 22.6046V24.8046H12.7016C11.8016 24.8046 11.1016 25.5046 11.1016 26.4046V31.1046C11.1016 32.0046 11.8016 32.7046 12.7016 32.7046H15.0016V34.9046C15.0016 35.8046 15.7016 36.5046 16.6016 36.5046H21.3016C22.2016 36.5046 22.9016 35.8046 22.9016 34.9046V32.7046H25.0016C25.9016 32.7046 26.6016 32.0046 26.6016 31.1046V26.4046C26.6016 25.6046 25.8016 24.8046 25.0016 24.8046ZM24.6016 30.7046H21.9016C21.3016 30.7046 20.9016 31.1046 20.9016 31.7046V34.5046H17.0016V31.7046C17.0016 31.1046 16.6016 30.7046 16.0016 30.7046H13.2016V26.8046H16.0016C16.6016 26.8046 17.0016 26.4046 17.0016 25.8046V23.0046H20.8016V25.8046C20.8016 26.4046 21.2016 26.8046 21.8016 26.8046H24.5016V30.7046H24.6016Z" fill="url(#paint4_linear_4945_5040)"/>
<path d="M45.5031 44.1046C43.4031 44.1046 41.7031 45.8046 41.7031 47.9046C41.7031 50.0046 43.4031 51.7046 45.5031 51.7046C47.6031 51.7046 49.3031 50.0046 49.3031 47.9046C49.4031 45.9046 47.6031 44.1046 45.5031 44.1046ZM45.5031 49.8046C44.5031 49.8046 43.7031 49.0046 43.7031 48.0046C43.7031 47.0046 44.5031 46.2046 45.5031 46.2046C46.5031 46.2046 47.3031 47.0046 47.3031 48.0046C47.4031 49.0046 46.5031 49.8046 45.5031 49.8046Z" fill="url(#paint5_linear_4945_5040)"/>
<path d="M60.3 43.0046V33.1046C60.3 31.8046 59.7 30.6046 58.5 29.5046C58.5 29.5046 58.4 29.5046 58.4 29.4046L55.4 27.2046C55.2 27.0046 54.8 26.5046 54.5 25.5046L52.3 15.9046C51.8 13.8046 50.2 12.7046 47.4 12.7046H45.2V8.60459C45.2 7.50459 44.3 6.70459 43.3 6.70459H39.1C38 6.70459 37.2 7.60459 37.2 8.60459V12.7046H5.5C3.3 12.7046 1.9 14.1046 1.9 16.3046V42.9046C0.8 43.2046 0 44.2046 0 45.4046V47.2046C0 48.6046 1.2 49.8046 2.6 49.8046H6C6.8 53.2046 9.9 55.8046 13.5 55.8046C17.2 55.8046 20.2 53.2046 21 49.8046H38C38.8 53.2046 41.9 55.8046 45.5 55.8046C49.1 55.8046 52.2 53.2046 53 49.8046H59.3C60.7 49.8046 61.9 48.6046 61.9 47.2046V45.4046C61.9 44.3046 61.3 43.4046 60.3 43.0046ZM52.6 26.1046C52.7 26.3046 52.7 26.4046 52.8 26.6046H41.7V19.9046H51.2L52.6 26.1046ZM39.1 8.70459H43.1V12.7046H39.1V8.70459ZM5.8 47.7046H2.5C2.2 47.7046 1.9 47.4046 1.9 47.1046V45.3046C1.9 45.0046 2.2 44.7046 2.5 44.7046H6.5C6.1 45.7046 5.8 46.7046 5.8 47.7046ZM13.5 53.7046C10.3 53.7046 7.8 51.1046 7.8 48.0046C7.8 44.8046 10.4 42.3046 13.5 42.3046C16.6 42.3046 19.2 44.9046 19.2 48.0046C19.2 51.1046 16.7 53.7046 13.5 53.7046ZM37.8 47.7046H21.2C21.2 46.7046 20.9 45.7046 20.5 44.8046H38.5C38.1 45.7046 37.9 46.7046 37.8 47.7046ZM45.5 53.7046C42.3 53.7046 39.8 51.1046 39.8 48.0046C39.8 44.8046 42.4 42.3046 45.5 42.3046C48.7 42.3046 51.2 44.9046 51.2 48.0046C51.3 51.1046 48.7 53.7046 45.5 53.7046ZM45.5 40.2046C43.2 40.2046 41.2 41.2046 39.8 42.8046H19.2C17.8 41.2046 15.7 40.2046 13.5 40.2046C11.2 40.2046 9.2 41.2046 7.8 42.8046H3.8V16.4046C3.8 15.3046 4.3 14.8046 5.4 14.8046H47.3C49.9 14.8046 50.2 15.8046 50.3 16.4046L50.6 17.8046H41.6C40.5 17.8046 39.6 18.7046 39.6 19.8046V26.5046C39.6 27.6046 40.5 28.5046 41.6 28.5046H53.8C53.9 28.6046 54 28.7046 54.1 28.8046L57.1 31.0046C57.3 31.2046 57.4 31.3046 57.6 31.5046H54.7C53.8 31.5046 53 32.2046 53 33.2046V37.2046C53 38.1046 53.7 38.9046 54.7 38.9046H58.2V42.8046H51.1C49.8 41.2046 47.8 40.2046 45.5 40.2046ZM58.3 33.5046V36.9046H55.1V33.5046H58.3ZM59.9 47.1046C59.9 47.4046 59.6 47.7046 59.3 47.7046H53.2C53.2 46.7046 52.9 45.7046 52.5 44.8046H59.3C59.6 44.8046 59.9 45.1046 59.9 45.4046V47.1046Z" fill="url(#paint6_linear_4945_5040)"/>
<path d="M13.5031 44.1046C11.4031 44.1046 9.70312 45.8046 9.70312 47.9046C9.70312 50.0046 11.4031 51.7046 13.5031 51.7046C15.6031 51.7046 17.3031 50.0046 17.3031 47.9046C17.3031 45.9046 15.6031 44.1046 13.5031 44.1046ZM13.5031 49.8046C12.5031 49.8046 11.7031 49.0046 11.7031 48.0046C11.7031 47.0046 12.5031 46.2046 13.5031 46.2046C14.5031 46.2046 15.3031 47.0046 15.3031 48.0046C15.3031 49.0046 14.5031 49.8046 13.5031 49.8046Z" fill="url(#paint7_linear_4945_5040)"/>
<defs>
<linearGradient id="paint0_linear_4945_5040" x1="40.1016" y1="2.60459" x2="42.1016" y2="2.60459" gradientUnits="userSpaceOnUse">
<stop stop-color="#216432"/>
<stop offset="0.894231" stop-color="#114422"/>
</linearGradient>
<linearGradient id="paint1_linear_4945_5040" x1="31.8281" y1="5.6812" x2="36.077" y2="5.6812" gradientUnits="userSpaceOnUse">
<stop stop-color="#216432"/>
<stop offset="0.894231" stop-color="#114422"/>
</linearGradient>
<linearGradient id="paint2_linear_4945_5040" x1="46.125" y1="5.71739" x2="50.3739" y2="5.71739" gradientUnits="userSpaceOnUse">
<stop stop-color="#216432"/>
<stop offset="0.894231" stop-color="#114422"/>
</linearGradient>
<linearGradient id="paint3_linear_4945_5040" x1="41.7031" y1="33.3046" x2="46.5031" y2="33.3046" gradientUnits="userSpaceOnUse">
<stop stop-color="#216432"/>
<stop offset="0.894231" stop-color="#114422"/>
</linearGradient>
<linearGradient id="paint4_linear_4945_5040" x1="11.1016" y1="28.7546" x2="26.6016" y2="28.7546" gradientUnits="userSpaceOnUse">
<stop stop-color="#216432"/>
<stop offset="0.894231" stop-color="#114422"/>
</linearGradient>
<linearGradient id="paint5_linear_4945_5040" x1="41.7031" y1="47.9046" x2="49.3071" y2="47.9046" gradientUnits="userSpaceOnUse">
<stop stop-color="#216432"/>
<stop offset="0.894231" stop-color="#114422"/>
</linearGradient>
<linearGradient id="paint6_linear_4945_5040" x1="0" y1="31.2546" x2="61.9" y2="31.2546" gradientUnits="userSpaceOnUse">
<stop stop-color="#216432"/>
<stop offset="0.894231" stop-color="#114422"/>
</linearGradient>
<linearGradient id="paint7_linear_4945_5040" x1="9.70312" y1="47.9046" x2="17.3031" y2="47.9046" gradientUnits="userSpaceOnUse">
<stop stop-color="#216432"/>
<stop offset="0.894231" stop-color="#114422"/>
</linearGradient>
</defs>
</svg>
