<svg width="64" height="63" viewBox="0 0 64 63" fill="none" xmlns="http://www.w3.org/2000/svg">
<path d="M55.1 23.2046H31.8C30.8 23.2046 30 24.0046 30 25.0046V28.2046C30 29.2046 30.8 30.0046 31.8 30.0046H39.3H47.6H55.1C56.1 30.0046 56.9 29.2046 56.9 28.2046V25.0046C56.9 24.0046 56.1 23.2046 55.1 23.2046ZM32 25.2046H38.3V28.0046H32V25.2046ZM40.3 28.0046V25.2046H46.6V28.0046H40.3ZM54.9 28.0046H48.6V25.2046H54.9V28.0046Z" fill="url(#paint0_linear_4945_5087)"/>
<path d="M12.3031 22.7046H9.00313C8.00313 22.7046 7.20312 23.5046 7.20312 24.5046V27.7046C7.20312 28.7046 8.00313 29.5046 9.00313 29.5046H12.2031C13.2031 29.5046 14.0031 28.7046 14.0031 27.7046V24.5046C14.1031 23.5046 13.3031 22.7046 12.3031 22.7046ZM12.1031 27.5046H9.30313V24.7046H12.1031V27.5046Z" fill="url(#paint1_linear_4945_5087)"/>
<path d="M21.1016 22.7046H17.9016C16.9016 22.7046 16.1016 23.5046 16.1016 24.5046V27.7046C16.1016 28.7046 16.9016 29.5046 17.9016 29.5046H21.1016C22.1016 29.5046 22.9016 28.7046 22.9016 27.7046V24.5046C22.8016 23.5046 22.0016 22.7046 21.1016 22.7046ZM20.8016 27.5046H18.0016V24.7046H20.8016V27.5046Z" fill="url(#paint2_linear_4945_5087)"/>
<path d="M12.3031 31.5045H9.00313C8.00313 31.5045 7.20312 32.3045 7.20312 33.3045V36.5045C7.20312 37.5045 8.00313 38.3045 9.00313 38.3045H12.2031C13.2031 38.3045 14.0031 37.5045 14.0031 36.5045V33.3045C14.1031 32.3045 13.3031 31.5045 12.3031 31.5045ZM12.1031 36.3045H9.30313V33.5045H12.1031V36.3045Z" fill="url(#paint3_linear_4945_5087)"/>
<path d="M21.1016 31.5045H17.9016C16.9016 31.5045 16.1016 32.3045 16.1016 33.3045V36.5045C16.1016 37.5045 16.9016 38.3045 17.9016 38.3045H21.1016C22.1016 38.3045 22.9016 37.5045 22.9016 36.5045V33.3045C22.8016 32.3045 22.0016 31.5045 21.1016 31.5045ZM20.8016 36.3045H18.0016V33.5045H20.8016V36.3045Z" fill="url(#paint4_linear_4945_5087)"/>
<path d="M55.1 32.0045H31.8C30.8 32.0045 30 32.8045 30 33.8045V37.0045C30 38.0045 30.8 38.8045 31.8 38.8045H55.1C56.1 38.8045 56.9 38.0045 56.9 37.0045V33.8045C56.9 32.8045 56.1 32.0045 55.1 32.0045ZM32 34.0045H38.3V36.8045H32V34.0045ZM40.3 36.8045V34.0045H46.6V36.8045H40.3ZM54.9 36.8045H48.6V34.0045H54.9V36.8045Z" fill="url(#paint5_linear_4945_5087)"/>
<path d="M55.1 40.8046H31.8C30.8 40.8046 30 41.6046 30 42.6046V45.8046C30 46.8046 30.8 47.6046 31.8 47.6046H55.1C56.1 47.6046 56.9 46.8046 56.9 45.8046V42.6046C56.9 41.6046 56.1 40.8046 55.1 40.8046ZM32 42.8046H38.3V45.6046H32V42.8046ZM40.3 45.6046V42.8046H46.6V45.6046H40.3ZM54.9 45.6046H48.6V42.8046H54.9V45.6046Z" fill="url(#paint6_linear_4945_5087)"/>
<path d="M12.3031 40.3046H9.00313C8.00313 40.3046 7.20312 41.1046 7.20312 42.1046V45.3046C7.20312 46.3046 8.00313 47.1046 9.00313 47.1046H12.2031C13.2031 47.1046 14.0031 46.3046 14.0031 45.3046V42.1046C14.1031 41.1046 13.3031 40.3046 12.3031 40.3046ZM12.1031 45.1046H9.30313V42.3046H12.1031V45.1046Z" fill="url(#paint7_linear_4945_5087)"/>
<path d="M21.1016 40.3046H17.9016C16.9016 40.3046 16.1016 41.1046 16.1016 42.1046V45.3046C16.1016 46.3046 16.9016 47.1046 17.9016 47.1046H21.1016C22.1016 47.1046 22.9016 46.3046 22.9016 45.3046V42.1046C22.8016 41.1046 22.0016 40.3046 21.1016 40.3046ZM20.8016 45.1046H18.0016V42.3046H20.8016V45.1046Z" fill="url(#paint8_linear_4945_5087)"/>
<path d="M62.8031 60.9045H61.2031V7.80454H61.7031C62.6031 7.80454 63.4031 7.10454 63.4031 6.10454V2.60454C63.4031 1.70454 62.7031 0.904541 61.7031 0.904541H25.3031C24.4031 0.904541 23.6031 1.60454 23.6031 2.60454V6.10454C23.6031 7.00454 24.3031 7.80454 25.3031 7.80454H25.8031V12.2045H2.40313C1.40313 12.2045 0.603125 13.0045 0.603125 14.0045V17.3045C0.603125 18.3045 1.40313 19.1045 2.40313 19.1045H2.80312V60.9045H1.20312C0.603125 60.9045 0.203125 61.3045 0.203125 61.9045C0.203125 62.5045 0.603125 62.9045 1.20312 62.9045H62.8031C63.4031 62.9045 63.8031 62.5045 63.8031 61.9045C63.8031 61.3045 63.3031 60.9045 62.8031 60.9045ZM25.6031 2.90454H61.3031V5.80454H25.6031V2.90454ZM2.70312 14.1045H25.8031V17.0045H2.70312V14.1045ZM4.80313 19.0045H25.7031V60.9045H4.80313V19.0045ZM48.4031 60.9045H38.5031V54.1045C38.5031 54.0045 38.6031 54.0045 38.6031 54.0045H48.2031C48.3031 54.0045 48.3031 54.1045 48.3031 54.1045V60.9045H48.4031ZM50.4031 60.9045V54.1045C50.4031 52.9045 49.5031 52.0045 48.3031 52.0045H38.7031C37.5031 52.0045 36.6031 52.9045 36.6031 54.1045V60.9045H27.8031V7.80454H59.2031V60.9045H50.4031Z" fill="url(#paint9_linear_4945_5087)"/>
<defs>
<linearGradient id="paint0_linear_4945_5087" x1="30" y1="26.6046" x2="56.9" y2="26.6046" gradientUnits="userSpaceOnUse">
<stop stop-color="#216432"/>
<stop offset="0.894231" stop-color="#114422"/>
</linearGradient>
<linearGradient id="paint1_linear_4945_5087" x1="7.20312" y1="26.1046" x2="14.0116" y2="26.1046" gradientUnits="userSpaceOnUse">
<stop stop-color="#216432"/>
<stop offset="0.894231" stop-color="#114422"/>
</linearGradient>
<linearGradient id="paint2_linear_4945_5087" x1="16.1016" y1="26.1046" x2="22.9016" y2="26.1046" gradientUnits="userSpaceOnUse">
<stop stop-color="#216432"/>
<stop offset="0.894231" stop-color="#114422"/>
</linearGradient>
<linearGradient id="paint3_linear_4945_5087" x1="7.20312" y1="34.9045" x2="14.0116" y2="34.9045" gradientUnits="userSpaceOnUse">
<stop stop-color="#216432"/>
<stop offset="0.894231" stop-color="#114422"/>
</linearGradient>
<linearGradient id="paint4_linear_4945_5087" x1="16.1016" y1="34.9045" x2="22.9016" y2="34.9045" gradientUnits="userSpaceOnUse">
<stop stop-color="#216432"/>
<stop offset="0.894231" stop-color="#114422"/>
</linearGradient>
<linearGradient id="paint5_linear_4945_5087" x1="30" y1="35.4045" x2="56.9" y2="35.4045" gradientUnits="userSpaceOnUse">
<stop stop-color="#216432"/>
<stop offset="0.894231" stop-color="#114422"/>
</linearGradient>
<linearGradient id="paint6_linear_4945_5087" x1="30" y1="44.2046" x2="56.9" y2="44.2046" gradientUnits="userSpaceOnUse">
<stop stop-color="#216432"/>
<stop offset="0.894231" stop-color="#114422"/>
</linearGradient>
<linearGradient id="paint7_linear_4945_5087" x1="7.20312" y1="43.7046" x2="14.0116" y2="43.7046" gradientUnits="userSpaceOnUse">
<stop stop-color="#216432"/>
<stop offset="0.894231" stop-color="#114422"/>
</linearGradient>
<linearGradient id="paint8_linear_4945_5087" x1="16.1016" y1="43.7046" x2="22.9016" y2="43.7046" gradientUnits="userSpaceOnUse">
<stop stop-color="#216432"/>
<stop offset="0.894231" stop-color="#114422"/>
</linearGradient>
<linearGradient id="paint9_linear_4945_5087" x1="0.203125" y1="31.9045" x2="63.8031" y2="31.9045" gradientUnits="userSpaceOnUse">
<stop stop-color="#216432"/>
<stop offset="0.894231" stop-color="#114422"/>
</linearGradient>
</defs>
</svg>
