<svg width="64" height="65" viewBox="0 0 64 65" fill="none" xmlns="http://www.w3.org/2000/svg">
<g clip-path="url(#clip0_4945_5072)">
<path d="M39.5555 43.7047C38.7555 42.4047 37.5555 41.4047 36.0555 41.0047C34.5555 40.6046 32.9555 40.8046 31.6555 41.5047L26.4555 44.5047C20.2555 40.4047 15.8555 32.7047 15.5555 25.3047L20.7555 22.3047C23.5555 20.7047 24.5555 17.2047 22.9555 14.4047L18.8555 7.20465C18.0555 5.90465 16.8555 4.90465 15.3555 4.50465C13.8555 4.00465 12.3555 4.20465 10.9555 5.00465L5.25547 8.20465C-2.84453 12.8047 1.45547 28.9046 8.85547 42.0047C15.0555 53.0047 24.3555 63.1046 31.9555 63.1046C33.2555 63.1046 34.5555 62.8046 35.7555 62.1046L41.4555 58.9047C44.2555 57.3047 45.2555 53.8046 43.6555 51.0047L39.5555 43.7047ZM11.9555 6.70465C12.8555 6.20465 13.8555 6.10465 14.8555 6.30465C15.8555 6.60465 16.6555 7.20465 17.1555 8.10465L21.2555 15.3047C22.2555 17.1047 21.6555 19.5047 19.8555 20.5047L18.6555 21.2047L10.7555 7.40465L11.9555 6.70465ZM34.8555 60.3046C28.2555 64.0047 17.6555 53.4046 10.5555 41.0047C3.45547 28.4046 -0.344527 13.7047 6.25547 9.90465L8.95547 8.30465L16.8555 22.2047L14.0555 23.8047C13.7555 24.0047 13.5555 24.3047 13.5555 24.7047C13.6555 33.1047 18.7555 42.1046 25.8555 46.5047C26.1555 46.7047 26.5555 46.7047 26.8555 46.5047L29.6555 44.9047L37.5555 58.8046L34.8555 60.3046ZM40.4555 57.1046L39.2555 57.8046L31.3555 43.9047L32.5555 43.2047C33.4555 42.7047 34.4555 42.6046 35.4555 42.8046C36.4555 43.1046 37.2555 43.7046 37.7555 44.6046L41.8555 51.8046C42.9555 53.7047 42.3555 56.0047 40.4555 57.1046Z" fill="url(#paint0_linear_4945_5072)"/>
<path d="M47.3579 21.5047H43.2579C43.7579 21.0047 44.3579 20.6047 44.9579 20.1047C45.9579 19.4047 46.9579 18.7047 47.4579 17.6047C47.9579 16.6047 48.0579 15.5047 47.6579 14.5047C47.2579 13.6047 46.4579 12.9047 45.3579 12.5047C44.3579 12.2047 43.2579 12.4047 42.3579 13.0047C41.4579 13.6047 40.8579 14.7047 40.8579 15.8047C40.8579 16.4047 41.2579 16.8047 41.7579 16.9047C42.3579 16.9047 42.7579 16.5047 42.8579 16.0047C42.8579 15.5047 43.1579 15.0047 43.5579 14.7047C43.7579 14.5047 44.2579 14.3047 44.7579 14.5047C45.2579 14.7047 45.5579 15.0047 45.7579 15.4047C45.9579 15.8047 45.8579 16.3047 45.6579 16.8047C45.3579 17.5047 44.5579 18.0047 43.7579 18.6047C42.5579 19.5047 41.1579 20.5047 40.5579 22.2047C40.4579 22.5047 40.4579 22.8047 40.6579 23.1047C40.8579 23.4047 41.1579 23.5047 41.4579 23.5047H47.2579C47.8579 23.5047 48.2579 23.1047 48.2579 22.5047C48.2579 21.9047 47.9579 21.5047 47.3579 21.5047Z" fill="url(#paint1_linear_4945_5072)"/>
<path d="M55.4579 18.8047H55.0579V13.4047C55.0579 13.0047 54.7579 12.6047 54.3579 12.4047C53.9579 12.3047 53.4579 12.4047 53.2579 12.8047L48.6579 19.2047C48.4579 19.5047 48.4579 19.9047 48.5579 20.2047C48.6579 20.5047 49.0579 20.7047 49.4579 20.7047H53.0579V22.4047C53.0579 23.0047 53.4579 23.4047 54.0579 23.4047C54.6579 23.4047 55.0579 23.0047 55.0579 22.4047V20.7047H55.4579C56.0579 20.7047 56.4579 20.3047 56.4579 19.7047C56.4579 19.1047 55.9579 18.8047 55.4579 18.8047ZM53.0579 18.8047H51.4579L53.0579 16.5047V18.8047Z" fill="url(#paint2_linear_4945_5072)"/>
<path d="M47.9547 3.40466C39.7547 3.40466 33.0547 10.1047 33.0547 18.3047C33.0547 22.8047 35.1547 27.1047 38.5547 29.9047L37.3547 34.7047C37.0547 35.6047 37.1547 36.5047 37.8547 37.1047C38.2547 37.5047 38.7547 37.6047 39.2547 37.6047C39.6547 37.6047 40.0547 37.5047 40.4547 37.3047C40.5547 37.3047 40.5547 37.2047 40.5547 37.2047L46.0547 33.1047C46.6547 33.2047 47.2547 33.2047 47.9547 33.2047C56.1547 33.2047 62.8547 26.5047 62.8547 18.3047C62.8547 10.1047 56.1547 3.40466 47.9547 3.40466ZM47.9547 31.2047C47.2547 31.2047 46.6547 31.1047 45.9547 31.0047C45.6547 31.0047 45.4547 31.0047 45.1547 31.2047L39.3547 35.5047C39.2547 35.6047 39.1547 35.5047 39.1547 35.5047C39.1547 35.5047 39.1547 35.4047 39.1547 35.3047C39.1547 35.3047 39.1547 35.2047 39.2547 35.1047L40.6547 29.6047C40.7547 29.2047 40.6547 28.8047 40.2547 28.5047C36.9547 26.1047 34.9547 22.2047 34.9547 18.1047C34.9547 11.0047 40.7547 5.20466 47.8547 5.20466C54.9547 5.20466 60.7547 11.0047 60.7547 18.1047C60.8547 25.4047 55.0547 31.2047 47.9547 31.2047Z" fill="url(#paint3_linear_4945_5072)"/>
</g>
<defs>
<linearGradient id="paint0_linear_4945_5072" x1="0.882812" y1="33.6684" x2="44.4191" y2="33.6684" gradientUnits="userSpaceOnUse">
<stop stop-color="#216432"/>
<stop offset="0.894231" stop-color="#114422"/>
</linearGradient>
<linearGradient id="paint1_linear_4945_5072" x1="40.4922" y1="17.9357" x2="48.2579" y2="17.9357" gradientUnits="userSpaceOnUse">
<stop stop-color="#216432"/>
<stop offset="0.894231" stop-color="#114422"/>
</linearGradient>
<linearGradient id="paint2_linear_4945_5072" x1="48.4922" y1="17.8867" x2="56.4579" y2="17.8867" gradientUnits="userSpaceOnUse">
<stop stop-color="#216432"/>
<stop offset="0.894231" stop-color="#114422"/>
</linearGradient>
<linearGradient id="paint3_linear_4945_5072" x1="33.0547" y1="20.5047" x2="62.8547" y2="20.5047" gradientUnits="userSpaceOnUse">
<stop stop-color="#216432"/>
<stop offset="0.894231" stop-color="#114422"/>
</linearGradient>
<clipPath id="clip0_4945_5072">
<rect width="64" height="64" fill="white" transform="translate(0 0.904541)"/>
</clipPath>
</defs>
</svg>
