<svg width="146" height="87" viewBox="0 0 146 87" fill="none" xmlns="http://www.w3.org/2000/svg">
<rect y="0.55957" width="146" height="86" rx="12" fill="#EEEEEE"/>
<path d="M54.7441 14.8066C59.2954 14.6553 64.1072 14.6517 68.3809 14.8965C72.6684 15.1421 76.3673 15.636 78.7207 16.46C79.805 16.8399 81.9921 18.0781 84.4268 19.8008C86.8497 21.5153 89.4643 23.672 91.4111 25.8535L91.54 25.9971L91.7314 26.0176H91.7324C91.7335 26.0177 91.7351 26.0183 91.7373 26.0186C91.7416 26.019 91.7482 26.0196 91.7568 26.0205C91.7745 26.0224 91.8012 26.0254 91.8359 26.0293C91.9056 26.0371 92.0091 26.0489 92.1426 26.0645C92.4096 26.0955 92.7982 26.1419 93.2822 26.2031C94.2504 26.3256 95.6008 26.5067 97.1289 26.7441C100.193 27.2201 103.945 27.9158 106.768 28.7979C109.481 29.6461 110.953 31.2704 111.783 33.0322C112.624 34.8168 112.813 36.7601 112.905 38.2422C113.067 40.8347 110.853 42.6043 108.289 43.1904L41.0918 42.0527H41.083C39.5746 42.0527 37.9482 42.0807 36.5312 41.7891C35.1238 41.4994 34.0328 40.9161 33.4746 39.7754C33.1932 39.2004 33.0815 38.7208 33.1152 37.3262C33.1496 35.9069 33.3304 33.6355 33.5908 29.4971C33.6806 28.0686 33.8113 27.258 34.0684 26.6104C34.3229 25.9693 34.7161 25.45 35.4258 24.624C37.1762 22.5867 38.9303 20.5452 40.6807 18.5078L41.1924 17.9121L40.4365 17.7002H40.4346C40.4336 17.6999 40.4325 17.6987 40.4307 17.6982C40.4267 17.6971 40.4199 17.6955 40.4121 17.6934C40.3966 17.689 40.3738 17.6829 40.3447 17.6748C40.2861 17.6584 40.2014 17.6344 40.0977 17.6055C39.8901 17.5475 39.6056 17.4685 39.2979 17.3828L37.5967 16.9121C37.4558 16.874 37.3671 16.7788 37.3301 16.6826C37.2986 16.6009 37.3116 16.5461 37.3281 16.5156C37.3372 16.5106 37.3503 16.5028 37.3691 16.4941C37.4334 16.4645 37.5302 16.4283 37.665 16.3877C37.9341 16.3067 38.3126 16.2203 38.7949 16.1309C39.7569 15.9524 41.0895 15.7711 42.6973 15.5996C45.9106 15.2569 50.1932 14.958 54.7441 14.8066Z" stroke="black"/>
<path d="M108.378 32.0836C108.054 32.0485 107.657 32.046 107.481 32.3206C107.303 32.5989 107.478 32.9612 107.651 33.2432C108.126 34.0117 108.601 34.7802 109.075 35.5499C109.337 35.9737 109.607 36.4062 109.995 36.7158C110.687 37.2662 111.641 37.3414 112.525 37.2912C112.794 37.2762 113.064 37.2511 113.334 37.2298C113.198 35.7931 112.901 34.0681 112.073 32.4823C110.84 32.3494 109.608 32.2165 108.377 32.0849L108.378 32.0836Z" fill="#FFC466"/>
<path d="M32.5966 37.5015C32.5778 38.3652 32.6455 39.2277 33.0216 39.9949C33.6421 41.2624 35.0123 42.0296 36.4001 42.2828C37.7891 42.5361 39.202 42.5524 41.0787 42.5524L108.342 43.6919C110.21 43.277 112.019 42.2252 112.883 40.618C86.1205 39.5787 59.3591 38.5407 32.5966 37.5015Z" fill="#726A5E"/>
<path d="M52.5183 38.4696C51.3111 35.5875 48.1707 33.6381 45.0517 33.8349C41.9327 34.0318 39.0618 36.3598 38.2257 39.371C37.3895 42.3822 38.6481 45.8573 41.2193 47.6337C43.7905 49.4101 47.4863 49.3599 50.0073 47.5133C52.5284 45.6667 54.1769 42.2518 52.5183 38.4709V38.4696Z" fill="#514A42"/>
<path d="M48.9401 39.9694C48.3547 38.5729 46.834 37.6289 45.3221 37.7241C43.8115 37.8194 42.42 38.9477 42.0151 40.4057C41.6101 41.8649 42.2194 43.5485 43.4655 44.4085C44.7104 45.2698 46.5018 45.2447 47.7229 44.3496C48.9439 43.4545 49.7425 41.801 48.9389 39.9681L48.9401 39.9694Z" fill="#91A6A8"/>
<path d="M49.4844 39.6529C48.7636 38.0557 47.006 36.9513 45.2384 37.1042C43.5284 37.2521 42.0103 38.4418 41.4649 40.0716C40.9359 41.6536 41.4925 43.5542 42.7499 44.6386C44.1302 45.8295 46.2488 45.9987 47.8071 45.0472C49.6085 43.9478 50.3432 41.7527 49.5484 39.802C49.2475 39.0649 48.034 39.3871 48.3399 40.1355C48.9867 41.7201 48.3925 43.5278 46.7339 44.191C45.0754 44.8542 43.2677 44.0293 42.7035 42.382C42.1808 40.8563 42.9154 39.2341 44.3934 38.5885C45.9743 37.8978 47.7218 38.7766 48.4038 40.2859C48.7347 41.0206 49.8154 40.3837 49.4857 39.6529H49.4844Z" fill="black"/>
<path d="M105.956 38.4696C104.749 35.5875 101.608 33.6381 98.4892 33.8349C95.3702 34.0318 92.4993 36.3598 91.6632 39.371C90.827 42.3822 92.0856 45.8573 94.6568 47.6337C97.228 49.4101 100.924 49.3599 103.445 47.5133C105.966 45.6667 107.614 42.2518 105.956 38.4709V38.4696Z" fill="#514A42"/>
<path d="M102.385 39.9694C101.8 38.5729 100.279 37.6289 98.7675 37.7241C97.2568 37.8194 95.8653 38.9477 95.4604 40.4057C95.0554 41.8649 95.6647 43.5485 96.9108 44.4085C98.1557 45.2698 99.9471 45.2447 101.168 44.3496C102.389 43.4545 103.188 41.801 102.384 39.9681L102.385 39.9694Z" fill="#91A6A8"/>
<path d="M102.922 39.6529C102.201 38.0557 100.443 36.9513 98.6759 37.1042C96.9082 37.2572 95.4478 38.4418 94.9024 40.0716C94.3734 41.6536 94.93 43.5542 96.1874 44.6386C97.5677 45.8295 99.6863 45.9987 101.245 45.0472C103.046 43.9478 103.781 41.7527 102.986 39.802C102.685 39.0649 101.471 39.3871 101.777 40.1355C102.424 41.7201 101.83 43.5278 100.171 44.191C98.5129 44.8542 96.7051 44.0293 96.141 42.382C95.6182 40.8563 96.3529 39.2341 97.8309 38.5885C99.4118 37.8978 101.159 38.7766 101.841 40.2859C102.172 41.0206 103.253 40.3837 102.923 39.6529H102.922Z" fill="black"/>
<path d="M65.3275 17.0022C60.5938 16.8956 55.7084 16.8342 51.0612 16.8355C48.4536 16.8355 48.1415 17.3256 47.2928 20.392C46.7111 22.4931 47.2677 23.1538 48.9914 23.5462C60.0247 26.0559 71.3876 26.8695 82.7029 26.847C83.2921 26.847 84.0693 26.9021 84.5131 26.6451C85.1738 26.2615 85.9097 25.6347 86.2557 25.2373C86.4901 24.969 85.9423 24.341 85.7743 24.1429C81.0719 18.5805 74.9053 17.4184 65.325 17.0022H65.3275Z" fill="#A1A1A1"/>
<path d="M65.3427 16.3751C61.6219 16.2924 57.8998 16.236 54.1778 16.2159C52.701 16.2084 51.1515 16.073 49.686 16.2924C48.8762 16.414 48.1904 16.7738 47.7291 17.4658C47.1336 18.3584 46.844 19.5593 46.6096 20.5911C46.389 21.5639 46.3363 22.6759 47.1437 23.398C48.109 24.2605 49.7713 24.3645 50.971 24.6127C52.79 24.9901 54.6178 25.3223 56.4519 25.6144C63.6941 26.7677 71.0229 27.3043 78.3516 27.4372C80.1117 27.4698 81.9194 27.5826 83.677 27.4673C84.4104 27.4184 84.9307 27.1689 85.5124 26.7364C85.9674 26.3992 86.7572 25.9002 86.9227 25.311C87.0744 24.7732 86.6845 24.2517 86.3699 23.8618C85.99 23.3904 85.575 22.9429 85.1463 22.5154C84.3176 21.6893 83.405 20.9434 82.4297 20.2977C77.4578 17.0032 71.1181 16.6283 65.3401 16.3739C64.5341 16.3388 64.5353 17.5924 65.3401 17.6275C70.1478 17.8394 75.2978 18.1026 79.7181 20.2075C81.5998 21.1038 83.2771 22.3361 84.7013 23.8581C84.8855 24.0549 85.0648 24.2555 85.2403 24.4598C85.3532 24.5914 85.5086 24.881 85.6402 24.9788C85.8408 25.128 85.6064 25.0365 85.733 24.8961C85.6202 25.0214 85.4935 25.1355 85.3682 25.2483C85.0623 25.5229 84.7351 25.7962 84.3778 26.0018C83.8388 26.3102 83.1981 26.2199 82.5964 26.2186C81.7477 26.2186 80.899 26.2161 80.0503 26.2074C73.3421 26.1397 66.6276 25.7573 59.9759 24.8722C56.67 24.4322 53.3792 23.8631 50.1198 23.151C49.4253 22.9993 47.9711 22.9253 47.7429 22.0541C47.6263 21.6078 47.7742 21.0787 47.8871 20.65C48.0337 20.0896 48.1942 19.5293 48.3885 18.9839C48.6367 18.2894 48.9401 17.7278 49.6973 17.5573C50.2213 17.4394 50.778 17.4608 51.312 17.4608C52.187 17.4608 53.0621 17.4633 53.9371 17.467C57.7394 17.4858 61.5404 17.5422 65.3414 17.6275C66.1487 17.645 66.1487 16.3914 65.3414 16.3739L65.3427 16.3751Z" fill="black"/>
<path d="M69.1978 29.5761C69.9124 29.6062 70.6282 29.6363 71.3428 29.6663C72.1489 29.7002 72.1476 28.4466 71.3428 28.4127C70.6282 28.3826 69.9124 28.3525 69.1978 28.3225C68.3918 28.2886 68.393 29.5422 69.1978 29.5761Z" fill="black"/>
<path d="M49.0832 26.3868C49.6649 26.5498 50.2454 26.7127 50.827 26.8745C51.6056 27.0926 51.9378 25.8828 51.1605 25.666C50.5788 25.503 49.9984 25.34 49.4167 25.1783C48.6382 24.9602 48.306 26.1699 49.0832 26.3868Z" fill="black"/>
<path d="M46.6193 24.6015C46.1969 26.9621 46.1906 29.3615 46.5943 31.7259C46.7296 32.5194 47.9381 32.1834 47.8028 31.3924C47.4392 29.265 47.448 27.0586 47.8278 24.9349C47.9695 24.1464 46.761 23.8079 46.6193 24.6015Z" fill="black"/>
<path d="M66.4796 28.1648C66.7579 31.2424 66.7855 34.3326 66.5636 37.4153C66.5059 38.2202 67.7596 38.2164 67.8172 37.4153C68.0391 34.3326 68.0103 31.2424 67.7332 28.1648C67.6618 27.3675 66.4069 27.3599 66.4796 28.1648Z" fill="black"/>
<path d="M88.0183 27.2846C89.3948 29.6803 89.9577 32.4082 89.6756 35.1537C89.5929 35.956 90.8478 35.9497 90.9293 35.1537C91.2326 32.2001 90.5795 29.2227 89.1002 26.6515C88.6978 25.952 87.6147 26.5826 88.0183 27.2846Z" fill="black"/>
<path d="M64.2046 17.2706C64.6823 20.075 65.0383 22.8957 65.2765 25.7301C65.3429 26.5287 66.5978 26.535 66.5301 25.7301C66.2844 22.7841 65.9108 19.8506 65.4144 16.9371C65.279 16.1436 64.0705 16.4796 64.2059 17.2706H64.2046Z" fill="black"/>
<path d="M41.7264 18.4206C41.329 18.2727 40.7749 18.2112 40.3048 18.1812C38.5535 20.2196 36.8009 22.2592 35.0496 24.2976C34.6798 24.7276 34.3087 25.1626 34.0078 25.6428C34.5719 25.8007 35.096 25.9374 35.5498 26.0414C37.9129 26.583 38.65 25.8785 39.5489 24.5433C40.4452 23.2107 41.3165 21.8606 42.1614 20.4941C42.7093 19.6078 42.772 18.8105 41.7252 18.4218L41.7264 18.4206Z" fill="#A1A1A1"/>
<path d="M34.5568 26.4421C35.7252 26.7442 37.0353 27.0915 38.2087 26.6251C39.2417 26.2152 39.8346 25.2436 40.4226 24.3586C40.9128 23.6227 41.3942 22.883 41.868 22.1371C42.2755 21.4965 42.7757 20.8472 43.0327 20.1276C43.5203 18.7649 42.5375 17.9011 41.2713 17.6629C40.4828 17.515 40.1443 18.7222 40.9378 18.8714C41.2901 18.9379 41.9194 19.0056 41.9182 19.4657C41.9169 19.9257 41.4581 20.4347 41.2349 20.7895C40.5317 21.9127 39.8108 23.026 39.0712 24.1254C38.7164 24.6532 38.329 25.2499 37.7035 25.4793C36.8134 25.8065 35.7578 25.4568 34.8878 25.2324C34.1068 25.0305 33.7733 26.239 34.5543 26.4409L34.5568 26.4421Z" fill="black"/>
<path d="M36.9233 31.6347C36.9772 31.2361 37.0311 30.8324 36.9809 30.4337C36.9308 30.0351 36.7641 29.6352 36.4481 29.3869C36.0959 29.1099 35.6233 29.0598 35.177 29.0209L33.1348 28.8391C33.1185 29.0485 33.1047 29.2566 33.0922 29.4647C33.022 30.5716 32.953 31.6786 32.8828 32.7855C33.7503 32.8344 34.6178 32.8796 35.4866 32.9172C35.8163 32.931 36.1723 32.9372 36.4419 32.7479C36.7829 32.5085 36.8681 32.0472 36.9233 31.6335V31.6347Z" fill="#FF7373"/>
<path d="M39.2009 55.7809V66.9329H37.7449V61.8769H32.0649V66.9329H30.6089V55.7809H32.0649V60.6769H37.7449V55.7809H39.2009ZM41.143 62.5169C41.143 61.6209 41.3244 60.8369 41.687 60.1649C42.0497 59.4822 42.5457 58.9542 43.175 58.5809C43.815 58.2075 44.5244 58.0209 45.303 58.0209C46.071 58.0209 46.7377 58.1862 47.303 58.5169C47.8684 58.8475 48.2897 59.2635 48.567 59.7649V58.1649H50.039V66.9329H48.567V65.3009C48.279 65.8129 47.847 66.2395 47.271 66.5809C46.7057 66.9115 46.0444 67.0769 45.287 67.0769C44.5084 67.0769 43.8044 66.8849 43.175 66.5009C42.5457 66.1169 42.0497 65.5782 41.687 64.8849C41.3244 64.1915 41.143 63.4022 41.143 62.5169ZM48.567 62.5329C48.567 61.8715 48.4337 61.2955 48.167 60.8049C47.9004 60.3142 47.5377 59.9409 47.079 59.6849C46.631 59.4182 46.135 59.2849 45.591 59.2849C45.047 59.2849 44.551 59.4129 44.103 59.6689C43.655 59.9249 43.2977 60.2982 43.031 60.7889C42.7644 61.2795 42.631 61.8555 42.631 62.5169C42.631 63.1889 42.7644 63.7755 43.031 64.2769C43.2977 64.7675 43.655 65.1462 44.103 65.4129C44.551 65.6689 45.047 65.7969 45.591 65.7969C46.135 65.7969 46.631 65.6689 47.079 65.4129C47.5377 65.1462 47.9004 64.7675 48.167 64.2769C48.4337 63.7755 48.567 63.1942 48.567 62.5329ZM54.2755 59.3649V64.5329C54.2755 64.9595 54.3662 65.2635 54.5475 65.4449C54.7289 65.6155 55.0435 65.7009 55.4915 65.7009H56.5635V66.9329H55.2515C54.4409 66.9329 53.8329 66.7462 53.4275 66.3729C53.0222 65.9995 52.8195 65.3862 52.8195 64.5329V59.3649H51.6835V58.1649H52.8195V55.9569H54.2755V58.1649H56.5635V59.3649H54.2755ZM57.7836 62.5329C57.7836 61.6262 57.965 60.8369 58.3276 60.1649C58.6903 59.4822 59.1916 58.9542 59.8316 58.5809C60.4823 58.2075 61.2236 58.0209 62.0556 58.0209C63.133 58.0209 64.0183 58.2822 64.7116 58.8049C65.4156 59.3275 65.8796 60.0529 66.1036 60.9809H64.5356C64.3863 60.4475 64.093 60.0262 63.6556 59.7169C63.229 59.4075 62.6956 59.2529 62.0556 59.2529C61.2236 59.2529 60.5516 59.5409 60.0396 60.1169C59.5276 60.6822 59.2716 61.4875 59.2716 62.5329C59.2716 63.5889 59.5276 64.4049 60.0396 64.9809C60.5516 65.5569 61.2236 65.8449 62.0556 65.8449C62.6956 65.8449 63.229 65.6955 63.6556 65.3969C64.0823 65.0982 64.3756 64.6715 64.5356 64.1169H66.1036C65.869 65.0129 65.3996 65.7329 64.6956 66.2769C63.9916 66.8102 63.1116 67.0769 62.0556 67.0769C61.2236 67.0769 60.4823 66.8902 59.8316 66.5169C59.1916 66.1435 58.6903 65.6155 58.3276 64.9329C57.965 64.2502 57.7836 63.4502 57.7836 62.5329ZM72.3984 58.0049C73.0597 58.0049 73.6571 58.1489 74.1904 58.4369C74.7237 58.7142 75.1397 59.1355 75.4384 59.7009C75.7477 60.2662 75.9024 60.9542 75.9024 61.7649V66.9329H74.4624V61.9729C74.4624 61.0982 74.2437 60.4315 73.8064 59.9729C73.3691 59.5035 72.7717 59.2689 72.0144 59.2689C71.2464 59.2689 70.6331 59.5089 70.1744 59.9889C69.7264 60.4689 69.5024 61.1675 69.5024 62.0849V66.9329H68.0464V55.0929H69.5024V59.4129C69.7904 58.9649 70.1851 58.6182 70.6864 58.3729C71.1984 58.1275 71.7691 58.0049 72.3984 58.0049ZM79.7368 59.7969C80.0354 59.2742 80.4728 58.8475 81.0488 58.5169C81.6248 58.1862 82.2808 58.0209 83.0168 58.0209C83.8061 58.0209 84.5154 58.2075 85.1448 58.5809C85.7741 58.9542 86.2701 59.4822 86.6328 60.1649C86.9954 60.8369 87.1768 61.6209 87.1768 62.5169C87.1768 63.4022 86.9954 64.1915 86.6328 64.8849C86.2701 65.5782 85.7688 66.1169 85.1288 66.5009C84.4994 66.8849 83.7954 67.0769 83.0168 67.0769C82.2594 67.0769 81.5928 66.9115 81.0168 66.5809C80.4514 66.2502 80.0248 65.8289 79.7368 65.3169V66.9329H78.2808V55.0929H79.7368V59.7969ZM85.6888 62.5169C85.6888 61.8555 85.5554 61.2795 85.2888 60.7889C85.0221 60.2982 84.6594 59.9249 84.2008 59.6689C83.7528 59.4129 83.2568 59.2849 82.7128 59.2849C82.1794 59.2849 81.6834 59.4182 81.2248 59.6849C80.7768 59.9409 80.4141 60.3195 80.1368 60.8209C79.8701 61.3115 79.7368 61.8822 79.7368 62.5329C79.7368 63.1942 79.8701 63.7755 80.1368 64.2769C80.4141 64.7675 80.7768 65.1462 81.2248 65.4129C81.6834 65.6689 82.1794 65.7969 82.7128 65.7969C83.2568 65.7969 83.7528 65.6689 84.2008 65.4129C84.6594 65.1462 85.0221 64.7675 85.2888 64.2769C85.5554 63.7755 85.6888 63.1889 85.6888 62.5169ZM88.5493 62.5169C88.5493 61.6209 88.7306 60.8369 89.0933 60.1649C89.4559 59.4822 89.9519 58.9542 90.5813 58.5809C91.2213 58.2075 91.9306 58.0209 92.7093 58.0209C93.4773 58.0209 94.1439 58.1862 94.7093 58.5169C95.2746 58.8475 95.6959 59.2635 95.9733 59.7649V58.1649H97.4453V66.9329H95.9733V65.3009C95.6853 65.8129 95.2533 66.2395 94.6773 66.5809C94.1119 66.9115 93.4506 67.0769 92.6933 67.0769C91.9146 67.0769 91.2106 66.8849 90.5813 66.5009C89.9519 66.1169 89.4559 65.5782 89.0933 64.8849C88.7306 64.1915 88.5493 63.4022 88.5493 62.5169ZM95.9733 62.5329C95.9733 61.8715 95.8399 61.2955 95.5733 60.8049C95.3066 60.3142 94.9439 59.9409 94.4853 59.6849C94.0373 59.4182 93.5413 59.2849 92.9973 59.2849C92.4533 59.2849 91.9573 59.4129 91.5093 59.6689C91.0613 59.9249 90.7039 60.2982 90.4373 60.7889C90.1706 61.2795 90.0373 61.8555 90.0373 62.5169C90.0373 63.1889 90.1706 63.7755 90.4373 64.2769C90.7039 64.7675 91.0613 65.1462 91.5093 65.4129C91.9573 65.6689 92.4533 65.7969 92.9973 65.7969C93.5413 65.7969 94.0373 65.6689 94.4853 65.4129C94.9439 65.1462 95.3066 64.7675 95.5733 64.2769C95.8399 63.7755 95.9733 63.1942 95.9733 62.5329ZM99.3618 62.5329C99.3618 61.6262 99.5431 60.8369 99.9058 60.1649C100.268 59.4822 100.77 58.9542 101.41 58.5809C102.06 58.2075 102.802 58.0209 103.634 58.0209C104.711 58.0209 105.596 58.2822 106.29 58.8049C106.994 59.3275 107.458 60.0529 107.682 60.9809H106.114C105.964 60.4475 105.671 60.0262 105.234 59.7169C104.807 59.4075 104.274 59.2529 103.634 59.2529C102.802 59.2529 102.13 59.5409 101.618 60.1169C101.106 60.6822 100.85 61.4875 100.85 62.5329C100.85 63.5889 101.106 64.4049 101.618 64.9809C102.13 65.5569 102.802 65.8449 103.634 65.8449C104.274 65.8449 104.807 65.6955 105.234 65.3969C105.66 65.0982 105.954 64.6715 106.114 64.1169H107.682C107.447 65.0129 106.978 65.7329 106.274 66.2769C105.57 66.8102 104.69 67.0769 103.634 67.0769C102.802 67.0769 102.06 66.8902 101.41 66.5169C100.77 66.1435 100.268 65.6155 99.9058 64.9329C99.5431 64.2502 99.3618 63.4502 99.3618 62.5329ZM114.521 66.9329L111.081 63.0609V66.9329H109.625V55.0929H111.081V62.0529L114.457 58.1649H116.489L112.361 62.5329L116.505 66.9329H114.521Z" fill="black"/>
</svg>
