<svg width="28" height="28" viewBox="0 0 28 28" fill="none" xmlns="http://www.w3.org/2000/svg">
<path d="M24.3112 5.37851C23.7153 4.78235 23.0078 4.30943 22.2291 3.98677C21.4504 3.66412 20.6158 3.49805 19.7729 3.49805C18.93 3.49805 18.0953 3.66412 17.3166 3.98677C16.5379 4.30943 15.8304 4.78235 15.2345 5.37851L13.9979 6.61518L12.7612 5.37851C11.5576 4.17487 9.92507 3.49867 8.22286 3.49867C6.52065 3.49867 4.88817 4.17487 3.68453 5.37851C2.48089 6.58215 1.80469 8.21464 1.80469 9.91684C1.80469 11.619 2.48089 13.2515 3.68453 14.4552L4.92119 15.6918L13.9979 24.7685L23.0745 15.6918L24.3112 14.4552C24.9074 13.8593 25.3803 13.1518 25.7029 12.3731C26.0256 11.5944 26.1917 10.7597 26.1917 9.91684C26.1917 9.07394 26.0256 8.2393 25.7029 7.4606C25.3803 6.68189 24.9074 5.97439 24.3112 5.37851Z" stroke="#AF4300" stroke-width="2" stroke-linecap="round" stroke-linejoin="round"/>
</svg>
