<svg width="25" height="24" viewBox="0 0 25 24" fill="none" xmlns="http://www.w3.org/2000/svg">
<path d="M12.3594 20.9998C17.6094 17.4523 22.8594 13.4998 22.8594 8.24979C22.8614 7.55979 22.7269 6.87621 22.4638 6.23836C22.2006 5.60051 21.814 5.02096 21.3261 4.53306C20.8382 4.04516 20.2587 3.65852 19.6208 3.39539C18.983 3.13225 18.2994 2.99781 17.6094 2.99979C16.2594 2.99979 14.9244 3.50979 13.8969 4.53729L12.3594 6.07479L10.8219 4.53729C10.3354 4.04793 9.75692 3.65958 9.11979 3.39459C8.48266 3.12959 7.79942 2.99316 7.10938 2.99316C6.41934 2.99316 5.7361 3.12959 5.09897 3.39459C4.46184 3.65958 3.88339 4.04793 3.39688 4.53729C2.90872 5.02434 2.52159 5.60304 2.25774 6.24014C1.99389 6.87725 1.85851 7.56021 1.85938 8.24979C1.85938 13.4998 7.10938 17.4523 12.3594 20.9998Z" stroke="#AF4300" stroke-width="2"/>
</svg>
