<svg width="24" height="25" viewBox="0 0 24 25" fill="none" xmlns="http://www.w3.org/2000/svg">
<path d="M6 18.0596C6 18.888 6.67157 19.5596 7.5 19.5596C8.32843 19.5596 9 18.888 9 18.0596V15.5596C9 14.455 9.89543 13.5596 11 13.5596H13C14.1046 13.5596 15 14.455 15 15.5596V18.0596C15 18.888 15.6716 19.5596 16.5 19.5596C17.3284 19.5596 18 18.888 18 18.0596V11.5596C18 10.9301 17.7036 10.3373 17.2 9.95957L13.2 6.95957C12.4889 6.42624 11.5111 6.42624 10.8 6.95957L6.8 9.95957C6.29639 10.3373 6 10.9301 6 11.5596V18.0596ZM6 21.5596C4.89543 21.5596 4 20.6641 4 19.5596V10.5596C4 9.93006 4.29639 9.33728 4.8 8.95957L10.8 4.45957C11.5111 3.92624 12.4889 3.92624 13.2 4.45957L19.2 8.95957C19.7036 9.33728 20 9.93006 20 10.5596V19.5596C20 20.6641 19.1046 21.5596 18 21.5596H15C13.8954 21.5596 13 20.6641 13 19.5596V16.5596C13 16.0073 12.5523 15.5596 12 15.5596C11.4477 15.5596 11 16.0073 11 16.5596V19.5596C11 20.6641 10.1046 21.5596 9 21.5596H6Z" fill="#AF4300"/>
</svg>
