<svg width="24" height="25" viewBox="0 0 24 25" fill="none" xmlns="http://www.w3.org/2000/svg">
<path d="M6 4.55957V21.5596" stroke="#AF4300" stroke-width="2" stroke-linecap="round" stroke-linejoin="round"/>
<path d="M17 4.55957V21.5596" stroke="#AF4300" stroke-width="2" stroke-linecap="round" stroke-linejoin="round"/>
<path d="M6 4.55957H17" stroke="#AF4300" stroke-width="2" stroke-linecap="round" stroke-linejoin="round"/>
<path d="M10 9.55957C10.5523 9.55957 11 9.11186 11 8.55957C11 8.00729 10.5523 7.55957 10 7.55957C9.44772 7.55957 9 8.00729 9 8.55957C9 9.11186 9.44772 9.55957 10 9.55957Z" fill="#AF4300"/>
<path d="M10 13.5596C10.5523 13.5596 11 13.1119 11 12.5596C11 12.0073 10.5523 11.5596 10 11.5596C9.44772 11.5596 9 12.0073 9 12.5596C9 13.1119 9.44772 13.5596 10 13.5596Z" fill="#AF4300"/>
<path d="M10 17.5596C10.5523 17.5596 11 17.1119 11 16.5596C11 16.0073 10.5523 15.5596 10 15.5596C9.44772 15.5596 9 16.0073 9 16.5596C9 17.1119 9.44772 17.5596 10 17.5596Z" fill="#AF4300"/>
<path d="M13 9.55957C13.5523 9.55957 14 9.11186 14 8.55957C14 8.00729 13.5523 7.55957 13 7.55957C12.4477 7.55957 12 8.00729 12 8.55957C12 9.11186 12.4477 9.55957 13 9.55957Z" fill="#AF4300"/>
<path d="M13 13.5596C13.5523 13.5596 14 13.1119 14 12.5596C14 12.0073 13.5523 11.5596 13 11.5596C12.4477 11.5596 12 12.0073 12 12.5596C12 13.1119 12.4477 13.5596 13 13.5596Z" fill="#AF4300"/>
<path d="M13 17.5596C13.5523 17.5596 14 17.1119 14 16.5596C14 16.0073 13.5523 15.5596 13 15.5596C12.4477 15.5596 12 16.0073 12 16.5596C12 17.1119 12.4477 17.5596 13 17.5596Z" fill="#AF4300"/>
<path d="M6 10.5596H3V19.5596" stroke="#AF4300" stroke-width="2" stroke-linecap="round" stroke-linejoin="round"/>
<path d="M18 10.5596H21V19.5596" stroke="#AF4300" stroke-width="2" stroke-linecap="round" stroke-linejoin="round"/>
</svg>
