<svg width="21" height="21" viewBox="0 0 21 21" fill="none" xmlns="http://www.w3.org/2000/svg">
<path d="M10.3594 1.29028C11.6451 1.29028 12.8432 1.53414 13.9619 2.01685C15.0952 2.50586 16.0741 3.16513 16.9043 3.99536C17.7345 4.82559 18.3938 5.80447 18.8828 6.93774C19.3655 8.05643 19.6094 9.2546 19.6094 10.5403C19.6094 11.826 19.3655 13.0241 18.8828 14.1428C18.3938 15.2761 17.7345 16.255 16.9043 17.0852C16.0741 17.9154 15.0952 18.5747 13.9619 19.0637C12.8432 19.5464 11.6451 19.7903 10.3594 19.7903C9.0737 19.7903 7.87552 19.5464 6.75684 19.0637C5.62356 18.5747 4.64468 17.9154 3.81445 17.0852C2.98423 16.255 2.32495 15.2761 1.83594 14.1428C1.35323 13.0241 1.10938 11.826 1.10938 10.5403C1.10938 9.2546 1.35323 8.05643 1.83594 6.93774C2.32495 5.80447 2.98422 4.82559 3.81445 3.99536C4.64468 3.16513 5.62356 2.50586 6.75684 2.01685C7.87552 1.53414 9.0737 1.29028 10.3594 1.29028ZM10.3594 12.7903C9.88716 12.7903 9.45547 12.9579 9.11621 13.2971C8.77695 13.6364 8.60938 14.0681 8.60938 14.5403C8.60938 15.0125 8.77695 15.4442 9.11621 15.7834C9.45547 16.1227 9.88717 16.2903 10.3594 16.2903C10.8316 16.2903 11.2633 16.1227 11.6025 15.7834C11.9418 15.4442 12.1094 15.0125 12.1094 14.5403C12.1094 14.0681 11.9418 13.6364 11.6025 13.2971C11.2633 12.9579 10.8316 12.7903 10.3594 12.7903ZM8.60938 12.2903H12.1094V4.79028H8.60938V12.2903Z" stroke="#AF4300" stroke-width="1.5"/>
</svg>
