<svg width="25" height="25" viewBox="0 0 25 25" fill="none" xmlns="http://www.w3.org/2000/svg">
<path d="M7.35938 13.5403H17.3594V11.5403H7.35938V13.5403ZM12.3594 22.5403C10.976 22.5403 9.67604 22.2778 8.45937 21.7528C7.24271 21.2278 6.18438 20.5153 5.28437 19.6153C4.38437 18.7153 3.67188 17.6569 3.14688 16.4403C2.62187 15.2236 2.35938 13.9236 2.35938 12.5403C2.35938 11.1569 2.62187 9.85695 3.14688 8.64028C3.67188 7.42362 4.38437 6.36528 5.28437 5.46528C6.18438 4.56528 7.24271 3.85278 8.45937 3.32778C9.67604 2.80278 10.976 2.54028 12.3594 2.54028C13.7427 2.54028 15.0427 2.80278 16.2594 3.32778C17.476 3.85278 18.5344 4.56528 19.4344 5.46528C20.3344 6.36528 21.0469 7.42362 21.5719 8.64028C22.0969 9.85695 22.3594 11.1569 22.3594 12.5403C22.3594 13.9236 22.0969 15.2236 21.5719 16.4403C21.0469 17.6569 20.3344 18.7153 19.4344 19.6153C18.5344 20.5153 17.476 21.2278 16.2594 21.7528C15.0427 22.2778 13.7427 22.5403 12.3594 22.5403ZM12.3594 20.5403C14.5927 20.5403 16.4844 19.7653 18.0344 18.2153C19.5844 16.6653 20.3594 14.7736 20.3594 12.5403C20.3594 10.3069 19.5844 8.41528 18.0344 6.86528C16.4844 5.31528 14.5927 4.54028 12.3594 4.54028C10.126 4.54028 8.23438 5.31528 6.68438 6.86528C5.13438 8.41528 4.35938 10.3069 4.35938 12.5403C4.35938 14.7736 5.13438 16.6653 6.68438 18.2153C8.23438 19.7653 10.126 20.5403 12.3594 20.5403Z" fill="#AF4300"/>
</svg>
