<svg width="25" height="25" viewBox="0 0 25 25" fill="none" xmlns="http://www.w3.org/2000/svg">
<path d="M4.35938 19.5403V17.5403H6.35938V10.5403C6.35938 9.15695 6.77604 7.93195 7.60938 6.86528C8.44271 5.78195 9.52604 5.07362 10.8594 4.74028V4.04028C10.8594 3.62362 11.001 3.27362 11.2844 2.99028C11.5844 2.69028 11.9427 2.54028 12.3594 2.54028C12.776 2.54028 13.126 2.69028 13.4094 2.99028C13.7094 3.27362 13.8594 3.62362 13.8594 4.04028V4.74028C15.1927 5.07362 16.276 5.78195 17.1094 6.86528C17.9427 7.93195 18.3594 9.15695 18.3594 10.5403V17.5403H20.3594V19.5403H4.35938ZM12.3594 22.5403C11.8094 22.5403 11.3344 22.3486 10.9344 21.9653C10.551 21.5653 10.3594 21.0903 10.3594 20.5403H14.3594C14.3594 21.0903 14.1594 21.5653 13.7594 21.9653C13.376 22.3486 12.9094 22.5403 12.3594 22.5403ZM8.35938 17.5403H16.3594V10.5403C16.3594 9.44028 15.9677 8.49862 15.1844 7.71528C14.401 6.93195 13.4594 6.54028 12.3594 6.54028C11.2594 6.54028 10.3177 6.93195 9.53438 7.71528C8.75104 8.49862 8.35938 9.44028 8.35938 10.5403V17.5403Z" fill="#AF4300"/>
</svg>
