<svg width="25" height="25" viewBox="0 0 25 25" fill="none" xmlns="http://www.w3.org/2000/svg">
<path d="M4.35938 18.5403H20.3594V10.5403H13.3594V6.54028H4.35938V18.5403ZM4.35938 20.5403C3.80938 20.5403 3.33854 20.3444 2.94688 19.9528C2.55521 19.5611 2.35938 19.0903 2.35938 18.5403V6.54028C2.35938 5.99028 2.55521 5.51945 2.94688 5.12778C3.33854 4.73612 3.80938 4.54028 4.35938 4.54028H20.3594C20.9094 4.54028 21.3802 4.73612 21.7719 5.12778C22.1635 5.51945 22.3594 5.99028 22.3594 6.54028V18.5403C22.3594 19.0903 22.1635 19.5611 21.7719 19.9528C21.3802 20.3444 20.9094 20.5403 20.3594 20.5403H4.35938Z" fill="#AF4300"/>
</svg>
