<svg width="25" height="25" viewBox="0 0 25 25" fill="none" xmlns="http://www.w3.org/2000/svg">
<path d="M12.3594 12.5403C11.2594 12.5403 10.3177 12.1486 9.53438 11.3653C8.75104 10.582 8.35938 9.64028 8.35938 8.54028C8.35938 7.44028 8.75104 6.49862 9.53438 5.71528C10.3177 4.93195 11.2594 4.54028 12.3594 4.54028C13.4594 4.54028 14.401 4.93195 15.1844 5.71528C15.9677 6.49862 16.3594 7.44028 16.3594 8.54028C16.3594 9.64028 15.9677 10.582 15.1844 11.3653C14.401 12.1486 13.4594 12.5403 12.3594 12.5403ZM4.35938 20.5403V17.7403C4.35938 17.1736 4.50521 16.6528 4.79688 16.1778C5.08854 15.7028 5.47604 15.3403 5.95938 15.0903C6.99271 14.5736 8.04271 14.1861 9.10938 13.9278C10.176 13.6694 11.2594 13.5403 12.3594 13.5403C13.4594 13.5403 14.5427 13.6694 15.6094 13.9278C16.676 14.1861 17.726 14.5736 18.7594 15.0903C19.2427 15.3403 19.6302 15.7028 19.9219 16.1778C20.2135 16.6528 20.3594 17.1736 20.3594 17.7403V20.5403H4.35938ZM6.35938 18.5403H18.3594V17.7403C18.3594 17.5569 18.3135 17.3903 18.2219 17.2403C18.1302 17.0903 18.0094 16.9736 17.8594 16.8903C16.9594 16.4403 16.051 16.1028 15.1344 15.8778C14.2177 15.6528 13.2927 15.5403 12.3594 15.5403C11.426 15.5403 10.501 15.6528 9.58437 15.8778C8.66771 16.1028 7.75938 16.4403 6.85938 16.8903C6.70937 16.9736 6.58854 17.0903 6.49688 17.2403C6.40521 17.3903 6.35938 17.5569 6.35938 17.7403V18.5403ZM12.3594 10.5403C12.9094 10.5403 13.3802 10.3444 13.7719 9.95278C14.1635 9.56112 14.3594 9.09028 14.3594 8.54028C14.3594 7.99028 14.1635 7.51945 13.7719 7.12778C13.3802 6.73612 12.9094 6.54028 12.3594 6.54028C11.8094 6.54028 11.3385 6.73612 10.9469 7.12778C10.5552 7.51945 10.3594 7.99028 10.3594 8.54028C10.3594 9.09028 10.5552 9.56112 10.9469 9.95278C11.3385 10.3444 11.8094 10.5403 12.3594 10.5403Z" fill="#AF4300"/>
</svg>
