<svg width="24" height="24" viewBox="0 0 24 24" fill="none" xmlns="http://www.w3.org/2000/svg">
<path d="M17 3.5H16C15.72 3.5 15.5 3.72 15.5 4C15.5 4.28 15.72 4.5 16 4.5H17C17.83 4.5 18.5 5.17 18.5 6V19C18.5 19.83 17.83 20.5 17 20.5H14.5V19C14.5 17.62 13.38 16.5 12 16.5C10.62 16.5 9.5 17.62 9.5 19V20.5H7C6.17 20.5 5.5 19.83 5.5 19V6C5.5 5.17 6.17 4.5 7 4.5H8C8.28 4.5 8.5 4.28 8.5 4C8.5 3.72 8.28 3.5 8 3.5H7C5.62 3.5 4.5 4.62 4.5 6V19C4.5 20.38 5.62 21.5 7 21.5H17C18.38 21.5 19.5 20.38 19.5 19V6C19.5 4.62 18.38 3.5 17 3.5ZM10.5 20.5V19C10.5 18.17 11.17 17.5 12 17.5C12.83 17.5 13.5 18.17 13.5 19V20.5H10.5Z" fill="#AF4300"/>
<path d="M9.5 9C9.5 8.17 8.83 7.5 8 7.5C7.17 7.5 6.5 8.17 6.5 9V10C6.5 10.28 6.72 10.5 7 10.5H9C9.28 10.5 9.5 10.28 9.5 10V9ZM8.5 9.5H7.5V9C7.5 8.72 7.72 8.5 8 8.5C8.28 8.5 8.5 8.72 8.5 9V9.5Z" fill="#AF4300"/>
<path d="M17.5 9C17.5 8.17 16.83 7.5 16 7.5C15.17 7.5 14.5 8.17 14.5 9V10C14.5 10.28 14.72 10.5 15 10.5H17C17.28 10.5 17.5 10.28 17.5 10V9ZM16.5 9.5H15.5V9C15.5 8.72 15.72 8.5 16 8.5C16.28 8.5 16.5 8.72 16.5 9V9.5Z" fill="#AF4300"/>
<path d="M13.5 9C13.5 8.17 12.83 7.5 12 7.5C11.17 7.5 10.5 8.17 10.5 9V10C10.5 10.28 10.72 10.5 11 10.5H13C13.28 10.5 13.5 10.28 13.5 10V9ZM12.5 9.5H11.5V9C11.5 8.72 11.72 8.5 12 8.5C12.28 8.5 12.5 8.72 12.5 9V9.5Z" fill="#AF4300"/>
<path d="M8 12.5C7.17 12.5 6.5 13.17 6.5 14V15C6.5 15.28 6.72 15.5 7 15.5H9C9.28 15.5 9.5 15.28 9.5 15V14C9.5 13.17 8.83 12.5 8 12.5ZM8.5 14.5H7.5V14C7.5 13.72 7.72 13.5 8 13.5C8.28 13.5 8.5 13.72 8.5 14V14.5Z" fill="#AF4300"/>
<path d="M16 12.5C15.17 12.5 14.5 13.17 14.5 14V15C14.5 15.28 14.72 15.5 15 15.5H17C17.28 15.5 17.5 15.28 17.5 15V14C17.5 13.17 16.83 12.5 16 12.5ZM16.5 14.5H15.5V14C15.5 13.72 15.72 13.5 16 13.5C16.28 13.5 16.5 13.72 16.5 14V14.5Z" fill="#AF4300"/>
<path d="M12 12.5C11.17 12.5 10.5 13.17 10.5 14V15C10.5 15.28 10.72 15.5 11 15.5H13C13.28 15.5 13.5 15.28 13.5 15V14C13.5 13.17 12.83 12.5 12 12.5ZM12.5 14.5H11.5V14C11.5 13.72 11.72 13.5 12 13.5C12.28 13.5 12.5 13.72 12.5 14V14.5Z" fill="#AF4300"/>
<path d="M9.45926 4.18003L9.75926 4.40003C9.82926 4.45003 9.85926 4.55003 9.83926 4.64003L9.72926 4.99003C9.55926 5.50003 9.72926 6.03003 10.1693 6.34003C10.5993 6.65003 11.1593 6.65003 11.5893 6.34003L11.8893 6.12003C11.9593 6.07003 12.0593 6.07003 12.1393 6.12003L12.4393 6.34003C12.6593 6.50003 12.8993 6.58003 13.1493 6.58003C13.3993 6.58003 13.6493 6.50003 13.8593 6.34003C14.2893 6.03003 14.4593 5.50003 14.2993 4.99003L14.1893 4.64003C14.1593 4.55003 14.1893 4.46003 14.2693 4.41003L14.5693 4.19003C14.9993 3.88003 15.1693 3.35003 15.0093 2.84003C14.8393 2.33003 14.3893 2.00003 13.8593 2.00003H13.4893C13.3993 2.00003 13.3193 1.94003 13.2893 1.85003L13.1793 1.50003C13.0093 0.990034 12.5593 0.660034 12.0293 0.660034C11.4993 0.660034 11.0393 0.990034 10.8793 1.50003L10.7693 1.85003C10.7393 1.94003 10.6593 2.00003 10.5693 2.00003H10.1993C9.66926 2.00003 9.20926 2.33003 9.04926 2.84003C8.87926 3.35003 9.04926 3.88003 9.48926 4.19003L9.45926 4.18003ZM9.96926 3.14003C9.98926 3.09003 10.0393 2.99003 10.1693 2.99003H10.5393C11.0693 2.99003 11.5293 2.65003 11.6893 2.15003L11.7993 1.80003C11.8793 1.55003 12.1193 1.55003 12.1993 1.80003L12.3093 2.15003C12.4693 2.65003 12.9393 2.99003 13.4593 2.99003H13.8293C13.9593 2.99003 14.0093 3.08003 14.0293 3.14003C14.0493 3.20003 14.0593 3.30003 13.9493 3.37003L13.6493 3.59003C13.2293 3.90003 13.0493 4.44003 13.2093 4.94003L13.3193 5.29003C13.3593 5.42003 13.2893 5.49003 13.2393 5.52003C13.1893 5.55003 13.0993 5.60003 12.9893 5.52003L12.6893 5.30003C12.4793 5.15003 12.2293 5.07003 11.9793 5.07003C11.7293 5.07003 11.4793 5.15003 11.2693 5.30003L10.9693 5.52003C10.8593 5.60003 10.7693 5.55003 10.7193 5.52003C10.6693 5.49003 10.5993 5.41003 10.6393 5.28003L10.7493 4.93003C10.9093 4.43003 10.7393 3.89003 10.3093 3.58003L10.0093 3.36003C9.89926 3.28003 9.91926 3.18003 9.92926 3.13003L9.96926 3.14003Z" fill="#AF4300"/>
</svg>
