<svg width="18" height="18" viewBox="0 0 18 18" fill="none" xmlns="http://www.w3.org/2000/svg">
<path d="M9 4.5C8.5875 4.5 8.23438 4.35313 7.94063 4.05938C7.64688 3.76563 7.5 3.4125 7.5 3C7.5 2.5875 7.64688 2.23438 7.94063 1.94063C8.23438 1.64688 8.5875 1.5 9 1.5C9.4125 1.5 9.76563 1.64688 10.0594 1.94063C10.3531 2.23438 10.5 2.5875 10.5 3C10.5 3.4125 10.3531 3.76563 10.0594 4.05938C9.76563 4.35313 9.4125 4.5 9 4.5ZM6.75 16.5V6.75H2.25V5.25H15.75V6.75H11.25V16.5H9.75V12H8.25V16.5H6.75Z" fill="url(#paint0_linear_5299_2581)"/>
<defs>
<linearGradient id="paint0_linear_5299_2581" x1="2.25" y1="9" x2="15.75" y2="9" gradientUnits="userSpaceOnUse">
<stop stop-color="#216432"/>
<stop offset="0.894231" stop-color="#114422"/>
</linearGradient>
</defs>
</svg>
