<svg width="18" height="17" viewBox="0 0 18 17" fill="none" xmlns="http://www.w3.org/2000/svg">
<path d="M9 10.8096C9.625 10.8096 10.1562 10.5908 10.5938 10.1533C11.0313 9.71582 11.25 9.18457 11.25 8.55957C11.25 7.93457 11.0313 7.40332 10.5938 6.96582C10.1562 6.52832 9.625 6.30957 9 6.30957C8.375 6.30957 7.84375 6.52832 7.40625 6.96582C6.96875 7.40332 6.75 7.93457 6.75 8.55957C6.75 9.18457 6.96875 9.71582 7.40625 10.1533C7.84375 10.5908 8.375 10.8096 9 10.8096ZM9 12.3096C7.9625 12.3096 7.07813 11.9439 6.34688 11.2127C5.61563 10.4814 5.25 9.59707 5.25 8.55957C5.25 7.52207 5.61563 6.6377 6.34688 5.90645C7.07813 5.1752 7.9625 4.80957 9 4.80957C10.0375 4.80957 10.9219 5.1752 11.6531 5.90645C12.3844 6.6377 12.75 7.52207 12.75 8.55957C12.75 9.59707 12.3844 10.4814 11.6531 11.2127C10.9219 11.9439 10.0375 12.3096 9 12.3096ZM3.75 9.30957H0.75V7.80957H3.75V9.30957ZM17.25 9.30957H14.25V7.80957H17.25V9.30957ZM8.25 3.30957V0.30957H9.75V3.30957H8.25ZM8.25 16.8096V13.8096H9.75V16.8096H8.25ZM4.8 5.37207L2.90625 3.55332L3.975 2.44707L5.775 4.32207L4.8 5.37207ZM14.025 14.6721L12.2063 12.7783L13.2 11.7471L15.0938 13.5658L14.025 14.6721ZM12.1875 4.35957L14.0063 2.46582L15.1125 3.53457L13.2375 5.33457L12.1875 4.35957ZM2.8875 13.5846L4.78125 11.7658L5.8125 12.7596L3.99375 14.6533L2.8875 13.5846Z" fill="url(#paint0_linear_4738_1788)"/>
<defs>
<linearGradient id="paint0_linear_4738_1788" x1="0.75" y1="8.55957" x2="17.25" y2="8.55957" gradientUnits="userSpaceOnUse">
<stop stop-color="#216432"/>
<stop offset="0.894231" stop-color="#114422"/>
</linearGradient>
</defs>
</svg>
