<svg width="21" height="23" viewBox="0 0 21 23" fill="none" xmlns="http://www.w3.org/2000/svg">
<path fill-rule="evenodd" clip-rule="evenodd" d="M20.8104 22.2648H16.2661V14.5776C16.2661 12.5659 15.5558 11.1922 13.9923 11.1922C12.797 11.1922 12.132 12.1193 11.8227 13.0126C11.7064 13.3329 11.7246 13.7795 11.7246 14.2262V22.2648H7.22278C7.22278 22.2648 7.28073 8.64805 7.22278 7.41042H11.7246V9.74192C11.9909 8.7224 13.4292 7.26775 15.7245 7.26775C18.5726 7.26775 20.8104 9.40408 20.8104 14.0053V22.2648ZM2.67052 5.55233H2.64108C1.19064 5.55233 0.25 4.41691 0.25 2.97756C0.25 1.51033 1.21821 0.398438 2.6981 0.398438C4.17658 0.398438 5.08589 1.5076 5.11439 2.97319C5.11439 4.41254 4.17657 5.55233 2.67052 5.55233ZM0.768676 7.41042H4.77608V22.2648H0.768676V7.41042Z" fill="#FEFEFE"/>
</svg>
