<svg width="15" height="21" viewBox="0 0 15 21" fill="none" xmlns="http://www.w3.org/2000/svg">
<path fill-rule="evenodd" clip-rule="evenodd" d="M7.5 6.18457C6.46437 6.18457 5.625 7.02394 5.625 8.05957C5.625 9.09519 6.46437 9.93457 7.5 9.93457C8.53562 9.93457 9.375 9.09519 9.375 8.05957C9.375 7.02394 8.53562 6.18457 7.5 6.18457ZM7.5 11.1846C5.77437 11.1846 4.375 9.78582 4.375 8.05957C4.375 6.33332 5.77437 4.93457 7.5 4.93457C9.22562 4.93457 10.625 6.33332 10.625 8.05957C10.625 9.78582 9.22562 11.1846 7.5 11.1846ZM7.5 0.55957C3.35812 0.55957 0 3.91769 0 8.05957C0 11.1958 6.25312 20.5664 7.5 20.5596C8.7275 20.5664 15 11.1533 15 8.05957C15 3.91769 11.6419 0.55957 7.5 0.55957Z" fill="white"/>
</svg>
