<svg width="25" height="24" viewBox="0 0 25 24" fill="none" xmlns="http://www.w3.org/2000/svg">
<path d="M17.3047 8.45455C17.3047 13.9091 12.3047 18 12.3047 18C12.3047 18 7.30469 13.9091 7.30469 8.45455C7.30469 5.72727 8.97136 3 12.3047 3C15.638 3 17.3047 5.72727 17.3047 8.45455Z" stroke="#AF4300" stroke-linecap="round" stroke-linejoin="round"/>
<path d="M6.30469 15.0159C4.46344 15.6437 3.30469 16.556 3.30469 17.5714C3.30469 19.465 7.33413 21 12.3047 21C17.2753 21 21.3047 19.465 21.3047 17.5714C21.3047 16.5474 20.1262 15.6282 18.2578 15" stroke="#AF4300" stroke-linecap="round" stroke-linejoin="round"/>
<path d="M12.3047 10C13.4093 10 14.3047 9.10457 14.3047 8C14.3047 6.89543 13.4093 6 12.3047 6C11.2001 6 10.3047 6.89543 10.3047 8C10.3047 9.10457 11.2001 10 12.3047 10Z" stroke="#AF4300"/>
</svg>
