<svg width="12" height="16" viewBox="0 0 12 16" fill="none" xmlns="http://www.w3.org/2000/svg">
<path d="M6 15.0596C5.825 15.0596 5.675 15.0096 5.55 14.9096C5.425 14.8096 5.33125 14.6783 5.26875 14.5158C5.03125 13.8158 4.73125 13.1596 4.36875 12.5471C4.01875 11.9346 3.525 11.2158 2.8875 10.3908C2.25 9.56582 1.73125 8.77832 1.33125 8.02832C0.94375 7.27832 0.75 6.37207 0.75 5.30957C0.75 3.84707 1.25625 2.60957 2.26875 1.59707C3.29375 0.57207 4.5375 0.0595703 6 0.0595703C7.4625 0.0595703 8.7 0.57207 9.7125 1.59707C10.7375 2.60957 11.25 3.84707 11.25 5.30957C11.25 6.44707 11.0312 7.39707 10.5938 8.15957C10.1688 8.90957 9.675 9.65332 9.1125 10.3908C8.4375 11.2908 7.925 12.0408 7.575 12.6408C7.2375 13.2283 6.95625 13.8533 6.73125 14.5158C6.66875 14.6908 6.56875 14.8283 6.43125 14.9283C6.30625 15.0158 6.1625 15.0596 6 15.0596ZM6 12.3783C6.2125 11.9533 6.45 11.5346 6.7125 11.1221C6.9875 10.7096 7.3875 10.1596 7.9125 9.47207C8.45 8.77207 8.8875 8.12832 9.225 7.54082C9.575 6.94082 9.75 6.19707 9.75 5.30957C9.75 4.27207 9.38125 3.39082 8.64375 2.66582C7.91875 1.92832 7.0375 1.55957 6 1.55957C4.9625 1.55957 4.075 1.92832 3.3375 2.66582C2.6125 3.39082 2.25 4.27207 2.25 5.30957C2.25 6.19707 2.41875 6.94082 2.75625 7.54082C3.10625 8.12832 3.55 8.77207 4.0875 9.47207C4.6125 10.1596 5.00625 10.7096 5.26875 11.1221C5.54375 11.5346 5.7875 11.9533 6 12.3783ZM6 7.18457C6.525 7.18457 6.96875 7.00332 7.33125 6.64082C7.69375 6.27832 7.875 5.83457 7.875 5.30957C7.875 4.78457 7.69375 4.34082 7.33125 3.97832C6.96875 3.61582 6.525 3.43457 6 3.43457C5.475 3.43457 5.03125 3.61582 4.66875 3.97832C4.30625 4.34082 4.125 4.78457 4.125 5.30957C4.125 5.83457 4.30625 6.27832 4.66875 6.64082C5.03125 7.00332 5.475 7.18457 6 7.18457Z" fill="url(#paint0_linear_4716_2205)"/>
<defs>
<linearGradient id="paint0_linear_4716_2205" x1="0.75" y1="7.55957" x2="11.25" y2="7.55957" gradientUnits="userSpaceOnUse">
<stop stop-color="#216432"/>
<stop offset="0.894231" stop-color="#114422"/>
</linearGradient>
</defs>
</svg>
