<svg width="146" height="80" viewBox="0 0 146 80" fill="none" xmlns="http://www.w3.org/2000/svg">
<path d="M3.192 13.8593C4.296 13.0913 5.544 12.7073 6.888 12.7073C7.8 12.7073 8.736 12.9473 9.72 13.3793C10.68 13.8113 11.52 14.5313 12.216 15.5393C12.96 16.6913 13.344 17.9153 13.344 19.2113C13.344 19.5713 13.32 19.9073 13.272 20.2433L13.224 20.2193V20.2433L3.288 20.5073C3.48 21.0353 3.768 21.5153 4.152 21.8993C4.536 22.2833 4.968 22.5713 5.496 22.7633C5.904 22.9313 6.36 23.0033 6.84 23.0033C7.368 23.0033 7.896 22.9073 8.4 22.6913C8.904 22.4753 9.336 22.1633 9.696 21.7553L12.312 22.7633C11.712 23.6753 10.92 24.3953 9.96 24.9233C8.976 25.4513 7.944 25.7153 6.84 25.7153C5.904 25.7153 4.944 25.4993 3.984 25.0673C3.024 24.6353 2.184 23.8913 1.512 22.8593C0.744 21.7313 0.36 20.5073 0.36 19.1873C0.36 18.4193 0.504 17.6513 0.792 16.8833C1.272 15.6353 2.064 14.6273 3.192 13.8593ZM3.264 18.0113L10.392 17.8433C10.2 17.3633 9.936 16.9313 9.552 16.5473C9.168 16.1633 8.736 15.8753 8.232 15.6833C7.8 15.5393 7.368 15.4433 6.888 15.4433C6.096 15.4433 5.376 15.6593 4.728 16.0913C4.056 16.5233 3.6 17.1233 3.312 17.8673L3.264 18.0113ZM21.0624 19.0193L25.7904 25.5713H22.0464L19.1904 21.4433L16.4064 25.5713H12.7584L17.3184 19.2353L13.1664 12.8033H16.8864L19.1904 16.7873L21.5664 12.8033H25.1664L21.0624 19.0193ZM26.5163 18.9953C26.5163 17.8673 26.8043 16.8113 27.3803 15.8513C27.9563 14.8913 28.7723 14.0993 29.8043 13.5233C30.7883 12.9713 31.8683 12.6833 33.0203 12.6833C34.1723 12.6833 35.2523 12.9953 36.2603 13.5713C37.2683 14.1473 38.0603 14.9393 38.6603 15.9233C39.2363 16.9313 39.5243 18.0353 39.5243 19.1873C39.5243 20.3633 39.2123 21.4433 38.6363 22.4513C38.0603 23.4593 37.2683 24.2273 36.2843 24.8033C35.2763 25.4033 34.1963 25.6913 33.0203 25.6913C31.6283 25.6913 30.3803 25.2833 29.2283 24.4673V28.8353L26.5403 30.2753L26.5163 18.9953ZM29.7323 21.0833C30.0683 21.6593 30.5483 22.1153 31.1243 22.4513C31.6763 22.8113 32.3003 22.9793 33.0203 22.9793C33.6923 22.9793 34.3163 22.8113 34.8923 22.4753C35.4683 22.1393 35.9483 21.6593 36.3083 21.0833C36.6443 20.5073 36.8123 19.8833 36.8123 19.1873C36.8123 18.5153 36.6203 17.8913 36.2843 17.3153C35.9483 16.7393 35.4923 16.2593 34.9163 15.8993C34.3403 15.5633 33.6923 15.3953 33.0203 15.3953C32.3483 15.3953 31.7003 15.5873 31.1243 15.9233C30.5483 16.2593 30.0923 16.7153 29.7563 17.2913C29.3963 17.8673 29.2283 18.4913 29.2283 19.1873C29.2283 19.8593 29.3963 20.5073 29.7323 21.0833ZM43.6346 7.97926V25.6913H40.4906V7.97926H43.6346ZM47.8266 24.8513C46.8186 24.2753 46.0506 23.4593 45.4746 22.4513C44.8746 21.4913 44.5866 20.4113 44.5866 19.2113C44.5866 18.0593 44.8746 16.9793 45.4506 15.9713C46.0266 14.9633 46.8426 14.1713 47.8506 13.5713C48.8346 12.9953 49.9146 12.7073 51.0906 12.7073C52.2426 12.7073 53.3226 13.0193 54.3306 13.5953C55.3386 14.1713 56.1306 14.9633 56.7306 15.9473C57.3066 16.9553 57.5946 18.0593 57.5946 19.2113C57.5946 20.3873 57.2826 21.4673 56.7066 22.4753C56.1306 23.4833 55.3386 24.2513 54.3546 24.8273C53.3466 25.4273 52.2666 25.7153 51.0906 25.7153C49.9146 25.7153 48.8346 25.4273 47.8266 24.8513ZM52.8906 22.3313C53.4426 22.0193 53.8746 21.5873 54.2106 21.0113C54.5226 20.4593 54.6906 19.8593 54.6906 19.2113C54.6906 18.5633 54.5226 17.9633 54.2106 17.4113C53.8986 16.8593 53.4666 16.4273 52.9146 16.0913C52.3386 15.7793 51.7386 15.6113 51.0906 15.6113C50.4186 15.6113 49.8186 15.7793 49.2666 16.0913C48.7146 16.4033 48.2826 16.8353 47.9706 17.3873C47.6346 17.9633 47.4906 18.5633 47.4906 19.2113C47.4906 19.8833 47.6346 20.4833 47.9706 21.0353C48.2826 21.5873 48.7146 22.0193 49.2906 22.3313C49.8426 22.6673 50.4426 22.8113 51.0906 22.8113C51.7386 22.8113 52.3386 22.6673 52.8906 22.3313ZM65.4489 15.5633C65.1609 15.5393 64.9689 15.5153 64.8969 15.5153C64.2249 15.5153 63.5769 15.7073 63.0009 16.0433C62.4249 16.3793 61.9689 16.8353 61.6329 17.4113C61.2729 17.9873 61.1049 18.6113 61.1049 19.3073L61.1529 25.7633H58.3449L58.3209 18.8753C58.3209 17.7473 58.6089 16.6913 59.1849 15.7313C59.7609 14.7713 60.5769 13.9793 61.6089 13.4033C62.5929 12.8513 63.6729 12.5633 64.8249 12.5633L65.4489 12.6113V15.5633ZM69.5805 25.7633H66.4365V12.7313H69.5805V25.7633ZM66.6765 11.0993C66.3405 10.7633 66.1725 10.3313 66.1725 9.82726C66.1725 9.34726 66.3405 8.93926 66.6765 8.60326C67.0125 8.26726 67.4445 8.07526 67.9485 8.07526C68.4285 8.07526 68.8605 8.26726 69.1965 8.60326C69.5325 8.93926 69.7245 9.34726 69.7245 9.82726C69.7245 10.3313 69.5325 10.7633 69.1965 11.0993C68.8605 11.4353 68.4285 11.6033 67.9485 11.6033C67.4445 11.6033 67.0125 11.4353 66.6765 11.0993ZM80.1949 18.4433C80.1949 17.5313 79.8589 16.7873 79.2349 16.2593C78.5869 15.7313 77.8189 15.4433 76.9069 15.4433C75.9709 15.4433 75.1789 15.7313 74.5549 16.2593C73.9069 16.7873 73.5949 17.5313 73.5949 18.4433V25.7153H70.9069V18.4433C70.9069 17.3393 71.1709 16.3313 71.7229 15.4673C72.2749 14.6033 73.0189 13.9073 73.9789 13.4273C74.8909 12.9713 75.8749 12.7313 76.9069 12.7313C77.9629 12.7313 78.9469 12.9713 79.8589 13.4513C80.7709 13.9313 81.5149 14.5793 82.0909 15.4193C82.6429 16.3313 82.9309 17.3393 82.9309 18.4433L82.8829 25.7153H80.1949V18.4433ZM84.9896 15.9953C85.5656 14.9873 86.3336 14.1953 87.3416 13.5953C88.3016 13.0193 89.4056 12.7073 90.6056 12.7073C91.7576 12.7073 92.8376 12.9953 93.8456 13.5713C94.8536 14.1473 95.6456 14.9153 96.2456 15.8993C96.8216 16.8833 97.1336 17.9633 97.1336 19.1393C97.1336 20.3153 96.8456 21.3953 96.2936 22.3793C96.5816 23.1233 96.7256 23.8673 96.7256 24.6353C96.7256 25.6913 96.4616 26.6513 95.9816 27.5153C95.4776 28.3793 94.7816 29.0513 93.8936 29.5313C92.9816 30.0113 92.0936 30.2273 91.2056 30.2273C90.3896 30.2273 89.5976 30.0593 88.8536 29.7233C88.0856 29.3873 87.4376 28.9073 86.9096 28.2833L89.0456 27.1073C89.3336 27.3713 89.6696 27.5633 90.0536 27.7073C90.4376 27.8513 90.8216 27.8993 91.2056 27.8993C91.7336 27.8993 92.2376 27.7793 92.7176 27.4913C93.1976 27.2273 93.5816 26.8673 93.8216 26.4353C94.0616 26.0513 94.1816 25.5713 94.1816 25.0433C94.1816 24.8513 94.1576 24.7313 94.1576 24.6833C93.0776 25.3793 91.9016 25.7153 90.6536 25.7153C89.4776 25.7153 88.3976 25.4273 87.3896 24.8513C86.3816 24.2753 85.5896 23.5073 85.0136 22.4993C84.4136 21.5393 84.1256 20.4353 84.1256 19.2353C84.1256 18.0833 84.4136 17.0033 84.9896 15.9953ZM87.3416 21.1313C87.6776 21.7073 88.1576 22.1633 88.7576 22.4993C89.3576 22.8353 89.9816 23.0033 90.6536 23.0033C91.3256 23.0033 91.9496 22.8353 92.5256 22.4993C93.1016 22.1633 93.5816 21.6833 93.9176 21.0833C94.2536 20.4833 94.4216 19.8593 94.4216 19.1873C94.4216 18.5153 94.2296 17.8913 93.8936 17.3153C93.5576 16.7393 93.0776 16.2593 92.5016 15.9233C91.9016 15.5873 91.2776 15.4193 90.6056 15.4193C89.9336 15.4193 89.2856 15.6113 88.7096 15.9473C88.1336 16.2833 87.6776 16.7633 87.3416 17.3393C87.0056 17.9393 86.8376 18.5633 86.8376 19.2353C86.8376 19.9073 87.0056 20.5553 87.3416 21.1313Z" fill="url(#paint0_linear_3884_647)"/>
<path d="M52.6331 30.4652C52.6918 31.0226 52.6625 31.5946 52.5451 32.1812C52.4278 32.7386 52.3545 33.0759 52.3251 33.1932C52.1198 33.8679 52.0025 34.4986 51.9731 35.0852C51.8558 36.2586 51.6505 37.4759 51.3571 38.7372C51.0931 39.9692 50.9318 40.7026 50.8731 40.9372L50.4771 42.5212C50.3891 42.8732 50.2865 43.4012 50.1691 44.1052C50.0518 44.8092 49.9491 45.3372 49.8611 45.6892L49.1571 48.1532C48.8051 49.2679 48.5558 50.1039 48.4091 50.6612C48.1745 51.6879 47.7931 52.7146 47.2651 53.7412C47.0891 54.0639 46.9131 54.4012 46.7371 54.7532C46.5905 55.0759 46.5025 55.3986 46.4731 55.7212C46.4731 55.8386 46.4291 55.9412 46.3411 56.0292C46.2531 56.0879 46.1798 56.1466 46.1211 56.2052C46.2971 55.5892 46.3998 54.9292 46.4291 54.2252C46.4585 53.5212 46.4731 53.0959 46.4731 52.9492C46.4731 52.4212 46.4878 52.0252 46.5171 51.7612C46.4291 52.5239 46.1651 53.4919 45.7251 54.6652C45.4611 55.3986 45.2558 56.0439 45.1091 56.6012C44.9625 57.1292 44.8891 57.6866 44.8891 58.2732C44.8891 58.4492 44.9185 58.7426 44.9771 59.1532C44.6545 58.1852 44.4491 57.2172 44.3611 56.2492C44.2731 55.2519 44.2145 54.0052 44.1851 52.5092L44.1411 51.2332C44.1411 51.3506 44.0531 51.5119 43.8771 51.7172C43.7305 51.9226 43.7011 52.1279 43.7891 52.3332C43.8185 52.3919 43.8331 52.4799 43.8331 52.5972C43.8331 52.7146 43.8185 52.8759 43.7891 53.0812C43.7598 53.2572 43.7598 53.4039 43.7891 53.5212V53.6972C43.7891 53.8146 43.7598 53.9759 43.7011 54.1812C43.6718 54.3572 43.6865 54.5039 43.7451 54.6212C43.8918 55.0612 43.9651 55.3546 43.9651 55.5012C43.9651 55.5599 43.9358 55.7066 43.8771 55.9412C43.6718 55.5892 43.5691 55.1639 43.5691 54.6652L43.5251 51.3652C43.5251 50.6319 43.5398 50.0892 43.5691 49.7372C43.5691 49.5612 43.5985 49.3266 43.6571 49.0332C43.7451 48.7399 43.8038 48.4759 43.8331 48.2412C43.8918 47.9479 43.9798 47.6399 44.0971 47.3172C44.2145 46.9652 44.2878 46.7306 44.3171 46.6132C44.3758 46.4959 44.4345 46.3492 44.4931 46.1732C44.5811 45.9972 44.6545 45.7919 44.7131 45.5572L45.2411 43.5332C45.5345 42.3599 45.7691 41.4799 45.9451 40.8932C46.2385 39.9546 46.4731 39.2506 46.6491 38.7812C46.9425 37.9599 47.2651 36.9332 47.6171 35.7012C47.6758 35.5546 47.8078 35.1439 48.0131 34.4692C48.2185 33.7946 48.3211 33.1492 48.3211 32.5332H48.4531C48.5705 32.5332 48.6438 32.4892 48.6731 32.4012C48.7318 32.3132 48.7611 32.2252 48.7611 32.1372C48.7611 32.0199 48.7758 31.9172 48.8051 31.8292C48.7465 31.8879 48.6878 31.9759 48.6291 32.0932C48.5705 31.9759 48.5118 31.7999 48.4531 31.5652C48.1305 32.7679 47.7491 34.0879 47.3091 35.5252C46.8691 36.9626 46.5611 37.9452 46.3851 38.4732C45.4758 41.2892 44.7571 43.6506 44.2291 45.5572C43.7305 47.4346 43.3491 49.3559 43.0851 51.3212C43.0265 51.2039 42.9971 50.9399 42.9971 50.5292C42.9971 50.0306 43.0411 49.6052 43.1291 49.2532L44.4051 44.0612L44.3611 43.9732C44.0971 44.4719 43.8918 45.0439 43.7451 45.6892C43.5985 46.3052 43.4958 46.7159 43.4371 46.9212C43.2905 47.4786 43.1878 47.8452 43.1291 48.0212C44.1265 43.4746 45.1238 39.6612 46.1211 36.5812C45.7691 37.3439 45.2265 38.2532 44.4931 39.3092C44.3465 39.5732 44.1558 39.8666 43.9211 40.1892C43.7158 40.5119 43.4958 40.8932 43.2611 41.3332C42.9385 41.9492 42.4838 42.8732 41.8971 44.1052C41.2225 45.5426 40.6065 46.7892 40.0491 47.8452C39.1691 49.4292 38.4358 50.5439 37.8491 51.1892C37.6731 51.3652 37.4238 51.6439 37.1011 52.0252C36.7785 52.4066 36.4851 52.7146 36.2211 52.9492C35.9865 53.1546 35.6785 53.2572 35.2971 53.2572C34.8865 53.2572 34.4758 53.1252 34.0651 52.8612C33.6545 52.5972 33.3465 52.2599 33.1411 51.8492C33.0825 51.7612 32.9798 51.6439 32.8331 51.4972C32.6865 51.3506 32.5838 51.2186 32.5251 51.1012C32.4665 50.9839 32.4665 50.8372 32.5251 50.6612C32.4665 50.7199 32.4078 50.7492 32.3491 50.7492C32.3198 50.7199 32.3051 50.6612 32.3051 50.5732C32.2465 50.3972 32.2171 50.1479 32.2171 49.8252C32.2171 49.5026 32.2318 49.2386 32.2611 49.0332C32.2905 48.7986 32.3198 48.6079 32.3491 48.4612C32.5838 46.6426 32.8771 45.2199 33.2291 44.1932L32.4811 48.3292C32.4518 48.4759 32.4225 48.6959 32.3931 48.9892C32.3638 49.2532 32.3491 49.4879 32.3491 49.6932C32.3491 49.9866 32.3931 50.2946 32.4811 50.6172C32.5691 50.4706 32.6425 50.4266 32.7011 50.4852C32.9065 50.8666 33.0971 51.0572 33.2731 51.0572C33.4198 51.0572 33.5371 50.9399 33.6251 50.7052C33.7131 50.4412 33.7865 50.2652 33.8451 50.1772C35.1945 48.5639 36.1625 47.1119 36.7491 45.8212C36.7198 45.8799 36.7051 45.9826 36.7051 46.1292L36.7931 46.2172L36.8371 46.0412L37.1891 45.2052C37.2771 45.0292 37.3651 44.8386 37.4531 44.6332C37.5705 44.3986 37.7025 44.1346 37.8491 43.8412C37.9078 43.7532 37.9518 43.6506 37.9811 43.5332C38.0398 43.3866 38.1131 43.2839 38.2011 43.2252C38.2891 43.1666 38.4065 43.1372 38.5531 43.1372C38.5238 43.0786 38.5091 43.0052 38.5091 42.9172C38.5091 42.7412 38.5971 42.5359 38.7731 42.3012C38.9785 42.0666 39.0958 41.8906 39.1251 41.7732C39.1838 41.5972 39.3011 41.5239 39.4771 41.5532H39.6091C39.7558 41.5532 39.8585 41.4799 39.9171 41.3332C40.0051 41.1572 40.0491 41.0546 40.0491 41.0252L40.1371 40.6732C40.1371 40.5266 40.0345 40.4239 39.8291 40.3652C40.0638 40.2772 40.1958 40.1306 40.2251 39.9252C40.2838 39.7199 40.3278 39.5732 40.3571 39.4852C41.2665 37.5786 42.0145 36.0679 42.6011 34.9532C43.2171 33.8092 43.9065 32.6799 44.6691 31.5652C44.7278 31.4772 44.8305 31.3306 44.9771 31.1252C45.1531 30.8906 45.2705 30.6412 45.3291 30.3772C45.3585 30.1719 45.4465 30.0106 45.5931 29.8932C45.7398 29.7466 45.8865 29.6292 46.0331 29.5412C46.3851 29.3359 46.6198 29.1012 46.7371 28.8372C46.8545 28.5146 47.0451 28.2212 47.3091 27.9572C47.5731 27.6932 47.7345 27.5172 47.7931 27.4292C47.9105 27.3119 48.2038 27.1506 48.6731 26.9452C48.7318 26.9159 48.7758 26.9452 48.8051 27.0332C48.8638 27.0919 48.8785 27.1652 48.8491 27.2532C48.6731 27.1946 48.5705 27.1652 48.5411 27.1652C48.3358 27.1652 48.1745 27.2679 48.0571 27.4732C47.9398 27.6492 47.8518 27.7666 47.7931 27.8252C47.2358 28.4999 46.7371 29.1892 46.2971 29.8932C45.8571 30.5972 45.2998 31.5652 44.6251 32.7972L44.1851 33.5892C43.7451 34.3519 42.9678 35.8479 41.8531 38.0772C41.8238 38.1652 41.7358 38.3412 41.5891 38.6052C41.4425 38.8692 41.3838 39.1479 41.4131 39.4412V39.4852V39.6172C41.6185 39.2946 41.8091 38.9279 41.9851 38.5172C42.1905 38.1066 42.3225 37.8279 42.3811 37.6812C42.6158 37.0359 42.8211 36.5666 42.9971 36.2732L44.3171 33.9412C45.6371 31.5946 46.6491 29.9372 47.3531 28.9692C47.4705 28.8226 47.6025 28.6172 47.7491 28.3532C47.9251 28.0892 48.0865 27.8692 48.2331 27.6932C48.4091 27.5172 48.6145 27.3706 48.8491 27.2532C48.8491 28.2506 48.5851 29.4092 48.0571 30.7292C47.8518 31.1986 47.6905 31.7412 47.5731 32.3572C47.4558 32.9439 47.3678 33.3546 47.3091 33.5892C47.3091 33.5892 47.2798 33.6479 47.2211 33.7652C47.1625 33.8532 47.2065 33.9119 47.3531 33.9412C47.4411 33.9706 47.4851 33.9412 47.4851 33.8532C47.5145 33.7652 47.5291 33.7066 47.5291 33.6772C47.8518 32.4159 48.2185 31.2572 48.6291 30.2012C48.5705 30.3772 48.5118 30.6706 48.4531 31.0812V31.1692C48.4531 31.2572 48.4825 31.3452 48.5411 31.4332C48.6291 31.5212 48.6878 31.5946 48.7171 31.6532C48.7465 31.6532 48.7758 31.6532 48.8051 31.6532C48.8638 31.6532 48.9078 31.6386 48.9371 31.6092C49.0251 31.4626 49.0251 31.2719 48.9371 31.0372L48.6291 31.1692C48.6585 31.1106 48.6731 31.0226 48.6731 30.9052C48.6731 30.7879 48.7025 30.7146 48.7611 30.6852C48.8198 30.6559 48.9225 30.6706 49.0691 30.7292C49.0985 30.7586 49.1278 30.7586 49.1571 30.7292C49.1865 30.6999 49.2011 30.6559 49.2011 30.5972L49.2451 30.4652C49.2451 30.3479 49.1131 30.2452 48.8491 30.1572C49.1131 30.0986 49.2891 29.9959 49.3771 29.8492C49.4651 29.7026 49.5238 29.5119 49.5531 29.2772C49.5825 29.1892 49.5531 29.1452 49.4651 29.1452C49.4065 29.1452 49.3625 29.1306 49.3331 29.1012C49.5091 28.9839 49.6118 28.8666 49.6411 28.7492C49.6998 28.6026 49.7291 28.4412 49.7291 28.2652C49.7585 28.0892 49.7878 27.9279 49.8171 27.7812L49.8611 27.5612C49.8611 27.3852 49.7438 27.1946 49.5091 26.9892C49.3038 26.7839 49.1718 26.6226 49.1131 26.5052C49.2891 26.4172 49.5091 26.3732 49.7731 26.3732C50.4185 26.3732 51.0051 26.5639 51.5331 26.9452C51.9731 27.2386 52.2518 27.5906 52.3691 28.0012C52.5158 28.3826 52.5891 28.8666 52.5891 29.4532C52.5891 29.8932 52.6038 30.2306 52.6331 30.4652ZM34.4171 33.5892L33.0971 35.3052C32.3931 36.1559 31.7625 37.0652 31.2051 38.0332C30.6771 38.9719 30.0465 40.1746 29.3131 41.6412L28.8291 42.5652C28.2718 43.6799 27.7438 44.8826 27.2451 46.1732C26.7465 47.4639 26.4385 48.2559 26.3211 48.5492C25.9105 49.6639 25.5878 50.4999 25.3531 51.0572C25.2065 51.4386 25.0305 51.9079 24.8251 52.4652C24.6491 52.9932 24.5171 53.4039 24.4291 53.6972C24.2825 54.1959 24.0331 54.9439 23.6811 55.9412C23.5051 56.4399 23.1678 56.8652 22.6691 57.2172C22.1998 57.5399 21.7158 57.7012 21.2171 57.7012C20.7478 57.7012 20.3225 57.5399 19.9411 57.2172C19.7945 57.0999 19.5745 56.9972 19.2811 56.9092C18.9878 56.7919 18.7531 56.6892 18.5771 56.6012C18.2545 56.4546 18.0051 56.2346 17.8291 55.9412C17.6238 55.6186 17.5211 55.2812 17.5211 54.9292C17.5211 54.7826 17.5505 54.5919 17.6091 54.3572C18.3131 52.4212 19.1785 50.1919 20.2051 47.6692C20.4105 47.1999 20.7478 46.4959 21.2171 45.5572C21.2758 45.4692 21.4225 45.1906 21.6571 44.7212L22.0531 43.9292C22.1118 44.2226 22.1558 44.5452 22.1851 44.8972L23.1091 43.0052C23.1678 42.8292 23.2118 42.7266 23.2411 42.6972C23.5051 42.3159 23.6371 42.0226 23.6371 41.8172C23.6371 41.6412 23.5931 41.4652 23.5051 41.2892L23.4611 41.1572C23.4611 41.0692 23.5491 40.9372 23.7251 40.7612C23.7838 40.6439 23.8718 40.6732 23.9891 40.8492C23.7838 40.9372 23.6811 41.0692 23.6811 41.2452C23.6811 41.3332 23.7105 41.4652 23.7691 41.6412L24.5171 40.3652C25.5145 38.6639 26.3065 37.3439 26.8931 36.4052C27.5091 35.4666 28.1985 34.5279 28.9611 33.5892H28.8291C28.6238 33.5892 28.4625 33.6479 28.3451 33.7652C28.2571 33.8532 28.1691 33.9706 28.0811 34.1172C28.0225 34.2346 27.9638 34.3226 27.9051 34.3812C27.7878 34.5866 27.6265 34.7039 27.4211 34.7332C28.4185 33.2959 29.0491 32.4159 29.3131 32.0932L30.2811 30.9492L30.8971 30.2892C30.9265 30.2892 30.9411 30.3039 30.9411 30.3332C30.9998 30.5092 31.0291 30.6412 31.0291 30.7292C30.9998 30.8172 30.9411 30.8466 30.8531 30.8172C30.7651 30.7586 30.6918 30.7292 30.6331 30.7292L30.7651 31.1692C30.5891 31.0812 30.4425 31.0226 30.3251 30.9932L30.3691 31.1252C30.3691 31.2719 30.2811 31.3892 30.1051 31.4772C29.9585 31.5359 29.8705 31.5799 29.8411 31.6092C29.6945 31.8732 29.6065 32.0492 29.5771 32.1372C29.5771 32.1959 29.6358 32.2692 29.7531 32.3572L31.4691 30.5092L31.1611 30.1132L30.9411 30.3332C31.1171 29.8639 31.6011 29.4239 32.3931 29.0132C33.1851 28.5732 33.8598 28.3386 34.4171 28.3092C35.0918 28.2799 35.7811 28.3386 36.4851 28.4852C37.1891 28.6319 37.6145 28.7199 37.7611 28.7492C37.9665 28.7786 38.1278 28.8666 38.2451 29.0132C38.3625 29.1599 38.4798 29.3506 38.5971 29.5852C38.7145 29.7906 38.8171 29.9666 38.9051 30.1132C39.2571 30.6412 39.4331 31.1986 39.4331 31.7852C39.4331 32.1372 39.3305 32.5772 39.1251 33.1052C38.3331 34.9239 37.7171 36.8306 37.2771 38.8252L37.1011 39.1332L37.9371 35.1732H37.8051C37.3945 36.3466 37.1011 37.2412 36.9251 37.8572L36.7931 37.8132L38.1131 32.8852C37.9078 33.0906 37.7611 33.3106 37.6731 33.5452C37.5851 33.7506 37.4971 34.0292 37.4091 34.3812C37.2331 34.9679 37.0425 35.4226 36.8371 35.7452C36.8665 35.5692 36.9105 35.4079 36.9691 35.2612C37.0278 35.0852 37.0571 34.9532 37.0571 34.8652C37.0571 34.7479 37.0131 34.6306 36.9251 34.5132C36.9251 34.4839 36.9105 34.4399 36.8811 34.3812C36.8811 34.2932 36.8371 34.2492 36.7491 34.2492C36.6611 34.2786 36.6171 34.3372 36.6171 34.4252C36.6171 34.5132 36.6171 34.5719 36.6171 34.6012C36.6758 34.9826 36.6465 35.3492 36.5291 35.7012C36.4118 36.0239 36.2651 36.3319 36.0891 36.6252C35.9425 36.9186 35.8398 37.1239 35.7811 37.2412L36.3091 34.6452C36.3678 34.3519 36.4851 33.8826 36.6611 33.2372C36.8665 32.5626 36.9838 31.9612 37.0131 31.4332C37.0131 31.2572 36.9985 31.1106 36.9691 30.9932C36.9398 30.8466 36.9105 30.7146 36.8811 30.5972C36.8811 30.5679 36.8665 30.5386 36.8371 30.5092C36.8078 30.4799 36.7785 30.4652 36.7491 30.4652C36.7198 30.4652 36.6758 30.4799 36.6171 30.5092C36.5878 30.5092 36.5731 30.5239 36.5731 30.5532C36.5438 30.7586 36.4705 31.0079 36.3531 31.3012C36.2651 31.5652 36.1918 31.7559 36.1331 31.8732C36.0451 32.0786 35.9718 32.3572 35.9131 32.7092C35.8545 33.0612 35.7958 33.3106 35.7371 33.4572C35.6198 33.7799 35.5465 34.1612 35.5171 34.6012C35.4878 35.0412 35.4585 35.3639 35.4291 35.5692C35.1358 36.8306 34.8571 37.9159 34.5931 38.8252C34.2411 40.0572 33.9331 41.2599 33.6691 42.4332L34.3291 39.3532C35.0625 36.3906 35.4731 33.9852 35.5611 32.1372L34.4171 33.5892ZM33.4491 29.3652C33.3025 29.1306 33.1411 29.0132 32.9651 29.0132C32.7891 29.0132 32.5838 29.2332 32.3491 29.6732C32.7011 29.6732 32.8625 29.4972 32.8331 29.1452C32.9211 29.3212 33.0091 29.4239 33.0971 29.4532C33.1851 29.4532 33.3025 29.4239 33.4491 29.3652ZM34.9011 29.5412C34.7545 29.2479 34.5051 29.1012 34.1531 29.1012C34.0651 29.1012 33.8745 29.1306 33.5811 29.1892L34.9011 29.5412ZM49.4651 30.9932C49.8171 30.4946 49.9931 29.9519 49.9931 29.3652L49.4651 30.9932ZM27.9051 36.0972C27.8171 36.1852 27.5531 36.6106 27.1131 37.3732C26.5851 38.3119 26.1158 39.0012 25.7051 39.4412H25.8811C26.0865 39.4412 26.2478 39.3532 26.3651 39.1772C26.4825 39.0012 26.6291 38.7372 26.8051 38.3852C27.0105 38.0039 27.2598 37.7399 27.5531 37.5932C27.3478 37.7986 27.2451 38.0332 27.2451 38.2972L27.8171 37.4172C28.1105 36.9479 28.3451 36.5959 28.5211 36.3612C28.7558 36.0679 28.9465 35.6866 29.0931 35.2172C29.1225 35.1586 29.2105 34.9532 29.3571 34.6012C29.5331 34.2199 29.7678 33.9119 30.0611 33.6772L29.6211 34.5572C29.8851 34.3812 30.0905 34.1612 30.2371 33.8972C30.3838 33.6332 30.4865 33.4426 30.5451 33.3252C30.2518 33.5012 30.1051 33.5892 30.1051 33.5892C30.1931 33.4719 30.2811 33.3252 30.3691 33.1492C30.4865 32.9732 30.6038 32.8412 30.7211 32.7532C30.8971 32.5772 31.1025 32.3426 31.3371 32.0492C31.5718 31.7559 31.8211 31.5506 32.0851 31.4332L31.9091 31.7852C31.9091 31.7852 32.2611 31.4772 32.9651 30.8612L32.8771 30.7732L32.0851 31.4332C32.4078 30.8172 32.8771 30.4066 33.4931 30.2012C33.4931 30.2892 33.4198 30.3626 33.2731 30.4212C33.1265 30.4799 33.0825 30.5679 33.1411 30.6852C33.2585 30.6559 33.3758 30.5679 33.4931 30.4212C33.6398 30.2452 33.7718 30.1132 33.8891 30.0252C34.0065 29.9372 34.1678 29.9372 34.3731 30.0252C34.2265 29.8786 34.0798 29.8052 33.9331 29.8052C33.7865 29.8052 33.6251 29.8492 33.4491 29.9372C33.3025 30.0252 33.1998 30.0839 33.1411 30.1132C32.7598 30.2306 32.4371 30.4066 32.1731 30.6412C31.9385 30.8759 31.6305 31.2279 31.2491 31.6972C30.8971 32.1666 30.6331 32.4746 30.4571 32.6212C30.0171 33.0612 29.4451 33.8092 28.7411 34.8652C28.2425 35.5986 27.9638 36.0092 27.9051 36.0972ZM45.6811 34.1612C45.8571 34.0146 45.9745 33.8972 46.0331 33.8092C46.0918 33.6919 46.0771 33.5306 45.9891 33.3252C46.2531 33.2959 46.5611 32.9879 46.9131 32.4012C47.2651 31.7852 47.5585 31.0959 47.7931 30.3332C47.5291 30.5972 47.2211 31.0812 46.8691 31.7852C46.5758 32.4892 46.2825 32.9879 45.9891 33.2812L45.9451 33.3252H45.9891L45.6811 34.1612ZM25.4851 43.9732C26.8638 41.5972 28.1545 39.4999 29.3571 37.6812C30.5598 35.8626 31.8358 34.1466 33.1851 32.5332C33.1265 32.5039 33.0385 32.5186 32.9211 32.5772C32.8331 32.6066 32.7745 32.5772 32.7451 32.4892C33.1558 32.4012 33.5078 32.2399 33.8011 32.0052C34.1238 31.7412 34.4611 31.3746 34.8131 30.9052C34.6665 30.9346 34.4905 30.9492 34.2851 30.9492V31.0372C34.2851 31.2132 34.1971 31.3012 34.0211 31.3012C33.9918 31.3012 33.9185 31.3012 33.8011 31.3012C33.7131 31.3012 33.6398 31.3306 33.5811 31.3892C34.0505 30.8026 34.6665 30.5532 35.4291 30.6412C35.3118 30.6119 35.1505 30.5972 34.9451 30.5972C34.5051 30.5972 34.1238 30.7146 33.8011 30.9492C33.5078 31.1839 33.1705 31.5359 32.7891 32.0052C32.4371 32.4746 32.1145 32.8119 31.8211 33.0172C32.0558 32.8706 32.2758 32.6652 32.4811 32.4012C32.8038 32.0786 33.0531 31.8586 33.2291 31.7412L33.3611 32.1812C33.3025 32.1519 33.2291 32.1372 33.1411 32.1372C32.9945 32.1372 32.8625 32.2546 32.7451 32.4892C32.6865 32.5772 32.5838 32.6799 32.4371 32.7972C32.2905 32.8852 32.1878 32.9879 32.1291 33.1052C32.0705 33.2226 32.0705 33.3692 32.1291 33.5452C31.9825 33.3986 31.8651 33.3546 31.7771 33.4132C31.5131 33.5892 31.4105 33.8239 31.4691 34.1172L31.2931 34.1612C31.2345 34.1612 31.1905 34.0879 31.1611 33.9412C31.1611 33.7946 31.1171 33.7359 31.0291 33.7652L30.6331 34.3812C30.6918 34.4106 30.7798 34.4839 30.8971 34.6012C30.8678 34.6306 30.8091 34.6306 30.7211 34.6012C30.6331 34.5719 30.5745 34.6012 30.5451 34.6892L30.7651 34.8652L30.5891 34.8212C30.3838 34.8212 30.2665 34.9386 30.2371 35.1732C30.2078 35.3786 30.1638 35.5546 30.1051 35.7012C30.0758 35.8186 29.9438 35.8332 29.7091 35.7452C29.7678 35.8332 29.7971 35.9359 29.7971 36.0532C29.7971 36.1999 29.6945 36.3319 29.4891 36.4492C29.4891 36.3319 29.4745 36.2586 29.4451 36.2292C29.4451 36.2879 29.3571 36.3759 29.1811 36.4932C29.0345 36.5812 28.9611 36.6692 28.9611 36.7572C28.9611 36.8452 29.0638 36.9772 29.2691 37.1532C29.0051 37.3292 28.7851 37.5346 28.6091 37.7692C28.4625 38.0039 28.2865 38.3266 28.0811 38.7372C27.8465 39.2652 27.6118 39.6466 27.3771 39.8812C27.1425 39.9106 26.9811 39.9839 26.8931 40.1012C26.8345 40.2186 26.7905 40.4386 26.7611 40.7612C26.7611 41.0546 26.6585 41.2306 26.4531 41.2892C26.4238 41.5239 26.3505 41.7586 26.2331 41.9932C26.1158 42.2279 26.0425 42.3892 26.0131 42.4772C25.6905 43.0052 25.5145 43.5039 25.4851 43.9732ZM48.8491 32.4892C49.2305 32.1666 49.3918 31.7559 49.3331 31.2572L48.8491 32.4892ZM49.1131 33.5012C49.3478 32.7386 49.5385 32.1666 49.6851 31.7852C49.3038 32.3426 49.1131 32.9146 49.1131 33.5012ZM28.5211 33.1932C28.7265 33.4866 28.8731 33.5452 28.9611 33.3692C28.9905 33.3106 29.0638 33.2226 29.1811 33.1052C29.3278 32.9586 29.3571 32.8559 29.2691 32.7972L29.0931 32.7092C29.0345 32.7092 28.9611 32.7972 28.8731 32.9732C28.7851 33.1492 28.6678 33.2226 28.5211 33.1932ZM45.9891 33.3252V33.2812V33.3252ZM48.7171 33.6332C48.5118 33.8386 48.3798 34.0732 48.3211 34.3372C48.2918 34.5719 48.2771 34.8799 48.2771 35.2612L48.7171 33.6332ZM32.0411 34.8212C32.0705 34.7332 32.1585 34.6306 32.3051 34.5132C32.4518 34.3666 32.5398 34.2492 32.5691 34.1612C32.6278 34.0439 32.6278 33.8826 32.5691 33.6772C32.5398 33.7946 32.4518 33.9119 32.3051 34.0292C32.1878 34.1466 32.0998 34.2639 32.0411 34.3812C31.9825 34.4986 31.9825 34.6452 32.0411 34.8212ZM49.1131 33.7652L49.0251 33.7212L48.4971 35.4812H48.5851L49.1131 33.7652ZM46.9131 35.1732C47.1771 34.8506 47.2651 34.4986 47.1771 34.1172L46.9131 35.1732ZM45.6371 34.3812C44.9918 35.2906 44.4051 36.2292 43.8771 37.1972C43.3785 38.1652 42.7771 39.3972 42.0731 40.8932L41.2371 42.6972L45.6371 34.3812ZM27.4211 34.7332C27.4798 34.7919 27.5091 34.8799 27.5091 34.9972C27.5091 35.2026 27.2891 35.3786 26.8491 35.5252L27.4211 34.7332ZM46.9571 35.4812L46.7811 35.4372L45.5051 39.7492L45.7691 39.7932L46.9571 35.4812ZM26.6291 36.4932C26.5998 36.5226 26.5411 36.5959 26.4531 36.7132C26.3651 36.8012 26.2625 36.7866 26.1451 36.6692C26.2038 36.5812 26.2625 36.4786 26.3211 36.3612C26.4091 36.2439 26.4971 36.1119 26.5851 35.9652C26.7025 36.0532 26.7465 36.1559 26.7171 36.2732C26.7171 36.3612 26.6878 36.4346 26.6291 36.4932ZM46.9571 40.3652C47.0158 40.3066 47.0598 40.2479 47.0891 40.1892C47.1185 40.1306 47.0891 40.0719 47.0011 40.0132C46.9425 39.8959 46.9131 39.8226 46.9131 39.7932C46.9131 39.7346 46.9571 39.6612 47.0451 39.5732C47.1331 39.4852 47.1771 39.4119 47.1771 39.3532C47.2065 39.2359 47.2651 39.1919 47.3531 39.2212C47.4411 39.2212 47.4998 39.2212 47.5291 39.2212L47.7051 38.4292C47.6171 38.4292 47.5438 38.5026 47.4851 38.6492C47.4265 38.7959 47.3385 38.8839 47.2211 38.9132L48.0131 36.1852C47.8078 36.3319 47.6758 36.5372 47.6171 36.8012L46.5171 40.1452C46.4878 40.2039 46.4145 40.2772 46.2971 40.3652C46.2091 40.4532 46.2385 40.5412 46.3851 40.6292C46.4145 40.6586 46.4585 40.6732 46.5171 40.6732C46.5465 40.6732 46.5758 40.6146 46.6051 40.4972C46.6638 40.3799 46.7225 40.2919 46.7811 40.2332C46.8105 40.2332 46.8251 40.2772 46.8251 40.3652C46.8251 40.4239 46.8545 40.4386 46.9131 40.4092C46.6785 40.7319 46.4585 40.8639 46.2531 40.8052C46.1945 40.8639 46.1651 40.9666 46.1651 41.1132V41.4212C46.1651 41.5679 46.1211 41.6852 46.0331 41.7732L46.4291 41.5972C46.3118 41.8612 46.2531 42.0226 46.2531 42.0812C46.2531 42.1399 46.3118 42.2279 46.4291 42.3452L46.6931 41.3772C46.7225 41.2306 46.7958 40.9079 46.9131 40.4092L46.9571 40.3652ZM28.1691 36.5372C28.1691 36.4786 28.1838 36.4346 28.2131 36.4052L28.1691 36.5372ZM29.7531 37.8132C30.2225 37.4612 30.5598 36.9919 30.7651 36.4052C30.3838 36.6986 30.0465 37.1679 29.7531 37.8132ZM47.1771 41.7292C47.7638 40.7612 48.2771 39.3532 48.7171 37.5052L48.9811 36.4052C48.7465 36.9919 48.4531 37.8719 48.1011 39.0452C48.0425 39.3679 47.9398 39.7199 47.7931 40.1012C47.6465 40.4826 47.5438 40.7466 47.4851 40.8932L47.1771 41.7292ZM27.5971 37.5052V37.4172C27.5971 37.2412 27.6705 37.0799 27.8171 36.9332C27.9931 36.7572 28.1105 36.6252 28.1691 36.5372L27.5971 37.5052ZM26.1451 36.7132V36.6692V36.7132ZM24.8251 39.1772C24.7958 39.4412 24.6638 39.6759 24.4291 39.8812C24.2238 40.0866 24.0771 40.2332 23.9891 40.3212L24.7371 38.9572C24.7958 38.8399 24.9571 38.5319 25.2211 38.0332C25.5145 37.5346 25.8225 37.0946 26.1451 36.7132C26.1451 36.7719 26.1158 36.9039 26.0571 37.1092C26.0278 37.2852 25.9691 37.4466 25.8811 37.5932C25.8225 37.7106 25.7051 37.8132 25.5291 37.9012C25.3531 38.0186 25.1918 38.2092 25.0451 38.4732C24.9278 38.7079 24.8545 38.9426 24.8251 39.1772ZM35.6051 37.4612L35.8691 37.5052C35.5171 39.0306 35.1798 40.1599 34.8571 40.8932L35.6051 37.4612ZM27.5971 37.5492C27.5971 37.5492 27.5825 37.5492 27.5531 37.5492C27.5531 37.5492 27.5531 37.5639 27.5531 37.5932L27.5971 37.5052V37.5492ZM33.9331 49.5612C34.2851 46.1879 35.1651 42.1986 36.5731 37.5932C36.1625 38.9719 35.7078 40.9666 35.2091 43.5772C35.0918 44.2519 34.8865 45.2639 34.5931 46.6132L34.8131 46.2612C34.7545 46.6426 34.6958 46.9946 34.6371 47.3172C34.5785 47.6106 34.5345 47.8892 34.5051 48.1532L34.4171 48.1092L34.5491 46.7012C34.4025 47.1412 34.2705 47.7132 34.1531 48.4172C34.0945 48.8866 34.0211 49.2679 33.9331 49.5612ZM25.8371 40.3652C25.6905 40.5999 25.4998 40.9812 25.2651 41.5092C25.6465 41.1279 25.8958 40.7172 26.0131 40.2772C26.2771 40.0719 26.4971 39.7492 26.6731 39.3092C26.8785 38.8399 27.0251 38.5319 27.1131 38.3852C26.9958 38.5612 26.8051 38.8399 26.5411 39.2212C26.2771 39.5732 26.1011 39.9252 26.0131 40.2772L25.8371 40.3652ZM21.0851 49.4732C21.5251 48.6226 21.9211 47.7866 22.2731 46.9652C22.4198 46.6719 22.6251 46.2319 22.8891 45.6452C23.1825 45.0586 23.4611 44.5452 23.7251 44.1052C23.7838 44.1639 23.8718 44.2226 23.9891 44.2812L25.0451 42.1252L24.9131 42.0372C24.7371 42.4186 24.5611 42.7706 24.3851 43.0932C24.2091 43.4159 24.0625 43.6946 23.9451 43.9292C24.2971 43.0786 24.5905 42.4039 24.8251 41.9052C25.0891 41.3772 25.4118 40.8639 25.7931 40.3652L26.0571 39.7052C25.9105 39.6466 25.4265 40.3359 24.6051 41.7732C23.8131 43.2106 23.0358 44.7506 22.2731 46.3932C21.5105 48.0066 21.1145 49.0332 21.0851 49.4732ZM23.8571 40.5852L23.9891 40.3212L23.8571 40.5852ZM44.9331 41.7732C45.1091 41.5972 45.1678 41.3039 45.1091 40.8932C45.0211 41.0399 44.9478 41.1866 44.8891 41.3332C44.8598 41.4799 44.8745 41.6266 44.9331 41.7732ZM22.3171 44.1052C22.2291 44.0172 22.1411 43.9586 22.0531 43.9292L23.3291 41.3772L23.4171 41.4212L22.3171 44.1052ZM44.3611 43.8412C44.6545 42.9319 44.8451 42.3452 44.9331 42.0812C44.5225 42.7852 44.3318 43.3719 44.3611 43.8412ZM34.5051 42.1252C34.5931 42.1252 34.6665 42.1399 34.7251 42.1692L34.2411 44.1492L34.1531 44.1052L34.5051 42.1252ZM44.6251 48.2412C44.8891 47.1559 45.0798 46.4372 45.1971 46.0852H45.2851V46.3052C45.3145 46.0706 45.3731 45.8066 45.4611 45.5132C45.5491 45.1906 45.6078 44.9706 45.6371 44.8532C45.9011 44.1199 46.0331 43.4892 46.0331 42.9612C46.0331 42.7852 46.0038 42.5506 45.9451 42.2572C45.8865 42.7266 45.7838 43.2399 45.6371 43.7972C45.4905 44.3546 45.3878 44.7359 45.3291 44.9412C44.8891 46.3199 44.6545 47.4199 44.6251 48.2412ZM36.0891 43.7972C35.9131 43.5919 35.8398 43.3426 35.8691 43.0492C35.8985 42.7559 35.8985 42.5359 35.8691 42.3892C35.9865 42.5359 36.0451 42.7119 36.0451 42.9172L36.0011 43.4012C36.0011 43.4892 36.0305 43.6212 36.0891 43.7972ZM25.5731 44.1932C25.4558 44.1346 25.3238 44.1052 25.1771 44.1052C25.0598 44.0759 24.9425 44.1052 24.8251 44.1932C25.0305 44.2519 25.1331 44.3986 25.1331 44.6332C25.1331 44.7506 25.1185 44.8826 25.0891 45.0292C25.0598 45.1466 25.0451 45.2786 25.0451 45.4252L25.5731 44.1932ZM24.3851 45.7772C24.7371 45.4839 24.9278 45.0586 24.9571 44.5012C24.8398 44.7652 24.7225 44.9999 24.6051 45.2052C24.5171 45.4106 24.4438 45.6012 24.3851 45.7772ZM23.7251 44.8092L23.5931 44.7212L22.4931 47.0092C22.4931 47.0092 22.5225 47.0386 22.5811 47.0972L23.7251 44.8092ZM21.2171 46.3492C21.0998 46.4666 21.0411 46.5839 21.0411 46.7012C21.0411 46.8186 21.0705 46.9946 21.1291 47.2292L22.1411 44.9412H21.8331C21.7451 44.9412 21.6865 44.9706 21.6571 45.0292C21.6278 45.0586 21.6425 45.1612 21.7011 45.3372C21.7011 45.3666 21.6865 45.3959 21.6571 45.4252C21.6278 45.4546 21.6131 45.4692 21.6131 45.4692C21.3198 45.4692 21.2318 45.6012 21.3491 45.8652C21.3785 45.8946 21.3931 45.9532 21.3931 46.0412C21.3931 46.1879 21.3345 46.2906 21.2171 46.3492ZM33.6251 46.1732C33.7425 45.6746 33.8158 45.3372 33.8451 45.1612C33.9038 45.1612 33.9478 45.1759 33.9771 45.2052L33.7131 46.2172C33.7131 46.1879 33.6838 46.1732 33.6251 46.1732ZM35.2531 47.1852C35.1651 47.0092 35.1211 46.8332 35.1211 46.6572C35.1211 46.5399 35.1505 46.3932 35.2091 46.2172C35.2678 46.0119 35.2825 45.8506 35.2531 45.7332C35.3998 45.8799 35.4731 46.0412 35.4731 46.2172C35.4731 46.3346 35.4438 46.4959 35.3851 46.7012C35.3265 46.8772 35.2825 47.0386 35.2531 47.1852ZM46.2091 45.8652C45.7985 46.8039 45.6078 47.6252 45.6371 48.3292L46.2091 45.8652ZM23.8131 47.2292C23.9891 46.7892 24.1798 46.4226 24.3851 46.1292L24.2091 46.0412C24.1505 46.1879 23.9891 46.5692 23.7251 47.1852L23.8131 47.2292ZM45.2411 46.7012V46.5692V46.7012ZM20.6011 47.4052C20.3665 47.7572 20.2491 48.0212 20.2491 48.1972C20.2491 48.3439 20.2785 48.4612 20.3371 48.5492L20.6011 47.4052ZM45.1531 50.4412C45.3291 49.7372 45.4465 49.1506 45.5051 48.6812L45.4171 48.6372C45.2705 49.3706 45.1238 49.9572 44.9771 50.3972L45.1531 50.4412ZM44.4931 48.9452C44.2585 49.2092 44.1411 49.6052 44.1411 50.1332L44.1851 51.0132L44.4931 48.9452ZM42.8651 48.9892C42.8651 49.3412 42.8358 49.9279 42.7771 50.7492C42.7185 51.9226 42.6891 52.8026 42.6891 53.3892C42.6891 54.3866 42.7625 55.2519 42.9091 55.9852C42.6745 55.7506 42.5571 55.3839 42.5571 54.8852C42.5571 52.3039 42.6305 50.3972 42.7771 49.1652L42.8651 48.9892ZM20.2491 51.5412C20.4545 51.3359 20.6011 51.1159 20.6891 50.8812C20.7478 50.6172 20.7918 50.3532 20.8211 50.0892C20.8505 49.8252 20.8798 49.6052 20.9091 49.4292C20.7918 49.8692 20.5718 50.5732 20.2491 51.5412ZM43.2611 57.6572C43.0851 57.2466 42.9678 56.9386 42.9091 56.7332C42.8505 56.4986 42.8505 56.2492 42.9091 55.9852L43.2611 57.6572ZM45.6371 57.7012C45.6078 57.8479 45.6078 58.0386 45.6371 58.2732C45.6665 58.5079 45.6811 58.7132 45.6811 58.8892C45.6811 59.2412 45.5785 59.5786 45.3731 59.9012L45.6371 57.7012ZM69.4212 39.1332C69.4212 39.2506 69.3332 39.4852 69.1572 39.8372L69.6412 39.6172C69.4065 40.4386 69.1279 41.0546 68.8052 41.4652C68.3652 41.9346 68.0719 42.4186 67.9252 42.9172C67.7785 43.4159 67.6465 44.1052 67.5292 44.9852L67.3972 45.9972C67.1039 47.4052 66.9572 48.7106 66.9572 49.9132C66.9572 50.7052 67.0159 51.4092 67.1332 52.0252C67.1332 52.1426 67.1625 52.3186 67.2212 52.5532C67.1332 52.6412 67.0599 52.6559 67.0012 52.5972C66.9425 52.5386 66.8839 52.4946 66.8252 52.4652L66.8692 52.9492C66.7812 52.8026 66.6492 52.6266 66.4732 52.4212C66.3265 52.1866 66.1945 51.9666 66.0772 51.7612C65.9599 51.5559 65.9012 51.3359 65.9012 51.1012C65.9012 50.9546 65.8132 50.8666 65.6372 50.8372C65.4905 50.7786 65.4025 50.7346 65.3732 50.7052L64.8892 48.3292C64.8305 49.2386 64.9919 50.0306 65.3732 50.7052V50.8372C65.3732 50.9839 65.4172 51.1599 65.5052 51.3652C65.5932 51.5706 65.6519 51.7319 65.6812 51.8492C65.8279 52.4359 66.1945 53.0226 66.7812 53.6092C66.9279 53.7559 67.0745 53.9906 67.2212 54.3132C67.3972 54.6066 67.5439 54.8119 67.6612 54.9292L67.5732 54.9732C67.5145 54.9732 67.4119 54.9146 67.2652 54.7972C67.1479 54.6506 67.0599 54.6359 67.0012 54.7532C65.9452 53.4039 65.1239 52.0986 64.5372 50.8372C63.9799 49.5759 63.7012 48.2559 63.7012 46.8772C63.7012 46.2612 63.7599 45.6746 63.8772 45.1172C63.5252 45.6746 62.8652 46.3786 61.8972 47.2292C61.1345 47.8746 60.5625 48.4612 60.1812 48.9892L59.9172 48.7252C59.2719 49.4292 58.6559 50.0306 58.0692 50.5292L58.5092 50.2212L59.2572 49.6932C59.5212 49.3706 59.7412 49.1506 59.9172 49.0332C59.7119 49.3852 59.4479 49.6932 59.1252 49.9572C58.8319 50.2212 58.4505 50.4999 57.9812 50.7932C57.0132 51.3506 56.1039 51.7466 55.2532 51.9812C55.0185 52.0399 54.8279 52.0692 54.6812 52.0692C54.2119 52.0692 53.8305 51.8932 53.5372 51.5412C52.7745 50.4852 52.1732 49.4732 51.7332 48.5052C51.3225 47.5079 51.1172 46.4812 51.1172 45.4252C51.1172 44.4279 51.2345 43.4452 51.4692 42.4772C51.7039 41.5092 52.0559 40.3506 52.5252 39.0012C52.9359 37.9159 53.1852 37.2266 53.2732 36.9332C53.9479 35.2612 54.4465 33.8826 54.7692 32.7972C54.8572 32.4159 54.9452 32.1519 55.0332 32.0052C55.1212 31.8586 55.2532 31.7852 55.4292 31.7852C55.6052 31.7852 55.8985 31.9172 56.3092 32.1812C57.0132 32.5626 57.5705 33.0906 57.9812 33.7652C58.0692 33.8826 58.2159 34.1026 58.4212 34.4252C58.6559 34.7186 58.8465 35.0119 58.9932 35.3052C59.1399 35.5692 59.2279 35.8479 59.2572 36.1412C59.2572 36.1706 59.2572 36.2292 59.2572 36.3172C59.2865 36.4052 59.2719 36.4786 59.2132 36.5372C58.8025 37.3292 58.4359 38.1359 58.1132 38.9572C57.8199 39.7492 57.4679 40.7612 57.0572 41.9932C56.9692 42.2866 56.8079 42.7266 56.5732 43.3132C56.1039 44.5746 55.7959 45.5866 55.6492 46.3492L55.5612 46.8332C55.9719 46.8039 56.4119 46.5839 56.8812 46.1732C57.8199 45.4692 58.6705 44.7359 59.4332 43.9732C60.2252 43.1812 61.2519 42.1106 62.5132 40.7612L64.3612 38.7812C64.5079 38.6346 64.5959 38.4879 64.6252 38.3412C64.6545 38.1946 64.6399 37.9892 64.5812 37.7252C64.5519 37.4319 64.5665 37.2119 64.6252 37.0652L64.8012 37.0212C64.9479 37.0212 65.0212 37.1239 65.0212 37.3292C65.0505 37.5346 65.0945 37.6666 65.1532 37.7252C65.1825 37.6666 65.2119 37.6079 65.2412 37.5492C65.2999 37.4612 65.3145 37.3879 65.2852 37.3292C65.2852 37.2412 65.2412 37.1679 65.1532 37.1092C65.3585 37.0799 65.6372 37.0212 65.9892 36.9332C66.3705 36.8452 66.7079 36.7866 67.0012 36.7572C67.2652 36.7572 67.5732 36.7279 67.9252 36.6692C68.2772 36.5812 68.5559 36.5226 68.7612 36.4932C68.8492 36.4639 68.9665 36.4492 69.1132 36.4492C69.3772 36.4492 69.5092 36.5519 69.5092 36.7572C69.5092 36.8159 69.4652 37.0212 69.3772 37.3732C69.7585 37.5199 69.9492 37.7106 69.9492 37.9452C69.9492 38.0626 69.8465 38.2532 69.6412 38.5172C69.4652 38.7519 69.3919 38.9426 69.4212 39.0892V39.1332ZM55.5612 32.1812C55.5612 32.2986 55.5319 32.4746 55.4732 32.7092C55.4145 32.9439 55.3852 33.1346 55.3852 33.2812C55.3852 33.4572 55.4145 33.6039 55.4732 33.7212C55.5025 33.5746 55.5465 33.4132 55.6052 33.2372C55.6639 33.0319 55.6932 32.8559 55.6932 32.7092C55.6932 32.5332 55.6492 32.3572 55.5612 32.1812ZM54.3292 41.5532C54.5639 40.7612 54.7839 40.0279 54.9892 39.3532C55.1945 38.6492 55.3852 38.0039 55.5612 37.4172L56.2212 35.3492C56.3092 35.0266 56.3532 34.7479 56.3532 34.5132C56.3532 34.1612 56.3092 33.8386 56.2212 33.5452L56.1772 33.8972C56.1479 34.1319 56.0892 34.5132 56.0012 35.0412C55.9425 35.5692 55.8545 36.0239 55.7372 36.4052C55.0919 38.2826 54.5785 39.8519 54.1972 41.1132C53.8159 42.3746 53.5225 43.6652 53.3172 44.9852C53.2585 45.3372 53.2292 45.6012 53.2292 45.7772C53.2292 46.3346 53.4199 46.8039 53.8012 47.1852L53.6692 46.5252C53.6105 46.1146 53.5812 45.7919 53.5812 45.5572C53.5812 44.8239 53.6839 44.0466 53.8892 43.2252C54.1239 42.3746 54.2705 41.8172 54.3292 41.5532ZM52.5252 45.3372C52.4959 45.7479 52.5252 46.1146 52.6132 46.4372C52.7305 46.7306 52.8772 46.9212 53.0532 47.0092C52.9945 46.4226 52.9652 45.9972 52.9652 45.7332C52.9652 44.6772 53.0972 43.6359 53.3612 42.6092C53.6252 41.5532 54.0065 40.3066 54.5052 38.8692C54.7692 38.0772 55.0185 37.2706 55.2532 36.4492C55.5172 35.5986 55.7079 34.8212 55.8252 34.1172C55.7079 34.1172 55.6492 34.1906 55.6492 34.3372L55.2532 35.6132C55.1359 36.1412 54.9599 36.6839 54.7252 37.2412C53.5225 40.1746 52.7892 42.8732 52.5252 45.3372ZM52.0412 45.7332C52.0412 46.2319 52.1732 46.6426 52.4372 46.9652C52.4079 46.6719 52.3932 46.2466 52.3932 45.6892C52.3932 44.4866 52.5252 43.3279 52.7892 42.2132C53.0532 41.0692 53.4492 39.6612 53.9772 37.9892C54.3879 36.6692 54.7252 35.5399 54.9892 34.6012C54.8719 34.6599 54.7985 34.7772 54.7692 34.9532C54.6225 35.5106 54.3439 36.3466 53.9332 37.4612C53.3465 39.0746 52.9945 40.2186 52.8772 40.8932C52.8185 41.1279 52.7012 41.5826 52.5252 42.2572C52.3492 42.9026 52.2172 43.5186 52.1292 44.1052C52.0705 44.6626 52.0412 45.2052 52.0412 45.7332ZM65.4612 37.7252C65.1972 38.3412 65.0652 38.9572 65.0652 39.5732C65.0652 39.7786 65.0945 40.1159 65.1532 40.5852C65.2412 39.8812 65.3439 38.9279 65.4612 37.7252ZM65.8132 42.3452C65.9012 42.2572 65.9745 42.2426 66.0332 42.3012C66.1212 42.3599 66.1799 42.3892 66.2092 42.3892C66.4732 41.5972 66.6052 40.6732 66.6052 39.6172C66.6052 38.8546 66.5759 38.2972 66.5172 37.9452C66.5465 38.3852 66.5025 38.8546 66.3852 39.3532C66.2679 39.8519 66.1945 40.1599 66.1652 40.2772C66.1359 40.4826 66.0772 40.7906 65.9892 41.2012C65.9012 41.6119 65.8425 41.9932 65.8132 42.3452ZM65.1532 41.9492C65.3879 41.6266 65.5639 41.2159 65.6812 40.7172C65.8279 40.2186 65.9012 39.7492 65.9012 39.3092C65.9012 38.7812 65.8132 38.4586 65.6372 38.3412C65.6665 38.8106 65.6372 39.2946 65.5492 39.7932C65.4612 40.2626 65.4025 40.5706 65.3732 40.7172C65.2559 41.2452 65.1825 41.6559 65.1532 41.9492ZM54.9892 48.5492C55.5759 48.5199 56.6465 47.8892 58.2012 46.6572C59.7852 45.4252 61.2372 44.1199 62.5572 42.7412C63.8772 41.3626 64.4932 40.4532 64.4052 40.0132C63.6425 40.7759 62.8799 41.5826 62.1172 42.4332C60.7092 43.9879 59.4919 45.2346 58.4652 46.1732C57.4385 47.1119 56.2799 47.9039 54.9892 48.5492ZM55.0332 43.0492C55.0919 42.8146 55.1652 42.5799 55.2532 42.3452C55.3412 42.0812 55.4292 41.8026 55.5172 41.5092H55.3852C55.2972 41.7439 55.1505 42.2426 54.9452 43.0052L55.0332 43.0492ZM55.7812 42.8292L56.0452 41.8612C56.0159 41.8319 55.9719 41.8172 55.9132 41.8172C55.8545 42.0519 55.7665 42.3599 55.6492 42.7412C55.5612 43.1226 55.4292 43.5626 55.2532 44.0612H55.4292L55.7812 42.8292ZM65.2852 41.9492C65.1679 42.2132 65.0945 42.4186 65.0652 42.5652C65.0359 42.6826 65.0652 42.7999 65.1532 42.9172L65.2852 41.9492ZM64.0092 42.5212L63.8772 42.3892L61.2372 45.3372L61.3252 45.4252L64.0092 42.5212ZM66.2972 42.5652C66.0625 42.5652 65.9452 42.7266 65.9452 43.0492H66.0772C66.2532 43.0492 66.3265 42.9906 66.2972 42.8732C66.2972 42.7266 66.2972 42.6239 66.2972 42.5652ZM55.3852 44.3692C55.0039 45.0732 54.8132 45.6599 54.8132 46.1292L54.8572 46.4812C55.2092 45.0732 55.3852 44.3692 55.3852 44.3692ZM64.8012 45.5572C65.0359 45.3519 65.1239 45.0586 65.0652 44.6772C65.0652 44.6186 65.0359 44.5892 64.9772 44.5892C64.9185 44.5599 64.8452 44.5746 64.7572 44.6332C64.8159 44.6919 64.8452 44.7799 64.8452 44.8972C64.8452 44.9852 64.8305 45.1026 64.8012 45.2492C64.7719 45.3666 64.7719 45.4692 64.8012 45.5572ZM62.4692 46.3052C63.1145 45.6599 63.5545 45.0879 63.7892 44.5892C63.4665 44.8826 63.1585 45.2199 62.8652 45.6012C62.7772 45.7479 62.6012 45.9679 62.3372 46.2612C62.0732 46.5252 61.9119 46.7746 61.8532 47.0092L61.6772 46.9652C61.5599 46.9652 61.4572 47.0386 61.3692 47.1852C61.2812 47.3026 61.2225 47.3759 61.1932 47.4052C61.1932 47.4052 60.8559 47.7426 60.1812 48.4172C60.1519 48.4466 60.4305 48.2119 61.0172 47.7132C61.0465 47.6839 61.3252 47.4492 61.8532 47.0092L62.4692 46.3052ZM64.7572 48.0652C64.8452 47.7426 64.8892 47.4346 64.8892 47.1412C64.8892 46.8186 64.8452 46.5106 64.7572 46.2172V48.0652ZM66.6492 51.3652L66.1212 49.7372C66.0625 49.7372 66.0332 49.7519 66.0332 49.7812C66.1799 50.3092 66.3412 50.8372 66.5172 51.3652H66.6492ZM89.8901 31.5652C89.7141 31.9172 89.5821 32.3426 89.4941 32.8412C89.4355 33.3106 89.3915 33.6186 89.3621 33.7652V33.5452C89.3621 33.2812 89.2741 33.1492 89.0981 33.1492C89.0101 33.1492 88.8928 33.1786 88.7461 33.2372C88.5995 33.2959 88.4821 33.3399 88.3941 33.3692L88.7901 32.7532C88.4381 32.9879 88.2181 33.3106 88.1301 33.7212C87.7781 35.3052 87.5288 36.4786 87.3821 37.2412C86.7075 40.3799 86.3115 42.1546 86.1941 42.5652C85.8421 44.3252 85.2555 46.1732 84.4341 48.1092C84.3755 48.2559 84.2581 48.5639 84.0821 49.0332C83.9061 49.4732 83.6861 49.8692 83.4221 50.2212C83.3928 50.2799 83.3781 50.4999 83.3781 50.8812L83.9941 49.7812C84.3461 49.1652 84.5955 48.6519 84.7421 48.2412C86.0035 44.5159 86.8835 41.3919 87.3821 38.8692L87.7341 37.1972C87.9688 35.8479 88.1888 34.8652 88.3941 34.2492C88.4235 34.0732 88.4675 33.9412 88.5261 33.8532C88.5848 33.7652 88.7168 33.7066 88.9221 33.6772L88.7021 34.6012C88.5848 35.0119 88.4381 35.6279 88.2621 36.4492C87.9101 38.5319 87.2061 41.6266 86.1501 45.7332C86.0328 46.2906 85.8275 46.8772 85.5341 47.4932C85.4755 47.6399 85.3875 47.8746 85.2701 48.1972C85.1528 48.4906 85.0648 48.7546 85.0061 48.9892C84.8595 49.4879 84.6248 49.9279 84.3021 50.3092C83.9795 50.6906 83.5688 51.0719 83.0701 51.4532C82.7768 51.6586 82.3661 51.7319 81.8381 51.6732L82.5861 51.1452C82.2928 51.3506 81.9408 51.4532 81.5301 51.4532C81.2075 51.4532 80.7235 51.3652 80.0781 51.1892L80.3421 51.5852C79.9021 51.4386 79.5355 51.2332 79.2421 50.9692C78.9781 50.6759 78.6555 50.2799 78.2741 49.7812C77.6581 48.9599 77.2181 48.1092 76.9541 47.2292C76.7195 46.3492 76.4555 45.1026 76.1621 43.4892C76.0155 42.5506 75.6635 41.0692 75.1061 39.0452C74.3141 41.1279 73.4048 43.9439 72.3781 47.4932L71.3661 50.7932C71.8941 50.7639 72.3195 50.6466 72.6421 50.4412C72.9941 50.2066 73.4488 49.8399 74.0061 49.3412C73.8595 49.4586 73.6541 49.7226 73.3901 50.1332C73.0675 50.6906 72.7301 51.0572 72.3781 51.2332C72.3488 51.2626 72.2608 51.3066 72.1141 51.3652C71.9968 51.4239 71.9821 51.5266 72.0701 51.6732C72.1288 51.7612 72.1875 51.8052 72.2461 51.8052C72.3048 51.8052 72.3781 51.7759 72.4661 51.7172C72.5835 51.6292 72.6568 51.5706 72.6861 51.5412L72.9941 51.3212C72.8768 51.5852 72.6275 51.8346 72.2461 52.0692C71.8941 52.3039 71.6595 52.4946 71.5421 52.6412C71.6595 52.6999 71.7328 52.7292 71.7621 52.7292C71.8208 52.7292 71.8795 52.7146 71.9381 52.6852C72.0261 52.6559 72.0995 52.6559 72.1581 52.6852C71.9528 52.8612 71.8061 52.9932 71.7181 53.0812L72.0261 53.3012C71.8501 53.4186 71.6741 53.4772 71.4981 53.4772C71.2928 53.4772 71.0728 53.4332 70.8381 53.3452C70.6035 53.2572 70.4128 53.1399 70.2661 52.9932C69.4741 52.2012 69.0781 51.2186 69.0781 50.0452C69.0781 49.4879 69.1955 48.5639 69.4301 47.2732C70.1048 43.6066 71.0875 40.5852 72.3781 38.2092C72.6715 37.7106 73.3021 36.7426 74.2701 35.3052C74.4755 34.9826 74.5781 34.6452 74.5781 34.2932C74.5781 34.0292 74.5195 33.7359 74.4021 33.4132C74.3141 33.0612 74.2408 32.7826 74.1821 32.5772C74.1821 32.5186 74.1675 32.4599 74.1381 32.4012C74.1088 32.3132 74.1235 32.2839 74.1821 32.3132C74.4168 32.3719 74.6221 32.4012 74.7981 32.4012L75.8541 32.3572C76.3528 32.3572 76.7195 32.5039 76.9541 32.7972C76.9835 32.8266 77.1888 33.0759 77.5701 33.5452C78.0101 34.0439 78.3621 34.4986 78.6261 34.9092C78.8901 35.2906 79.0955 35.7159 79.2421 36.1852C79.4181 36.8012 79.5795 37.4759 79.7261 38.2092C79.8728 38.9132 79.9608 39.3826 79.9901 39.6172L80.3861 41.5972C80.5035 42.2132 80.8261 43.6066 81.3541 45.7772C81.3248 45.6306 81.4861 46.2466 81.8381 47.6252C82.5421 46.1292 83.1288 44.6186 83.5981 43.0932C84.0675 41.5386 84.5661 39.6906 85.0941 37.5492C85.6515 35.4079 86.1208 33.7212 86.5021 32.4892C86.3261 33.1932 86.1208 34.0439 85.8861 35.0412C85.6515 36.0386 85.4608 36.8306 85.3141 37.4172C84.4341 41.4359 83.5981 44.6332 82.8061 47.0092L82.7181 46.7892C82.3368 47.3759 82.0141 47.8159 81.7501 48.1092C81.4861 48.4026 81.1195 48.6226 80.6501 48.7692H80.5181C80.4301 48.7692 80.2835 48.7252 80.0781 48.6372C79.9021 48.5492 79.7408 48.5639 79.5941 48.6812C79.5941 48.6226 79.5941 48.5492 79.5941 48.4612C79.6235 48.3732 79.6235 48.3146 79.5941 48.2852C79.2421 47.9626 78.9488 47.6106 78.7141 47.2292C78.5088 46.8186 78.2888 46.3199 78.0541 45.7332C78.0248 45.7626 78.0101 45.8212 78.0101 45.9092C78.0101 45.9972 78.0541 46.1292 78.1421 46.3052C78.2301 46.4519 78.2888 46.5986 78.3181 46.7452C78.3475 46.8626 78.3035 46.9799 78.1861 47.0972C78.3035 47.0972 78.3915 47.1412 78.4501 47.2292C78.5381 47.2879 78.6115 47.3759 78.6701 47.4932C78.9341 48.0506 79.2421 48.4466 79.5941 48.6812C79.8875 48.8866 80.2101 48.9892 80.5621 48.9892C80.7675 48.9892 81.0461 48.9306 81.3981 48.8132C81.4568 48.7839 81.5595 48.7252 81.7061 48.6372C81.8821 48.5492 82.0581 48.5052 82.2341 48.5052L80.9141 49.6932C81.1488 49.8106 81.4568 49.7372 81.8381 49.4732C82.2488 49.2092 82.6155 48.8279 82.9381 48.3292C83.2608 47.8306 83.4661 47.3466 83.5541 46.8772C83.4955 46.9066 83.3928 46.9946 83.2461 47.1412C83.1288 47.2879 82.9821 47.3466 82.8061 47.3172C83.2461 46.7599 83.5981 45.9532 83.8621 44.8972C84.0088 44.2812 84.2581 43.3572 84.6101 42.1252C84.6981 41.8026 84.9328 40.8932 85.3141 39.3972C85.7248 37.9012 86.0475 36.4639 86.2821 35.0852C86.3408 34.8799 86.4288 34.5866 86.5461 34.2052C86.6635 33.7946 86.7075 33.4279 86.6781 33.1052C86.6781 33.0172 86.7661 32.9146 86.9421 32.7972C87.1475 32.6506 87.2795 32.5626 87.3381 32.5332C87.4555 32.4746 87.5288 32.4159 87.5581 32.3572C87.5875 32.2692 87.5728 32.1666 87.5141 32.0492C87.5728 32.0492 87.7488 32.0346 88.0421 32.0052C88.3648 31.9759 88.6435 31.8732 88.8781 31.6972C88.9955 31.8146 89.0981 31.8732 89.1861 31.8732C89.2448 31.8732 89.3475 31.8146 89.4941 31.6972C89.6408 31.5506 89.7728 31.5066 89.8901 31.5652ZM88.5261 32.5772C88.5555 32.5186 88.5408 32.3866 88.4821 32.1812C88.4528 32.1519 88.4088 32.1372 88.3501 32.1372C88.2915 32.1372 88.2475 32.1519 88.2181 32.1812C87.4848 32.5332 87.0301 33.0319 86.8541 33.6772L85.9741 38.2532C85.8275 39.1332 85.4755 40.5412 84.9181 42.4772C84.4781 43.7972 84.1408 45.0586 83.9061 46.2612C83.6715 47.2879 83.3488 48.1679 82.9381 48.9012C82.5275 49.6346 81.9115 50.2212 81.0901 50.6612C81.1781 50.6319 81.3541 50.6026 81.6181 50.5732C81.9115 50.5146 82.1608 50.4119 82.3661 50.2652C82.7768 49.9426 83.0995 49.5759 83.3341 49.1652C83.5981 48.7252 83.8621 48.1826 84.1261 47.5372C85.2408 44.9852 86.1795 41.8466 86.9421 38.1212L87.1621 37.0652C87.3968 35.9212 87.5875 35.0412 87.7341 34.4252C87.9101 33.8092 88.1741 33.1932 88.5261 32.5772ZM87.5141 33.4132C87.3675 33.9706 87.1328 35.0412 86.8101 36.6252C86.4581 38.4732 86.1061 40.0719 85.7541 41.4212C85.4315 42.7706 85.0061 44.0759 84.4781 45.3372C84.8888 43.9879 85.4168 41.9346 86.0621 39.1772C86.6488 36.5959 87.1328 34.6746 87.5141 33.4132ZM89.2301 33.9852H89.3621C89.2448 34.5132 89.0835 35.1439 88.8781 35.8772L88.7901 35.8332L89.2301 33.9852ZM74.5341 37.1972C74.6221 37.0506 74.6661 36.9186 74.6661 36.8012C74.6661 36.7132 74.6368 36.5812 74.5781 36.4052C74.1968 36.6986 73.6541 37.5786 72.9501 39.0452C72.2755 40.5119 71.6595 42.0666 71.1021 43.7092C70.5741 45.3226 70.3101 46.4519 70.3101 47.0972C70.3101 47.2439 70.3395 47.3759 70.3981 47.4932L70.1781 47.5812C70.3248 47.7866 70.3835 48.0212 70.3541 48.2852C70.3248 48.5199 70.3101 48.6959 70.3101 48.8132C70.3101 48.9892 70.3248 49.1212 70.3541 49.2092C70.3835 48.7106 70.4861 48.2266 70.6621 47.7572C70.8381 47.2586 70.9408 46.9652 70.9701 46.8772C71.0288 46.7306 71.0875 46.5692 71.1461 46.3932C71.2341 46.1879 71.3075 45.9532 71.3661 45.6892C71.8941 43.6359 72.3635 41.9932 72.7741 40.7612C73.1848 39.5292 73.7715 38.3412 74.5341 37.1972ZM77.1741 42.1252C77.1741 41.8319 77.1595 41.6119 77.1301 41.4652C77.1301 41.3772 77.1155 41.3186 77.0861 41.2892L76.9981 41.3332C77.0568 41.5386 77.1155 41.9052 77.1741 42.4332V42.1252ZM78.5381 45.9092C78.3915 45.4106 78.2301 44.6626 78.0541 43.6652C77.9955 43.4306 77.9075 43.0932 77.7901 42.6532C77.7021 42.1839 77.6141 41.7879 77.5261 41.4652C77.7021 43.3426 78.0395 44.8239 78.5381 45.9092ZM71.2781 41.6852C71.1901 41.8906 71.0875 42.2279 70.9701 42.6972C70.9701 42.7266 70.9995 42.7412 71.0581 42.7412C71.1461 42.5066 71.2488 42.1546 71.3661 41.6852H71.2781ZM79.8581 47.4492C79.5061 46.5106 79.1395 45.1759 78.7581 43.4452L78.3621 41.6852C78.5381 43.0052 78.7141 44.1052 78.8901 44.9852C79.0955 45.8359 79.4181 46.6572 79.8581 47.4492ZM79.2421 43.0932C79.2715 43.0052 79.2861 42.9026 79.2861 42.7852C79.2861 42.6679 79.2128 42.4479 79.0661 42.1252C79.0661 42.5652 79.1248 42.8879 79.2421 43.0932ZM70.3101 45.1172C70.3395 45.1466 70.3835 45.1612 70.4421 45.1612L70.7061 44.0172L70.5741 43.9732L70.3101 45.1172ZM71.1461 49.9572C71.1755 49.8692 71.2195 49.7226 71.2781 49.5172C71.3661 49.3119 71.4101 49.1066 71.4101 48.9012C71.4101 48.7252 71.3955 48.5932 71.3661 48.5052C71.1315 49.0919 71.0581 49.5759 71.1461 49.9572ZM70.0461 52.2012C70.2221 52.3772 70.3981 52.5092 70.5741 52.5972C70.7795 52.6852 71.0435 52.7146 71.3661 52.6852L70.0461 52.2012ZM108.71 31.5652C108.534 31.9172 108.402 32.3426 108.314 32.8412C108.256 33.3106 108.212 33.6186 108.182 33.7652V33.5452C108.182 33.2812 108.094 33.1492 107.918 33.1492C107.83 33.1492 107.713 33.1786 107.566 33.2372C107.42 33.2959 107.302 33.3399 107.214 33.3692L107.61 32.7532C107.258 32.9879 107.038 33.3106 106.95 33.7212C106.598 35.3052 106.349 36.4786 106.202 37.2412C105.528 40.3799 105.132 42.1546 105.014 42.5652C104.662 44.3252 104.076 46.1732 103.254 48.1092C103.196 48.2559 103.078 48.5639 102.902 49.0332C102.726 49.4732 102.506 49.8692 102.242 50.2212C102.213 50.2799 102.198 50.4999 102.198 50.8812L102.814 49.7812C103.166 49.1652 103.416 48.6519 103.562 48.2412C104.824 44.5159 105.704 41.3919 106.202 38.8692L106.554 37.1972C106.789 35.8479 107.009 34.8652 107.214 34.2492C107.244 34.0732 107.288 33.9412 107.346 33.8532C107.405 33.7652 107.537 33.7066 107.742 33.6772L107.522 34.6012C107.405 35.0119 107.258 35.6279 107.082 36.4492C106.73 38.5319 106.026 41.6266 104.97 45.7332C104.853 46.2906 104.648 46.8772 104.354 47.4932C104.296 47.6399 104.208 47.8746 104.09 48.1972C103.973 48.4906 103.885 48.7546 103.826 48.9892C103.68 49.4879 103.445 49.9279 103.122 50.3092C102.8 50.6906 102.389 51.0719 101.89 51.4532C101.597 51.6586 101.186 51.7319 100.658 51.6732L101.406 51.1452C101.113 51.3506 100.761 51.4532 100.35 51.4532C100.028 51.4532 99.5438 51.3652 98.8984 51.1892L99.1624 51.5852C98.7224 51.4386 98.3558 51.2332 98.0624 50.9692C97.7984 50.6759 97.4758 50.2799 97.0944 49.7812C96.4784 48.9599 96.0384 48.1092 95.7744 47.2292C95.5398 46.3492 95.2758 45.1026 94.9824 43.4892C94.8358 42.5506 94.4838 41.0692 93.9264 39.0452C93.1344 41.1279 92.2251 43.9439 91.1984 47.4932L90.1864 50.7932C90.7144 50.7639 91.1398 50.6466 91.4624 50.4412C91.8144 50.2066 92.2691 49.8399 92.8264 49.3412C92.6798 49.4586 92.4744 49.7226 92.2104 50.1332C91.8878 50.6906 91.5504 51.0572 91.1984 51.2332C91.1691 51.2626 91.0811 51.3066 90.9344 51.3652C90.8171 51.4239 90.8024 51.5266 90.8904 51.6732C90.9491 51.7612 91.0078 51.8052 91.0664 51.8052C91.1251 51.8052 91.1984 51.7759 91.2864 51.7172C91.4038 51.6292 91.4771 51.5706 91.5064 51.5412L91.8144 51.3212C91.6971 51.5852 91.4478 51.8346 91.0664 52.0692C90.7144 52.3039 90.4798 52.4946 90.3624 52.6412C90.4798 52.6999 90.5531 52.7292 90.5824 52.7292C90.6411 52.7292 90.6998 52.7146 90.7584 52.6852C90.8464 52.6559 90.9198 52.6559 90.9784 52.6852C90.7731 52.8612 90.6264 52.9932 90.5384 53.0812L90.8464 53.3012C90.6704 53.4186 90.4944 53.4772 90.3184 53.4772C90.1131 53.4772 89.8931 53.4332 89.6584 53.3452C89.4238 53.2572 89.2331 53.1399 89.0864 52.9932C88.2944 52.2012 87.8984 51.2186 87.8984 50.0452C87.8984 49.4879 88.0158 48.5639 88.2504 47.2732C88.9251 43.6066 89.9078 40.5852 91.1984 38.2092C91.4918 37.7106 92.1224 36.7426 93.0904 35.3052C93.2958 34.9826 93.3984 34.6452 93.3984 34.2932C93.3984 34.0292 93.3398 33.7359 93.2224 33.4132C93.1344 33.0612 93.0611 32.7826 93.0024 32.5772C93.0024 32.5186 92.9878 32.4599 92.9584 32.4012C92.9291 32.3132 92.9438 32.2839 93.0024 32.3132C93.2371 32.3719 93.4424 32.4012 93.6184 32.4012L94.6744 32.3572C95.1731 32.3572 95.5398 32.5039 95.7744 32.7972C95.8038 32.8266 96.0091 33.0759 96.3904 33.5452C96.8304 34.0439 97.1824 34.4986 97.4464 34.9092C97.7104 35.2906 97.9158 35.7159 98.0624 36.1852C98.2384 36.8012 98.3998 37.4759 98.5464 38.2092C98.6931 38.9132 98.7811 39.3826 98.8104 39.6172L99.2064 41.5972C99.3238 42.2132 99.6464 43.6066 100.174 45.7772C100.145 45.6306 100.306 46.2466 100.658 47.6252C101.362 46.1292 101.949 44.6186 102.418 43.0932C102.888 41.5386 103.386 39.6906 103.914 37.5492C104.472 35.4079 104.941 33.7212 105.322 32.4892C105.146 33.1932 104.941 34.0439 104.706 35.0412C104.472 36.0386 104.281 36.8306 104.134 37.4172C103.254 41.4359 102.418 44.6332 101.626 47.0092L101.538 46.7892C101.157 47.3759 100.834 47.8159 100.57 48.1092C100.306 48.4026 99.9398 48.6226 99.4704 48.7692H99.3384C99.2504 48.7692 99.1038 48.7252 98.8984 48.6372C98.7224 48.5492 98.5611 48.5639 98.4144 48.6812C98.4144 48.6226 98.4144 48.5492 98.4144 48.4612C98.4438 48.3732 98.4438 48.3146 98.4144 48.2852C98.0624 47.9626 97.7691 47.6106 97.5344 47.2292C97.3291 46.8186 97.1091 46.3199 96.8744 45.7332C96.8451 45.7626 96.8304 45.8212 96.8304 45.9092C96.8304 45.9972 96.8744 46.1292 96.9624 46.3052C97.0504 46.4519 97.1091 46.5986 97.1384 46.7452C97.1678 46.8626 97.1238 46.9799 97.0064 47.0972C97.1238 47.0972 97.2118 47.1412 97.2704 47.2292C97.3584 47.2879 97.4318 47.3759 97.4904 47.4932C97.7544 48.0506 98.0624 48.4466 98.4144 48.6812C98.7078 48.8866 99.0304 48.9892 99.3824 48.9892C99.5878 48.9892 99.8664 48.9306 100.218 48.8132C100.277 48.7839 100.38 48.7252 100.526 48.6372C100.702 48.5492 100.878 48.5052 101.054 48.5052L99.7344 49.6932C99.9691 49.8106 100.277 49.7372 100.658 49.4732C101.069 49.2092 101.436 48.8279 101.758 48.3292C102.081 47.8306 102.286 47.3466 102.374 46.8772C102.316 46.9066 102.213 46.9946 102.066 47.1412C101.949 47.2879 101.802 47.3466 101.626 47.3172C102.066 46.7599 102.418 45.9532 102.682 44.8972C102.829 44.2812 103.078 43.3572 103.43 42.1252C103.518 41.8026 103.753 40.8932 104.134 39.3972C104.545 37.9012 104.868 36.4639 105.102 35.0852C105.161 34.8799 105.249 34.5866 105.366 34.2052C105.484 33.7946 105.528 33.4279 105.498 33.1052C105.498 33.0172 105.586 32.9146 105.762 32.7972C105.968 32.6506 106.1 32.5626 106.158 32.5332C106.276 32.4746 106.349 32.4159 106.378 32.3572C106.408 32.2692 106.393 32.1666 106.334 32.0492C106.393 32.0492 106.569 32.0346 106.862 32.0052C107.185 31.9759 107.464 31.8732 107.698 31.6972C107.816 31.8146 107.918 31.8732 108.006 31.8732C108.065 31.8732 108.168 31.8146 108.314 31.6972C108.461 31.5506 108.593 31.5066 108.71 31.5652ZM107.346 32.5772C107.376 32.5186 107.361 32.3866 107.302 32.1812C107.273 32.1519 107.229 32.1372 107.17 32.1372C107.112 32.1372 107.068 32.1519 107.038 32.1812C106.305 32.5332 105.85 33.0319 105.674 33.6772L104.794 38.2532C104.648 39.1332 104.296 40.5412 103.738 42.4772C103.298 43.7972 102.961 45.0586 102.726 46.2612C102.492 47.2879 102.169 48.1679 101.758 48.9012C101.348 49.6346 100.732 50.2212 99.9104 50.6612C99.9984 50.6319 100.174 50.6026 100.438 50.5732C100.732 50.5146 100.981 50.4119 101.186 50.2652C101.597 49.9426 101.92 49.5759 102.154 49.1652C102.418 48.7252 102.682 48.1826 102.946 47.5372C104.061 44.9852 105 41.8466 105.762 38.1212L105.982 37.0652C106.217 35.9212 106.408 35.0412 106.554 34.4252C106.73 33.8092 106.994 33.1932 107.346 32.5772ZM106.334 33.4132C106.188 33.9706 105.953 35.0412 105.63 36.6252C105.278 38.4732 104.926 40.0719 104.574 41.4212C104.252 42.7706 103.826 44.0759 103.298 45.3372C103.709 43.9879 104.237 41.9346 104.882 39.1772C105.469 36.5959 105.953 34.6746 106.334 33.4132ZM108.05 33.9852H108.182C108.065 34.5132 107.904 35.1439 107.698 35.8772L107.61 35.8332L108.05 33.9852ZM93.3544 37.1972C93.4424 37.0506 93.4864 36.9186 93.4864 36.8012C93.4864 36.7132 93.4571 36.5812 93.3984 36.4052C93.0171 36.6986 92.4744 37.5786 91.7704 39.0452C91.0958 40.5119 90.4798 42.0666 89.9224 43.7092C89.3944 45.3226 89.1304 46.4519 89.1304 47.0972C89.1304 47.2439 89.1598 47.3759 89.2184 47.4932L88.9984 47.5812C89.1451 47.7866 89.2038 48.0212 89.1744 48.2852C89.1451 48.5199 89.1304 48.6959 89.1304 48.8132C89.1304 48.9892 89.1451 49.1212 89.1744 49.2092C89.2038 48.7106 89.3064 48.2266 89.4824 47.7572C89.6584 47.2586 89.7611 46.9652 89.7904 46.8772C89.8491 46.7306 89.9078 46.5692 89.9664 46.3932C90.0544 46.1879 90.1278 45.9532 90.1864 45.6892C90.7144 43.6359 91.1838 41.9932 91.5944 40.7612C92.0051 39.5292 92.5918 38.3412 93.3544 37.1972ZM95.9944 42.1252C95.9944 41.8319 95.9798 41.6119 95.9504 41.4652C95.9504 41.3772 95.9358 41.3186 95.9064 41.2892L95.8184 41.3332C95.8771 41.5386 95.9358 41.9052 95.9944 42.4332V42.1252ZM97.3584 45.9092C97.2118 45.4106 97.0504 44.6626 96.8744 43.6652C96.8158 43.4306 96.7278 43.0932 96.6104 42.6532C96.5224 42.1839 96.4344 41.7879 96.3464 41.4652C96.5224 43.3426 96.8598 44.8239 97.3584 45.9092ZM90.0984 41.6852C90.0104 41.8906 89.9078 42.2279 89.7904 42.6972C89.7904 42.7266 89.8198 42.7412 89.8784 42.7412C89.9664 42.5066 90.0691 42.1546 90.1864 41.6852H90.0984ZM98.6784 47.4492C98.3264 46.5106 97.9598 45.1759 97.5784 43.4452L97.1824 41.6852C97.3584 43.0052 97.5344 44.1052 97.7104 44.9852C97.9158 45.8359 98.2384 46.6572 98.6784 47.4492ZM98.0624 43.0932C98.0918 43.0052 98.1064 42.9026 98.1064 42.7852C98.1064 42.6679 98.0331 42.4479 97.8864 42.1252C97.8864 42.5652 97.9451 42.8879 98.0624 43.0932ZM89.1304 45.1172C89.1598 45.1466 89.2038 45.1612 89.2624 45.1612L89.5264 44.0172L89.3944 43.9732L89.1304 45.1172ZM89.9664 49.9572C89.9958 49.8692 90.0398 49.7226 90.0984 49.5172C90.1864 49.3119 90.2304 49.1066 90.2304 48.9012C90.2304 48.7252 90.2158 48.5932 90.1864 48.5052C89.9518 49.0919 89.8784 49.5759 89.9664 49.9572ZM88.8664 52.2012C89.0424 52.3772 89.2184 52.5092 89.3944 52.5972C89.5998 52.6852 89.8638 52.7146 90.1864 52.6852L88.8664 52.2012ZM123.527 37.1092C123.82 37.1972 124.04 37.3439 124.187 37.5492C124.333 37.7546 124.407 37.9746 124.407 38.2092C124.407 38.3852 124.363 38.5612 124.275 38.7372C124.157 38.9719 124.084 39.2359 124.055 39.5292C124.025 39.7932 124.011 39.9546 124.011 40.0132C124.011 40.4532 123.967 40.7906 123.879 41.0252C123.703 41.5532 123.468 42.3452 123.175 43.4012C122.852 44.5159 122.559 45.4252 122.295 46.1292C121.855 47.1852 121.635 48.0652 121.635 48.7692C121.635 48.9452 121.664 49.2092 121.723 49.5612V49.6932C121.723 49.9572 121.576 50.0599 121.283 50.0012C121.312 50.2652 121.503 50.5439 121.855 50.8372C121.591 50.7786 121.297 50.8372 120.975 51.0132C120.652 51.1892 120.388 51.2772 120.183 51.2772C119.831 51.2186 119.552 51.1159 119.347 50.9692C119.171 50.7932 118.995 50.5879 118.819 50.3532C118.672 50.1186 118.555 49.9426 118.467 49.8252C118.261 49.5612 118.085 49.2239 117.939 48.8132C117.821 48.4026 117.719 48.0946 117.631 47.8892C116.311 49.1506 114.903 50.2359 113.407 51.1452C112.673 51.5852 111.955 51.8052 111.251 51.8052C110.253 51.8052 109.344 51.3506 108.523 50.4412C108.464 50.3826 108.435 50.3092 108.435 50.2212C109.197 50.5146 109.769 50.6612 110.151 50.6612C110.473 50.6612 110.767 50.6026 111.031 50.4852H110.899C110.752 50.4852 110.62 50.4266 110.503 50.3092C110.415 50.4266 110.297 50.4852 110.151 50.4852C110.033 50.4852 109.96 50.4852 109.931 50.4852C109.784 50.4559 109.535 50.4119 109.183 50.3532C108.831 50.2652 108.508 50.1626 108.215 50.0452C107.511 49.4292 107.115 48.5786 107.027 47.4932C107.027 47.3466 106.968 47.1266 106.851 46.8332C106.763 46.5399 106.719 46.3052 106.719 46.1292C106.748 45.3079 106.983 44.2666 107.423 43.0052C108.537 39.9252 110.473 37.1532 113.231 34.6892C113.26 34.6599 113.333 34.6306 113.451 34.6012L113.231 34.8212C113.172 34.8799 113.143 34.9532 113.143 35.0412C113.964 34.3372 114.536 33.7946 114.859 33.4132C115.005 33.2666 115.137 33.1932 115.255 33.1932C115.372 33.1639 115.489 33.2079 115.607 33.3252C115.548 33.5306 115.489 33.6626 115.431 33.7212L112.175 36.7572C112.057 36.8452 111.969 36.8599 111.911 36.8012C111.852 36.7132 111.823 36.6546 111.823 36.6252L112.571 35.9652C112.453 36.0239 112.219 36.1706 111.867 36.4052C111.515 36.6106 111.236 36.8746 111.031 37.1972C111.031 37.1972 111.133 37.1679 111.339 37.1092L110.415 38.2972C110.561 37.9159 110.635 37.7399 110.635 37.7692C110.517 37.9159 110.209 38.3266 109.711 39.0012C109.241 39.6759 108.875 40.3506 108.611 41.0252C108.288 41.4066 108.083 41.8906 107.995 42.4772C108.288 41.8319 108.493 41.3479 108.611 41.0252C108.669 40.9959 108.772 40.9079 108.919 40.7612C108.86 40.8786 108.757 41.0546 108.611 41.2892C108.493 41.5239 108.42 41.7292 108.391 41.9052C108.361 41.9346 108.288 42.0666 108.171 42.3012C108.053 42.5359 108.024 42.7706 108.083 43.0052C107.936 43.0932 107.819 43.2986 107.731 43.6212C107.672 43.9146 107.599 44.1346 107.511 44.2812C107.599 43.8119 107.716 43.3426 107.863 42.8732C107.687 43.0786 107.555 43.3866 107.467 43.7972C107.379 44.1786 107.335 44.5746 107.335 44.9852C107.335 45.4252 107.393 45.7479 107.511 45.9532C107.54 45.8066 107.525 45.6306 107.467 45.4252C107.437 45.2199 107.423 45.0586 107.423 44.9412C107.423 44.7359 107.467 44.5746 107.555 44.4572C107.672 44.5746 107.731 44.7212 107.731 44.8972C107.731 44.9266 107.716 45.0146 107.687 45.1612C107.687 45.2786 107.716 45.3812 107.775 45.4692C108.009 43.3866 108.552 41.6412 109.403 40.2332C109.491 40.1159 109.623 39.9252 109.799 39.6612C110.004 39.3679 110.136 39.0892 110.195 38.8252L109.183 40.3212C109.3 40.1159 109.461 39.7932 109.667 39.3532C109.901 38.9132 110.151 38.5612 110.415 38.2972C110.327 38.4732 110.268 38.6346 110.239 38.7812C110.356 38.6932 110.517 38.4879 110.723 38.1652C110.928 37.8426 111.163 37.6519 111.427 37.5932C111.515 37.5639 111.544 37.5786 111.515 37.6372C111.515 37.6666 111.5 37.6959 111.471 37.7252C111.471 37.8132 111.383 37.8866 111.207 37.9452C111.06 38.0039 110.987 38.0919 110.987 38.2092C110.987 38.2092 111.075 38.1799 111.251 38.1212C110.517 39.1186 109.945 39.9399 109.535 40.5852C109.124 41.1719 108.801 41.8172 108.567 42.5212C108.361 43.2252 108.185 44.0319 108.039 44.9412C108.009 45.4106 108.156 45.9679 108.479 46.6132C108.42 46.3786 108.391 46.0559 108.391 45.6452C108.391 45.2639 108.479 44.6626 108.655 43.8412C108.919 42.7559 109.329 41.7146 109.887 40.7172C110.444 39.7199 111.163 38.6199 112.043 37.4172C112.453 36.8599 113.157 36.1119 114.155 35.1732C114.653 34.7332 115.123 34.2639 115.563 33.7652C115.651 33.6772 115.695 33.6039 115.695 33.5452C115.695 33.4866 115.68 33.4132 115.651 33.3252L117.191 33.9852L119.787 35.1732C119.933 35.2319 120.403 35.4812 121.195 35.9212C121.957 36.3906 122.559 36.7132 122.999 36.8892L123.527 37.1092ZM108.787 45.7332C108.904 46.2906 109.153 46.6426 109.535 46.7892C109.447 46.7306 109.388 46.6719 109.359 46.6132C109.329 46.5252 109.359 46.4372 109.447 46.3492C109.329 46.2612 109.256 46.0706 109.227 45.7772C109.197 45.4546 109.095 45.2492 108.919 45.1612C108.977 45.0732 109.036 45.0586 109.095 45.1172C109.183 45.1466 109.256 45.1612 109.315 45.1612C109.344 44.3399 109.505 43.6066 109.799 42.9612C110.092 42.3159 110.561 41.4066 111.207 40.2332C112.057 38.6786 113.113 37.3146 114.375 36.1412L113.935 36.5372C114.228 36.0386 114.653 35.5399 115.211 35.0412C115.68 34.5719 115.959 34.2639 116.047 34.1172C115.988 34.1172 115.9 34.0879 115.783 34.0292C115.695 33.9706 115.621 33.9999 115.563 34.1172C115.123 34.6452 114.697 35.0999 114.287 35.4812C111.881 37.7986 110.195 40.2332 109.227 42.7852C109.197 42.8732 109.095 43.1519 108.919 43.6212C108.743 44.0612 108.655 44.5012 108.655 44.9412C108.655 45.2052 108.699 45.4692 108.787 45.7332ZM111.823 37.1532C111.823 37.2706 111.749 37.3586 111.603 37.4172C111.485 37.4466 111.427 37.5052 111.427 37.5932C111.251 37.5052 111.221 37.4026 111.339 37.2852C111.456 37.0799 111.617 37.0212 111.823 37.1092V37.1532ZM109.579 44.5012C110.488 41.8612 111.999 39.4119 114.111 37.1532C111.764 39.4119 110.253 41.8612 109.579 44.5012ZM110.987 47.0532C111.661 46.8772 112.497 46.2759 113.495 45.2492C114.521 44.1932 115.489 42.9906 116.399 41.6412C117.308 40.2626 117.953 39.0159 118.335 37.9012C117.308 37.9599 116.472 38.2826 115.827 38.8692C115.181 39.4266 114.419 40.2919 113.539 41.4652C112.365 43.0492 111.515 44.9119 110.987 47.0532ZM118.687 38.7372C118.833 38.6492 118.921 38.5172 118.951 38.3412C118.98 38.1359 119.009 37.9892 119.039 37.9012C118.804 38.0186 118.687 38.1799 118.687 38.3852C118.687 38.5612 118.687 38.6786 118.687 38.7372ZM121.371 41.5972L121.459 41.7292L121.635 41.6412C121.693 41.4066 121.811 41.0399 121.987 40.5412C122.163 40.0132 122.236 39.5146 122.207 39.0452L121.371 41.5972ZM117.411 41.3332C117.704 41.1866 117.88 40.8639 117.939 40.3652C117.88 40.4826 117.704 40.8052 117.411 41.3332ZM122.383 40.5412C121.943 41.2159 121.723 41.9199 121.723 42.6532L122.383 40.5412ZM116.443 42.6532C116.355 43.0346 116.076 43.5332 115.607 44.1492C115.313 44.5599 115.093 44.8972 114.947 45.1612C115.445 44.6332 115.841 44.1346 116.135 43.6652C116.428 43.1666 116.809 42.4332 117.279 41.4652L116.443 42.6532ZM120.755 41.6412C120.696 41.8466 120.549 42.3012 120.315 43.0052C120.08 43.6799 119.963 44.3252 119.963 44.9412C119.963 45.2346 119.977 45.4546 120.007 45.6012C120.036 44.8679 120.153 44.0906 120.359 43.2692C120.564 42.4479 120.696 41.9052 120.755 41.6412ZM121.547 46.8332C121.576 46.0999 121.693 45.3372 121.899 44.5452C122.104 43.7239 122.221 43.2399 122.251 43.0932C122.427 42.5066 122.544 42.0666 122.603 41.7732C121.869 43.7386 121.517 45.4252 121.547 46.8332ZM118.731 41.8172H118.643C118.555 41.9932 118.452 42.2866 118.335 42.6972L118.423 42.7412L118.731 41.8172ZM121.591 41.8612C121.327 41.9492 121.092 42.5212 120.887 43.5772C120.681 44.6039 120.579 45.5866 120.579 46.5252C120.579 47.1706 120.652 47.6692 120.799 48.0212C120.769 47.6986 120.755 47.2439 120.755 46.6572C120.755 44.9559 121.033 43.3572 121.591 41.8612ZM109.799 45.7772C109.799 45.6599 109.857 45.4399 109.975 45.1172C110.092 44.7652 110.136 44.4719 110.107 44.2372C110.312 43.9732 110.488 43.6066 110.635 43.1372C110.781 42.6679 110.943 42.3012 111.119 42.0372C110.532 42.8879 110.195 43.6212 110.107 44.2372C109.843 44.7066 109.74 45.2199 109.799 45.7772ZM116.927 44.3252C117.132 44.0906 117.337 43.7092 117.543 43.1812C117.777 42.6239 117.88 42.2426 117.851 42.0372L117.323 42.9172C117 43.5039 116.619 44.1052 116.179 44.7212C116.12 44.8386 115.988 44.9852 115.783 45.1612C115.607 45.3079 115.489 45.4252 115.431 45.5132C115.343 45.6306 115.181 45.7919 114.947 45.9972C114.712 46.1732 114.609 46.3786 114.639 46.6132C114.316 46.9066 114.111 47.1999 114.023 47.4932C114.081 47.4346 114.184 47.3319 114.331 47.1852C114.507 47.0092 114.609 46.8186 114.639 46.6132C114.785 46.6132 114.888 46.5839 114.947 46.5252L116.927 44.3252ZM119.875 42.5212C119.757 42.6386 119.655 42.8879 119.567 43.2692C119.479 43.6212 119.435 43.9879 119.435 44.3692C119.435 44.6039 119.464 44.8386 119.523 45.0732C119.552 44.6919 119.669 43.8412 119.875 42.5212ZM121.063 46.1732C121.063 45.7626 121.107 45.3372 121.195 44.8972C121.283 44.4572 121.341 44.1639 121.371 44.0172C121.547 43.2546 121.635 42.8439 121.635 42.7852C121.224 43.8706 121.019 44.8092 121.019 45.6012L121.063 46.1732ZM118.379 42.8292H118.291C118.291 43.0932 118.276 43.3132 118.247 43.4892C118.217 43.6652 118.188 43.8119 118.159 43.9292H118.247L118.379 42.8292ZM115.651 43.5772C115.651 43.4892 115.739 43.4012 115.915 43.3132C116.091 43.1959 116.149 43.0492 116.091 42.8732C116.003 43.0199 115.841 43.1666 115.607 43.3132C115.372 43.4306 115.225 43.5626 115.167 43.7092C115.137 43.7679 115.079 43.8412 114.991 43.9292C114.932 44.0172 114.932 44.0906 114.991 44.1492C115.02 44.1786 115.167 44.1052 115.431 43.9292C115.46 43.8999 115.46 43.8559 115.431 43.7972C115.431 43.7092 115.431 43.6506 115.431 43.6212C115.489 43.6212 115.577 43.6506 115.695 43.7092L115.651 43.5772ZM116.619 46.1732C117.264 45.5279 117.543 44.8972 117.455 44.2812C116.457 45.6306 115.548 46.7746 114.727 47.7132C113.935 48.6226 113.04 49.4292 112.043 50.1332C112.248 50.0452 112.571 49.9132 113.011 49.7372C113.48 49.5319 113.832 49.2826 114.067 48.9892C114.477 48.5786 114.859 48.1532 115.211 47.7132C116.179 46.6572 116.648 46.1439 116.619 46.1732ZM113.275 46.3492C114.037 45.5866 114.551 44.9412 114.815 44.4132C114.639 44.6479 114.316 44.9706 113.847 45.3812C113.26 45.9679 112.879 46.4079 112.703 46.7012C112.615 46.7306 112.556 46.8039 112.527 46.9212C112.527 47.0386 112.527 47.1119 112.527 47.1412L113.275 46.3492ZM109.623 44.4572C109.476 44.7799 109.403 45.1172 109.403 45.4692C109.403 45.6159 109.432 45.8946 109.491 46.3052L109.623 44.4572ZM107.863 45.6452C107.804 45.7039 107.775 45.7919 107.775 45.9092C107.775 46.0852 107.848 46.2172 107.995 46.3052C107.995 46.1879 107.98 46.0852 107.951 45.9972C107.921 45.8799 107.892 45.7626 107.863 45.6452ZM119.479 45.6892L119.347 45.7332L119.479 47.1852V45.6892ZM111.735 50.8812C112.263 50.8226 112.981 50.4999 113.891 49.9132C114.829 49.2972 115.636 48.6226 116.311 47.8892C117.015 47.1559 117.367 46.5986 117.367 46.2172C116.897 46.7746 116.252 47.4932 115.431 48.3732C115.636 47.9332 116.003 47.4492 116.531 46.9212C116.912 46.5106 117.191 46.1586 117.367 45.8652C116.193 47.0972 115.357 48.0506 114.859 48.7252C114.125 49.6052 113.084 50.3239 111.735 50.8812ZM119.875 45.9532C119.904 46.1879 119.933 46.5252 119.963 46.9652C120.021 47.4052 120.124 47.8012 120.271 48.1532L120.139 45.9532C120.139 45.9239 120.109 45.9092 120.051 45.9092C120.021 45.8799 120.007 45.8652 120.007 45.8652C119.977 45.8652 119.948 45.8799 119.919 45.9092C119.889 45.9386 119.875 45.9532 119.875 45.9532ZM114.155 46.1292C114.125 46.1879 114.023 46.2612 113.847 46.3492C113.671 46.4372 113.583 46.5546 113.583 46.7012C113.788 46.6426 113.92 46.5399 113.979 46.3932C114.067 46.2466 114.125 46.1586 114.155 46.1292ZM113.539 46.7452C113.304 46.9799 113.099 47.1999 112.923 47.4052C112.776 47.5812 112.629 47.7426 112.483 47.8892C112.541 47.8306 112.703 47.7132 112.967 47.5372C113.26 47.3612 113.451 47.0972 113.539 46.7452ZM116.839 48.0212C116.897 47.9919 117.015 47.9186 117.191 47.8012C117.367 47.6839 117.455 47.4932 117.455 47.2292L116.839 48.0212ZM110.019 48.1972C110.635 48.0506 110.987 47.9626 111.075 47.9332C111.192 47.8746 111.221 47.7866 111.163 47.6692L110.019 48.1972ZM110.327 49.9132C110.796 49.9426 111.397 49.7519 112.131 49.3412C112.864 48.9306 113.348 48.5052 113.583 48.0652C112.527 49.0919 111.441 49.7079 110.327 49.9132ZM125.258 53.0812C124.906 52.1132 124.73 51.0132 124.73 49.7812C124.73 48.6666 124.877 47.4492 125.17 46.1292C125.493 44.7506 125.771 43.6066 126.006 42.6972C126.27 41.7879 126.578 40.8932 126.93 40.0132C127.81 37.9599 128.485 36.4199 128.954 35.3932C128.983 35.3639 129.042 35.2319 129.13 34.9972C129.218 34.7626 129.203 34.5572 129.086 34.3812L128.998 34.0292C128.998 33.8826 129.057 33.7652 129.174 33.6772C129.291 33.5892 129.423 33.5159 129.57 33.4572C129.717 33.3986 129.834 33.3546 129.922 33.3252C131.066 32.8852 132.049 32.5332 132.87 32.2692C133.721 32.0052 134.586 31.8146 135.466 31.6972C135.613 31.6679 135.818 31.6532 136.082 31.6532C137.079 31.6532 138.062 31.9172 139.03 32.4452C140.027 32.9732 140.834 33.6626 141.45 34.5132C142.095 35.3639 142.418 36.2439 142.418 37.1532C142.418 37.7986 142.271 38.3999 141.978 38.9572C141.685 39.5146 141.259 40.1159 140.702 40.7612C139.47 42.1692 138.37 43.1959 137.402 43.8412C137.167 43.9879 136.786 44.1786 136.258 44.4132L135.114 45.0292L134.674 45.2492C135.319 45.5132 136.009 45.8359 136.742 46.2172C137.505 46.5692 138.018 46.8039 138.282 46.9212C139.866 47.7132 141.201 48.3292 142.286 48.7692C143.371 49.1799 144.486 49.4586 145.63 49.6052C145.307 49.7226 144.897 49.7812 144.398 49.7812C143.899 49.7812 143.386 49.7372 142.858 49.6492C141.831 49.4146 140.834 49.1212 139.866 48.7692C138.927 48.3879 137.695 47.8599 136.17 47.1852L134.454 46.4372C133.222 45.9092 132.283 45.5279 131.638 45.2932C132.547 45.6452 134.087 46.3492 136.258 47.4052C137.959 48.2559 139.382 48.9306 140.526 49.4292C141.699 49.8986 142.917 50.2652 144.178 50.5292C143.973 50.4999 143.679 50.4706 143.298 50.4412C142.946 50.4119 142.638 50.3532 142.374 50.2652C140.966 49.8839 139.617 49.4439 138.326 48.9452C137.065 48.4172 135.29 47.6692 133.002 46.7012C132.621 46.5252 132.049 46.2906 131.286 45.9972C130.934 45.8799 130.406 45.6746 129.702 45.3812L129.526 45.3372C129.438 45.3372 129.394 45.3959 129.394 45.5132C129.394 45.6306 129.379 45.7186 129.35 45.7772C129.409 45.7772 129.497 45.8652 129.614 46.0412C129.731 46.2172 129.893 46.2906 130.098 46.2612H130.23C130.406 46.2612 130.582 46.3199 130.758 46.4372C130.963 46.5252 131.11 46.5839 131.198 46.6132L136.522 48.8572L136.61 48.9892L136.566 49.1212L130.538 46.5692C130.714 46.6572 131.007 46.8186 131.418 47.0532C131.858 47.2879 132.239 47.5372 132.562 47.8012C132.914 48.0652 133.222 48.3732 133.486 48.7252L133.442 48.0212C134.85 49.1066 136.551 49.9426 138.546 50.5292C138.253 50.4706 137.71 50.3679 136.918 50.2212C136.097 50.0746 135.466 49.9572 135.026 49.8692C134.586 49.7812 134.161 49.6052 133.75 49.3412L132.782 48.7692C131.257 47.8892 130.113 47.1119 129.35 46.4372C129.291 46.9066 129.174 47.3612 128.998 47.8012C128.822 48.2119 128.573 48.7252 128.25 49.3412C127.898 50.0452 127.634 50.6466 127.458 51.1452C127.282 51.6146 127.194 52.1132 127.194 52.6412L127.238 53.1692C127.15 53.1106 127.091 52.9786 127.062 52.7732C127.033 52.5679 126.989 52.4212 126.93 52.3332L126.71 53.4772L126.534 52.9932C126.475 53.3159 126.27 53.7999 125.918 54.4452L125.258 53.0812ZM134.366 32.4452C134.219 32.3279 134.058 32.2692 133.882 32.2692C133.706 32.2692 133.471 32.3719 133.178 32.5772L134.366 32.4452ZM131.682 33.3252C133.149 33.0612 134.043 32.8999 134.366 32.8412C133.779 32.8412 133.281 32.8706 132.87 32.9292C132.489 32.9879 132.093 33.1199 131.682 33.3252ZM129.966 33.4572C130.054 33.4279 130.245 33.3986 130.538 33.3692C130.831 33.3106 131.11 33.1639 131.374 32.9292L129.966 33.4572ZM131.286 34.0292C131.667 33.8239 132.122 33.6772 132.65 33.5892C133.207 33.4719 133.618 33.3839 133.882 33.3252C134.234 33.2666 134.513 33.2372 134.718 33.2372C135.041 33.2372 135.319 33.2519 135.554 33.2812C135.818 33.3106 136.038 33.3399 136.214 33.3692C135.627 33.1932 135.041 33.1052 134.454 33.1052C133.545 33.1052 132.459 33.3399 131.198 33.8092C131.169 33.8092 131.154 33.8679 131.154 33.9852L131.286 34.0292ZM130.934 34.8212C132.254 34.1466 133.589 33.7946 134.938 33.7652C134.293 33.7066 133.545 33.7946 132.694 34.0292C131.843 34.2346 131.257 34.4986 130.934 34.8212ZM130.934 34.1172L130.89 33.9412C130.245 34.1466 129.819 34.2639 129.614 34.2932C129.614 34.3519 129.629 34.3959 129.658 34.4252L130.934 34.1172ZM132.386 34.7332C132.855 34.6746 133.178 34.6159 133.354 34.5572C133.53 34.5279 133.809 34.4839 134.19 34.4252C134.601 34.3666 134.953 34.3372 135.246 34.3372L135.774 34.3812C135.393 34.2932 134.982 34.2492 134.542 34.2492C133.75 34.2492 133.031 34.4106 132.386 34.7332ZM131.77 35.0412L131.726 34.8652C131.491 34.9826 130.905 35.2172 129.966 35.5692C129.966 35.5692 129.995 35.5986 130.054 35.6572L131.77 35.0412ZM131.902 35.6572C133.134 35.2466 134.205 35.0412 135.114 35.0412C135.583 35.0412 136.038 35.0852 136.478 35.1732C135.891 34.9972 135.349 34.9092 134.85 34.9092C133.97 34.9092 132.987 35.1586 131.902 35.6572ZM130.978 42.2132C131.183 42.0959 131.491 41.9492 131.902 41.7732C132.313 41.6266 132.738 41.4212 133.178 41.1572C134.293 40.5119 135.202 39.9106 135.906 39.3532C136.639 38.7666 137.241 38.0626 137.71 37.2412C137.739 37.2119 137.783 37.1532 137.842 37.0652C137.901 36.9772 137.915 36.9039 137.886 36.8452C137.857 36.7866 137.769 36.7572 137.622 36.7572L136.566 36.7132C135.275 36.7132 134.146 36.9186 133.178 37.3292C132.855 37.4172 132.679 37.5639 132.65 37.7692C132.562 38.2092 132.415 38.6786 132.21 39.1772C132.005 39.6466 131.873 39.9692 131.814 40.1452C131.521 40.7612 131.242 41.4506 130.978 42.2132ZM134.058 44.8092C134.293 44.9559 134.909 44.8092 135.906 44.3692C136.903 43.8999 137.593 43.4599 137.974 43.0492L137.446 43.3132C138.649 42.4626 139.573 41.5386 140.218 40.5412C140.042 40.6879 139.778 40.9372 139.426 41.2892C139.103 41.6119 138.781 41.8906 138.458 42.1252C138.341 42.2132 138.047 42.4332 137.578 42.7852C137.138 43.1372 136.669 43.4012 136.17 43.5772L136.39 43.4012C138.883 41.9639 140.526 40.2186 141.318 38.1652L141.582 37.4612C140.203 40.1012 138.179 41.9639 135.51 43.0492C135.627 42.9906 135.95 42.8146 136.478 42.5212C137.006 42.1986 137.475 41.8906 137.886 41.5972C138.297 41.2746 138.663 40.9519 138.986 40.6292C140.101 39.5146 140.79 38.3119 141.054 37.0212C140.321 38.7812 139.25 40.1892 137.842 41.2452C136.434 42.2719 134.601 43.2692 132.342 44.2372L132.826 44.3692C132.855 44.3986 132.899 44.4279 132.958 44.4572C133.046 44.4866 133.119 44.4866 133.178 44.4572C134.791 43.8999 136.507 42.9612 138.326 41.6412L139.47 40.7172L140.35 39.6172C140.027 40.2039 139.617 40.7172 139.118 41.1572C138.619 41.5972 138.003 42.0666 137.27 42.5652C136.067 43.3572 134.821 44.0466 133.53 44.6332C133.823 44.6626 134.087 44.6332 134.322 44.5452C134.557 44.4279 134.835 44.2666 135.158 44.0612C135.627 43.7972 135.965 43.6359 136.17 43.5772C136.082 43.6652 135.657 43.9292 134.894 44.3692C134.425 44.6039 134.146 44.7506 134.058 44.8092ZM131.11 42.9172C131.579 43.0346 132.415 42.7559 133.618 42.0812C134.85 41.4066 136.023 40.5999 137.138 39.6612C138.253 38.6932 138.927 37.9159 139.162 37.3292C138.282 38.6199 137.197 39.6759 135.906 40.4972C134.645 41.2892 133.046 42.0959 131.11 42.9172ZM125.346 50.6612C125.493 48.7252 125.801 46.8772 126.27 45.1172C126.769 43.3572 127.473 41.1572 128.382 38.5172C128.059 38.7226 127.649 39.6319 127.15 41.2452C126.651 42.8292 126.211 44.5599 125.83 46.4372C125.478 48.3146 125.317 49.7226 125.346 50.6612ZM135.554 40.2772C136.082 40.0719 136.639 39.6759 137.226 39.0892L135.554 40.2772ZM131.242 43.5772C132.709 43.0492 134.029 42.4479 135.202 41.7732C136.405 41.0986 137.461 40.2919 138.37 39.3532C137.314 40.2626 136.141 41.0546 134.85 41.7292C133.589 42.4039 132.166 43.0199 130.582 43.5772C130.758 43.6359 130.919 43.6652 131.066 43.6652C131.741 43.6652 132.694 43.4012 133.926 42.8732C135.158 42.3159 136.273 41.6852 137.27 40.9812C138.297 40.2479 138.869 39.6466 138.986 39.1772C138.047 40.2039 136.815 41.1279 135.29 41.9492C133.794 42.7412 132.445 43.2839 131.242 43.5772ZM131.726 43.9732C132.107 44.0612 132.841 43.8412 133.926 43.3132C135.011 42.7852 136.067 42.1839 137.094 41.5092C138.121 40.8052 138.707 40.2772 138.854 39.9252C136.742 41.7732 134.366 43.1226 131.726 43.9732ZM132.87 41.9052L132.826 41.7732L130.758 42.6532L130.802 42.7412L132.87 41.9052ZM131.242 45.0732L130.054 44.6332C130.054 44.6919 130.039 44.7359 130.01 44.7652C130.186 44.8532 130.597 44.9999 131.242 45.2052V45.0732ZM127.282 45.9092C127.223 45.8506 127.194 45.8212 127.194 45.8212L126.842 47.1412C126.842 47.1706 126.871 47.1852 126.93 47.1852L127.282 45.9092ZM131.242 46.3492C131.271 46.3199 131.286 46.2759 131.286 46.2172L135.598 48.1092L135.554 48.2412L131.242 46.3492ZM126.666 49.7812C126.725 48.9599 126.783 48.3292 126.842 47.8892C126.695 48.3586 126.607 48.8866 126.578 49.4732C126.549 50.0599 126.534 50.6319 126.534 51.1892L126.666 49.7812ZM127.238 51.1892C127.414 50.8079 127.531 50.1919 127.59 49.3412C127.59 48.9012 127.634 48.4906 127.722 48.1092V48.0652C127.429 49.1799 127.267 50.2212 127.238 51.1892ZM136.874 49.1652C136.874 49.1066 136.889 49.0626 136.918 49.0332L137.798 49.4292V49.5172L136.874 49.1652ZM125.962 54.0052C125.903 53.8879 125.845 53.7412 125.786 53.5652C125.757 53.3892 125.698 53.2132 125.61 53.0372C125.551 53.0372 125.507 53.0519 125.478 53.0812C125.625 53.3452 125.742 53.6532 125.83 54.0052H125.962Z" fill="#246132"/>
<defs>
<linearGradient id="paint0_linear_3884_647" x1="0" y1="15.2393" x2="98" y2="15.2393" gradientUnits="userSpaceOnUse">
<stop stop-color="#00AA0E"/>
<stop offset="1" stop-color="#B4FF4A"/>
</linearGradient>
</defs>
</svg>
