<svg width="18" height="19" viewBox="0 0 18 19" fill="none" xmlns="http://www.w3.org/2000/svg">
<path d="M3 15.5596C2.5875 15.5596 2.23438 15.4127 1.94063 15.1189C1.64688 14.8252 1.5 14.4721 1.5 14.0596V5.05957C1.5 4.64707 1.64688 4.29395 1.94063 4.0002C2.23438 3.70645 2.5875 3.55957 3 3.55957H15C15.4125 3.55957 15.7656 3.70645 16.0594 4.0002C16.3531 4.29395 16.5 4.64707 16.5 5.05957V14.0596C16.5 14.4721 16.3531 14.8252 16.0594 15.1189C15.7656 15.4127 15.4125 15.5596 15 15.5596H3ZM9 10.3096L3 6.55957V14.0596H15V6.55957L9 10.3096ZM9 8.80957L15 5.05957H3L9 8.80957ZM3 6.55957V5.05957V14.0596V6.55957Z" fill="url(#paint0_linear_4716_1485)"/>
<defs>
<linearGradient id="paint0_linear_4716_1485" x1="1.5" y1="9.55957" x2="16.5" y2="9.55957" gradientUnits="userSpaceOnUse">
<stop stop-color="#216432"/>
<stop offset="0.894231" stop-color="#114422"/>
</linearGradient>
</defs>
</svg>
