<svg width="24" height="24" viewBox="0 0 24 24" fill="none" xmlns="http://www.w3.org/2000/svg">
<path d="M2.17188 23.25H21.8256C22.3206 23.25 22.3206 22.5 21.8256 22.5H19.2906V19.9275C20.1569 19.9275 21.1994 20.07 21.8331 18.975C22.1781 18.3787 22.1781 17.6663 21.8331 17.07C20.7719 15.2325 20.6294 15.0675 20.7869 15.0675C21.7694 15.0675 22.3844 14.0025 21.8931 13.1512L20.5544 10.8337C20.5281 10.7925 20.5581 10.74 20.6106 10.74C21.2369 10.74 21.6269 10.0612 21.3156 9.52125L19.2194 5.89125C18.5594 4.7475 16.9806 4.61625 16.1369 5.595L14.0069 1.90875C13.1144 0.36375 10.8869 0.36375 9.99062 1.90875L7.86062 5.595C7.01687 4.61625 5.43812 4.74375 4.77812 5.89125L2.68187 9.52125C2.37062 10.065 2.76062 10.74 3.38687 10.74C3.55187 10.74 3.40937 10.8938 2.10437 13.1512C1.61312 14.0025 2.22812 15.0675 3.21062 15.0675C3.38312 15.0675 3.18438 15.3038 2.16438 17.07C1.81938 17.6663 1.81938 18.3787 2.16438 18.975C2.80187 20.0775 3.86313 19.9275 4.70688 19.9275V22.5H2.17188C1.96562 22.5 1.79688 22.6688 1.79688 22.875C1.79688 23.0812 1.96562 23.25 2.17188 23.25ZM10.0956 19.605H10.2756V22.5H8.14563V19.9275C9.03813 19.9275 9.50688 20.0025 10.0956 19.605ZM11.0294 22.5V19.605H12.9681V22.5H11.0294ZM13.8981 19.605C14.4831 19.995 14.9406 19.9275 15.8481 19.9275V22.5H13.7181V19.605H13.8981ZM18.5369 22.5H16.5981V19.9275H18.5369V22.5ZM18.5669 6.26625C20.7831 10.1025 20.7681 9.99 20.6069 9.99C19.9806 9.99 19.5906 10.6687 19.9019 11.2087L21.2406 13.5262C21.3344 13.6912 21.3344 13.89 21.2406 14.055C20.9669 14.5275 20.4456 14.0925 20.0781 14.7262C19.9319 14.9812 19.9319 15.285 20.0781 15.54L21.1769 17.445C21.6231 18.2138 21.0644 19.1775 20.1756 19.1775H14.9519C14.0631 19.1775 13.5081 18.2138 13.9506 17.445L15.0494 15.54C15.3606 14.9962 14.9706 14.3212 14.3444 14.3212C13.9394 14.3212 13.6844 13.8825 13.8869 13.53L15.2256 11.2125C15.5369 10.6687 15.1469 9.99375 14.5206 9.99375C14.3594 9.99375 14.3481 10.1025 16.5606 6.27C17.0031 5.50125 18.1169 5.4975 18.5594 6.27L18.5669 6.26625ZM10.6394 2.28375C11.2431 1.2375 12.7506 1.2375 13.3581 2.28375L15.6831 6.30375L13.8269 9.5175C13.5156 10.0612 13.9056 10.7362 14.5319 10.7362C14.5806 10.7362 14.6106 10.7887 14.5881 10.83L13.2494 13.1475C12.7581 13.9988 13.3731 15.0637 14.3556 15.0637C14.5281 15.0637 14.3294 15.3 13.3094 17.0662C12.9869 17.625 12.9719 18.2812 13.2494 18.8512H10.7481C11.0256 18.2812 11.0106 17.625 10.6881 17.0662C9.62687 15.2287 9.48437 15.0637 9.64187 15.0637C10.6244 15.0637 11.2394 13.9988 10.7481 13.1475L9.40937 10.83C9.38312 10.7887 9.41313 10.7362 9.46563 10.7362C10.0919 10.7362 10.4819 10.0575 10.1706 9.5175L8.31438 6.30375L10.6356 2.28375H10.6394ZM2.81313 17.445L3.91187 15.54C4.22312 14.9962 3.83313 14.3212 3.20688 14.3212C2.80188 14.3212 2.54688 13.8825 2.74937 13.53L4.08812 11.2125C4.39937 10.6687 4.00937 9.99375 3.38312 9.99375C3.22187 9.99375 3.20688 10.1062 5.42313 6.27C5.86938 5.50125 6.97937 5.50125 7.42187 6.27C9.63812 10.11 9.62312 9.99375 9.46187 9.99375C8.83562 9.99375 8.44563 10.6725 8.75688 11.2125L10.0956 13.53C10.1894 13.695 10.1894 13.8938 10.0956 14.0588C9.82188 14.5313 9.30062 14.0962 8.93312 14.73C8.78687 14.985 8.78687 15.2888 8.93312 15.5438L10.0319 17.4487C10.4781 18.2175 9.91938 19.1813 9.03063 19.1813H3.80687C2.91812 19.1813 2.36312 18.2175 2.80562 17.4487L2.81313 17.445ZM5.45688 19.9275H7.39562V22.5H5.45688V19.9275Z" fill="url(#paint0_linear_5243_3822)"/>
<defs>
<linearGradient id="paint0_linear_5243_3822" x1="1.79688" y1="12" x2="22.1969" y2="12" gradientUnits="userSpaceOnUse">
<stop stop-color="#216432"/>
<stop offset="0.894231" stop-color="#114422"/>
</linearGradient>
</defs>
</svg>
