<svg width="24" height="24" viewBox="0 0 24 24" fill="none" xmlns="http://www.w3.org/2000/svg">
<path d="M7 18C7.55228 18 8 17.5523 8 17C8 16.4477 7.55228 16 7 16C6.44772 16 6 16.4477 6 17C6 17.5523 6.44772 18 7 18Z" fill="#AF4300"/>
<path d="M9 22C9.55228 22 10 21.5523 10 21C10 20.4477 9.55228 20 9 20C8.44772 20 8 20.4477 8 21C8 21.5523 8.44772 22 9 22Z" fill="#AF4300"/>
<path d="M12.5 19C13.3284 19 14 18.3284 14 17.5C14 16.6716 13.3284 16 12.5 16C11.6716 16 11 16.6716 11 17.5C11 18.3284 11.6716 19 12.5 19Z" fill="#AF4300"/>
<path d="M17 20C17.5523 20 18 19.5523 18 19C18 18.4477 17.5523 18 17 18C16.4477 18 16 18.4477 16 19C16 19.5523 16.4477 20 17 20Z" fill="#AF4300"/>
<path d="M21 10.8571C21 9 20 7 17 7C16.5 4 14.4375 3 12 3C9.63367 3 8 4 7 6C4.10689 5.82172 3 8 3 10.0714C3 12 4.5 14 7.5 14H17.4C19.5 14 21 13 21 10.8571Z" stroke="#AF4300" stroke-width="2" stroke-linecap="round" stroke-linejoin="round"/>
</svg>
