<svg width="24" height="24" viewBox="0 0 24 24" fill="none" xmlns="http://www.w3.org/2000/svg">
<path d="M6 15.0159C4.15875 15.6437 3 16.556 3 17.5714C3 19.465 7.02944 21 12 21C16.9706 21 21 19.465 21 17.5714C21 16.5474 19.8215 15.6282 17.9531 15" stroke="#AF4300" stroke-width="2" stroke-linecap="round" stroke-linejoin="round"/>
<path d="M12 17V8" stroke="#AF4300" stroke-width="2" stroke-linecap="round" stroke-linejoin="round"/>
<path d="M12 4V3C11.4477 3 11 3.44772 11 4H12ZM18 4L18.7071 4.70711C18.9931 4.42111 19.0787 3.99099 18.9239 3.61732C18.7691 3.24364 18.4045 3 18 3V4ZM18 8V9C18.4045 9 18.7691 8.75636 18.9239 8.38268C19.0787 8.00901 18.9931 7.57889 18.7071 7.29289L18 8ZM12 8H11C11 8.55228 11.4477 9 12 9V8ZM16 6L15.2929 5.29289L14.5858 6L15.2929 6.70711L16 6ZM12 5H18V3H12V5ZM18 7H12V9H18V7ZM13 8V4H11V8H13ZM17.2929 3.29289L15.2929 5.29289L16.7071 6.70711L18.7071 4.70711L17.2929 3.29289ZM15.2929 6.70711L17.2929 8.70711L18.7071 7.29289L16.7071 5.29289L15.2929 6.70711Z" fill="#AF4300"/>
</svg>
