<svg width="500" height="500" viewBox="0 0 500 500" fill="none" xmlns="http://www.w3.org/2000/svg">
<path d="M429.84 253.51C426.45 226.51 417.97 200.44 407.84 181.75C383.37 136.84 315.2 106.8 263.84 114.57C220.03 121.19 198.98 161.16 159.48 175.03C123.14 187.79 90.4196 197.64 73.2896 231.31C36.9996 302.43 125.71 380.18 201.74 374.12C225.74 372.2 247.18 362.97 271.81 367.3C321.81 376.09 338.41 385.54 382.57 367.96C426.08 350.63 435.77 300.74 429.84 253.51Z" fill="#8ABD97"/>
<path opacity="0.8" d="M429.84 253.51C426.45 226.51 417.97 200.44 407.84 181.75C383.37 136.84 315.2 106.8 263.84 114.57C220.03 121.19 198.98 161.16 159.48 175.03C123.14 187.79 90.4196 197.64 73.2896 231.31C36.9996 302.43 125.71 380.18 201.74 374.12C225.74 372.2 247.18 362.97 271.81 367.3C321.81 376.09 338.41 385.54 382.57 367.96C426.08 350.63 435.77 300.74 429.84 253.51Z" fill="white"/>
<path d="M254.908 389.43L212.258 293.93H315.608L443.058 378" fill="white"/>
<path d="M254.908 389.43L212.258 293.93H315.608L443.058 378" stroke="#263238" stroke-width="0.75" stroke-linecap="round" stroke-linejoin="round"/>
<path d="M244.328 385.67L212.258 300.3V293.93L257.628 393.88L244.328 385.67Z" fill="#263238" stroke="#263238" stroke-width="0.75" stroke-linecap="round" stroke-linejoin="round"/>
<path d="M271.345 297.88L315.305 349.41L261.945 361.84L231.625 304.24L271.345 297.88Z" fill="white" stroke="#263238" stroke-width="0.75" stroke-linecap="round" stroke-linejoin="round"/>
<path d="M261.945 361.84V363.36L314.395 352.75L315.305 349.41L261.945 361.84Z" fill="#263238" stroke="#263238" stroke-width="0.75" stroke-linecap="round" stroke-linejoin="round"/>
<path d="M269.688 316.42L271.938 319.74L277.658 318.19L275.277 314.95L269.688 316.42Z" fill="#263238"/>
<path d="M291.337 336.73L288.617 333.05L282.117 334.8L284.657 338.56L291.337 336.73Z" fill="#263238"/>
<path d="M265.016 309.5L266.686 311.98L272.066 310.61L270.376 308.31L265.016 309.5Z" fill="#263238"/>
<path d="M275.375 324.83L278.455 329.39L284.745 327.8L281.345 323.19L275.375 324.83Z" fill="#263238"/>
<path d="M291.671 326.97L286.281 328.34L288.981 332L294.471 330.52L291.671 326.97Z" fill="#263238"/>
<path d="M279.008 330.19L281.578 334.01L288.038 332.26L285.328 328.58L279.008 330.19Z" fill="#263238"/>
<path d="M258.93 310.85L260.59 313.53L265.75 312.21L264.06 309.71L258.93 310.85Z" fill="#263238"/>
<path d="M272.469 320.53L274.849 324.04L280.769 322.4L278.239 318.97L272.469 320.53Z" fill="#263238"/>
<path d="M267.227 312.77L269.147 315.62L274.687 314.16L272.647 311.39L267.227 312.77Z" fill="#263238"/>
<path d="M255.591 319.2L253.911 316.17L247.781 317.73L249.491 320.81L255.591 319.2Z" fill="#263238"/>
<path d="M246.778 326.53L250.988 325.4L249.038 321.88L244.898 322.97L246.778 326.53Z" fill="#263238"/>
<path d="M257.109 307.91L258.419 310.03L263.509 308.9L262.139 306.88L257.109 307.91Z" fill="#263238"/>
<path d="M253.452 315.34L251.832 312.42L245.602 313.79L247.322 316.9L253.452 315.34Z" fill="#263238"/>
<path d="M251.055 309.14L252.295 311.38L257.475 310.24L256.145 308.1L251.055 309.14Z" fill="#263238"/>
<path d="M242.347 318.17L246.407 317.13L244.667 314L240.617 314.89L242.347 318.17Z" fill="#263238"/>
<path d="M243.836 310.62L245.136 312.96L251.366 311.59L250.116 309.33L243.836 310.62Z" fill="#263238"/>
<path d="M263.406 318.08L265.506 321.47L271.006 319.99L268.756 316.67L263.406 318.08Z" fill="#263238"/>
<path d="M277.527 329.63L274.457 325.09L268.727 326.67L271.507 331.16L277.527 329.63Z" fill="#263238"/>
<path d="M252.758 312.21L254.358 315.11L259.658 313.76L257.988 311.06L252.758 312.21Z" fill="#263238"/>
<path d="M253.961 330.74L249.641 331.93L251.881 336.16L256.331 335.03L253.961 330.74Z" fill="#263238"/>
<path d="M266.008 322.28L268.228 325.86L273.918 324.3L271.548 320.78L266.008 322.28Z" fill="#263238"/>
<path d="M261.99 317.52L260.16 314.57L254.82 315.93L256.5 318.97L261.99 317.52Z" fill="#263238"/>
<path d="M272.016 348.87L265.906 350.43L268.086 354.36L274.216 352.85L272.016 348.87Z" fill="#263238"/>
<path d="M262.558 305.87L267.788 304.8L264.978 300.98L259.828 301.83L262.558 305.87Z" fill="#263238"/>
<path d="M249.659 308.5L247.129 303.93L240.719 304.99L243.379 309.79L249.659 308.5Z" fill="#263238"/>
<path d="M257.975 323.51L256.045 320.02L249.945 321.63L251.895 325.15L257.975 323.51Z" fill="#263238"/>
<path d="M273.547 336.18L271.087 332.21L264.727 333.83L267.007 337.95L273.547 336.18Z" fill="#263238"/>
<path d="M270.59 331.4L267.81 326.92L261.82 328.57L264.27 333L270.59 331.4Z" fill="#263238"/>
<path d="M280.648 334.26L278.068 330.43L272.008 331.97L274.468 335.93L280.648 334.26Z" fill="#263238"/>
<path d="M264.585 321.72L262.485 318.32L256.945 319.79L258.875 323.26L264.585 321.72Z" fill="#263238"/>
<path d="M261.086 314.34L262.906 317.27L268.216 315.87L266.286 313.01L261.086 314.34Z" fill="#263238"/>
<path d="M267.308 326.12L265.088 322.53L259.328 324.08L261.368 327.76L267.308 326.12Z" fill="#263238"/>
<path d="M283.739 338.82L281.189 335.06L274.969 336.74L277.339 340.57L283.739 338.82Z" fill="#263238"/>
<path d="M279.628 345.99L276.918 341.62L270.078 343.5L272.478 347.81L279.628 345.99Z" fill="#263238"/>
<path d="M259.13 340.08L256.79 335.85L252.32 336.99L254.6 341.31L259.13 340.08Z" fill="#263238"/>
<path d="M251.449 326.22L247.219 327.36L249.209 331.11L253.499 329.93L251.449 326.22Z" fill="#263238"/>
<path d="M271.557 348.05L269.177 343.74L263.117 345.4L265.447 349.6L271.557 348.05Z" fill="#263238"/>
<path d="M260.462 328L258.432 324.33L252.352 325.97L254.412 329.68L260.462 328Z" fill="#263238"/>
<path d="M263.109 306.68L264.469 308.69L269.789 307.51L268.379 305.6L263.109 306.68Z" fill="#263238"/>
<path d="M240.181 314.06L244.211 313.17L242.911 310.81L238.891 311.63L240.181 314.06Z" fill="#263238"/>
<path d="M256.587 307.08L261.587 306.06L258.837 301.99L253.938 302.8L256.587 307.08Z" fill="#263238"/>
<path d="M250.598 308.31L255.648 307.28L252.968 302.96L248.078 303.77L250.598 308.31Z" fill="#263238"/>
<path d="M248.589 321.06L246.869 317.96L242.789 319L244.459 322.14L248.589 321.06Z" fill="#263238"/>
<path d="M268.767 304.6L273.287 303.67L270.447 300.08L265.977 300.81L268.767 304.6Z" fill="#263238"/>
<path d="M242.437 309.98L239.757 305.14L235.797 305.8L238.447 310.79L242.437 309.98Z" fill="#263238"/>
<path d="M264.995 350.66L260.195 351.88L262.275 355.8L267.175 354.59L264.995 350.66Z" fill="#263238"/>
<path d="M287.807 344.84L281.047 346.56L283.517 350.55L290.497 348.82L287.807 344.84Z" fill="#263238"/>
<path d="M280.13 346.8L272.93 348.63L275.14 352.62L282.59 350.78L280.13 346.8Z" fill="#263238"/>
<path d="M295.81 342.8L288.75 344.6L291.44 348.59L298.75 346.78L295.81 342.8Z" fill="#263238"/>
<path d="M302.758 341.03L296.758 342.56L299.708 346.55L305.908 345.01L302.758 341.03Z" fill="#263238"/>
<path d="M262.22 345.65L257.57 346.92L259.76 351.06L264.54 349.84L262.22 345.65Z" fill="#263238"/>
<path d="M276.419 340.82L274.049 336.99L267.469 338.77L269.629 342.68L276.419 340.82Z" fill="#263238"/>
<path d="M287.266 344.04L284.266 339.61L277.836 341.37L280.546 345.75L287.266 344.04Z" fill="#263238"/>
<path d="M268.724 342.92L266.554 339.01L260.484 340.66L262.664 344.58L268.724 342.92Z" fill="#263238"/>
<path d="M257.139 346.1L261.769 344.83L259.589 340.9L255.039 342.13L257.139 346.1Z" fill="#263238"/>
<path d="M263.359 333.24L260.919 328.82L254.859 330.49L257.239 334.79L263.359 333.24Z" fill="#263238"/>
<path d="M295.225 342.01L291.915 337.52L285.195 339.36L288.205 343.8L295.225 342.01Z" fill="#263238"/>
<path d="M266.105 338.19L263.815 334.06L257.695 335.62L260.035 339.84L266.105 338.19Z" fill="#263238"/>
<path d="M282.289 322.93L285.699 327.55L291.049 326.19L287.369 321.53L282.289 322.93Z" fill="#263238"/>
<path d="M275.639 313.91L280.379 312.66L278.249 309.97L273.609 311.15L275.639 313.91Z" fill="#263238"/>
<path d="M271.359 308.1L273.019 310.36L277.639 309.19L275.969 307.08L271.359 308.1Z" fill="#263238"/>
<path d="M302.139 340.25L298.559 335.7L292.859 337.26L296.179 341.77L302.139 340.25Z" fill="#263238"/>
<path d="M276.219 314.7L278.609 317.93L283.489 316.61L280.989 313.44L276.219 314.7Z" fill="#263238"/>
<path d="M289.555 332.79L292.275 336.48L297.945 334.93L295.075 331.3L289.555 332.79Z" fill="#263238"/>
<path d="M270.757 307.3L275.347 306.29L273.917 304.47L269.367 305.4L270.757 307.3Z" fill="#263238"/>
<path d="M281.707 322.15L286.758 320.75L284.107 317.39L279.188 318.72L281.707 322.15Z" fill="#263238"/>
<path d="M322.279 303.64V311.82C321.449 312.623 320.533 313.334 319.549 313.94C318.039 314.85 305.609 316.94 305.609 316.94L321.369 334.23C321.369 334.23 335.819 332.65 339.869 331.5C344.109 330.28 343.199 314.82 343.199 314.82L322.279 303.64Z" fill="white" stroke="#263238" stroke-width="0.75" stroke-linecap="round" stroke-linejoin="round"/>
<path d="M322.275 303.64V311.82C322.275 311.82 322.055 312.04 321.695 312.36L340.125 331.42C344.065 329.65 343.195 314.85 343.195 314.85L322.275 303.64Z" fill="#263238" stroke="#263238" stroke-width="0.75" stroke-linecap="round" stroke-linejoin="round"/>
<path d="M294.391 199.04V285.75L360.481 337.89V203.89L294.391 199.04Z" fill="white" stroke="#263238" stroke-width="0.75" stroke-linecap="round" stroke-linejoin="round"/>
<path d="M298.938 203.59V276.65L354.418 310.91V208.44L298.938 203.59Z" fill="#8ABD97" stroke="#263238" stroke-width="0.75" stroke-linecap="round" stroke-linejoin="round"/>
<path d="M367.147 203.89H360.477V337.92H367.147V203.89Z" fill="#263238" stroke="#263238" stroke-width="0.75" stroke-linecap="round" stroke-linejoin="round"/>
<path d="M302.578 208.14L302.878 273.32L349.258 299.69V218.98L317.428 214.16L315.308 209.65L302.578 208.14Z" fill="white" stroke="#263238" stroke-width="0.75" stroke-linecap="round" stroke-linejoin="round"/>
<path d="M305.609 216.02V271.5L346.539 293.33V223.3L305.609 216.02Z" fill="#8ABD97" stroke="#263238" stroke-width="0.75" stroke-linecap="round" stroke-linejoin="round"/>
<path d="M329.547 270.172C335.322 268.233 337.837 260.209 335.165 252.251C332.493 244.293 325.645 239.414 319.87 241.353C314.096 243.292 311.58 251.315 314.252 259.273C316.924 267.231 323.772 272.111 329.547 270.172Z" fill="#263238"/>
<path d="M325.922 256.67L329.812 252.36C330.074 251.976 330.209 251.519 330.196 251.054C330.183 250.589 330.024 250.139 329.742 249.77C329.162 248.94 328.252 248.77 327.742 249.36L324.002 253.51L320.252 247.51C319.712 246.64 318.802 246.37 318.252 246.91C317.962 247.268 317.797 247.711 317.783 248.172C317.768 248.632 317.905 249.084 318.172 249.46L322.062 255.71L318.102 260C317.839 260.385 317.705 260.843 317.72 261.308C317.734 261.773 317.896 262.222 318.182 262.59C318.41 262.952 318.767 263.213 319.182 263.32C319.362 263.365 319.55 263.358 319.727 263.302C319.904 263.245 320.061 263.141 320.182 263L323.932 258.85L327.672 264.85C327.901 265.258 328.282 265.559 328.732 265.69C328.904 265.744 329.089 265.751 329.265 265.708C329.441 265.666 329.602 265.577 329.732 265.45C330.018 265.09 330.18 264.647 330.193 264.187C330.206 263.727 330.068 263.275 329.802 262.9L325.922 256.67Z" fill="white"/>
<path d="M312.875 234.82L335.795 241.55" stroke="#263238" stroke-width="0.75" stroke-linecap="round" stroke-linejoin="round"/>
<path d="M311.969 228.45L341.679 236.74" stroke="#263238" stroke-width="0.75" stroke-linecap="round" stroke-linejoin="round"/>
<path d="M332.446 371.31C332.446 371.31 317.956 372.65 312.596 376.94C307.236 381.23 311.256 383.38 316.346 384.72C321.436 386.06 344.246 383.91 347.196 380.96C350.146 378.01 347.196 370.77 332.446 371.31Z" fill="white" stroke="#263238" stroke-width="0.75" stroke-linecap="round" stroke-linejoin="round"/>
<path d="M347.201 381C347.771 380.431 348.125 379.682 348.201 378.88C341.711 378.56 333.201 380.44 325.471 382.88C322.862 383.71 320.212 384.408 317.531 384.97C324.271 385.78 344.441 383.72 347.201 381Z" fill="#263238" stroke="#263238" stroke-width="0.75" stroke-linecap="round" stroke-linejoin="round"/>
<path d="M281.078 212.16L291.668 217.67" stroke="#263238" stroke-linecap="round" stroke-linejoin="round"/>
<path d="M275 209L278.15 210.64" stroke="#263238" stroke-linecap="round" stroke-linejoin="round"/>
<path d="M283.406 239.92L286.996 240.33" stroke="#263238" stroke-linecap="round" stroke-linejoin="round"/>
<path d="M269.664 238.33L279.344 239.45" stroke="#263238" stroke-linecap="round" stroke-linejoin="round"/>
<path d="M285.664 265.67L273.664 269" stroke="#263238" stroke-linecap="round" stroke-linejoin="round"/>
<path d="M270.177 119C264.5 119 258.951 120.683 254.232 123.837C249.512 126.99 245.833 131.473 243.661 136.717C241.489 141.961 240.921 147.732 242.028 153.299C243.135 158.866 245.869 163.98 249.883 167.994C253.896 172.008 259.01 174.741 264.577 175.849C270.145 176.956 275.915 176.388 281.16 174.215C286.404 172.043 290.886 168.365 294.04 163.645C297.193 158.925 298.877 153.376 298.877 147.7C298.877 140.088 295.853 132.788 290.471 127.406C285.088 122.024 277.788 119 270.177 119ZM270.177 170.76C265.616 170.758 261.159 169.404 257.368 166.869C253.577 164.334 250.623 160.732 248.879 156.518C247.135 152.304 246.68 147.668 247.571 143.195C248.462 138.723 250.659 134.615 253.884 131.391C257.11 128.167 261.219 125.971 265.691 125.082C270.164 124.193 274.8 124.651 279.014 126.396C283.227 128.142 286.828 131.098 289.361 134.89C291.894 138.682 293.247 143.14 293.247 147.7C293.252 150.732 292.659 153.735 291.502 156.538C290.344 159.34 288.646 161.887 286.502 164.032C284.359 166.177 281.814 167.878 279.013 169.037C276.211 170.197 273.209 170.793 270.177 170.79V170.76Z" fill="#263238"/>
<path d="M272.224 147.73C272.234 148.137 272.123 148.539 271.903 148.882C271.684 149.226 271.368 149.496 270.994 149.659C270.621 149.822 270.207 149.87 269.806 149.796C269.405 149.723 269.035 149.532 268.743 149.247C268.452 148.963 268.251 148.598 268.168 148.199C268.085 147.8 268.123 147.385 268.276 147.007C268.43 146.63 268.692 146.307 269.03 146.079C269.369 145.852 269.767 145.73 270.174 145.73C270.71 145.73 271.224 145.939 271.607 146.313C271.99 146.686 272.211 147.195 272.224 147.73Z" fill="#263238"/>
<path d="M263.305 158.14L270.175 147.73L281.785 157.34" stroke="#263238" stroke-linecap="round" stroke-linejoin="round"/>
<path d="M117.88 169.73L114.43 160.3L116.27 162.37V159.15L120.18 165.13L116.73 143.74L121.33 155.47L121.79 145.12L122.48 148.57L123.4 136.84L125.01 154.78L127.31 148.57L126.85 156.62L133.06 138.22L130.07 161.22L134.44 158L131.91 162.14L135.13 159.84L131.46 170.42L118.11 170.65" fill="#8ABD97"/>
<path d="M132.643 192.96H118.263L114.383 168.04H136.513L132.643 192.96Z" fill="#263238" stroke="#263238" stroke-linecap="round" stroke-linejoin="round"/>
<path d="M172.012 192.79H99.4219V385.9H172.012V192.79Z" fill="white" stroke="#263238" stroke-linecap="round" stroke-linejoin="round"/>
<path d="M167.071 199.13H103.641V245.64H167.071V199.13Z" stroke="#263238" stroke-linecap="round" stroke-linejoin="round"/>
<path d="M148.042 218.16H122.672V226.62H148.042V218.16Z" fill="#263238"/>
<path d="M167.071 253.4H103.641V299.91H167.071V253.4Z" stroke="#263238" stroke-linecap="round" stroke-linejoin="round"/>
<path d="M148.042 272.43H122.672V280.89H148.042V272.43Z" fill="#263238"/>
<path d="M167.071 307.66H103.641V354.17H167.071V307.66Z" stroke="#263238" stroke-linecap="round" stroke-linejoin="round"/>
<path d="M148.042 326.69H122.672V335.15H148.042V326.69Z" fill="#263238"/>
<mask id="mask0_5904_3408" style="mask-type:luminance" maskUnits="userSpaceOnUse" x="55" y="159" width="231" height="228">
<path d="M285.672 159H55.6719V387H285.672V159Z" fill="white"/>
</mask>
<g mask="url(#mask0_5904_3408)">
<path d="M179.797 374.88C179.797 374.88 216.177 358.81 235.737 357.6L250.007 389.13H142.227L179.797 374.88Z" fill="#263238" stroke="#263238" stroke-width="0.75" stroke-linecap="round" stroke-linejoin="round"/>
<path d="M224.078 184.9C224.078 184.9 249.688 215.32 255.078 220.9C260.468 226.48 260.668 230.53 258.928 233.03C257.188 235.53 244.108 240.16 230.628 248.82C217.148 257.48 178.828 279.82 178.448 280.6C178.068 281.38 174.398 253.6 174.398 253.6L238.518 227.22L238.328 225.29L217.528 186.78L224.078 184.9Z" fill="white"/>
<mask id="mask1_5904_3408" style="mask-type:luminance" maskUnits="userSpaceOnUse" x="174" y="184" width="86" height="97">
<path d="M224.078 184.9C224.078 184.9 249.688 215.32 255.078 220.9C260.468 226.48 260.668 230.53 258.928 233.03C257.188 235.53 244.108 240.16 230.628 248.82C217.148 257.48 178.828 279.82 178.448 280.6C178.068 281.38 174.398 253.6 174.398 253.6L238.518 227.22L238.328 225.29L217.528 186.78L224.078 184.9Z" fill="white"/>
</mask>
<g mask="url(#mask1_5904_3408)">
<path d="M248.725 229.8L219.005 186.4L217.575 186.82L238.375 225.33L238.565 227.26L174.445 253.64C174.445 253.64 174.515 254.12 174.615 254.93L178.795 264.52L248.725 229.8Z" fill="#8ABD97"/>
<path opacity="0.5" d="M248.725 229.8L219.005 186.4L217.575 186.82L238.375 225.33L238.565 227.26L174.445 253.64C174.445 253.64 174.515 254.12 174.615 254.93L178.795 264.52L248.725 229.8Z" fill="white"/>
</g>
<path d="M224.078 184.9C224.078 184.9 249.688 215.32 255.078 220.9C260.468 226.48 260.668 230.53 258.928 233.03C257.188 235.53 244.108 240.16 230.628 248.82C217.148 257.48 178.828 279.82 178.448 280.6C178.068 281.38 174.398 253.6 174.398 253.6L238.518 227.22L238.328 225.29L217.528 186.78L224.078 184.9Z" stroke="#263238" stroke-width="0.75" stroke-linecap="round" stroke-linejoin="round"/>
<path d="M203.665 171.61C203.665 171.61 200.585 168.91 199.045 171.61C197.505 174.31 197.315 178.73 198.275 179.12C199.235 179.51 203.085 178.93 203.665 177.77C204.245 176.61 203.665 171.61 203.665 171.61Z" fill="white" stroke="#263238" stroke-width="0.75" stroke-linecap="round" stroke-linejoin="round"/>
<path d="M209.055 170.26C209.055 170.26 205.785 166.8 203.665 168.14C201.545 169.48 202.125 176.81 202.895 177.39C203.665 177.97 208.285 176.39 208.895 175.46C209.505 174.53 209.055 170.26 209.055 170.26Z" fill="white" stroke="#263238" stroke-width="0.75" stroke-linecap="round" stroke-linejoin="round"/>
<path d="M216.376 170.45C216.376 170.45 213.486 166.45 210.796 166.45C208.106 166.45 206.166 176.08 207.136 176.85C208.106 177.62 214.446 176.66 214.836 176.08C215.454 174.233 215.968 172.354 216.376 170.45Z" fill="white" stroke="#263238" stroke-width="0.75" stroke-linecap="round" stroke-linejoin="round"/>
<path d="M222.007 177C222.007 175.85 221.437 165.83 218.007 166.41C214.577 166.99 210.887 175.08 211.077 176.41C211.267 177.74 222.007 177 222.007 177Z" fill="white" stroke="#263238" stroke-width="0.75" stroke-linecap="round" stroke-linejoin="round"/>
<path d="M238.516 227.26C238.516 227.26 248.336 230.92 251.996 230.72Z" fill="white"/>
<path d="M238.516 227.26C238.516 227.26 248.336 230.92 251.996 230.72" stroke="#263238" stroke-width="0.75" stroke-linecap="round" stroke-linejoin="round"/>
<path d="M157.765 389.39C168.225 387.63 181.625 380.44 185.615 371.39C182.615 355.7 178.825 333.6 178.825 320.08C178.825 297.36 184.825 284.46 182.095 269.08C179.365 253.7 173.625 243.67 167.465 239.62C167.465 239.62 158.035 242.12 148.405 251.17C138.775 260.22 130.305 275.78 127.005 290.61C123.705 305.44 119.305 351.07 119.305 363.01C119.305 374.95 118.445 389.77 118.445 389.77C129.975 389.77 141.505 389.77 153.035 389.77C154.62 389.785 156.203 389.658 157.765 389.39Z" fill="white"/>
<mask id="mask2_5904_3408" style="mask-type:luminance" maskUnits="userSpaceOnUse" x="118" y="239" width="68" height="151">
<path d="M157.765 389.39C168.225 387.63 181.625 380.44 185.615 371.39C182.615 355.7 178.825 333.6 178.825 320.08C178.825 297.36 184.825 284.46 182.095 269.08C179.365 253.7 173.625 243.67 167.465 239.62C167.465 239.62 158.035 242.12 148.405 251.17C138.775 260.22 130.305 275.78 127.005 290.61C123.705 305.44 119.305 351.07 119.305 363.01C119.305 374.95 118.445 389.77 118.445 389.77C129.975 389.77 141.505 389.77 153.035 389.77C154.62 389.785 156.203 389.658 157.765 389.39Z" fill="white"/>
</mask>
<g mask="url(#mask2_5904_3408)">
<path d="M185.615 371.38C179.755 376.38 153.365 386.09 149.515 386.95C145.665 387.81 147.805 379.67 153.795 371.54C159.785 363.41 146.515 374.54 144.375 375.39C142.235 376.24 145.235 359.55 145.235 351.39C145.235 343.23 152.945 273.91 152.945 273.91L167.495 247.36L172.495 244.36C171.099 242.503 169.41 240.886 167.495 239.57C167.495 239.57 158.065 242.07 148.435 251.12C138.805 260.17 130.305 275.78 127.005 290.61C123.705 305.44 119.305 351.07 119.305 363.01C119.305 374.95 118.445 389.77 118.445 389.77C129.975 389.77 141.505 389.77 153.035 389.77C154.615 389.771 156.191 389.63 157.745 389.35C168.225 387.63 181.625 380.44 185.615 371.38Z" fill="#8ABD97"/>
<path opacity="0.5" d="M185.615 371.38C179.755 376.38 153.365 386.09 149.515 386.95C145.665 387.81 147.805 379.67 153.795 371.54C159.785 363.41 146.515 374.54 144.375 375.39C142.235 376.24 145.235 359.55 145.235 351.39C145.235 343.23 152.945 273.91 152.945 273.91L167.495 247.36L172.495 244.36C171.099 242.503 169.41 240.886 167.495 239.57C167.495 239.57 158.065 242.07 148.435 251.12C138.805 260.17 130.305 275.78 127.005 290.61C123.705 305.44 119.305 351.07 119.305 363.01C119.305 374.95 118.445 389.77 118.445 389.77C129.975 389.77 141.505 389.77 153.035 389.77C154.615 389.771 156.191 389.63 157.745 389.35C168.225 387.63 181.625 380.44 185.615 371.38Z" fill="white"/>
</g>
<path d="M157.765 389.39C168.225 387.63 181.625 380.44 185.615 371.39C182.615 355.7 178.825 333.6 178.825 320.08C178.825 297.36 184.825 284.46 182.095 269.08C179.365 253.7 173.625 243.67 167.465 239.62C167.465 239.62 158.035 242.12 148.405 251.17C138.775 260.22 130.305 275.78 127.005 290.61C123.705 305.44 119.305 351.07 119.305 363.01C119.305 374.95 118.445 389.77 118.445 389.77C129.975 389.77 141.505 389.77 153.035 389.77C154.62 389.785 156.203 389.658 157.765 389.39Z" stroke="#263238" stroke-width="0.75" stroke-linecap="round" stroke-linejoin="round"/>
<path d="M166.906 243.16L183.446 273.28L184.336 289.8C184.336 289.8 188.946 278.02 186.896 270.33C184.846 262.64 166.906 243.16 166.906 243.16Z" fill="#263238" stroke="#263238" stroke-width="0.75" stroke-linecap="round" stroke-linejoin="round"/>
<path d="M184.329 289.81L179.719 359.52L184.849 373.87L188.439 345.16L185.359 287.75L184.329 289.81Z" fill="#263238" stroke="#263238" stroke-width="0.75" stroke-linecap="round" stroke-linejoin="round"/>
<path d="M179.789 214.93C179.789 214.93 180.369 222.44 180.949 226.1C181.529 229.76 172.479 240 172.479 240L185.569 259.83L200.399 248.28C200.399 248.28 221.399 246.74 223.309 245C225.219 243.26 225.239 224.21 225.239 224.21L230.239 221.32C230.239 221.32 225.619 201.32 224.469 196.86L223.309 192.44C223.309 192.44 230.049 190.12 228.509 183.44C226.969 176.76 217.149 173.44 207.329 174.96C197.509 176.48 195.009 180.16 195.009 180.16C195.009 180.16 181.139 179.97 173.249 186.52C165.359 193.07 170.169 203.46 172.669 207.12C174.796 209.937 177.18 212.552 179.789 214.93Z" fill="white"/>
<mask id="mask3_5904_3408" style="mask-type:luminance" maskUnits="userSpaceOnUse" x="168" y="174" width="63" height="86">
<path d="M179.789 214.93C179.789 214.93 180.369 222.44 180.949 226.1C181.529 229.76 172.479 240 172.479 240L185.569 259.83L200.399 248.28C200.399 248.28 221.399 246.74 223.309 245C225.219 243.26 225.239 224.21 225.239 224.21L230.239 221.32C230.239 221.32 225.619 201.32 224.469 196.86L223.309 192.44C223.309 192.44 230.049 190.12 228.509 183.44C226.969 176.76 217.149 173.44 207.329 174.96C197.509 176.48 195.009 180.16 195.009 180.16C195.009 180.16 181.139 179.97 173.249 186.52C165.359 193.07 170.169 203.46 172.669 207.12C174.796 209.937 177.18 212.552 179.789 214.93Z" fill="white"/>
</mask>
<g mask="url(#mask3_5904_3408)">
<path d="M203.007 241.83C199.157 237.12 203.007 219.14 206.007 210.15C209.007 201.16 201.727 197.31 201.727 197.31L223.587 193.54L223.287 192.41C224.766 191.832 226.081 190.902 227.117 189.7L228.297 182.75C226.297 176.43 216.827 173.39 207.297 174.88C197.477 176.42 194.977 180.08 194.977 180.08C194.977 180.08 181.107 179.89 173.217 186.44C165.327 192.99 170.137 203.38 172.637 207.04C174.761 209.885 177.144 212.527 179.757 214.93C179.757 214.93 180.337 222.44 180.917 226.1C181.497 229.76 172.477 240 172.477 240L185.567 259.83L200.397 248.28C200.397 248.28 216.397 247.1 221.757 245.65L223.307 245C223.307 245 206.877 246.54 203.007 241.83Z" fill="#8ABD97"/>
<path opacity="0.5" d="M203.007 241.83C199.157 237.12 203.007 219.14 206.007 210.15C209.007 201.16 201.727 197.31 201.727 197.31L223.587 193.54L223.287 192.41C224.766 191.832 226.081 190.902 227.117 189.7L228.297 182.75C226.297 176.43 216.827 173.39 207.297 174.88C197.477 176.42 194.977 180.08 194.977 180.08C194.977 180.08 181.107 179.89 173.217 186.44C165.327 192.99 170.137 203.38 172.637 207.04C174.761 209.885 177.144 212.527 179.757 214.93C179.757 214.93 180.337 222.44 180.917 226.1C181.497 229.76 172.477 240 172.477 240L185.567 259.83L200.397 248.28C200.397 248.28 216.397 247.1 221.757 245.65L223.307 245C223.307 245 206.877 246.54 203.007 241.83Z" fill="white"/>
<path d="M214.258 206.08C214.258 206.08 214.258 205.78 214.258 205.31C214.258 203.82 214.508 200.6 216.998 199.72C220.268 198.57 222.998 201.65 222.998 201.65L223.188 204.73C222.717 204.142 222.099 203.689 221.396 203.419C220.693 203.148 219.931 203.069 219.188 203.19C217.274 203.592 215.544 204.607 214.258 206.08Z" fill="#263238"/>
<path d="M219.844 212.24C219.844 213.83 219.404 215.13 218.844 215.13C218.284 215.13 217.844 213.83 217.844 212.24C217.844 210.65 218.274 209.35 218.844 209.35C219.414 209.35 219.844 210.64 219.844 212.24Z" fill="#263238"/>
<path d="M213.776 232.41C212.706 233.52 211.276 233.88 210.586 233.22C209.896 232.56 210.206 231.11 211.276 230C212.346 228.89 213.766 228.53 214.456 229.19C215.146 229.85 214.846 231.3 213.776 232.41Z" fill="#263238"/>
</g>
<path d="M179.789 214.93C179.789 214.93 180.369 222.44 180.949 226.1C181.529 229.76 172.479 240 172.479 240L185.569 259.83L200.399 248.28C200.399 248.28 221.399 246.74 223.309 245C225.219 243.26 225.239 224.21 225.239 224.21L230.239 221.32C230.239 221.32 225.619 201.32 224.469 196.86L223.309 192.44C223.309 192.44 230.049 190.12 228.509 183.44C226.969 176.76 217.149 173.44 207.329 174.96C197.509 176.48 195.009 180.16 195.009 180.16C195.009 180.16 181.139 179.97 173.249 186.52C165.359 193.07 170.169 203.46 172.669 207.12C174.796 209.937 177.18 212.552 179.789 214.93Z" stroke="#263238" stroke-width="0.75" stroke-linecap="round" stroke-linejoin="round"/>
<path d="M198.277 196.06C201.747 193.75 223.277 192.41 223.277 192.41C223.277 192.41 230.017 190.09 228.477 183.41C226.937 176.73 217.117 173.41 207.297 174.93C197.477 176.45 194.977 180.13 194.977 180.13C194.977 180.13 181.107 179.94 173.217 186.49C165.327 193.04 170.137 203.43 172.637 207.09C174.761 209.935 177.144 212.577 179.757 214.98C179.757 214.98 180.077 219.1 180.477 222.73L186.477 224.42L193.027 220.95L199.577 219.41C199.577 219.41 194.757 215.75 197.457 212.29C200.157 208.83 205.157 207.67 205.347 204.97C205.537 202.27 194.807 198.37 198.277 196.06Z" fill="#263238" stroke="#263238" stroke-width="0.75" stroke-linecap="round" stroke-linejoin="round"/>
<path d="M219.297 184.87C219.297 184.87 217.037 180.73 221.177 181.48C225.317 182.23 225.317 189.39 221.927 190.89C218.537 192.39 200.097 189.01 189.927 192.02C179.757 195.03 172.617 203.31 172.617 203.31" stroke="white" stroke-miterlimit="10" stroke-linecap="round"/>
<path d="M178.266 209.71C178.266 209.71 186.176 202.94 192.566 201.81C198.956 200.68 202.356 200.68 195.206 204.81C188.056 208.94 192.946 208.19 197.466 206.69" stroke="white" stroke-miterlimit="10" stroke-linecap="round"/>
<path d="M194.805 224.56C194.805 224.56 193.655 212.43 187.685 212.05C181.715 211.67 181.905 220.33 183.685 226.3C185.465 232.27 189.685 234.19 193.115 231.11" fill="#8ABD97"/>
<mask id="mask4_5904_3408" style="mask-type:luminance" maskUnits="userSpaceOnUse" x="182" y="212" width="13" height="21">
<path d="M194.805 224.56C194.805 224.56 193.655 212.43 187.685 212.05C181.715 211.67 181.905 220.33 183.685 226.3C185.465 232.27 189.685 234.19 193.115 231.11" fill="white"/>
</mask>
<g mask="url(#mask4_5904_3408)">
<g opacity="0.5">
<path d="M194.805 224.56C194.805 224.56 193.655 212.43 187.685 212.05C181.715 211.67 181.905 220.33 183.685 226.3C185.465 232.27 189.685 234.19 193.115 231.11" fill="white"/>
<path d="M194.805 224.56C194.805 224.56 193.655 212.43 187.685 212.05C181.715 211.67 181.905 220.33 183.685 226.3C185.465 232.27 189.685 234.19 193.115 231.11" stroke="#263238" stroke-width="0.75" stroke-linecap="round" stroke-linejoin="round"/>
</g>
</g>
<path d="M194.805 224.56C194.805 224.56 193.655 212.43 187.685 212.05C181.715 211.67 181.905 220.33 183.685 226.3C185.465 232.27 189.685 234.19 193.115 231.11" stroke="#263238" stroke-width="0.75" stroke-linecap="round" stroke-linejoin="round"/>
<path d="M173.005 232.65L192.265 261.92L183.405 273.28C179.415 265.582 174.98 258.123 170.125 250.94C163.575 241.7 162.805 240.16 162.805 240.16L173.005 232.65Z" fill="white"/>
<mask id="mask5_5904_3408" style="mask-type:luminance" maskUnits="userSpaceOnUse" x="162" y="232" width="31" height="42">
<path d="M173.005 232.65L192.265 261.92L183.405 273.28C179.415 265.582 174.98 258.123 170.125 250.94C163.575 241.7 162.805 240.16 162.805 240.16L173.005 232.65Z" fill="white"/>
</mask>
<g mask="url(#mask5_5904_3408)">
<path d="M173.005 232.65L162.805 240.16C162.805 240.16 163.375 241.29 167.575 247.32L178.355 240.78L173.005 232.65Z" fill="#8ABD97"/>
<path opacity="0.5" d="M173.005 232.65L162.805 240.16C162.805 240.16 163.375 241.29 167.575 247.32L178.355 240.78L173.005 232.65Z" fill="white"/>
</g>
<path d="M173.005 232.65L192.265 261.92L183.405 273.28C179.415 265.582 174.98 258.123 170.125 250.94C163.575 241.7 162.805 240.16 162.805 240.16L173.005 232.65Z" stroke="#263238" stroke-width="0.75" stroke-linecap="round" stroke-linejoin="round"/>
<path d="M222.531 305.44C222.531 305.44 225.611 299.08 226.191 295.04C226.771 291 226.961 288.68 229.271 286.76C231.581 284.84 239.091 277.13 240.271 274.24C241.451 271.35 242.191 274.05 242.771 276.36C243.351 278.67 243.151 280.79 241.231 282.14C239.878 283.144 238.65 284.306 237.571 285.6L239.301 286.95C239.301 286.95 263.371 277.9 265.881 276.95C268.391 276 270.691 276.75 270.881 278.68C271.071 280.61 270.311 280.8 269.151 281.38C267.991 281.96 255.291 286.38 253.551 287.15L251.821 287.92L253.171 289.27C253.171 289.27 260.101 289.08 263.571 288.89C267.041 288.7 272.231 288.12 273.001 289.27C273.345 289.785 273.476 290.412 273.368 291.022C273.26 291.631 272.921 292.175 272.421 292.54C272.016 292.928 271.529 293.22 270.996 293.393C270.462 293.566 269.897 293.616 269.341 293.54C267.611 293.54 252.781 294.69 252.781 294.69L253.171 296.81C253.171 296.81 268.961 299.31 269.531 300.08C270.101 300.85 270.111 301.24 269.531 302.39C268.951 303.54 268.531 303.55 267.031 303.55C265.531 303.55 253.031 301.62 253.031 301.62C253.031 301.62 259.191 305.09 259.961 305.67C260.731 306.25 263.421 306.67 262.651 307.98C261.881 309.29 261.501 309.71 260.341 309.52C259.181 309.33 250.911 305.67 250.911 305.67C250.911 305.67 242.631 306.82 239.911 307.02C237.909 307.113 235.903 307.046 233.911 306.82L226.211 311.82L222.531 305.44Z" fill="white" stroke="#263238" stroke-width="0.75" stroke-linecap="round" stroke-linejoin="round"/>
<path d="M167.856 296.77C167.856 296.77 162.266 273.47 159.956 268.27C157.646 263.07 144.556 258.27 138.196 269.62C131.836 280.97 137.616 293.88 139.936 303.12C142.256 312.36 156.876 354.12 158.996 359.35C161.116 364.58 164.996 363.35 167.086 362.82C169.176 362.29 227.736 315.06 227.736 315.06L223.116 304.67L177.676 328L167.856 296.77Z" fill="white"/>
<mask id="mask6_5904_3408" style="mask-type:luminance" maskUnits="userSpaceOnUse" x="135" y="262" width="93" height="102">
<path d="M167.856 296.77C167.856 296.77 162.266 273.47 159.956 268.27C157.646 263.07 144.556 258.27 138.196 269.62C131.836 280.97 137.616 293.88 139.936 303.12C142.256 312.36 156.876 354.12 158.996 359.35C161.116 364.58 164.996 363.35 167.086 362.82C169.176 362.29 227.736 315.06 227.736 315.06L223.116 304.67L177.676 328L167.856 296.77Z" fill="white"/>
</mask>
<g mask="url(#mask6_5904_3408)">
<path d="M166.219 348C167.703 343.492 169.415 339.063 171.349 334.73C173.489 330.45 161.079 344.58 158.509 336.87C155.939 329.16 139.679 290.64 142.669 277.8C143.966 271.834 147.457 266.574 152.449 263.06C147.679 261.93 141.839 263.13 138.199 269.63C131.849 280.99 137.619 293.89 139.939 303.13C142.259 312.37 156.879 354.13 158.999 359.36C161.119 364.59 164.999 363.36 167.089 362.83C168.629 362.41 200.089 337.28 217.089 323.65L166.219 348Z" fill="#8ABD97"/>
<path opacity="0.5" d="M166.219 348C167.703 343.492 169.415 339.063 171.349 334.73C173.489 330.45 161.079 344.58 158.509 336.87C155.939 329.16 139.679 290.64 142.669 277.8C143.966 271.834 147.457 266.574 152.449 263.06C147.679 261.93 141.839 263.13 138.199 269.63C131.849 280.99 137.619 293.89 139.939 303.13C142.259 312.37 156.879 354.13 158.999 359.36C161.119 364.59 164.999 363.36 167.089 362.83C168.629 362.41 200.089 337.28 217.089 323.65L166.219 348Z" fill="white"/>
</g>
<path d="M167.856 296.77C167.856 296.77 162.266 273.47 159.956 268.27C157.646 263.07 144.556 258.27 138.196 269.62C131.836 280.97 137.616 293.88 139.936 303.12C142.256 312.36 156.876 354.12 158.996 359.35C161.116 364.58 164.996 363.35 167.086 362.82C169.176 362.29 227.736 315.06 227.736 315.06L223.116 304.67L177.676 328L167.856 296.77Z" stroke="#263238" stroke-width="0.75" stroke-linecap="round" stroke-linejoin="round"/>
<path d="M216.375 308.52L221.575 319.11" stroke="#263238" stroke-width="0.75" stroke-linecap="round" stroke-linejoin="round"/>
<path d="M94.225 255.39L67.625 273.84C67.625 273.84 80.735 287.7 79.385 324.06C78.385 351.83 82.055 383.36 87.385 389.77H115.705C115.705 389.77 105.915 335.77 106.615 304.83C107.165 281.32 100.105 265 94.225 255.39Z" fill="white" stroke="#263238" stroke-width="0.75" stroke-linecap="round" stroke-linejoin="round"/>
<path d="M97.4281 255.39L70.8281 273.84C70.8281 273.84 83.9381 287.7 82.5781 324.06C81.5781 351.83 85.2481 383.36 90.5781 389.77H118.908C118.908 389.77 109.128 335.77 109.828 304.83C110.358 281.32 103.298 265 97.4281 255.39Z" fill="#263238" stroke="#263238" stroke-width="0.75" stroke-linecap="round" stroke-linejoin="round"/>
<path d="M94.2228 255.39H97.4228L70.8228 273.84H67.6328L94.2228 255.39Z" fill="white" stroke="#263238" stroke-width="0.75" stroke-linecap="round" stroke-linejoin="round"/>
</g>
</svg>
