<svg width="100" height="101" viewBox="0 0 100 101" fill="none" xmlns="http://www.w3.org/2000/svg">
<path d="M0.4375 5.92676C0.4375 3.16533 2.67608 0.926758 5.4375 0.926758H61.5664C82.5532 0.926758 99.5664 17.9399 99.5664 38.9268V95.0557C99.5664 97.8171 97.3278 100.056 94.5664 100.056H38.4375C17.4507 100.056 0.4375 83.0425 0.4375 62.0557V5.92676Z" fill="url(#paint0_linear_4121_793)"/>
<path d="M17.316 48.5632C17.316 40.2592 18.804 33.7552 21.78 29.0512C24.804 24.3472 29.796 21.9952 36.756 21.9952C43.716 21.9952 48.684 24.3472 51.66 29.0512C54.684 33.7552 56.196 40.2592 56.196 48.5632C56.196 56.9152 54.684 63.4672 51.66 68.2192C48.684 72.9712 43.716 75.3472 36.756 75.3472C29.796 75.3472 24.804 72.9712 21.78 68.2192C18.804 63.4672 17.316 56.9152 17.316 48.5632ZM46.26 48.5632C46.26 45.0112 46.02 42.0352 45.54 39.6352C45.108 37.1872 44.196 35.1952 42.804 33.6592C41.46 32.1232 39.444 31.3552 36.756 31.3552C34.068 31.3552 32.028 32.1232 30.636 33.6592C29.292 35.1952 28.38 37.1872 27.9 39.6352C27.468 42.0352 27.252 45.0112 27.252 48.5632C27.252 52.2112 27.468 55.2832 27.9 57.7792C28.332 60.2272 29.244 62.2192 30.636 63.7552C32.028 65.2432 34.068 65.9872 36.756 65.9872C39.444 65.9872 41.484 65.2432 42.876 63.7552C44.268 62.2192 45.18 60.2272 45.612 57.7792C46.044 55.2832 46.26 52.2112 46.26 48.5632ZM62.6389 32.2912V23.0032H79.9909V75.4912H69.6229V32.2912H62.6389Z" fill="#FEFEFE"/>
<defs>
<linearGradient id="paint0_linear_4121_793" x1="-55.3014" y1="19.3192" x2="245.846" y2="52.6601" gradientUnits="userSpaceOnUse">
<stop stop-color="#216432"/>
<stop offset="0.581731" stop-color="#114422"/>
</linearGradient>
</defs>
</svg>
