<svg width="18" height="19" viewBox="0 0 18 19" fill="none" xmlns="http://www.w3.org/2000/svg">
<path d="M9 9.55957C8.175 9.55957 7.46875 9.26582 6.88125 8.67832C6.29375 8.09082 6 7.38457 6 6.55957C6 5.73457 6.29375 5.02832 6.88125 4.44082C7.46875 3.85332 8.175 3.55957 9 3.55957C9.825 3.55957 10.5312 3.85332 11.1187 4.44082C11.7062 5.02832 12 5.73457 12 6.55957C12 7.38457 11.7062 8.09082 11.1187 8.67832C10.5312 9.26582 9.825 9.55957 9 9.55957ZM3 15.5596V13.4596C3 13.0346 3.10937 12.6439 3.32812 12.2877C3.54688 11.9314 3.8375 11.6596 4.2 11.4721C4.975 11.0846 5.7625 10.7939 6.5625 10.6002C7.3625 10.4064 8.175 10.3096 9 10.3096C9.825 10.3096 10.6375 10.4064 11.4375 10.6002C12.2375 10.7939 13.025 11.0846 13.8 11.4721C14.1625 11.6596 14.4531 11.9314 14.6719 12.2877C14.8906 12.6439 15 13.0346 15 13.4596V15.5596H3ZM4.5 14.0596H13.5V13.4596C13.5 13.3221 13.4656 13.1971 13.3969 13.0846C13.3281 12.9721 13.2375 12.8846 13.125 12.8221C12.45 12.4846 11.7688 12.2314 11.0813 12.0627C10.3938 11.8939 9.7 11.8096 9 11.8096C8.3 11.8096 7.60625 11.8939 6.91875 12.0627C6.23125 12.2314 5.55 12.4846 4.875 12.8221C4.7625 12.8846 4.67188 12.9721 4.60313 13.0846C4.53438 13.1971 4.5 13.3221 4.5 13.4596V14.0596ZM9 8.05957C9.4125 8.05957 9.76563 7.9127 10.0594 7.61895C10.3531 7.3252 10.5 6.97207 10.5 6.55957C10.5 6.14707 10.3531 5.79395 10.0594 5.5002C9.76563 5.20645 9.4125 5.05957 9 5.05957C8.5875 5.05957 8.23438 5.20645 7.94063 5.5002C7.64688 5.79395 7.5 6.14707 7.5 6.55957C7.5 6.97207 7.64688 7.3252 7.94063 7.61895C8.23438 7.9127 8.5875 8.05957 9 8.05957Z" fill="url(#paint0_linear_4716_2411)"/>
<defs>
<linearGradient id="paint0_linear_4716_2411" x1="3" y1="9.55957" x2="15" y2="9.55957" gradientUnits="userSpaceOnUse">
<stop stop-color="#216432"/>
<stop offset="0.894231" stop-color="#114422"/>
</linearGradient>
</defs>
</svg>
