<svg width="24" height="25" viewBox="0 0 24 25" fill="none" xmlns="http://www.w3.org/2000/svg">
<path d="M5.85 17.6596C6.7 17.0096 7.65 16.4971 8.7 16.1221C9.75 15.7471 10.85 15.5596 12 15.5596C13.15 15.5596 14.25 15.7471 15.3 16.1221C16.35 16.4971 17.3 17.0096 18.15 17.6596C18.7333 16.9762 19.1875 16.2012 19.5125 15.3346C19.8375 14.4679 20 13.5429 20 12.5596C20 10.3429 19.2208 8.4554 17.6625 6.89707C16.1042 5.33874 14.2167 4.55957 12 4.55957C9.78333 4.55957 7.89583 5.33874 6.3375 6.89707C4.77917 8.4554 4 10.3429 4 12.5596C4 13.5429 4.1625 14.4679 4.4875 15.3346C4.8125 16.2012 5.26667 16.9762 5.85 17.6596ZM12 13.5596C11.0167 13.5596 10.1875 13.2221 9.5125 12.5471C8.8375 11.8721 8.5 11.0429 8.5 10.0596C8.5 9.07624 8.8375 8.24707 9.5125 7.57207C10.1875 6.89707 11.0167 6.55957 12 6.55957C12.9833 6.55957 13.8125 6.89707 14.4875 7.57207C15.1625 8.24707 15.5 9.07624 15.5 10.0596C15.5 11.0429 15.1625 11.8721 14.4875 12.5471C13.8125 13.2221 12.9833 13.5596 12 13.5596ZM12 22.5596C10.6167 22.5596 9.31667 22.2971 8.1 21.7721C6.88333 21.2471 5.825 20.5346 4.925 19.6346C4.025 18.7346 3.3125 17.6762 2.7875 16.4596C2.2625 15.2429 2 13.9429 2 12.5596C2 11.1762 2.2625 9.87624 2.7875 8.65957C3.3125 7.4429 4.025 6.38457 4.925 5.48457C5.825 4.58457 6.88333 3.87207 8.1 3.34707C9.31667 2.82207 10.6167 2.55957 12 2.55957C13.3833 2.55957 14.6833 2.82207 15.9 3.34707C17.1167 3.87207 18.175 4.58457 19.075 5.48457C19.975 6.38457 20.6875 7.4429 21.2125 8.65957C21.7375 9.87624 22 11.1762 22 12.5596C22 13.9429 21.7375 15.2429 21.2125 16.4596C20.6875 17.6762 19.975 18.7346 19.075 19.6346C18.175 20.5346 17.1167 21.2471 15.9 21.7721C14.6833 22.2971 13.3833 22.5596 12 22.5596Z" fill="url(#paint0_linear_4364_2741)"/>
<defs>
<linearGradient id="paint0_linear_4364_2741" x1="2" y1="12.5596" x2="22" y2="12.5596" gradientUnits="userSpaceOnUse">
<stop stop-color="#216432"/>
<stop offset="0.894231" stop-color="#114422"/>
</linearGradient>
</defs>
</svg>
