<svg width="18" height="19" viewBox="0 0 18 19" fill="none" xmlns="http://www.w3.org/2000/svg">
<path d="M16.502 13.2496V15.4996C16.5029 15.7085 16.4601 15.9153 16.3764 16.1067C16.2927 16.298 16.17 16.4698 16.0161 16.611C15.8622 16.7522 15.6805 16.8598 15.4826 16.9267C15.2847 16.9936 15.0751 17.0184 14.867 16.9996C12.5592 16.7489 10.3423 15.9603 8.39452 14.6971C6.5824 13.5456 5.04603 12.0093 3.89453 10.1971C2.62701 8.24055 1.83821 6.01289 1.59203 3.69464C1.57328 3.48724 1.59793 3.27821 1.6644 3.08086C1.73087 2.88351 1.8377 2.70216 1.9781 2.54836C2.1185 2.39456 2.28938 2.27168 2.47987 2.18753C2.67036 2.10339 2.87628 2.05984 3.08453 2.05964H5.33453C5.6985 2.05606 6.05137 2.18495 6.32735 2.42229C6.60332 2.65963 6.78358 2.98923 6.83452 3.34964C6.92949 4.06969 7.10561 4.77669 7.35953 5.45714C7.46043 5.72559 7.48227 6.01733 7.42246 6.2978C7.36264 6.57828 7.22367 6.83573 7.02202 7.03964L6.06953 7.99214C7.13719 9.8698 8.69187 11.4245 10.5695 12.4921L11.522 11.5396C11.7259 11.338 11.9834 11.199 12.2639 11.1392C12.5443 11.0794 12.8361 11.1012 13.1045 11.2021C13.785 11.4561 14.492 11.6322 15.212 11.7271C15.5763 11.7785 15.9091 11.962 16.1469 12.2428C16.3848 12.5235 16.5112 12.8818 16.502 13.2496Z" stroke="url(#paint0_linear_4716_2007)" stroke-width="1.5" stroke-linecap="round" stroke-linejoin="round"/>
<defs>
<linearGradient id="paint0_linear_4716_2007" x1="1.58594" y1="9.53265" x2="16.5025" y2="9.53265" gradientUnits="userSpaceOnUse">
<stop stop-color="#216432"/>
<stop offset="0.894231" stop-color="#114422"/>
</linearGradient>
</defs>
</svg>
