<svg width="22" height="23" viewBox="0 0 22 23" fill="none" xmlns="http://www.w3.org/2000/svg">
<path d="M21.0604 11.3316C21.0604 17.3698 16.4578 22.2648 10.7802 22.2648C9.71817 22.2648 8.69374 22.0935 7.73002 21.7755C8.15279 21.0449 8.76909 19.8709 8.99532 18.9262L9.63835 16.3257C9.96834 17.0096 10.9498 17.5855 11.9905 17.5855C15.0873 17.5855 17.321 14.553 17.321 10.7826C17.321 7.16518 14.5458 4.46566 10.9837 4.46566C6.5416 4.46566 4.18943 7.63313 4.18943 11.0795C4.18943 12.6903 4.99323 14.6789 6.27933 15.3178C6.47393 15.4168 6.58393 15.3718 6.6262 15.1738C6.64023 15.1104 6.67897 14.945 6.72494 14.7487C6.7899 14.4713 6.86931 14.1323 6.91388 13.9321C6.93928 13.8241 6.9308 13.7251 6.8462 13.6171C6.42317 13.0682 6.08469 12.0604 6.08469 11.1245C6.08469 8.71292 7.8023 6.38235 10.7298 6.38235C13.2597 6.38235 15.028 8.20902 15.028 10.8276C15.028 13.7791 13.6235 15.8307 11.7959 15.8307C10.7891 15.8307 10.0276 14.9399 10.2729 13.8511C10.3784 13.3866 10.517 12.9096 10.6519 12.4456C10.8959 11.6062 11.1275 10.8094 11.1275 10.2067C11.1275 9.36983 10.7044 8.66796 9.8245 8.66796C8.79224 8.66796 7.96306 9.80177 7.96306 11.3225C7.96306 12.2853 8.26765 12.9423 8.26765 12.9423C8.26765 12.9423 7.25235 17.5225 7.0662 18.3773C6.86331 19.3213 6.93913 20.6514 7.03209 21.5153C3.20806 19.9222 0.5 15.9632 0.5 11.3316C0.5 5.29336 5.10262 0.398438 10.7802 0.398438C16.4578 0.398438 21.0604 5.29336 21.0604 11.3316Z" fill="#FEFEFE"/>
</svg>
