<svg width="24" height="24" viewBox="0 0 24 24" fill="none" xmlns="http://www.w3.org/2000/svg">
<path d="M7.92188 16.8872C7.66299 16.8872 7.45312 16.6773 7.45312 16.4185C7.45312 16.1596 7.66299 15.9497 7.92188 15.9497C8.18076 15.9497 8.39062 16.1596 8.39062 16.4185C8.39062 16.6773 8.18076 16.8872 7.92188 16.8872Z" fill="#AF4300"/>
<path d="M4.62274 21.4219C4.62274 21.4219 4.62273 21.4219 4.6232 21.4219C4.62419 21.4219 5.67597 19.7368 6.5567 18.0887C6.63827 17.9354 6.7967 17.8376 6.97061 17.8376C7.04702 17.8376 7.12295 17.8555 7.19092 17.8917C7.3015 17.9507 7.38217 18.0485 7.41869 18.1685C7.45478 18.2885 7.44264 18.4147 7.38353 18.5254C6.67577 19.8496 6.01722 20.9393 5.68628 21.4722C6.06409 21.6546 6.67202 21.9278 7.42806 22.1959C8.5413 22.5915 10.24 23.0625 11.9972 23.0625C12.7125 23.0625 13.4765 22.9852 14.263 22.8328C14.2677 22.3622 14.323 21.8888 14.4271 21.4247C14.497 21.1125 14.5691 20.895 14.6062 20.7933C14.6076 20.79 14.608 20.7881 14.6085 20.7867C14.6727 20.6184 14.8297 20.5003 15.0093 20.4857C15.1888 20.4717 15.3636 20.5635 15.4532 20.7196C15.6721 21.0998 15.8806 21.3839 16.1286 21.6398C16.2959 21.8128 16.4787 21.9684 16.7018 22.1493C17.1949 21.9703 18.2552 21.5001 18.3138 21.472C17.8834 20.7787 17.0369 19.3696 16.1876 17.7033C15.4883 16.3308 14.93 15.0633 14.5283 13.9364C14.0896 12.7008 13.8435 11.6686 13.7764 10.7812H10.2235C10.1433 11.8392 9.80913 13.1058 9.20214 14.6541C9.13131 14.8345 8.96027 14.9513 8.7662 14.9513C8.70761 14.9513 8.64953 14.94 8.59469 14.9184C8.35417 14.8238 8.2473 14.5509 8.34152 14.3105C8.9823 12.69 9.32814 11.3072 9.32814 10.3125V8.01562C9.32814 7.75678 9.5147 7.54688 9.77355 7.54688H10.5562C10.1252 1.96317 10.1251 1.89698 10.1251 1.875C10.1251 0.841125 10.9662 0 12 0C13.0338 0 13.8749 0.841125 13.8749 1.875C13.8749 1.89698 13.8749 1.96317 13.4438 7.54688H14.2264C14.4853 7.54688 14.6718 7.75678 14.6718 8.01562V10.3125C14.6718 11.1619 14.9296 12.3066 15.3997 13.6219C16.0798 15.5316 17.1276 17.5448 17.8823 18.8977C18.3108 19.6659 19.3773 21.4219 19.3773 21.4219C19.4485 21.5156 19.4706 21.6523 19.4392 21.7798C19.4073 21.9068 19.3271 22.007 19.2123 22.0707C19.2123 22.0707 18.1586 22.6391 16.766 23.1229C16.616 23.1749 16.4426 23.1442 16.3188 23.0448C16.2963 23.027 15.7133 22.5583 15.4555 22.293C15.3884 22.2236 15.3223 22.1513 15.2595 22.0782C15.1484 22.8437 15.2028 23.0873 15.2084 23.1853C15.215 23.2959 15.1812 23.406 15.1142 23.4946C15.0472 23.5837 14.9501 23.6456 14.8423 23.6695C13.8534 23.8889 12.8972 24 12 24C11.138 23.9995 10.2235 23.8973 9.28188 23.6967C8.5352 23.5378 7.76369 23.3147 6.98936 23.0343C5.68487 22.5614 4.82383 22.0856 4.78773 22.0654C4.67294 22.0017 4.59273 21.9068 4.56086 21.7798C4.52945 21.6523 4.55144 21.5156 4.62274 21.4219ZM12 0.9375C11.4866 0.9375 11.0684 1.35234 11.0626 1.86436C11.0735 2.04084 11.2159 3.90225 11.3485 5.625H12.6516C12.784 3.9023 12.9265 2.04089 12.9374 1.86436C12.9317 1.35234 12.5134 0.9375 12 0.9375ZM11.4206 6.5625C11.4482 6.92119 11.4741 7.25611 11.4965 7.54688H12.5035C12.526 7.25611 12.5518 6.92119 12.5794 6.5625H11.4206ZM13.7344 8.48438H10.2656V9.84375H13.7344V8.48438Z" fill="#AF4300"/>
<path d="M8.70918 20.5434C8.61655 20.6588 8.48062 20.7187 8.34346 20.7187C8.24047 20.7187 8.13679 20.6849 8.05026 20.6154C7.84841 20.4533 7.81621 20.1583 7.9783 19.9564C8.77762 18.961 9.4461 17.5891 9.86071 16.0934C9.9299 15.844 10.188 15.6977 10.4376 15.7669C10.6871 15.8361 10.8333 16.0944 10.7641 16.3439C10.3162 17.9596 9.58644 19.451 8.70918 20.5434Z" fill="#AF4300"/>
<path d="M10.5764 14.0863C10.5764 14.0863 10.7116 13.7232 10.7707 13.5206C10.8353 13.2986 10.8916 13.0465 10.9246 12.7455C10.953 12.4882 11.1856 12.3034 11.4419 12.3308C11.6992 12.3591 11.8848 12.5907 11.8565 12.848C11.8152 13.2236 11.7442 13.535 11.6652 13.8023C11.5988 14.0273 11.4549 14.4135 11.4549 14.4135C11.3846 14.6022 11.2057 14.7188 11.0155 14.7188C10.9612 14.7188 10.9059 14.7093 10.852 14.6892C10.6095 14.5988 10.486 14.3289 10.5764 14.0863Z" fill="#AF4300"/>
</svg>
