<svg width="24" height="24" viewBox="0 0 24 24" fill="none" xmlns="http://www.w3.org/2000/svg">
<path d="M8.8125 21.6094C9.07138 21.6094 9.28125 21.3995 9.28125 21.1406C9.28125 20.8817 9.07138 20.6719 8.8125 20.6719C8.55362 20.6719 8.34375 20.8817 8.34375 21.1406C8.34375 21.3995 8.55362 21.6094 8.8125 21.6094Z" fill="#AF4300"/>
<path d="M20.0156 21.6094C20.2745 21.6094 20.4844 21.3995 20.4844 21.1406C20.4844 20.8817 20.2745 20.6719 20.0156 20.6719C19.7567 20.6719 19.5469 20.8817 19.5469 21.1406C19.5469 21.3995 19.7567 21.6094 20.0156 21.6094Z" fill="#AF4300"/>
<path d="M23.5312 17.5781C23.7901 17.5781 24 17.3683 24 17.1094C24 16.8505 23.7901 16.6406 23.5312 16.6406C23.2724 16.6406 23.0625 16.8505 23.0625 17.1094C23.0625 17.3683 23.2724 17.5781 23.5312 17.5781Z" fill="#AF4300"/>
<path d="M23.5045 8.48438L23.9701 7.2427C24.0241 7.0988 24.0041 6.9375 23.9165 6.81112C23.829 6.68475 23.685 6.60938 23.5312 6.60938H22.8047C22.611 4.66655 21.2259 3.06942 19.3927 2.56069C19.491 2.36887 19.5469 2.15184 19.5469 1.92188C19.5469 1.14647 18.916 0.515625 18.1406 0.515625C17.3652 0.515625 16.7344 1.14647 16.7344 1.92188C16.7344 2.15184 16.7902 2.36887 16.8885 2.56069C15.0553 3.06947 13.6703 4.66655 13.4765 6.60938H12.75C12.5962 6.60938 12.4523 6.68475 12.3647 6.81112C12.2772 6.9375 12.2571 7.0988 12.3111 7.2427L12.7767 8.48438H11.2397C11.2917 8.33766 11.2969 8.17997 11.2969 8.01562V5.67188C11.2969 5.10741 10.9741 4.61991 10.4932 4.39622L11.0603 2.5253C11.1029 2.38341 11.0788 2.22966 10.9903 2.11078C10.9019 1.99191 10.7654 1.92188 10.6172 1.92188H6.82031C6.56142 1.92188 6.35156 2.13178 6.35156 2.39062H5.46094C4.42706 2.39062 3.5625 3.23175 3.5625 4.26562V5.8125C3.5625 6.07134 3.77236 6.28125 4.03125 6.28125C4.29014 6.28125 4.5 6.07134 4.5 5.8125V4.26562C4.5 3.74869 4.944 3.32812 5.46094 3.32812H6.32812V4.34625C5.8125 4.53975 5.39062 5.06077 5.39062 5.67188V8.01562C5.39062 8.17997 5.44266 8.33766 5.49469 8.48438H1.875C0.841125 8.48438 0 9.3255 0 10.3594V12C0 12.7754 0.630844 13.4062 1.40625 13.4062C2.18166 13.4062 2.8125 12.7754 2.8125 12V11.2969H4.59375V21.1406C4.59375 21.2639 4.64391 21.3848 4.73109 21.472C4.81828 21.5592 4.93922 21.6094 5.0625 21.6094H6.51609C6.73359 22.6781 7.68094 23.4844 8.8125 23.4844C9.94406 23.4844 10.8914 22.6781 11.1089 21.6094H17.7192C17.9367 22.6781 18.8841 23.4844 20.0156 23.4844C21.1472 23.4844 22.0945 22.6781 22.312 21.6094H23.5312C23.6545 21.6094 23.7755 21.5592 23.8627 21.472C23.9498 21.3848 24 21.2639 24 21.1406V19.2188C24 18.9605 23.7895 18.75 23.5312 18.75C23.273 18.75 23.0625 18.9605 23.0625 19.2188V20.6719H22.312C22.0945 19.6031 21.1472 18.7969 20.0156 18.7969C18.8841 18.7969 17.9367 19.6031 17.7192 20.6719H11.1089C10.8914 19.6031 9.94406 18.7969 8.8125 18.7969C7.68094 18.7969 6.73359 19.6031 6.51609 20.6719H5.53125V12.2344H23.0625V15C23.0625 15.2583 23.273 15.4688 23.5312 15.4688C23.7895 15.4688 24 15.2583 24 15V8.95312C24 8.82984 23.9498 8.70891 23.8627 8.62172C23.7755 8.53453 23.6278 8.48438 23.5045 8.48438ZM4.59375 10.3594H2.34375C2.08486 10.3594 1.875 10.5693 1.875 10.8281V12C1.875 12.2585 1.66472 12.4688 1.40625 12.4688C1.14778 12.4688 0.9375 12.2585 0.9375 12V10.3594C0.9375 9.84244 1.35806 9.42188 1.875 9.42188H4.59375V10.3594ZM18.69 20.6719C18.8831 20.1262 19.4044 19.7344 20.0156 19.7344C20.6269 19.7344 21.1481 20.1262 21.3412 20.6719C21.3937 20.8186 21.4219 20.9766 21.4219 21.1406C21.4219 21.3047 21.3937 21.4627 21.3412 21.6094C21.1481 22.155 20.6269 22.5469 20.0156 22.5469C19.4044 22.5469 18.8831 22.155 18.69 21.6094C18.6375 21.4627 18.6094 21.3047 18.6094 21.1406C18.6094 20.9766 18.6375 20.8186 18.69 20.6719ZM7.48688 20.6719C7.68 20.1262 8.20125 19.7344 8.8125 19.7344C9.42375 19.7344 9.945 20.1262 10.1381 20.6719C10.1906 20.8186 10.2188 20.9766 10.2188 21.1406C10.2188 21.3047 10.1906 21.4627 10.1381 21.6094C9.945 22.155 9.42375 22.5469 8.8125 22.5469C8.20125 22.5469 7.68 22.155 7.48688 21.6094C7.43438 21.4627 7.40625 21.3047 7.40625 21.1406C7.40625 20.9766 7.43438 20.8186 7.48688 20.6719ZM18.1406 1.45312C18.3991 1.45312 18.6094 1.66341 18.6094 1.92188C18.6094 2.18034 18.3991 2.39062 18.1406 2.39062C17.8822 2.39062 17.6719 2.18034 17.6719 1.92188C17.6719 1.66341 17.8822 1.45312 18.1406 1.45312ZM18.1406 3.32812C20.0496 3.32812 21.63 4.76213 21.8615 6.60938H14.4198C14.6512 4.76213 16.2316 3.32812 18.1406 3.32812ZM22.8548 7.54688L22.5033 8.48438H13.778L13.4264 7.54688H22.8548ZM7.26562 2.85938H9.98719L9.56531 4.26562H7.26562V2.85938ZM10.3594 8.01562C10.3594 8.27452 10.1495 8.48438 9.89062 8.48438H6.79688C6.53798 8.48438 6.32812 8.27452 6.32812 8.01562V5.67188C6.32812 5.41298 6.53798 5.20312 6.79688 5.20312H9.89062C10.1495 5.20312 10.3594 5.41298 10.3594 5.67188V8.01562ZM23.0625 11.2969H5.53125V9.42188H23.0625V11.2969Z" fill="#AF4300"/>
</svg>
