<svg width="24" height="24" viewBox="0 0 24 24" fill="none" xmlns="http://www.w3.org/2000/svg">
<path d="M17.9978 7.50003H17.2078L14.4778 4.77003C13.1578 3.45003 10.8478 3.45003 9.52781 4.77003L6.79781 7.50003H6.00781C4.07781 7.50003 2.50781 9.07003 2.50781 11V15C2.50781 16.93 4.07781 18.5 6.00781 18.5H18.0078C19.9378 18.5 21.5078 16.93 21.5078 15V11C21.5078 9.07003 19.9378 7.50003 18.0078 7.50003H17.9978ZM10.2278 5.47003C11.1678 4.53003 12.8178 4.53003 13.7678 5.47003L15.7978 7.50003H8.20781L10.2378 5.47003H10.2278ZM20.4978 15C20.4978 16.38 19.3778 17.5 17.9978 17.5H5.99781C4.61781 17.5 3.49781 16.38 3.49781 15V11C3.49781 9.62003 4.61781 8.50003 5.99781 8.50003H17.9978C19.3778 8.50003 20.4978 9.62003 20.4978 11V15Z" fill="#AF4300"/>
<path d="M14.8661 13.55C15.3261 13.22 15.5061 12.66 15.3261 12.12C15.1561 11.58 14.6761 11.24 14.1161 11.24H13.6161C13.4961 11.24 13.3961 11.16 13.3561 11.05L13.2061 10.58C13.0361 10.04 12.5561 9.69995 11.9961 9.69995C11.4361 9.69995 10.9561 10.05 10.7861 10.58L10.6361 11.05C10.5961 11.16 10.4961 11.24 10.3761 11.24H9.87612C9.31612 11.24 8.83612 11.59 8.66612 12.12C8.49612 12.66 8.66612 13.22 9.12612 13.55L9.52612 13.84C9.62612 13.91 9.66612 14.03 9.62612 14.15L9.47612 14.62C9.30612 15.16 9.47612 15.71 9.93612 16.05C10.3861 16.38 10.9761 16.38 11.4361 16.05L11.8361 15.76C11.9361 15.69 12.0661 15.69 12.1561 15.76L12.5561 16.05C12.7861 16.22 13.0461 16.3 13.3061 16.3C13.5661 16.3 13.8261 16.22 14.0561 16.05C14.5161 15.72 14.6961 15.16 14.5161 14.62L14.3661 14.15C14.3261 14.04 14.3661 13.91 14.4661 13.84L14.8661 13.55ZM14.2761 12.74L13.8761 13.03C13.4261 13.36 13.2461 13.93 13.4161 14.46L13.5661 14.93C13.6261 15.1 13.5161 15.2 13.4661 15.24C13.4161 15.28 13.2861 15.34 13.1461 15.24L12.7461 14.95C12.5261 14.79 12.2561 14.71 11.9961 14.71C11.7361 14.71 11.4661 14.79 11.2461 14.95L10.8461 15.24C10.6961 15.34 10.5761 15.27 10.5261 15.24C10.4761 15.21 10.3661 15.1 10.4261 14.93L10.5761 14.46C10.7461 13.93 10.5661 13.36 10.1161 13.03L9.71612 12.74C9.56612 12.63 9.59612 12.49 9.61612 12.43C9.63612 12.37 9.69612 12.24 9.87612 12.24H10.3761C10.9261 12.24 11.4161 11.89 11.5861 11.36L11.7361 10.89C11.7961 10.72 11.9361 10.7 11.9961 10.7C12.0561 10.7 12.2061 10.72 12.2561 10.89L12.4061 11.36C12.5761 11.89 13.0661 12.24 13.6161 12.24H14.1161C14.2961 12.24 14.3561 12.37 14.3761 12.43C14.3961 12.49 14.4261 12.63 14.2761 12.74Z" fill="#AF4300"/>
<path d="M18.2222 11.2501H17.7222C17.6022 11.2501 17.5022 11.1701 17.4622 11.0601L17.3122 10.5901C17.1222 10.0001 16.5622 9.64006 15.9322 9.72006C15.6622 9.75006 15.4622 10.0001 15.5022 10.2801C15.5422 10.5501 15.7922 10.7401 16.0622 10.7101C16.1022 10.7101 16.2922 10.6901 16.3622 10.9001L16.5122 11.3701C16.6822 11.9001 17.1722 12.2501 17.7222 12.2501H18.2222C18.4022 12.2501 18.4622 12.3801 18.4822 12.4401C18.5022 12.5001 18.5322 12.6401 18.3822 12.7501L17.9822 13.0401C17.5322 13.3701 17.3522 13.9401 17.5222 14.4601L17.6722 14.9301C17.7322 15.1001 17.6222 15.2001 17.5722 15.2401C17.5222 15.2801 17.3922 15.3401 17.2522 15.2401L16.8522 14.9501C16.4022 14.6201 15.8022 14.6201 15.3522 14.9501C15.1322 15.1101 15.0822 15.4301 15.2422 15.6501C15.4022 15.8701 15.7222 15.9201 15.9422 15.7601C16.0422 15.6901 16.1722 15.6901 16.2622 15.7601L16.6622 16.0501C16.8922 16.2201 17.1522 16.3001 17.4122 16.3001C17.6722 16.3001 17.9322 16.2201 18.1622 16.0501C18.6222 15.7201 18.8022 15.1601 18.6222 14.6301L18.4722 14.1601C18.4322 14.0501 18.4722 13.9201 18.5722 13.8501L18.9722 13.5601C19.4322 13.2301 19.6122 12.6701 19.4322 12.1301C19.2622 11.5901 18.7822 11.2501 18.2222 11.2501Z" fill="#AF4300"/>
<path d="M7.15237 14.95L6.75237 15.24C6.60237 15.34 6.47237 15.27 6.43237 15.24C6.38237 15.2 6.27237 15.1 6.33237 14.93L6.48237 14.46C6.65237 13.93 6.47237 13.36 6.02237 13.03L5.62237 12.74C5.47237 12.63 5.50237 12.49 5.52237 12.43C5.54237 12.37 5.60237 12.24 5.78237 12.24H6.28237C6.83237 12.24 7.32237 11.89 7.49237 11.36L7.64237 10.89C7.71237 10.68 7.90237 10.7 7.94237 10.7C8.21237 10.73 8.46237 10.54 8.50237 10.27C8.53237 10 8.34237 9.75003 8.07237 9.71003C7.45237 9.64003 6.89237 9.99003 6.69237 10.58L6.54237 11.05C6.50237 11.16 6.40237 11.24 6.28237 11.24H5.78237C5.22237 11.24 4.74237 11.59 4.57237 12.12C4.40237 12.66 4.57237 13.22 5.03237 13.55L5.43237 13.84C5.53237 13.91 5.57237 14.03 5.53237 14.15L5.38237 14.62C5.21237 15.16 5.38237 15.71 5.84237 16.05C6.07237 16.22 6.33237 16.3 6.59237 16.3C6.85237 16.3 7.11237 16.22 7.34237 16.05L7.74237 15.76C7.84237 15.69 7.97237 15.69 8.06237 15.76C8.28237 15.92 8.60237 15.87 8.76237 15.65C8.92237 15.43 8.87237 15.11 8.65237 14.95C8.20237 14.62 7.60237 14.62 7.15237 14.95Z" fill="#AF4300"/>
</svg>
