<svg width="24" height="24" viewBox="0 0 24 24" fill="none" xmlns="http://www.w3.org/2000/svg">
<path d="M18.87 11C17.9133 17.3922 12 22 12 22C12 22 5 16.5455 5 9.27273C5 5.63636 7.1875 2 12 2C12.7259 2 13.3921 2.08273 14 2.23571" stroke="#AF4300" stroke-width="2" stroke-linecap="round" stroke-linejoin="round"/>
<path d="M12 11C13.1046 11 14 10.1046 14 9C14 7.89543 13.1046 7 12 7C10.8954 7 10 7.89543 10 9C10 10.1046 10.8954 11 12 11Z" stroke="#AF4300" stroke-width="2"/>
<path d="M19 2V8" stroke="#AF4300" stroke-width="2"/>
<path d="M16 5H22" stroke="#AF4300" stroke-width="2"/>
</svg>
