<svg width="43" height="43" viewBox="0 0 43 43" fill="none" xmlns="http://www.w3.org/2000/svg">
<circle cx="21.9678" cy="21.9697" r="21.0303" fill="#AF4300"/>
<path d="M32.2799 15.3482C31.6841 14.7521 30.9766 14.2792 30.1979 13.9565C29.4192 13.6338 28.5845 13.4678 27.7416 13.4678C26.8987 13.4678 26.0641 13.6338 25.2854 13.9565C24.5067 14.2792 23.7992 14.7521 23.2033 15.3482L21.9666 16.5849L20.7299 15.3482C19.5263 14.1446 17.8938 13.4684 16.1916 13.4684C14.4894 13.4684 12.8569 14.1446 11.6533 15.3482C10.4496 16.5519 9.77344 18.1844 9.77344 19.8866C9.77344 21.5888 10.4496 23.2213 11.6533 24.4249L12.8899 25.6616L21.9666 34.7382L31.0433 25.6616L32.2799 24.4249C32.8761 23.829 33.349 23.1215 33.6717 22.3428C33.9943 21.5641 34.1604 20.7295 34.1604 19.8866C34.1604 19.0437 33.9943 18.209 33.6717 17.4303C33.349 16.6516 32.8761 15.9441 32.2799 15.3482Z" stroke="#FEFEFE" stroke-width="2" stroke-linecap="round" stroke-linejoin="round"/>
</svg>
