<svg width="24" height="25" viewBox="0 0 24 25" fill="none" xmlns="http://www.w3.org/2000/svg">
<path d="M17 4.05957H16C15.72 4.05957 15.5 4.27957 15.5 4.55957C15.5 4.83957 15.72 5.05957 16 5.05957H17C17.83 5.05957 18.5 5.72957 18.5 6.55957V19.5596C18.5 20.3896 17.83 21.0596 17 21.0596H14.5V19.5596C14.5 18.1796 13.38 17.0596 12 17.0596C10.62 17.0596 9.5 18.1796 9.5 19.5596V21.0596H7C6.17 21.0596 5.5 20.3896 5.5 19.5596V6.55957C5.5 5.72957 6.17 5.05957 7 5.05957H8C8.28 5.05957 8.5 4.83957 8.5 4.55957C8.5 4.27957 8.28 4.05957 8 4.05957H7C5.62 4.05957 4.5 5.17957 4.5 6.55957V19.5596C4.5 20.9396 5.62 22.0596 7 22.0596H17C18.38 22.0596 19.5 20.9396 19.5 19.5596V6.55957C19.5 5.17957 18.38 4.05957 17 4.05957ZM10.5 21.0596V19.5596C10.5 18.7296 11.17 18.0596 12 18.0596C12.83 18.0596 13.5 18.7296 13.5 19.5596V21.0596H10.5Z" fill="#AF4300"/>
<path d="M9.5 9.55957C9.5 8.72957 8.83 8.05957 8 8.05957C7.17 8.05957 6.5 8.72957 6.5 9.55957V10.5596C6.5 10.8396 6.72 11.0596 7 11.0596H9C9.28 11.0596 9.5 10.8396 9.5 10.5596V9.55957ZM8.5 10.0596H7.5V9.55957C7.5 9.27957 7.72 9.05957 8 9.05957C8.28 9.05957 8.5 9.27957 8.5 9.55957V10.0596Z" fill="#AF4300"/>
<path d="M17.5 9.55957C17.5 8.72957 16.83 8.05957 16 8.05957C15.17 8.05957 14.5 8.72957 14.5 9.55957V10.5596C14.5 10.8396 14.72 11.0596 15 11.0596H17C17.28 11.0596 17.5 10.8396 17.5 10.5596V9.55957ZM16.5 10.0596H15.5V9.55957C15.5 9.27957 15.72 9.05957 16 9.05957C16.28 9.05957 16.5 9.27957 16.5 9.55957V10.0596Z" fill="#AF4300"/>
<path d="M13.5 9.55957C13.5 8.72957 12.83 8.05957 12 8.05957C11.17 8.05957 10.5 8.72957 10.5 9.55957V10.5596C10.5 10.8396 10.72 11.0596 11 11.0596H13C13.28 11.0596 13.5 10.8396 13.5 10.5596V9.55957ZM12.5 10.0596H11.5V9.55957C11.5 9.27957 11.72 9.05957 12 9.05957C12.28 9.05957 12.5 9.27957 12.5 9.55957V10.0596Z" fill="#AF4300"/>
<path d="M8 13.0596C7.17 13.0596 6.5 13.7296 6.5 14.5596V15.5596C6.5 15.8396 6.72 16.0596 7 16.0596H9C9.28 16.0596 9.5 15.8396 9.5 15.5596V14.5596C9.5 13.7296 8.83 13.0596 8 13.0596ZM8.5 15.0596H7.5V14.5596C7.5 14.2796 7.72 14.0596 8 14.0596C8.28 14.0596 8.5 14.2796 8.5 14.5596V15.0596Z" fill="#AF4300"/>
<path d="M16 13.0596C15.17 13.0596 14.5 13.7296 14.5 14.5596V15.5596C14.5 15.8396 14.72 16.0596 15 16.0596H17C17.28 16.0596 17.5 15.8396 17.5 15.5596V14.5596C17.5 13.7296 16.83 13.0596 16 13.0596ZM16.5 15.0596H15.5V14.5596C15.5 14.2796 15.72 14.0596 16 14.0596C16.28 14.0596 16.5 14.2796 16.5 14.5596V15.0596Z" fill="#AF4300"/>
<path d="M12 13.0596C11.17 13.0596 10.5 13.7296 10.5 14.5596V15.5596C10.5 15.8396 10.72 16.0596 11 16.0596H13C13.28 16.0596 13.5 15.8396 13.5 15.5596V14.5596C13.5 13.7296 12.83 13.0596 12 13.0596ZM12.5 15.0596H11.5V14.5596C11.5 14.2796 11.72 14.0596 12 14.0596C12.28 14.0596 12.5 14.2796 12.5 14.5596V15.0596Z" fill="#AF4300"/>
<path d="M9.45926 4.73948L9.75926 4.95948C9.82926 5.00948 9.85926 5.10948 9.83926 5.19948L9.72926 5.54948C9.55926 6.05948 9.72926 6.58948 10.1693 6.89948C10.5993 7.20948 11.1593 7.20948 11.5893 6.89948L11.8893 6.67948C11.9593 6.62948 12.0593 6.62948 12.1393 6.67948L12.4393 6.89948C12.6593 7.05948 12.8993 7.13948 13.1493 7.13948C13.3993 7.13948 13.6493 7.05948 13.8593 6.89948C14.2893 6.58948 14.4593 6.05948 14.2993 5.54948L14.1893 5.19948C14.1593 5.10948 14.1893 5.01948 14.2693 4.96948L14.5693 4.74948C14.9993 4.43948 15.1693 3.90948 15.0093 3.39948C14.8393 2.88948 14.3893 2.55948 13.8593 2.55948H13.4893C13.3993 2.55948 13.3193 2.49948 13.2893 2.40948L13.1793 2.05948C13.0093 1.54948 12.5593 1.21948 12.0293 1.21948C11.4993 1.21948 11.0393 1.54948 10.8793 2.05948L10.7693 2.40948C10.7393 2.49948 10.6593 2.55948 10.5693 2.55948H10.1993C9.66926 2.55948 9.20926 2.88948 9.04926 3.39948C8.87926 3.90948 9.04926 4.43948 9.48926 4.74948L9.45926 4.73948ZM9.96926 3.69948C9.98926 3.64948 10.0393 3.54948 10.1693 3.54948H10.5393C11.0693 3.54948 11.5293 3.20948 11.6893 2.70948L11.7993 2.35948C11.8793 2.10948 12.1193 2.10948 12.1993 2.35948L12.3093 2.70948C12.4693 3.20948 12.9393 3.54948 13.4593 3.54948H13.8293C13.9593 3.54948 14.0093 3.63948 14.0293 3.69948C14.0493 3.75948 14.0593 3.85948 13.9493 3.92948L13.6493 4.14948C13.2293 4.45948 13.0493 4.99948 13.2093 5.49948L13.3193 5.84948C13.3593 5.97948 13.2893 6.04948 13.2393 6.07948C13.1893 6.10948 13.0993 6.15948 12.9893 6.07948L12.6893 5.85948C12.4793 5.70948 12.2293 5.62948 11.9793 5.62948C11.7293 5.62948 11.4793 5.70948 11.2693 5.85948L10.9693 6.07948C10.8593 6.15948 10.7693 6.10948 10.7193 6.07948C10.6693 6.04948 10.5993 5.96948 10.6393 5.83948L10.7493 5.48948C10.9093 4.98948 10.7393 4.44948 10.3093 4.13948L10.0093 3.91948C9.89926 3.83948 9.91926 3.73948 9.92926 3.68948L9.96926 3.69948Z" fill="#AF4300"/>
</svg>
