<svg width="33" height="22" viewBox="0 0 33 22" fill="none" xmlns="http://www.w3.org/2000/svg">
<path d="M26.3568 0.166748H6.35677C3.1401 0.166748 0.523438 2.78341 0.523438 6.00008V20.1667C0.523438 21.0834 1.27344 21.8334 2.1901 21.8334H3.85677C4.77344 21.8334 5.52344 21.0834 5.52344 20.1667V19.3334C5.52344 18.8667 5.8901 18.5001 6.35677 18.5001H26.3568C26.8234 18.5001 27.1901 18.8667 27.1901 19.3334V20.1667C27.1901 21.0834 27.9401 21.8334 28.8568 21.8334H30.5234C31.4401 21.8334 32.1901 21.0834 32.1901 20.1667V6.00008C32.1901 2.78341 29.5734 0.166748 26.3568 0.166748ZM6.35677 1.83341H26.3568C28.6568 1.83341 30.5234 3.70008 30.5234 6.00008V8.50008H22.0401C22.1401 8.23341 22.1901 7.96675 22.1901 7.66675C22.1901 6.28341 21.0734 5.16675 19.6901 5.16675H13.0234C11.6401 5.16675 10.5234 6.28341 10.5234 7.66675C10.5234 7.96675 10.5901 8.23341 10.6734 8.50008H2.1901V6.00008C2.1901 3.70008 4.05677 1.83341 6.35677 1.83341ZM30.5234 13.5001H2.1901V10.1667H30.5234V13.5001ZM12.1901 7.66675C12.1901 7.20008 12.5568 6.83341 13.0234 6.83341H19.6901C20.1568 6.83341 20.5234 7.20008 20.5234 7.66675C20.5234 8.13341 20.1568 8.50008 19.6901 8.50008H13.0234C12.5568 8.50008 12.1901 8.13341 12.1901 7.66675ZM28.8568 20.1667V19.3334C28.8568 17.9501 27.7401 16.8334 26.3568 16.8334H6.35677C4.97344 16.8334 3.85677 17.9501 3.85677 19.3334V20.1667H2.1901V15.1667H30.5234V20.1667H28.8568Z" fill="#AF4300"/>
</svg>
