<svg width="42" height="43" viewBox="0 0 42 43" fill="none" xmlns="http://www.w3.org/2000/svg">
<path d="M12.25 40.8096L17.15 16.1346L14 17.3596V23.3096H10.5V15.0846L19.3375 11.3221C19.7458 11.1471 20.176 11.045 20.6281 11.0158C21.0802 10.9867 21.5104 11.045 21.9187 11.1908C22.3271 11.3367 22.7135 11.5408 23.0781 11.8033C23.4427 12.0658 23.7417 12.4012 23.975 12.8096L25.725 15.6096C26.4833 16.8346 27.5115 17.8408 28.8094 18.6283C30.1073 19.4158 31.5875 19.8096 33.25 19.8096V23.3096C31.2083 23.3096 29.3854 22.8867 27.7812 22.0408C26.1771 21.195 24.8063 20.1158 23.6687 18.8033L22.575 24.1846L26.25 27.6846V40.8096H22.75V29.4346L19.075 26.6346L15.925 40.8096H12.25ZM23.625 10.1846C22.6625 10.1846 21.8385 9.84186 21.1531 9.15645C20.4677 8.47103 20.125 7.64707 20.125 6.68457C20.125 5.72207 20.4677 4.89811 21.1531 4.2127C21.8385 3.52728 22.6625 3.18457 23.625 3.18457C24.5875 3.18457 25.4115 3.52728 26.0969 4.2127C26.7823 4.89811 27.125 5.72207 27.125 6.68457C27.125 7.64707 26.7823 8.47103 26.0969 9.15645C25.4115 9.84186 24.5875 10.1846 23.625 10.1846Z" fill="#246132"/>
</svg>
