<svg width="146" height="87" viewBox="0 0 146 87" fill="none" xmlns="http://www.w3.org/2000/svg">
<rect y="0.55957" width="146" height="86" rx="12" fill="#EEEEEE"/>
<path d="M64.6553 14.8994C67.7952 14.6644 70.7871 14.6322 73.3955 14.835C76.011 15.0383 78.209 15.4761 79.7812 16.1621C82.352 17.2839 85.9336 19.3018 88.8877 21.0508C90.361 21.9231 91.6722 22.725 92.6152 23.3086C93.0867 23.6004 93.4663 23.8378 93.7275 24.002C93.8581 24.084 93.959 24.1482 94.0273 24.1914C94.0615 24.213 94.0881 24.2292 94.1055 24.2402C94.114 24.2457 94.1207 24.2502 94.125 24.2529C94.127 24.2542 94.1289 24.2552 94.1299 24.2559L94.1309 24.2568L94.2578 24.3379L94.4082 24.335C98.4457 24.2642 104.41 24.6552 109.652 25.5518C112.274 26.0002 114.697 26.5728 116.602 27.2686C117.553 27.6164 118.363 27.9903 118.998 28.3877C119.638 28.7878 120.071 29.1927 120.309 29.5889C121.416 31.4334 122.004 34.7876 122.004 37.7676C122.004 39.248 121.858 40.5903 121.581 41.5654C121.442 42.0547 121.278 42.4236 121.104 42.668C120.93 42.9112 120.781 42.9855 120.672 43C118.368 43.3057 110.419 43.3269 102.478 42.9961C94.5386 42.6655 42.1746 42.3619 36.627 42.2617C33.8494 42.2111 31.082 41.8272 28.3076 41.3799L27.1182 41.1855C25.7739 40.9631 25.0309 40.6594 24.5986 40.1162C24.1607 39.5656 23.9468 38.6499 24.0107 36.9365C24.0761 35.1795 24.1423 33.4222 24.208 31.665C24.2737 29.908 24.339 28.1507 24.4043 26.3936C24.4794 24.3768 24.8702 23.5332 25.4434 23.1182C25.7415 22.9024 26.1382 22.7643 26.6865 22.6807C27.238 22.5966 27.8996 22.5732 28.709 22.5566C35.6935 22.412 40.3201 20.3149 46.0391 18.4453L46.0381 18.4443C51.535 16.6474 58.3734 15.3697 64.6553 14.8994Z" stroke="black"/>
<path d="M31.0608 26.3582C28.6818 26.2185 26.3029 26.0788 23.9224 25.9407C23.9134 26.0803 23.9059 26.2245 23.8999 26.3762C23.8473 27.7895 23.7948 29.2012 23.7422 30.6145C24.6253 30.7571 25.5294 30.8653 26.3704 30.7992C27.7281 30.6941 28.8891 29.9146 31.6059 28.2866C32.9861 27.4591 32.6738 26.4528 31.0608 26.3582Z" fill="#ED4C4C"/>
<path d="M49.2743 36.383C47.828 32.9302 44.0658 30.5948 40.3292 30.8306C36.5925 31.0664 33.1533 33.8553 32.1515 37.4628C31.1498 41.0703 32.6577 45.2334 35.738 47.3616C38.8183 49.4897 43.2458 49.4296 46.266 47.2174C49.2863 45.0051 51.2612 40.9141 49.2743 36.3845V36.383Z" fill="#514A42"/>
<path d="M44.9922 38.1777C44.2909 36.5047 42.4691 35.3738 40.6579 35.4879C38.8481 35.602 37.1811 36.9537 36.6959 38.7004C36.2108 40.4486 36.9408 42.4655 38.4336 43.4958C39.925 44.5276 42.0711 44.4976 43.5339 43.4252C44.9967 42.3529 45.9534 40.3719 44.9907 38.1762L44.9922 38.1777Z" fill="#91A6A8"/>
<path d="M45.6352 37.7992C44.7717 35.8858 42.6661 34.5627 40.5484 34.7459C38.4999 34.9232 36.6811 36.3484 36.0278 38.3008C35.3941 40.1962 36.0609 42.473 37.5672 43.7721C39.2208 45.1989 41.7589 45.4016 43.6258 44.2617C45.7839 42.9446 46.664 40.3148 45.7118 37.9779C45.3514 37.0948 43.8976 37.4808 44.264 38.3774C45.039 40.2758 44.3271 42.4415 42.3402 43.236C40.3532 44.0304 38.1875 43.0422 37.5117 41.0688C36.8854 39.241 37.7655 37.2976 39.5362 36.5241C41.43 35.6966 43.5236 36.7494 44.3406 38.5577C44.7371 39.4377 46.0317 38.6748 45.6368 37.7992H45.6352Z" fill="black"/>
<path d="M113.298 36.383C111.851 32.9302 108.089 30.5948 104.353 30.8306C100.616 31.0664 97.1767 33.8553 96.175 37.4628C95.1732 41.0703 96.6811 45.2334 99.7614 47.3616C102.842 49.4897 107.269 49.4296 110.289 47.2174C113.31 45.0051 115.285 40.9141 113.298 36.3845V36.383Z" fill="#514A42"/>
<path d="M109.016 38.1777C108.314 36.5047 106.493 35.3738 104.681 35.4879C102.872 35.602 101.204 36.9537 100.719 38.7004C100.234 40.4486 100.964 42.4655 102.457 43.4958C103.948 44.5276 106.095 44.4976 107.557 43.4252C109.02 42.3529 109.977 40.3719 109.014 38.1762L109.016 38.1777Z" fill="#91A6A8"/>
<path d="M109.659 37.7992C108.796 35.8858 106.69 34.5627 104.572 34.7459C102.455 34.9292 100.705 36.3484 100.052 38.3008C99.3985 40.2533 100.085 42.473 101.591 43.7721C103.245 45.1989 105.783 45.4016 107.65 44.2617C109.808 42.9446 110.688 40.3148 109.736 37.9779C109.375 37.0948 107.922 37.4808 108.288 38.3774C109.063 40.2758 108.351 42.4415 106.364 43.236C104.377 44.0304 102.211 43.0422 101.536 41.0688C100.909 39.241 101.789 37.2976 103.56 36.5241C105.454 35.6966 107.548 36.7494 108.365 38.5577C108.761 39.4377 110.056 38.6748 109.661 37.7992H109.659Z" fill="black"/>
<path d="M54.8351 18.3096C52.7895 18.6536 50.7755 19.1372 48.8501 19.9106C47.1891 20.5774 45.504 21.6648 44.2034 23.2793C43.915 23.6367 44.1208 24.1714 44.5758 24.2405C59.0177 26.4437 76.6902 27.0039 90.3646 26.1448C90.9293 26.1088 91.1276 25.3759 90.6575 25.0605C82.9785 19.9031 77.5087 17.6203 72.4189 16.9024C66.904 16.1244 61.3622 17.2103 54.8351 18.3081V18.3096Z" fill="#D9D9D9"/>
<path d="M54.6346 17.5858C51.1143 18.1895 47.4002 19.1432 44.7118 21.6348C44.2162 22.0944 43.4983 22.6801 43.3496 23.371C43.2085 24.0273 43.5899 24.6911 44.2147 24.9179C44.889 25.1627 45.7526 25.1702 46.463 25.2693C47.3236 25.3895 48.1841 25.5021 49.0447 25.6102C56.3122 26.5174 63.6338 27.0055 70.9554 27.1962C74.5974 27.2908 78.2424 27.3073 81.8859 27.2368C83.6131 27.2037 85.3387 27.1496 87.0643 27.0731C87.8543 27.0385 88.6443 26.998 89.4343 26.9529C90.1071 26.9139 90.8836 26.989 91.3537 26.4107C92.5371 24.9554 90.2963 23.9131 89.3382 23.2974C87.8078 22.3122 86.2488 21.3705 84.6508 20.5009C82.1337 19.1312 79.5025 17.9252 76.7526 17.0977C69.4355 14.893 61.9862 16.3468 54.6346 17.5858C53.684 17.7465 54.0865 19.1943 55.0341 19.0336C61.1617 18.0018 67.5071 16.6456 73.7083 17.8817C78.8642 18.9089 83.5875 21.4321 87.991 24.218C88.6578 24.64 89.3892 25.2663 90.1011 25.5261L90.1732 25.5081C90.1522 25.3684 90.0606 25.3399 89.8999 25.4225C89.7662 25.4045 89.5604 25.442 89.4343 25.4495C89.0423 25.4721 88.6503 25.4931 88.2583 25.5126C86.761 25.5892 85.2636 25.6463 83.7648 25.6883C80.6439 25.777 77.52 25.7965 74.3976 25.7589C67.8285 25.6793 61.2578 25.3489 54.7172 24.7271C52.951 24.5589 51.1879 24.3697 49.4277 24.1534C48.5311 24.0438 47.6345 23.9267 46.7408 23.802C46.3293 23.7449 45.9178 23.6849 45.5078 23.6248C45.3696 23.6038 45.1654 23.5482 45.0182 23.5512C44.7389 23.4686 44.6998 23.4881 44.8981 23.6083L45.0663 23.4145C45.4147 23.1922 45.7346 22.7207 46.053 22.4458C46.3714 22.171 46.7138 21.9157 47.0682 21.6829C47.7741 21.2188 48.5251 20.8358 49.312 20.5294C51.1548 19.8116 53.0892 19.3655 55.0341 19.0321C55.9848 18.8684 55.5823 17.4221 54.6346 17.5843V17.5858Z" fill="black"/>
<path d="M62.7204 30.2734C63.6381 30.4191 64.5602 30.5137 65.4899 30.5393C66.4195 30.5648 66.4556 29.0644 65.4899 29.0374C64.6954 29.0149 63.9054 28.9488 63.1199 28.8256C62.7159 28.7611 62.3164 28.9293 62.1963 29.3498C62.0942 29.7057 62.3209 30.2104 62.7204 30.2734Z" fill="black"/>
<path d="M59.3866 27.9921C57.5618 32.3085 59.3565 36.6939 61.2023 40.6603C61.6093 41.5359 62.9039 40.7745 62.4984 39.9019C60.9275 36.5227 59.1102 32.4707 60.6827 28.7491C61.0551 27.869 59.762 27.103 59.3866 27.9906V27.9921Z" fill="black"/>
<path d="M88.5232 28.5179C89.7097 32.283 89.9259 36.269 89.1149 40.1348C88.9167 41.0779 90.3645 41.4804 90.5627 40.5343C91.4293 36.4087 91.2386 32.1419 89.971 28.1184C89.6811 27.1992 88.2303 27.5927 88.5232 28.5179Z" fill="black"/>
<path d="M119.683 30.8308C119.02 30.0619 114.567 28.7447 111.443 29.5527C110.601 29.7705 110.371 30.3442 111.227 30.8759C112.236 31.5037 113.483 31.9933 114.473 32.3807C116.539 33.1888 117.966 33.3555 118.89 32.9665C119.585 32.6736 120.303 31.5502 119.684 30.8308H119.683Z" fill="#FFC466"/>
<path d="M59.3725 18.4418C59.802 20.9033 60.2316 23.3664 60.6611 25.8279C60.8263 26.7786 62.2741 26.3761 62.1089 25.4284C61.6793 22.9669 61.2498 20.5038 60.8203 18.0423C60.6551 17.0916 59.2073 17.4941 59.3725 18.4418Z" fill="black"/>
<path d="M52.184 67.03C51.448 67.03 50.7866 66.902 50.2 66.646C49.624 66.3793 49.1706 66.0166 48.84 65.558C48.5093 65.0886 48.3386 64.55 48.328 63.942H49.88C49.9333 64.4646 50.1466 64.9073 50.52 65.27C50.904 65.622 51.4586 65.798 52.184 65.798C52.8773 65.798 53.4213 65.6273 53.816 65.286C54.2213 64.934 54.424 64.486 54.424 63.942C54.424 63.5153 54.3066 63.1686 54.072 62.902C53.8373 62.6353 53.544 62.4326 53.192 62.294C52.84 62.1553 52.3653 62.006 51.768 61.846C51.032 61.654 50.44 61.462 49.992 61.27C49.5546 61.078 49.176 60.7793 48.856 60.374C48.5466 59.958 48.392 59.4033 48.392 58.71C48.392 58.102 48.5466 57.5633 48.856 57.094C49.1653 56.6246 49.5973 56.262 50.152 56.006C50.7173 55.75 51.3626 55.622 52.088 55.622C53.1333 55.622 53.9866 55.8833 54.648 56.406C55.32 56.9286 55.6986 57.622 55.784 58.486H54.184C54.1306 58.0593 53.9066 57.686 53.512 57.366C53.1173 57.0353 52.5946 56.87 51.944 56.87C51.336 56.87 50.84 57.03 50.456 57.35C50.072 57.6593 49.88 58.0966 49.88 58.662C49.88 59.0673 49.992 59.398 50.216 59.654C50.4506 59.91 50.7333 60.1073 51.064 60.246C51.4053 60.374 51.88 60.5233 52.488 60.694C53.224 60.8966 53.816 61.0993 54.264 61.302C54.712 61.494 55.096 61.798 55.416 62.214C55.736 62.6193 55.896 63.174 55.896 63.878C55.896 64.422 55.752 64.934 55.464 65.414C55.176 65.894 54.7493 66.2833 54.184 66.582C53.6186 66.8806 52.952 67.03 52.184 67.03ZM66.0386 62.198C66.0386 62.4753 66.0226 62.7686 65.9906 63.078H58.9826C59.0359 63.942 59.3292 64.6193 59.8626 65.11C60.4066 65.59 61.0626 65.83 61.8306 65.83C62.4599 65.83 62.9826 65.686 63.3986 65.398C63.8252 65.0993 64.1239 64.7046 64.2946 64.214H65.8626C65.6279 65.0566 65.1586 65.7446 64.4546 66.278C63.7506 66.8006 62.8759 67.062 61.8306 67.062C60.9986 67.062 60.2519 66.8753 59.5906 66.502C58.9399 66.1286 58.4279 65.6006 58.0546 64.918C57.6812 64.2246 57.4946 63.4246 57.4946 62.518C57.4946 61.6113 57.6759 60.8166 58.0386 60.134C58.4012 59.4513 58.9079 58.9286 59.5586 58.566C60.2199 58.1926 60.9772 58.006 61.8306 58.006C62.6626 58.006 63.3986 58.1873 64.0386 58.55C64.6786 58.9126 65.1692 59.414 65.5106 60.054C65.8626 60.6833 66.0386 61.398 66.0386 62.198ZM64.5346 61.894C64.5346 61.3393 64.4119 60.8646 64.1666 60.47C63.9212 60.0646 63.5852 59.7606 63.1586 59.558C62.7426 59.3446 62.2786 59.238 61.7666 59.238C61.0306 59.238 60.4012 59.4726 59.8786 59.942C59.3666 60.4113 59.0732 61.062 58.9986 61.894H64.5346ZM67.4165 62.502C67.4165 61.606 67.5978 60.822 67.9605 60.15C68.3231 59.4673 68.8191 58.9393 69.4485 58.566C70.0885 58.1926 70.8031 58.006 71.5925 58.006C72.2751 58.006 72.9098 58.166 73.4965 58.486C74.0831 58.7953 74.5311 59.206 74.8405 59.718V55.078H76.3125V66.918H74.8405V65.27C74.5525 65.7926 74.1258 66.2246 73.5605 66.566C72.9951 66.8966 72.3338 67.062 71.5765 67.062C70.7978 67.062 70.0885 66.87 69.4485 66.486C68.8191 66.102 68.3231 65.5633 67.9605 64.87C67.5978 64.1766 67.4165 63.3873 67.4165 62.502ZM74.8405 62.518C74.8405 61.8566 74.7071 61.2806 74.4405 60.79C74.1738 60.2993 73.8111 59.926 73.3525 59.67C72.9045 59.4033 72.4085 59.27 71.8645 59.27C71.3205 59.27 70.8245 59.398 70.3765 59.654C69.9285 59.91 69.5711 60.2833 69.3045 60.774C69.0378 61.2646 68.9045 61.8406 68.9045 62.502C68.9045 63.174 69.0378 63.7606 69.3045 64.262C69.5711 64.7526 69.9285 65.1313 70.3765 65.398C70.8245 65.654 71.3205 65.782 71.8645 65.782C72.4085 65.782 72.9045 65.654 73.3525 65.398C73.8111 65.1313 74.1738 64.7526 74.4405 64.262C74.7071 63.7606 74.8405 63.1793 74.8405 62.518ZM78.229 62.502C78.229 61.606 78.4103 60.822 78.773 60.15C79.1356 59.4673 79.6316 58.9393 80.261 58.566C80.901 58.1926 81.6103 58.006 82.389 58.006C83.157 58.006 83.8236 58.1713 84.389 58.502C84.9543 58.8326 85.3756 59.2486 85.653 59.75V58.15H87.125V66.918H85.653V65.286C85.365 65.798 84.933 66.2246 84.357 66.566C83.7916 66.8966 83.1303 67.062 82.373 67.062C81.5943 67.062 80.8903 66.87 80.261 66.486C79.6316 66.102 79.1356 65.5633 78.773 64.87C78.4103 64.1766 78.229 63.3873 78.229 62.502ZM85.653 62.518C85.653 61.8566 85.5196 61.2806 85.253 60.79C84.9863 60.2993 84.6236 59.926 84.165 59.67C83.717 59.4033 83.221 59.27 82.677 59.27C82.133 59.27 81.637 59.398 81.189 59.654C80.741 59.91 80.3836 60.2833 80.117 60.774C79.8503 61.2646 79.717 61.8406 79.717 62.502C79.717 63.174 79.8503 63.7606 80.117 64.262C80.3836 64.7526 80.741 65.1313 81.189 65.398C81.637 65.654 82.133 65.782 82.677 65.782C83.221 65.782 83.717 65.654 84.165 65.398C84.6236 65.1313 84.9863 64.7526 85.253 64.262C85.5196 63.7606 85.653 63.1793 85.653 62.518ZM93.8575 57.99C94.9241 57.99 95.7881 58.3153 96.4495 58.966C97.1108 59.606 97.4415 60.534 97.4415 61.75V66.918H96.0015V61.958C96.0015 61.0833 95.7828 60.4166 95.3455 59.958C94.9081 59.4886 94.3108 59.254 93.5535 59.254C92.7855 59.254 92.1721 59.494 91.7135 59.974C91.2655 60.454 91.0415 61.1526 91.0415 62.07V66.918H89.5855V58.15H91.0415V59.398C91.3295 58.95 91.7188 58.6033 92.2095 58.358C92.7108 58.1126 93.2601 57.99 93.8575 57.99Z" fill="black"/>
</svg>
