<svg width="147" height="86" viewBox="0 0 147 86" fill="none" xmlns="http://www.w3.org/2000/svg">
<rect x="0.570312" width="146" height="86" rx="12" fill="url(#paint0_linear_4307_2371)"/>
<path d="M55.3145 14.2471C59.8657 14.0957 64.6775 14.0921 68.9512 14.3369C73.2387 14.5825 76.9376 15.0765 79.291 15.9004C80.3753 16.2804 82.5624 17.5185 84.9971 19.2412C87.42 20.9557 90.0347 23.1124 91.9814 25.2939L92.1104 25.4375L92.3018 25.458H92.3027C92.3038 25.4581 92.3054 25.4587 92.3076 25.459C92.3119 25.4595 92.3185 25.46 92.3271 25.4609C92.3448 25.4629 92.3715 25.4658 92.4062 25.4697C92.4759 25.4775 92.5794 25.4894 92.7129 25.5049C92.9799 25.5359 93.3685 25.5824 93.8525 25.6436C94.8208 25.766 96.1711 25.9472 97.6992 26.1846C100.763 26.6606 104.516 27.3562 107.338 28.2383C110.052 29.0866 111.524 30.7108 112.354 32.4727C113.194 34.2572 113.383 36.2006 113.476 37.6826C113.637 40.2751 111.423 42.0447 108.859 42.6309L41.6621 41.4932H41.6533C40.1449 41.4932 38.5185 41.5211 37.1016 41.2295C35.6941 40.9398 34.6031 40.3565 34.0449 39.2158C33.7635 38.6408 33.6518 38.1612 33.6855 36.7666C33.7199 35.3473 33.9007 33.0759 34.1611 28.9375C34.251 27.509 34.3816 26.6984 34.6387 26.0508C34.8933 25.4097 35.2864 24.8904 35.9961 24.0645C37.7465 22.0271 39.5006 19.9856 41.251 17.9482L41.7627 17.3525L41.0068 17.1406H41.0049C41.0039 17.1404 41.0028 17.1392 41.001 17.1387C40.997 17.1376 40.9902 17.136 40.9824 17.1338C40.9669 17.1295 40.9441 17.1233 40.915 17.1152C40.8564 17.0989 40.7717 17.0749 40.668 17.0459C40.4604 16.9879 40.1759 16.9089 39.8682 16.8232L38.167 16.3525C38.0261 16.3144 37.9374 16.2193 37.9004 16.123C37.8689 16.0413 37.8819 15.9865 37.8984 15.9561C37.9075 15.951 37.9206 15.9433 37.9395 15.9346C38.0037 15.9049 38.1005 15.8687 38.2354 15.8281C38.5044 15.7472 38.8829 15.6607 39.3652 15.5713C40.3272 15.3929 41.6598 15.2115 43.2676 15.04C46.481 14.6973 50.7635 14.3984 55.3145 14.2471Z" stroke="#FEFEFE"/>
<path d="M108.949 31.5243C108.624 31.4892 108.228 31.4867 108.051 31.7612C107.873 32.0396 108.048 32.4018 108.221 32.6839C108.697 33.4524 109.172 34.2209 109.646 34.9906C109.908 35.4143 110.177 35.8468 110.566 36.1565C111.258 36.7068 112.212 36.782 113.096 36.7319C113.364 36.7169 113.635 36.6918 113.904 36.6705C113.769 35.2338 113.472 33.5088 112.643 31.923C111.411 31.7901 110.178 31.6572 108.947 31.5256L108.949 31.5243Z" fill="#FEFEFE"/>
<path d="M33.1669 36.9424C33.1481 37.8061 33.2158 38.6686 33.5919 39.4359C34.2124 40.7033 35.5826 41.4705 36.9704 41.7237C38.3594 41.977 39.7723 41.9933 41.649 41.9933L108.913 43.1328C110.781 42.7179 112.59 41.6661 113.453 40.0589C86.6908 39.0197 59.9294 37.9816 33.1669 36.9424Z" fill="#FEFEFE"/>
<path d="M53.0887 37.9101C51.8814 35.028 48.7411 33.0786 45.622 33.2754C42.503 33.4722 39.6322 35.8002 38.796 38.8114C37.9598 41.8226 39.2185 45.2977 41.7897 47.0741C44.3609 48.8505 48.0566 48.8004 50.5776 46.9538C53.0987 45.1072 54.7472 41.6923 53.0887 37.9113V37.9101Z" fill="#FEFEFE"/>
<path d="M49.5104 39.4101C48.925 38.0135 47.4043 37.0695 45.8925 37.1648C44.3818 37.2601 42.9903 38.3884 42.5854 39.8463C42.1804 41.3056 42.7897 42.9892 44.0358 43.8492C45.2807 44.7104 47.0721 44.6854 48.2932 43.7903C49.5142 42.8952 50.3128 41.2416 49.5092 39.4088L49.5104 39.4101Z" fill="#A1A1A1"/>
<path d="M50.0547 39.093C49.3339 37.4959 47.5763 36.3915 45.8087 36.5444C44.0987 36.6923 42.5806 37.882 42.0352 39.5117C41.5062 41.0938 42.0628 42.9943 43.3202 44.0787C44.7005 45.2697 46.8191 45.4389 48.3774 44.4874C50.1788 43.388 50.9135 41.1929 50.1187 39.2422C49.8178 38.5051 48.6043 38.8273 48.9102 39.5757C49.557 41.1603 48.9628 42.968 47.3043 43.6312C45.6457 44.2944 43.838 43.4695 43.2738 41.8222C42.7511 40.2965 43.4857 38.6743 44.9637 38.0287C46.5446 37.338 48.2921 38.2167 48.9741 39.7261C49.3051 40.4608 50.3857 39.8239 50.056 39.093H50.0547Z" fill="#FEFEFE"/>
<path d="M106.526 37.9101C105.319 35.028 102.179 33.0786 99.0595 33.2754C95.9405 33.4722 93.0697 35.8002 92.2335 38.8114C91.3973 41.8226 92.656 45.2977 95.2272 47.0741C97.7984 48.8505 101.494 48.8004 104.015 46.9538C106.536 45.1072 108.185 41.6923 106.526 37.9113V37.9101Z" fill="#FEFEFE"/>
<path d="M102.956 39.4101C102.37 38.0135 100.85 37.0695 99.3378 37.1648C97.8271 37.2601 96.4356 38.3884 96.0307 39.8463C95.6258 41.3056 96.235 42.9892 97.4811 43.8492C98.726 44.7104 100.517 44.6854 101.738 43.7903C102.96 42.8952 103.758 41.2416 102.954 39.4088L102.956 39.4101Z" fill="#A1A1A1"/>
<path d="M103.492 39.093C102.771 37.4959 101.014 36.3915 99.2462 36.5444C97.4786 36.6973 96.0181 37.882 95.4727 39.5117C94.9437 41.0938 95.5003 42.9943 96.7577 44.0787C98.138 45.2697 100.257 45.4389 101.815 44.4874C103.616 43.388 104.351 41.1929 103.556 39.2422C103.255 38.5051 102.042 38.8273 102.348 39.5757C102.995 41.1603 102.4 42.968 100.742 43.6312C99.0832 44.2944 97.2755 43.4695 96.7113 41.8222C96.1886 40.2965 96.9232 38.6743 98.4012 38.0287C99.9821 37.338 101.73 38.2167 102.412 39.7261C102.743 40.4608 103.823 39.8239 103.493 39.093H103.492Z" fill="#FEFEFE"/>
<path d="M65.8978 16.4421C61.1641 16.3356 56.2787 16.2742 51.6315 16.2754C49.0239 16.2754 48.7118 16.7656 47.8631 19.832C47.2814 21.9331 47.838 22.5937 49.5618 22.9861C60.595 25.4959 71.9579 26.3095 83.2732 26.2869C83.8624 26.2869 84.6397 26.3421 85.0834 26.0851C85.7441 25.7015 86.48 25.0747 86.826 24.6773C87.0604 24.409 86.5126 23.7809 86.3446 23.5828C81.6422 18.0205 75.4756 16.8583 65.8953 16.4421H65.8978Z" fill="#FEFEFE"/>
<path d="M65.913 15.8158C62.1922 15.733 58.4702 15.6766 54.7481 15.6566C53.2713 15.6491 51.7218 15.5137 50.2563 15.733C49.4465 15.8547 48.7608 16.2144 48.2994 16.9064C47.7039 17.799 47.4144 19 47.1799 20.0318C46.9593 21.0046 46.9066 22.1165 47.714 22.8386C48.6793 23.7011 50.3416 23.8052 51.5413 24.0534C53.3603 24.4307 55.1881 24.763 57.0222 25.0551C64.2644 26.2084 71.5932 26.745 78.9219 26.8778C80.682 26.9104 82.4897 27.0233 84.2473 26.9079C84.9807 26.859 85.501 26.6096 86.0827 26.1771C86.5377 25.8398 87.3275 25.3409 87.493 24.7517C87.6447 24.2139 87.2548 23.6924 86.9402 23.3025C86.5603 22.8311 86.1454 22.3836 85.7166 21.9561C84.888 21.1299 83.9753 20.384 83 19.7384C78.0281 16.4439 71.6885 16.069 65.9105 15.8145C65.1044 15.7794 65.1056 17.0331 65.9105 17.0682C70.7181 17.28 75.8681 17.5433 80.2884 19.6481C82.1701 20.5445 83.8474 21.7768 85.2716 23.2987C85.4559 23.4955 85.6351 23.6961 85.8106 23.9005C85.9235 24.0321 86.0789 24.3217 86.2105 24.4195C86.4111 24.5687 86.1767 24.4771 86.3033 24.3367C86.1905 24.4621 86.0639 24.5762 85.9385 24.689C85.6326 24.9635 85.3054 25.2368 84.9481 25.4424C84.4091 25.7508 83.7685 25.6606 83.1667 25.6593C82.318 25.6593 81.4693 25.6568 80.6206 25.648C73.9124 25.5803 67.1979 25.198 60.5462 24.3129C57.2403 23.8729 53.9496 23.3037 50.6901 22.5917C49.9956 22.44 48.5414 22.366 48.3132 21.4947C48.1966 21.0485 48.3446 20.5194 48.4574 20.0907C48.6041 19.5303 48.7645 18.9699 48.9588 18.4246C49.2071 17.7301 49.5104 17.1685 50.2676 16.998C50.7916 16.8801 51.3483 16.9014 51.8823 16.9014C52.7573 16.9014 53.6324 16.9039 54.5074 16.9077C58.3097 16.9265 62.1107 16.9829 65.9117 17.0682C66.7191 17.0857 66.7191 15.8321 65.9117 15.8145L65.913 15.8158Z" fill="#FEFEFE"/>
<path d="M69.7682 29.016C70.4827 29.0461 71.1986 29.0762 71.9131 29.1063C72.7192 29.1401 72.718 27.8865 71.9131 27.8526C71.1986 27.8226 70.4827 27.7925 69.7682 27.7624C68.9621 27.7285 68.9633 28.9822 69.7682 29.016Z" fill="#FEFEFE"/>
<path d="M49.6536 25.8275C50.2352 25.9904 50.8157 26.1534 51.3974 26.3151C52.1759 26.5333 52.5081 25.3235 51.7308 25.1066C51.1491 24.9437 50.5687 24.7807 49.987 24.619C49.2085 24.4008 48.8763 25.6106 49.6536 25.8275Z" fill="#FEFEFE"/>
<path d="M47.1896 24.0424C46.7672 26.403 46.7609 28.8024 47.1646 31.1668C47.3 31.9603 48.5085 31.6244 48.3731 30.8333C48.0095 28.7059 48.0183 26.4995 48.3981 24.3758C48.5398 23.5873 47.3313 23.2488 47.1896 24.0424Z" fill="#FEFEFE"/>
<path d="M67.0499 27.6057C67.3282 30.6834 67.3558 33.7736 67.1339 36.8562C67.0762 37.6611 68.3299 37.6573 68.3875 36.8562C68.6094 33.7736 68.5806 30.6834 68.3035 27.6057C68.2321 26.8084 66.9772 26.8009 67.0499 27.6057Z" fill="#FEFEFE"/>
<path d="M88.5886 26.7248C89.9651 29.1205 90.528 31.8484 90.2459 34.5939C90.1632 35.3962 91.4181 35.3899 91.4996 34.5939C91.8029 31.6403 91.1498 28.6629 89.6705 26.0917C89.2681 25.3922 88.185 26.0228 88.5886 26.7248Z" fill="#FEFEFE"/>
<path d="M64.7749 16.7106C65.2526 19.5149 65.6086 22.3356 65.8468 25.1701C65.9132 25.9686 67.1681 25.9749 67.1004 25.1701C66.8547 22.224 66.4811 19.2905 65.9847 16.3771C65.8493 15.5835 64.6408 15.9195 64.7762 16.7106H64.7749Z" fill="#FEFEFE"/>
<path d="M42.2967 17.8605C41.8993 17.7126 41.3452 17.6512 40.8751 17.6211C39.1238 19.6595 37.3712 21.6992 35.6199 23.7376C35.2501 24.1676 34.879 24.6026 34.5781 25.0827C35.1423 25.2407 35.6663 25.3773 36.1201 25.4814C38.4832 26.0229 39.2203 25.3184 40.1192 23.9833C41.0155 22.6507 41.8868 21.3005 42.7318 19.934C43.2796 19.0477 43.3423 18.2504 42.2955 17.8618L42.2967 17.8605Z" fill="#FEFEFE"/>
<path d="M35.1272 25.8825C36.2955 26.1847 37.6056 26.5319 38.779 26.0656C39.812 25.6556 40.405 24.6841 40.9929 23.799C41.4831 23.0631 41.9645 22.3235 42.4383 21.5776C42.8458 20.937 43.346 20.2876 43.603 19.568C44.0906 18.2053 43.1078 17.3415 41.8416 17.1034C41.0531 16.9554 40.7146 18.1627 41.5081 18.3119C41.8604 18.3783 42.4897 18.446 42.4885 18.9061C42.4872 19.3662 42.0284 19.8751 41.8053 20.2299C41.102 21.3532 40.3811 22.4664 39.6415 23.5658C39.2867 24.0936 38.8993 24.6903 38.2738 24.9198C37.3837 25.247 36.3281 24.8972 35.4581 24.6728C34.6771 24.471 34.3436 25.6795 35.1247 25.8813L35.1272 25.8825Z" fill="#FEFEFE"/>
<path d="M37.4936 31.0749C37.5475 30.6762 37.6014 30.2726 37.5513 29.8739C37.5011 29.4753 37.3344 29.0754 37.0185 28.8271C36.6662 28.5501 36.1936 28.4999 35.7473 28.4611L33.7051 28.2793C33.6888 28.4887 33.675 28.6968 33.6625 28.9049C33.5923 30.0118 33.5233 31.1188 33.4531 32.2257C34.3206 32.2746 35.1881 32.3198 36.0569 32.3574C36.3866 32.3712 36.7427 32.3774 37.0122 32.1881C37.3532 31.9487 37.4384 31.4873 37.4936 31.0736V31.0749Z" fill="#FEFEFE"/>
<path d="M39.7712 55.221V66.373H38.3152V61.317H32.6352V66.373H31.1792V55.221H32.6352V60.117H38.3152V55.221H39.7712ZM41.7133 61.957C41.7133 61.061 41.8947 60.277 42.2573 59.605C42.62 58.9224 43.116 58.3944 43.7453 58.021C44.3853 57.6477 45.0947 57.461 45.8733 57.461C46.6413 57.461 47.308 57.6264 47.8733 57.957C48.4387 58.2877 48.86 58.7037 49.1373 59.205V57.605H50.6093V66.373H49.1373V64.741C48.8493 65.253 48.4173 65.6797 47.8413 66.021C47.276 66.3517 46.6147 66.517 45.8573 66.517C45.0787 66.517 44.3747 66.325 43.7453 65.941C43.116 65.557 42.62 65.0184 42.2573 64.325C41.8947 63.6317 41.7133 62.8424 41.7133 61.957ZM49.1373 61.973C49.1373 61.3117 49.004 60.7357 48.7373 60.245C48.4707 59.7544 48.108 59.381 47.6493 59.125C47.2013 58.8584 46.7053 58.725 46.1613 58.725C45.6173 58.725 45.1213 58.853 44.6733 59.109C44.2253 59.365 43.868 59.7384 43.6013 60.229C43.3347 60.7197 43.2013 61.2957 43.2013 61.957C43.2013 62.629 43.3347 63.2157 43.6013 63.717C43.868 64.2077 44.2253 64.5864 44.6733 64.853C45.1213 65.109 45.6173 65.237 46.1613 65.237C46.7053 65.237 47.2013 65.109 47.6493 64.853C48.108 64.5864 48.4707 64.2077 48.7373 63.717C49.004 63.2157 49.1373 62.6344 49.1373 61.973ZM54.8458 58.805V63.973C54.8458 64.3997 54.9365 64.7037 55.1178 64.885C55.2992 65.0557 55.6138 65.141 56.0618 65.141H57.1338V66.373H55.8218C55.0112 66.373 54.4032 66.1864 53.9978 65.813C53.5925 65.4397 53.3898 64.8264 53.3898 63.973V58.805H52.2538V57.605H53.3898V55.397H54.8458V57.605H57.1338V58.805H54.8458ZM58.354 61.973C58.354 61.0664 58.5353 60.277 58.898 59.605C59.2606 58.9224 59.762 58.3944 60.402 58.021C61.0526 57.6477 61.794 57.461 62.626 57.461C63.7033 57.461 64.5886 57.7224 65.282 58.245C65.986 58.7677 66.45 59.493 66.674 60.421H65.106C64.9566 59.8877 64.6633 59.4664 64.226 59.157C63.7993 58.8477 63.266 58.693 62.626 58.693C61.794 58.693 61.122 58.981 60.61 59.557C60.098 60.1224 59.842 60.9277 59.842 61.973C59.842 63.029 60.098 63.845 60.61 64.421C61.122 64.997 61.794 65.285 62.626 65.285C63.266 65.285 63.7993 65.1357 64.226 64.837C64.6526 64.5384 64.946 64.1117 65.106 63.557H66.674C66.4393 64.453 65.97 65.173 65.266 65.717C64.562 66.2504 63.682 66.517 62.626 66.517C61.794 66.517 61.0526 66.3304 60.402 65.957C59.762 65.5837 59.2606 65.0557 58.898 64.373C58.5353 63.6904 58.354 62.8904 58.354 61.973ZM72.9687 57.445C73.63 57.445 74.2274 57.589 74.7607 57.877C75.294 58.1544 75.71 58.5757 76.0087 59.141C76.318 59.7064 76.4727 60.3944 76.4727 61.205V66.373H75.0327V61.413C75.0327 60.5384 74.814 59.8717 74.3767 59.413C73.9394 58.9437 73.342 58.709 72.5847 58.709C71.8167 58.709 71.2034 58.949 70.7447 59.429C70.2967 59.909 70.0727 60.6077 70.0727 61.525V66.373H68.6167V54.533H70.0727V58.853C70.3607 58.405 70.7554 58.0584 71.2567 57.813C71.7687 57.5677 72.3394 57.445 72.9687 57.445ZM80.3071 59.237C80.6057 58.7144 81.0431 58.2877 81.6191 57.957C82.1951 57.6264 82.8511 57.461 83.5871 57.461C84.3764 57.461 85.0857 57.6477 85.7151 58.021C86.3444 58.3944 86.8404 58.9224 87.2031 59.605C87.5657 60.277 87.7471 61.061 87.7471 61.957C87.7471 62.8424 87.5657 63.6317 87.2031 64.325C86.8404 65.0184 86.3391 65.557 85.6991 65.941C85.0697 66.325 84.3657 66.517 83.5871 66.517C82.8297 66.517 82.1631 66.3517 81.5871 66.021C81.0217 65.6904 80.5951 65.269 80.3071 64.757V66.373H78.8511V54.533H80.3071V59.237ZM86.2591 61.957C86.2591 61.2957 86.1257 60.7197 85.8591 60.229C85.5924 59.7384 85.2297 59.365 84.7711 59.109C84.3231 58.853 83.8271 58.725 83.2831 58.725C82.7497 58.725 82.2537 58.8584 81.7951 59.125C81.3471 59.381 80.9844 59.7597 80.7071 60.261C80.4404 60.7517 80.3071 61.3224 80.3071 61.973C80.3071 62.6344 80.4404 63.2157 80.7071 63.717C80.9844 64.2077 81.3471 64.5864 81.7951 64.853C82.2537 65.109 82.7497 65.237 83.2831 65.237C83.8271 65.237 84.3231 65.109 84.7711 64.853C85.2297 64.5864 85.5924 64.2077 85.8591 63.717C86.1257 63.2157 86.2591 62.629 86.2591 61.957ZM89.1196 61.957C89.1196 61.061 89.3009 60.277 89.6636 59.605C90.0262 58.9224 90.5222 58.3944 91.1516 58.021C91.7916 57.6477 92.5009 57.461 93.2796 57.461C94.0476 57.461 94.7142 57.6264 95.2796 57.957C95.8449 58.2877 96.2662 58.7037 96.5436 59.205V57.605H98.0156V66.373H96.5436V64.741C96.2556 65.253 95.8236 65.6797 95.2476 66.021C94.6822 66.3517 94.0209 66.517 93.2636 66.517C92.4849 66.517 91.7809 66.325 91.1516 65.941C90.5222 65.557 90.0262 65.0184 89.6636 64.325C89.3009 63.6317 89.1196 62.8424 89.1196 61.957ZM96.5436 61.973C96.5436 61.3117 96.4102 60.7357 96.1436 60.245C95.8769 59.7544 95.5142 59.381 95.0556 59.125C94.6076 58.8584 94.1116 58.725 93.5676 58.725C93.0236 58.725 92.5276 58.853 92.0796 59.109C91.6316 59.365 91.2742 59.7384 91.0076 60.229C90.7409 60.7197 90.6076 61.2957 90.6076 61.957C90.6076 62.629 90.7409 63.2157 91.0076 63.717C91.2742 64.2077 91.6316 64.5864 92.0796 64.853C92.5276 65.109 93.0236 65.237 93.5676 65.237C94.1116 65.237 94.6076 65.109 95.0556 64.853C95.5142 64.5864 95.8769 64.2077 96.1436 63.717C96.4102 63.2157 96.5436 62.6344 96.5436 61.973ZM99.9321 61.973C99.9321 61.0664 100.113 60.277 100.476 59.605C100.839 58.9224 101.34 58.3944 101.98 58.021C102.631 57.6477 103.372 57.461 104.204 57.461C105.281 57.461 106.167 57.7224 106.86 58.245C107.564 58.7677 108.028 59.493 108.252 60.421H106.684C106.535 59.8877 106.241 59.4664 105.804 59.157C105.377 58.8477 104.844 58.693 104.204 58.693C103.372 58.693 102.7 58.981 102.188 59.557C101.676 60.1224 101.42 60.9277 101.42 61.973C101.42 63.029 101.676 63.845 102.188 64.421C102.7 64.997 103.372 65.285 104.204 65.285C104.844 65.285 105.377 65.1357 105.804 64.837C106.231 64.5384 106.524 64.1117 106.684 63.557H108.252C108.017 64.453 107.548 65.173 106.844 65.717C106.14 66.2504 105.26 66.517 104.204 66.517C103.372 66.517 102.631 66.3304 101.98 65.957C101.34 65.5837 100.839 65.0557 100.476 64.373C100.113 63.6904 99.9321 62.8904 99.9321 61.973ZM115.091 66.373L111.651 62.501V66.373H110.195V54.533H111.651V61.493L115.027 57.605H117.059L112.931 61.973L117.075 66.373H115.091Z" fill="#FEFEFE"/>
<defs>
<linearGradient id="paint0_linear_4307_2371" x1="0.570312" y1="43" x2="146.57" y2="43" gradientUnits="userSpaceOnUse">
<stop stop-color="#216432"/>
<stop offset="0.894231" stop-color="#114422"/>
</linearGradient>
</defs>
</svg>
