<svg width="146" height="86" viewBox="0 0 146 86" fill="none" xmlns="http://www.w3.org/2000/svg">
<rect width="146" height="86" rx="12" fill="url(#paint0_linear_4307_2348)"/>
<path d="M64.6553 14.3398C67.7952 14.1048 70.7871 14.0726 73.3955 14.2754C76.011 14.4787 78.209 14.9166 79.7812 15.6025C82.352 16.7243 85.9336 18.7422 88.8877 20.4912C90.361 21.3635 91.6722 22.1654 92.6152 22.749C93.0867 23.0408 93.4663 23.2782 93.7275 23.4424C93.8581 23.5244 93.959 23.5886 94.0273 23.6318C94.0615 23.6534 94.0881 23.6696 94.1055 23.6807C94.114 23.6861 94.1207 23.6906 94.125 23.6934C94.127 23.6946 94.1289 23.6956 94.1299 23.6963L94.1309 23.6973L94.2578 23.7783L94.4082 23.7754C98.4457 23.7046 104.41 24.0956 109.652 24.9922C112.274 25.4406 114.697 26.0132 116.602 26.709C117.553 27.0568 118.363 27.4307 118.998 27.8281C119.638 28.2282 120.071 28.6332 120.309 29.0293C121.416 30.8738 122.004 34.228 122.004 37.208C122.004 38.6885 121.858 40.0307 121.581 41.0059C121.442 41.4952 121.278 41.8641 121.104 42.1084C120.93 42.3516 120.781 42.426 120.672 42.4404C118.368 42.7461 110.419 42.7673 102.478 42.4365C94.5386 42.1059 42.1746 41.8024 36.627 41.7021C33.8494 41.6515 31.082 41.2677 28.3076 40.8203L27.1182 40.626C25.7739 40.4036 25.0309 40.0999 24.5986 39.5566C24.1607 39.006 23.9468 38.0904 24.0107 36.377C24.0761 34.6199 24.1423 32.8626 24.208 31.1055C24.2737 29.3484 24.339 27.5911 24.4043 25.834C24.4794 23.8172 24.8702 22.9736 25.4434 22.5586C25.7415 22.3428 26.1382 22.2047 26.6865 22.1211C27.238 22.037 27.8996 22.0137 28.709 21.9971C35.6935 21.8524 40.3201 19.7553 46.0391 17.8857L46.0381 17.8848C51.535 16.0879 58.3734 14.8101 64.6553 14.3398Z" stroke="#FEFEFE"/>
<path d="M31.0608 25.7984C28.6818 25.6587 26.3029 25.519 23.9224 25.3809C23.9134 25.5205 23.9059 25.6647 23.8999 25.8164C23.8473 27.2297 23.7948 28.6414 23.7422 30.0547C24.6253 30.1973 25.5294 30.3055 26.3704 30.2394C27.7281 30.1342 28.8891 29.3548 31.6059 27.7268C32.9861 26.8992 32.6738 25.893 31.0608 25.7984Z" fill="#FEFEFE"/>
<path d="M49.2743 35.8236C47.828 32.3709 44.0658 30.0355 40.3292 30.2712C36.5925 30.507 33.1533 33.296 32.1515 36.9035C31.1498 40.5109 32.6577 44.6741 35.738 46.8022C38.8183 48.9304 43.2458 48.8703 46.266 46.6581C49.2863 44.4458 51.2612 40.3547 49.2743 35.8251V35.8236Z" fill="#FEFEFE"/>
<path d="M44.9922 37.6186C44.2909 35.9456 42.4691 34.8147 40.6579 34.9288C38.8481 35.043 37.1811 36.3946 36.6959 38.1413C36.2108 39.8895 36.9408 41.9065 38.4336 42.9367C39.925 43.9685 42.0711 43.9385 43.5339 42.8662C44.9967 41.7938 45.9534 39.8129 44.9907 37.6171L44.9922 37.6186Z" fill="#777777"/>
<path d="M45.6352 37.2401C44.7717 35.3268 42.6661 34.0036 40.5484 34.1868C38.4999 34.3641 36.6811 35.7893 36.0278 37.7418C35.3941 39.6371 36.0609 41.9139 37.5672 43.213C39.2208 44.6398 41.7589 44.8426 43.6258 43.7026C45.7839 42.3855 46.664 39.7558 45.7118 37.4189C45.3514 36.5358 43.8976 36.9217 44.264 37.8184C45.039 39.7167 44.3271 41.8824 42.3402 42.6769C40.3532 43.4714 38.1875 42.4831 37.5117 40.5097C36.8854 38.6819 37.7655 36.7385 39.5362 35.965C41.43 35.1375 43.5236 36.1903 44.3406 37.9986C44.7371 38.8787 46.0317 38.1157 45.6368 37.2401H45.6352Z" fill="#FEFEFE"/>
<path d="M113.298 35.8236C111.851 32.3709 108.089 30.0355 104.353 30.2712C100.616 30.507 97.1767 33.296 96.175 36.9035C95.1732 40.5109 96.6811 44.6741 99.7614 46.8022C102.842 48.9304 107.269 48.8703 110.289 46.6581C113.31 44.4458 115.285 40.3547 113.298 35.8251V35.8236Z" fill="#FEFEFE"/>
<path d="M109.016 37.6186C108.314 35.9456 106.493 34.8147 104.681 34.9288C102.872 35.043 101.204 36.3946 100.719 38.1413C100.234 39.8895 100.964 41.9065 102.457 42.9367C103.948 43.9685 106.095 43.9385 107.557 42.8662C109.02 41.7938 109.977 39.8129 109.014 37.6171L109.016 37.6186Z" fill="#777777"/>
<path d="M109.659 37.2401C108.796 35.3268 106.69 34.0036 104.572 34.1868C102.455 34.3701 100.705 35.7893 100.052 37.7418C99.3985 39.6942 100.085 41.9139 101.591 43.213C103.245 44.6398 105.783 44.8426 107.65 43.7026C109.808 42.3855 110.688 39.7558 109.736 37.4189C109.375 36.5358 107.922 36.9217 108.288 37.8184C109.063 39.7167 108.351 41.8824 106.364 42.6769C104.377 43.4714 102.211 42.4831 101.536 40.5097C100.909 38.6819 101.789 36.7385 103.56 35.965C105.454 35.1375 107.548 36.1903 108.365 37.9986C108.761 38.8787 110.056 38.1157 109.661 37.2401H109.659Z" fill="#FEFEFE"/>
<path d="M54.8351 17.7501C52.7895 18.094 50.7755 18.5776 48.8501 19.351C47.1891 20.0179 45.504 21.1052 44.2034 22.7197C43.915 23.0772 44.1208 23.6118 44.5758 23.6809C59.0177 25.8841 76.6902 26.4443 90.3646 25.5853C90.9293 25.5492 91.1276 24.8163 90.6575 24.5009C82.9784 19.3435 77.5087 17.0607 72.4189 16.3428C66.904 15.5649 61.3622 16.6507 54.8351 17.7486V17.7501Z" fill="#FEFEFE"/>
<path d="M54.6346 17.0257C51.1143 17.6295 47.4002 18.5832 44.7118 21.0748C44.2162 21.5343 43.4983 22.1201 43.3496 22.8109C43.2085 23.4672 43.5899 24.131 44.2147 24.3578C44.889 24.6026 45.7526 24.6101 46.463 24.7093C47.3236 24.8294 48.1841 24.942 49.0447 25.0502C56.3122 25.9573 63.6338 26.4454 70.9554 26.6361C74.5974 26.7308 78.2424 26.7473 81.8859 26.6767C83.6131 26.6437 85.3387 26.5896 87.0643 26.513C87.8543 26.4785 88.6443 26.4379 89.4343 26.3928C90.1071 26.3538 90.8836 26.4289 91.3537 25.8507C92.5371 24.3954 90.2963 23.3531 89.3382 22.7373C87.8078 21.7521 86.2488 20.8104 84.6508 19.9409C82.1337 18.5712 79.5025 17.3652 76.7526 16.5376C69.4355 14.3329 61.9862 15.7867 54.6346 17.0257C53.684 17.1864 54.0865 18.6342 55.0341 18.4735C61.1617 17.4418 67.5071 16.0856 73.7083 17.3216C78.8642 18.3489 83.5875 20.872 87.991 23.658C88.6578 24.08 89.3892 24.7063 90.1011 24.9661L90.1732 24.9481C90.1522 24.8084 90.0606 24.7798 89.8999 24.8625C89.7662 24.8444 89.5604 24.882 89.4343 24.8895C89.0423 24.912 88.6503 24.933 88.2583 24.9526C86.761 25.0292 85.2636 25.0862 83.7648 25.1283C80.6439 25.2169 77.52 25.2364 74.3976 25.1989C67.8285 25.1193 61.2578 24.7889 54.7172 24.1671C52.951 23.9989 51.1879 23.8096 49.4277 23.5934C48.5311 23.4837 47.6345 23.3666 46.7408 23.2419C46.3293 23.1849 45.9178 23.1248 45.5078 23.0647C45.3696 23.0437 45.1654 22.9881 45.0182 22.9911C44.7389 22.9085 44.6998 22.9281 44.8981 23.0482L45.0663 22.8545C45.4147 22.6322 45.7346 22.1606 46.053 21.8858C46.3714 21.6109 46.7138 21.3556 47.0682 21.1228C47.7741 20.6587 48.5251 20.2758 49.312 19.9694C51.1548 19.2515 53.0892 18.8054 55.0341 18.472C55.9848 18.3083 55.5823 16.862 54.6346 17.0242V17.0257Z" fill="#FEFEFE"/>
<path d="M62.7204 29.7141C63.6381 29.8598 64.5602 29.9544 65.4899 29.9799C66.4195 30.0055 66.4556 28.5051 65.4899 28.4781C64.6954 28.4555 63.9054 28.3895 63.1199 28.2663C62.7159 28.2017 62.3164 28.3699 62.1963 28.7905C62.0942 29.1464 62.3209 29.651 62.7204 29.7141Z" fill="#FEFEFE"/>
<path d="M59.3866 27.4323C57.5618 31.7487 59.3565 36.1341 61.2023 40.1005C61.6093 40.9761 62.9039 40.2147 62.4984 39.3421C60.9275 35.9629 59.1102 31.9109 60.6827 28.1893C61.0551 27.3092 59.762 26.5432 59.3866 27.4308V27.4323Z" fill="#FEFEFE"/>
<path d="M88.5232 27.9585C89.7097 31.7237 89.9259 35.7097 89.1149 39.5754C88.9167 40.5186 90.3645 40.9211 90.5627 39.9749C91.4293 35.8493 91.2386 31.5825 89.971 27.559C89.6811 26.6399 88.2303 27.0334 88.5232 27.9585Z" fill="#FEFEFE"/>
<path d="M119.683 30.2715C119.02 29.5025 114.567 28.1854 111.443 28.9934C110.601 29.2112 110.371 29.7849 111.227 30.3166C112.236 30.9443 113.483 31.4339 114.473 31.8214C116.539 32.6294 117.966 32.7961 118.89 32.4072C119.585 32.1143 120.303 30.9909 119.684 30.2715H119.683Z" fill="#FEFEFE"/>
<path d="M59.3725 17.882C59.802 20.3435 60.2316 22.8066 60.6611 25.2681C60.8263 26.2188 62.2741 25.8163 62.1089 24.8686C61.6793 22.4071 61.2498 19.944 60.8203 17.4825C60.6551 16.5318 59.2073 16.9343 59.3725 17.882Z" fill="#FEFEFE"/>
<path d="M52.184 66.4704C51.448 66.4704 50.7866 66.3424 50.2 66.0864C49.624 65.8197 49.1706 65.4571 48.84 64.9984C48.5093 64.5291 48.3386 63.9904 48.328 63.3824H49.88C49.9333 63.9051 50.1466 64.3477 50.52 64.7104C50.904 65.0624 51.4586 65.2384 52.184 65.2384C52.8773 65.2384 53.4213 65.0677 53.816 64.7264C54.2213 64.3744 54.424 63.9264 54.424 63.3824C54.424 62.9557 54.3066 62.6091 54.072 62.3424C53.8373 62.0757 53.544 61.8731 53.192 61.7344C52.84 61.5957 52.3653 61.4464 51.768 61.2864C51.032 61.0944 50.44 60.9024 49.992 60.7104C49.5546 60.5184 49.176 60.2197 48.856 59.8144C48.5466 59.3984 48.392 58.8437 48.392 58.1504C48.392 57.5424 48.5466 57.0037 48.856 56.5344C49.1653 56.0651 49.5973 55.7024 50.152 55.4464C50.7173 55.1904 51.3626 55.0624 52.088 55.0624C53.1333 55.0624 53.9866 55.3237 54.648 55.8464C55.32 56.3691 55.6986 57.0624 55.784 57.9264H54.184C54.1306 57.4997 53.9066 57.1264 53.512 56.8064C53.1173 56.4757 52.5946 56.3104 51.944 56.3104C51.336 56.3104 50.84 56.4704 50.456 56.7904C50.072 57.0997 49.88 57.5371 49.88 58.1024C49.88 58.5077 49.992 58.8384 50.216 59.0944C50.4506 59.3504 50.7333 59.5477 51.064 59.6864C51.4053 59.8144 51.88 59.9637 52.488 60.1344C53.224 60.3371 53.816 60.5397 54.264 60.7424C54.712 60.9344 55.096 61.2384 55.416 61.6544C55.736 62.0597 55.896 62.6144 55.896 63.3184C55.896 63.8624 55.752 64.3744 55.464 64.8544C55.176 65.3344 54.7493 65.7237 54.184 66.0224C53.6186 66.3211 52.952 66.4704 52.184 66.4704ZM66.0386 61.6384C66.0386 61.9157 66.0226 62.2091 65.9906 62.5184H58.9826C59.0359 63.3824 59.3292 64.0597 59.8626 64.5504C60.4066 65.0304 61.0626 65.2704 61.8306 65.2704C62.4599 65.2704 62.9826 65.1264 63.3986 64.8384C63.8252 64.5397 64.1239 64.1451 64.2946 63.6544H65.8626C65.6279 64.4971 65.1586 65.1851 64.4546 65.7184C63.7506 66.2411 62.8759 66.5024 61.8306 66.5024C60.9986 66.5024 60.2519 66.3157 59.5906 65.9424C58.9399 65.5691 58.4279 65.0411 58.0546 64.3584C57.6812 63.6651 57.4946 62.8651 57.4946 61.9584C57.4946 61.0517 57.6759 60.2571 58.0386 59.5744C58.4012 58.8917 58.9079 58.3691 59.5586 58.0064C60.2199 57.6331 60.9772 57.4464 61.8306 57.4464C62.6626 57.4464 63.3986 57.6277 64.0386 57.9904C64.6786 58.3531 65.1692 58.8544 65.5106 59.4944C65.8626 60.1237 66.0386 60.8384 66.0386 61.6384ZM64.5346 61.3344C64.5346 60.7797 64.4119 60.3051 64.1666 59.9104C63.9212 59.5051 63.5852 59.2011 63.1586 58.9984C62.7426 58.7851 62.2786 58.6784 61.7666 58.6784C61.0306 58.6784 60.4012 58.9131 59.8786 59.3824C59.3666 59.8517 59.0732 60.5024 58.9986 61.3344H64.5346ZM67.4165 61.9424C67.4165 61.0464 67.5978 60.2624 67.9605 59.5904C68.3231 58.9077 68.8191 58.3797 69.4485 58.0064C70.0885 57.6331 70.8031 57.4464 71.5925 57.4464C72.2751 57.4464 72.9098 57.6064 73.4965 57.9264C74.0831 58.2357 74.5311 58.6464 74.8405 59.1584V54.5184H76.3125V66.3584H74.8405V64.7104C74.5525 65.2331 74.1258 65.6651 73.5605 66.0064C72.9951 66.3371 72.3338 66.5024 71.5765 66.5024C70.7978 66.5024 70.0885 66.3104 69.4485 65.9264C68.8191 65.5424 68.3231 65.0037 67.9605 64.3104C67.5978 63.6171 67.4165 62.8277 67.4165 61.9424ZM74.8405 61.9584C74.8405 61.2971 74.7071 60.7211 74.4405 60.2304C74.1738 59.7397 73.8111 59.3664 73.3525 59.1104C72.9045 58.8437 72.4085 58.7104 71.8645 58.7104C71.3205 58.7104 70.8245 58.8384 70.3765 59.0944C69.9285 59.3504 69.5711 59.7237 69.3045 60.2144C69.0378 60.7051 68.9045 61.2811 68.9045 61.9424C68.9045 62.6144 69.0378 63.2011 69.3045 63.7024C69.5711 64.1931 69.9285 64.5717 70.3765 64.8384C70.8245 65.0944 71.3205 65.2224 71.8645 65.2224C72.4085 65.2224 72.9045 65.0944 73.3525 64.8384C73.8111 64.5717 74.1738 64.1931 74.4405 63.7024C74.7071 63.2011 74.8405 62.6197 74.8405 61.9584ZM78.229 61.9424C78.229 61.0464 78.4103 60.2624 78.773 59.5904C79.1356 58.9077 79.6316 58.3797 80.261 58.0064C80.901 57.6331 81.6103 57.4464 82.389 57.4464C83.157 57.4464 83.8236 57.6117 84.389 57.9424C84.9543 58.2731 85.3756 58.6891 85.653 59.1904V57.5904H87.125V66.3584H85.653V64.7264C85.365 65.2384 84.933 65.6651 84.357 66.0064C83.7916 66.3371 83.1303 66.5024 82.373 66.5024C81.5943 66.5024 80.8903 66.3104 80.261 65.9264C79.6316 65.5424 79.1356 65.0037 78.773 64.3104C78.4103 63.6171 78.229 62.8277 78.229 61.9424ZM85.653 61.9584C85.653 61.2971 85.5196 60.7211 85.253 60.2304C84.9863 59.7397 84.6236 59.3664 84.165 59.1104C83.717 58.8437 83.221 58.7104 82.677 58.7104C82.133 58.7104 81.637 58.8384 81.189 59.0944C80.741 59.3504 80.3836 59.7237 80.117 60.2144C79.8503 60.7051 79.717 61.2811 79.717 61.9424C79.717 62.6144 79.8503 63.2011 80.117 63.7024C80.3836 64.1931 80.741 64.5717 81.189 64.8384C81.637 65.0944 82.133 65.2224 82.677 65.2224C83.221 65.2224 83.717 65.0944 84.165 64.8384C84.6236 64.5717 84.9863 64.1931 85.253 63.7024C85.5196 63.2011 85.653 62.6197 85.653 61.9584ZM93.8575 57.4304C94.9241 57.4304 95.7881 57.7557 96.4495 58.4064C97.1108 59.0464 97.4415 59.9744 97.4415 61.1904V66.3584H96.0015V61.3984C96.0015 60.5237 95.7828 59.8571 95.3455 59.3984C94.9081 58.9291 94.3108 58.6944 93.5535 58.6944C92.7855 58.6944 92.1721 58.9344 91.7135 59.4144C91.2655 59.8944 91.0415 60.5931 91.0415 61.5104V66.3584H89.5855V57.5904H91.0415V58.8384C91.3295 58.3904 91.7188 58.0437 92.2095 57.7984C92.7108 57.5531 93.2601 57.4304 93.8575 57.4304Z" fill="#FEFEFE"/>
<defs>
<linearGradient id="paint0_linear_4307_2348" x1="0" y1="43" x2="146" y2="43" gradientUnits="userSpaceOnUse">
<stop stop-color="#216432"/>
<stop offset="0.894231" stop-color="#114422"/>
</linearGradient>
</defs>
</svg>
