<svg width="147" height="86" viewBox="0 0 147 86" fill="none" xmlns="http://www.w3.org/2000/svg">
<rect x="0.710938" width="146" height="86" rx="12" fill="url(#paint0_linear_4316_1737)"/>
<path d="M61.4443 11.7246C67.2358 11.7127 73.2853 11.6536 78.3008 11.7373C80.8079 11.7791 83.0482 11.857 84.8623 11.9932C86.6929 12.1306 88.0395 12.3249 88.79 12.582C89.9192 12.9693 91.2459 13.8613 92.6084 14.9355C93.9679 16.0075 95.2937 17.202 96.4609 18.1855V18.1865C99.5043 20.7507 101.808 22.8314 103.663 24.3301C105.52 25.8303 107.028 26.8347 108.529 27.2168C110.5 27.7179 113.934 28.8155 115.639 29.7949C117.585 30.9127 118.846 33.0417 119.42 35.3096C120.007 37.6294 120.354 39.6775 120.569 42.6152C120.714 44.5857 120.23 45.6095 119.443 46.1875C118.603 46.8046 117.29 47.0193 115.529 47.041C87.6816 47.3839 59.8297 47.2522 31.9873 46.6455H31.9863C30.4102 46.6119 28.9176 46.528 27.8262 45.7119C26.9877 45.085 26.5254 44.1447 26.293 43.0254C26.0888 42.0421 26.0697 40.9566 26.1133 39.8975L26.1348 39.4453C26.5849 31.392 27.4892 23.3648 28.8408 15.4141C29.1114 13.819 29.4651 12.9505 30.0723 12.4443C30.6068 11.999 31.4233 11.7631 32.8184 11.7119L33.4531 11.7012C42.7818 11.7091 52.1142 11.7431 61.4443 11.7246Z" stroke="#FEFEFE"/>
<path d="M25.1938 44.2878C25.2056 43.0213 26.2386 42.0016 27.509 42.0029C29.741 42.0029 31.9771 42.0029 34.2144 42.0029C34.9888 42.0029 35.6154 42.5464 35.6154 43.2166V47.5172C35.6154 48.1873 34.9888 48.7308 34.2144 48.7308H27.5076C26.2373 48.7308 25.2043 47.7111 25.1924 46.446C25.1859 45.7481 25.1859 45.0516 25.1924 44.2864L25.1938 44.2878Z" fill="#B4C0C1"/>
<path d="M49.6855 42.7957C48.4151 39.7629 45.1105 37.7116 41.8284 37.9187C38.5462 38.1258 35.5253 40.5755 34.6454 43.7442C33.7655 46.9129 35.0899 50.5698 37.7956 52.4391C40.5013 54.3084 44.3903 54.2556 47.0432 52.3124C49.6961 50.3692 51.4308 46.7757 49.6855 42.797V42.7957Z" fill="#FEFEFE"/>
<path d="M45.9182 44.3716C45.3021 42.902 43.7019 41.9086 42.111 42.0089C40.5214 42.1092 39.057 43.2964 38.6309 44.8307C38.2048 46.3662 38.846 48.1379 40.1572 49.0429C41.4672 49.9492 43.3523 49.9228 44.6372 48.9809C45.9221 48.0389 46.7625 46.2989 45.9169 44.3703L45.9182 44.3716Z" fill="#91A6A8"/>
<path d="M46.4924 44.0396C45.7338 42.3589 43.8843 41.1967 42.0243 41.3576C40.2249 41.5133 38.6273 42.7652 38.0535 44.4802C37.4968 46.145 38.0825 48.1449 39.4057 49.286C40.8581 50.5392 43.0875 50.7173 44.7273 49.7161C46.623 48.5591 47.396 46.2492 46.5597 44.1965C46.243 43.4208 44.9661 43.7599 45.2879 44.5474C45.9687 46.2149 45.3434 48.1172 43.5981 48.815C41.8528 49.5129 39.9505 48.6449 39.3568 46.9115C38.8067 45.306 39.5798 43.599 41.1351 42.9196C42.7986 42.1927 44.6376 43.1174 45.3552 44.7058C45.7035 45.4788 46.8406 44.8087 46.4937 44.0396H46.4924Z" fill="#FEFEFE"/>
<path d="M122.179 44.2878C122.169 43.0213 121.296 42.0016 120.222 42.0029C118.334 42.0029 116.444 42.0029 114.552 42.0029C113.898 42.0029 113.367 42.5464 113.367 43.2166V47.5172C113.367 48.1873 113.898 48.7308 114.552 48.7308H120.223C121.297 48.7308 122.172 47.7111 122.181 46.446C122.186 45.7481 122.186 45.0516 122.181 44.2864L122.179 44.2878Z" fill="#B4C0C1"/>
<path d="M111.334 42.7957C110.064 39.7629 106.759 37.7116 103.477 37.9187C100.195 38.1258 97.1737 40.5755 96.2938 43.7442C95.4139 46.9129 96.7384 50.5698 99.444 52.4391C102.15 54.3084 106.039 54.2556 108.692 52.3124C111.344 50.3692 113.079 46.7757 111.334 42.797V42.7957Z" fill="#FEFEFE"/>
<path d="M107.567 44.3716C106.951 42.902 105.35 41.9086 103.759 42.0089C102.17 42.1092 100.705 43.2964 100.279 44.8307C99.8533 46.3662 100.494 48.1379 101.806 49.0429C103.116 49.9492 105.001 49.9228 106.286 48.9809C107.571 48.0389 108.411 46.2989 107.565 44.3703L107.567 44.3716Z" fill="#91A6A8"/>
<path d="M108.132 44.0396C107.374 42.3589 105.524 41.1967 103.664 41.3576C101.865 41.5133 100.267 42.7652 99.6936 44.4802C99.1197 46.1951 99.7226 48.1449 101.046 49.286C102.498 50.5392 104.728 50.7173 106.367 49.7161C108.263 48.5591 109.036 46.2492 108.2 44.1965C107.883 43.4208 106.606 43.7599 106.928 44.5474C107.609 46.2149 106.983 48.1172 105.238 48.815C103.493 49.5129 101.591 48.6449 100.997 46.9115C100.447 45.306 101.22 43.599 102.775 42.9196C104.439 42.1927 106.278 43.1174 106.995 44.7058C107.344 45.4788 108.481 44.8087 108.134 44.0396H108.132Z" fill="#FEFEFE"/>
<path d="M48.8606 14.4927C44.3107 14.3251 39.7555 14.3132 35.2056 14.457C33.5382 14.5098 33.091 14.9808 32.9802 16.606C32.7862 19.4885 32.591 22.3696 32.3971 25.252C32.2559 27.3403 32.7493 28.1595 35.1304 28.2954C39.6711 28.554 44.2236 28.5869 48.767 28.3957C50.098 28.3389 50.5254 27.9709 50.5558 26.5092C50.6244 23.2534 50.693 19.999 50.7616 16.7432C50.7932 15.2617 50.5004 14.4359 48.8606 14.494V14.4927Z" fill="#D9D9D9"/>
<path d="M69.3927 14.52C64.8428 14.3525 60.2877 14.3406 55.7378 14.4844C54.0703 14.5372 53.5584 15.0042 53.5123 16.6334C53.4173 20.0052 53.4753 22.4866 53.5176 25.7464C53.5439 27.8386 54.1877 28.2792 56.5715 28.3702C61.6464 28.5655 64.5302 28.5444 69.2991 28.4217C70.6315 28.3874 71.0576 27.9969 71.0879 26.5352C71.1565 23.2795 71.2251 20.025 71.2937 16.7692C71.3254 15.2878 71.0325 14.462 69.3927 14.52Z" fill="#D9D9D9"/>
<path d="M83.4934 14.3656C81.1743 14.3656 80.735 14.3629 76.3315 14.4777C74.664 14.5212 74.1522 14.9975 74.106 16.6267C74.011 19.9985 74.0691 22.4799 74.1113 25.7397C74.1377 27.8319 74.7801 28.3016 77.1652 28.3636C82.7415 28.5087 89.6963 28.535 94.1829 28.535C96.2988 28.535 96.2817 26.7264 96.3331 26.1394C96.4717 24.5735 94.1288 22.414 88.9483 17.6477C86.2505 15.1663 85.6252 14.3656 83.4934 14.3643V14.3656Z" fill="#D9D9D9"/>
<path d="M48.8634 13.8327C46.1947 13.7364 43.5246 13.6902 40.8546 13.6981C39.4971 13.7021 38.141 13.7206 36.7835 13.7522C35.8364 13.7747 34.7612 13.681 33.8497 13.995C32.0964 14.5978 32.3102 16.818 32.2099 18.3061C32.1215 19.6161 32.0331 20.926 31.9447 22.236C31.863 23.4443 31.7099 24.6712 31.7191 25.8822C31.7297 27.2502 32.2917 28.3425 33.6663 28.7383C34.6768 29.0298 35.7968 28.9916 36.8376 29.0377C38.1476 29.0958 39.4589 29.1354 40.7715 29.1565C43.4336 29.1987 46.1129 29.2026 48.7711 29.0523C49.4439 29.014 50.1694 28.9256 50.6549 28.4058C51.2195 27.8003 51.2116 26.8941 51.2274 26.121C51.2894 23.2082 51.3501 20.2954 51.4121 17.3827C51.4306 16.5159 51.519 15.5252 51.0414 14.7509C50.5639 13.9765 49.6906 13.8182 48.8647 13.8314C48.0389 13.8446 48.0139 15.1638 48.8647 15.1506C49.3951 15.1427 49.8805 15.1677 50.0375 15.7402C50.2525 16.5265 50.0916 17.4803 50.0744 18.281C50.0283 20.4656 49.9821 22.6502 49.9359 24.8348C49.9254 25.3493 49.9161 25.8624 49.903 26.3769C49.895 26.6896 49.9293 27.1315 49.7565 27.4085C49.4887 27.8386 48.6682 27.737 48.246 27.7542C45.9744 27.8412 43.7001 27.8716 41.4258 27.8465C39.2412 27.8228 37.0329 27.8017 34.8536 27.613C34.3641 27.5708 33.7111 27.4982 33.355 27.113C33.0423 26.774 33.0357 26.2424 33.037 25.8084C33.0436 23.7082 33.3062 21.5816 33.4473 19.4868C33.5199 18.4182 33.5278 17.3233 33.6716 16.2626C33.7349 15.797 33.8365 15.3893 34.3153 15.231C34.6821 15.1097 35.0884 15.1202 35.4683 15.1083C36.1239 15.0872 36.7809 15.0714 37.4379 15.0582C38.6634 15.0332 39.8889 15.02 41.1145 15.0173C43.6975 15.0121 46.2804 15.0595 48.8608 15.1519C49.7103 15.1822 49.709 13.863 48.8608 13.8327H48.8634Z" fill="#FEFEFE"/>
<path d="M69.3977 13.8605C66.5983 13.7589 63.7964 13.7127 60.9944 13.7272C59.6369 13.7338 58.2808 13.7549 56.9234 13.7905C56.0092 13.8143 54.9525 13.7285 54.1016 14.1322C53.4737 14.4304 53.099 14.995 52.9592 15.6664C52.7296 16.764 52.822 17.9632 52.8127 19.0779C52.7916 21.4208 52.7283 23.8072 52.8774 26.1461C52.9697 27.5814 53.6095 28.613 55.087 28.8835C56.1477 29.0774 57.2505 29.0563 58.3243 29.0893C59.4589 29.1249 60.5947 29.1513 61.7305 29.1644C63.9349 29.1895 66.1393 29.1565 68.3423 29.1038C69.176 29.084 70.1734 29.1763 70.9016 28.6843C71.5519 28.2463 71.7063 27.4495 71.7458 26.7173C71.9055 23.7518 71.8738 20.7638 71.9358 17.7943C71.9556 16.8498 72.1179 15.681 71.6034 14.8235C71.1324 14.0399 70.2538 13.8446 69.3963 13.8578C68.5389 13.871 68.5455 15.1902 69.3963 15.177C69.9768 15.1678 70.4385 15.2113 70.5823 15.83C70.7815 16.6849 70.6179 17.6993 70.5995 18.566C70.5506 20.8786 70.5018 23.1925 70.453 25.505C70.4425 26.0248 70.6377 27.2068 70.1641 27.5933C69.99 27.7344 69.68 27.741 69.4702 27.7542C68.9412 27.7872 68.407 27.7832 67.878 27.7951C66.0337 27.8373 64.1882 27.8637 62.3439 27.8505C60.3282 27.836 58.3059 27.807 56.2941 27.6962C55.7836 27.6685 55.0409 27.6672 54.6148 27.3255C54.2718 27.0511 54.2216 26.5538 54.1953 26.1448C54.0673 24.1462 54.1214 22.1107 54.1254 20.1082C54.1267 19.0343 54.1399 17.9618 54.1689 16.888C54.1821 16.4158 54.1254 15.6836 54.5646 15.3723C54.8338 15.1823 55.2467 15.1665 55.5606 15.148C56.1886 15.1124 56.8191 15.1084 57.4484 15.0939C58.761 15.0636 60.0749 15.0464 61.3875 15.0425C64.0576 15.0332 66.7276 15.0807 69.3963 15.177C70.2459 15.2074 70.2446 13.8882 69.3963 13.8578L69.3977 13.8605Z" fill="#FEFEFE"/>
<path d="M83.4921 13.7061C81.859 13.7061 80.2285 13.7219 78.5953 13.7615C77.4001 13.7905 75.9833 13.619 74.8462 14.057C73.9451 14.4039 73.5758 15.2139 73.4781 16.1255C73.3185 17.6175 73.3911 19.1675 73.3937 20.6661C73.3964 22.1648 73.4227 23.7175 73.4425 25.2438C73.4557 26.1844 73.4267 27.2595 74.0533 28.0312C74.6021 28.708 75.4622 28.8874 76.288 28.9718C77.6877 29.1156 79.1243 29.0694 80.5306 29.0945C82.041 29.1209 83.5528 29.1394 85.0633 29.1539C87.8719 29.1802 90.6804 29.1921 93.489 29.1948C94.5299 29.1948 95.5945 29.175 96.3174 28.3096C96.7989 27.7331 96.9334 26.9917 96.9809 26.2635C97.0614 25.0459 96.3055 24.0367 95.5575 23.1489C93.7529 21.0065 91.5617 19.1623 89.5064 17.2692C88.4853 16.3286 87.4986 15.2812 86.3377 14.5068C85.4762 13.9303 84.5159 13.7153 83.4895 13.7061C82.64 13.6982 82.64 15.0174 83.4895 15.0253C84.2467 15.0319 84.9182 15.1664 85.5633 15.5754C86.4366 16.1281 87.1767 16.9091 87.9299 17.6083C89.753 19.2995 91.6184 20.9524 93.3663 22.7228C94.1856 23.5539 95.2528 24.567 95.6116 25.6395C95.7066 25.9232 95.6881 26.2714 95.6169 26.6817C95.4876 27.435 95.0575 27.8413 94.2752 27.8729C91.9244 27.9666 89.5473 27.869 87.1951 27.8531C84.4934 27.8347 81.7917 27.8043 79.09 27.7489C78.0254 27.7265 76.8698 27.8188 75.8263 27.5787C75.1812 27.4297 74.9082 27.1144 74.8105 26.4601C74.6285 25.2345 74.7419 23.9153 74.7274 22.6779C74.7116 21.3205 74.705 19.9617 74.7235 18.6042C74.7327 17.8365 74.7076 17.0489 74.7815 16.2838C74.8132 15.954 74.8633 15.5701 75.1522 15.3656C75.5308 15.0978 76.1495 15.144 76.5835 15.1308C77.284 15.111 77.9832 15.0939 78.6837 15.078C80.2865 15.0398 81.888 15.024 83.4908 15.0253C84.3391 15.0253 84.3417 13.7061 83.4908 13.7061H83.4921Z" fill="#FEFEFE"/>
<path d="M65.7856 32.7909C66.4967 32.7935 67.2064 32.7975 67.9174 32.8001C68.767 32.8041 68.767 31.4849 67.9174 31.4809C67.2064 31.4783 66.4967 31.4743 65.7856 31.4717C64.936 31.4677 64.936 32.7869 65.7856 32.7909Z" fill="#FEFEFE"/>
<path d="M76.883 33.1048C77.7616 33.0771 78.6388 33.0494 79.5174 33.0217C80.396 32.994 80.3683 31.6762 79.5174 31.7025C78.6665 31.7289 77.7616 31.7579 76.883 31.7856C76.0044 31.8134 76.0321 33.1312 76.883 33.1048Z" fill="#FEFEFE"/>
<path d="M72.1325 29.3481C72.0758 34.0919 72.0177 38.8371 71.961 43.5809C71.9504 44.4305 73.2696 44.4305 73.2802 43.5809C73.3369 38.8371 73.395 34.0919 73.4517 29.3481C73.4622 28.4985 72.143 28.4985 72.1325 29.3481Z" fill="#FEFEFE"/>
<path d="M51.7786 29.5365C51.5464 33.043 51.4554 36.556 51.5055 40.069C51.5174 40.9172 52.8366 40.9199 52.8247 40.069C52.7746 36.556 52.8656 33.043 53.0978 29.5365C53.1532 28.6896 51.834 28.6923 51.7786 29.5365Z" fill="#FEFEFE"/>
<path d="M93.1597 44.812C94.3417 41.237 97.0408 38.3414 100.481 36.8362C101.257 36.4971 100.587 35.36 99.8151 35.6977C96.0633 37.3388 93.169 40.584 91.888 44.4624C91.6215 45.2698 92.8946 45.6167 93.1597 44.8133V44.812Z" fill="#FEFEFE"/>
<path d="M90.3681 15.8391C93.674 18.8152 96.9786 21.7913 100.284 24.7674C102.497 26.7594 103.925 27.543 107.316 26.2238C104.263 24.7107 95.8282 16.7243 92.3297 14.0898C91.7413 14.2534 91.153 14.4183 90.5659 14.5819C89.7467 14.8101 89.7599 15.293 90.3694 15.8404L90.3681 15.8391Z" fill="#D9D9D9"/>
<path d="M91.839 13.5406C91.0303 13.7661 89.5079 13.8888 89.2916 14.9165C89.0753 15.9441 90.2638 16.6367 90.8707 17.1829C92.8798 18.9915 94.8889 20.8001 96.8981 22.61C97.8703 23.4847 98.8386 24.3645 99.8148 25.2352C100.499 25.8473 101.211 26.47 102.024 26.9066C103.675 27.7931 105.441 27.5887 107.155 26.9858C107.95 26.7061 107.607 25.4305 106.804 25.7141C105.441 26.193 104.023 26.4832 102.691 25.7682C101.152 24.9424 99.8927 23.5335 98.6091 22.3779C96.9891 20.9188 95.3691 19.4598 93.7478 18.0021C92.9695 17.3016 92.1925 16.6011 91.4142 15.9019C91.2216 15.7278 91.0145 15.5616 90.8311 15.3769C90.7401 15.3004 90.6596 15.2133 90.5936 15.1144L90.5541 15.2885C91.0316 15.0471 91.6767 14.9587 92.1899 14.8149C93.0065 14.5867 92.6595 13.3136 91.839 13.5432V13.5406Z" fill="#FEFEFE"/>
<path d="M27.5453 37.2866C27.7894 37.2774 28.0532 37.2603 28.2392 37.102C28.4529 36.9212 28.4978 36.6138 28.5255 36.3355C28.6482 35.139 28.7418 33.9385 28.8091 32.7367C28.8342 32.2856 28.8131 31.7487 28.4331 31.5046C28.2181 31.3674 27.9464 31.3674 27.6918 31.3727C27.205 31.3832 26.7182 31.3938 26.2314 31.403C26.0467 33.3845 25.8884 35.3685 25.7578 37.3552C26.3528 37.3315 26.9491 37.3091 27.544 37.2853L27.5453 37.2866Z" fill="#ED4C4C"/>
<path d="M113.275 34.0742C112.805 34.4159 112.993 35.148 113.227 35.681C113.67 36.6862 114.207 37.7851 115.231 38.1822C115.963 38.4658 116.869 38.3827 117.655 38.3682C119.065 38.3431 119.695 38.3616 120.577 38.3695C120.396 37.2904 120.175 36.2667 119.9 35.185C119.78 34.7087 119.627 34.2352 119.447 33.7734C117.638 33.817 115.829 33.8592 114.02 33.9027C113.76 33.9093 113.483 33.9212 113.273 34.0729L113.275 34.0742Z" fill="#FFC466"/>
<path d="M47.7352 60.6546V61.8386H44.6952V71.8066H43.2392V61.8386H40.1832V60.6546H47.7352ZM50.9835 64.4626C51.2395 63.9613 51.6021 63.572 52.0715 63.2946C52.5515 63.0173 53.1328 62.8786 53.8155 62.8786V64.3826H53.4315C51.7995 64.3826 50.9835 65.268 50.9835 67.0386V71.8066H49.5275V63.0386H50.9835V64.4626ZM54.9522 67.3906C54.9522 66.4946 55.1336 65.7106 55.4962 65.0386C55.8589 64.356 56.3549 63.828 56.9842 63.4546C57.6242 63.0813 58.3336 62.8946 59.1122 62.8946C59.8802 62.8946 60.5469 63.06 61.1122 63.3906C61.6776 63.7213 62.0989 64.1373 62.3762 64.6386V63.0386H63.8482V71.8066H62.3762V70.1746C62.0882 70.6866 61.6562 71.1133 61.0802 71.4546C60.5149 71.7853 59.8536 71.9506 59.0962 71.9506C58.3176 71.9506 57.6136 71.7586 56.9842 71.3746C56.3549 70.9906 55.8589 70.452 55.4962 69.7586C55.1336 69.0653 54.9522 68.276 54.9522 67.3906ZM62.3762 67.4066C62.3762 66.7453 62.2429 66.1693 61.9762 65.6786C61.7096 65.188 61.3469 64.8146 60.8882 64.5586C60.4402 64.292 59.9442 64.1586 59.4002 64.1586C58.8562 64.1586 58.3602 64.2866 57.9122 64.5426C57.4642 64.7986 57.1069 65.172 56.8402 65.6626C56.5736 66.1533 56.4402 66.7293 56.4402 67.3906C56.4402 68.0626 56.5736 68.6493 56.8402 69.1506C57.1069 69.6413 57.4642 70.02 57.9122 70.2866C58.3602 70.5426 58.8562 70.6706 59.4002 70.6706C59.9442 70.6706 60.4402 70.5426 60.8882 70.2866C61.3469 70.02 61.7096 69.6413 61.9762 69.1506C62.2429 68.6493 62.3762 68.068 62.3762 67.4066ZM69.5727 70.4626L72.2927 63.0386H73.8447L70.4047 71.8066H68.7087L65.2687 63.0386H66.8367L69.5727 70.4626ZM83.2775 67.0866C83.2775 67.364 83.2615 67.6573 83.2295 67.9666H76.2215C76.2748 68.8306 76.5681 69.508 77.1015 69.9986C77.6455 70.4786 78.3015 70.7186 79.0695 70.7186C79.6988 70.7186 80.2215 70.5746 80.6375 70.2866C81.0641 69.988 81.3628 69.5933 81.5335 69.1026H83.1015C82.8668 69.9453 82.3975 70.6333 81.6935 71.1666C80.9895 71.6893 80.1148 71.9506 79.0695 71.9506C78.2375 71.9506 77.4908 71.764 76.8295 71.3906C76.1788 71.0173 75.6668 70.4893 75.2935 69.8066C74.9201 69.1133 74.7335 68.3133 74.7335 67.4066C74.7335 66.5 74.9148 65.7053 75.2775 65.0226C75.6401 64.34 76.1468 63.8173 76.7975 63.4546C77.4588 63.0813 78.2161 62.8946 79.0695 62.8946C79.9015 62.8946 80.6375 63.076 81.2775 63.4386C81.9175 63.8013 82.4081 64.3026 82.7495 64.9426C83.1015 65.572 83.2775 66.2866 83.2775 67.0866ZM81.7735 66.7826C81.7735 66.228 81.6508 65.7533 81.4055 65.3586C81.1601 64.9533 80.8241 64.6493 80.3975 64.4466C79.9815 64.2333 79.5175 64.1266 79.0055 64.1266C78.2695 64.1266 77.6401 64.3613 77.1175 64.8306C76.6055 65.3 76.3121 65.9506 76.2375 66.7826H81.7735ZM86.6554 59.9666V71.8066H85.1994V59.9666H86.6554ZM90.5929 59.9666V71.8066H89.1369V59.9666H90.5929ZM101.074 67.0866C101.074 67.364 101.058 67.6573 101.026 67.9666H94.0183C94.0717 68.8306 94.365 69.508 94.8983 69.9986C95.4423 70.4786 96.0983 70.7186 96.8663 70.7186C97.4957 70.7186 98.0183 70.5746 98.4343 70.2866C98.861 69.988 99.1597 69.5933 99.3303 69.1026H100.898C100.664 69.9453 100.194 70.6333 99.4903 71.1666C98.7863 71.6893 97.9117 71.9506 96.8663 71.9506C96.0343 71.9506 95.2877 71.764 94.6263 71.3906C93.9757 71.0173 93.4637 70.4893 93.0903 69.8066C92.717 69.1133 92.5303 68.3133 92.5303 67.4066C92.5303 66.5 92.7117 65.7053 93.0743 65.0226C93.437 64.34 93.9437 63.8173 94.5943 63.4546C95.2557 63.0813 96.013 62.8946 96.8663 62.8946C97.6983 62.8946 98.4343 63.076 99.0743 63.4386C99.7143 63.8013 100.205 64.3026 100.546 64.9426C100.898 65.572 101.074 66.2866 101.074 67.0866ZM99.5703 66.7826C99.5703 66.228 99.4477 65.7533 99.2023 65.3586C98.957 64.9533 98.621 64.6493 98.1943 64.4466C97.7783 64.2333 97.3143 64.1266 96.8023 64.1266C96.0663 64.1266 95.437 64.3613 94.9143 64.8306C94.4023 65.3 94.109 65.9506 94.0343 66.7826H99.5703ZM104.452 64.4626C104.708 63.9613 105.071 63.572 105.54 63.2946C106.02 63.0173 106.602 62.8786 107.284 62.8786V64.3826H106.9C105.268 64.3826 104.452 65.268 104.452 67.0386V71.8066H102.996V63.0386H104.452V64.4626Z" fill="#FEFEFE"/>
<defs>
<linearGradient id="paint0_linear_4316_1737" x1="0.710938" y1="43" x2="146.711" y2="43" gradientUnits="userSpaceOnUse">
<stop stop-color="#216432"/>
<stop offset="0.894231" stop-color="#114422"/>
</linearGradient>
</defs>
</svg>
