<svg width="147" height="86" viewBox="0 0 147 86" fill="none" xmlns="http://www.w3.org/2000/svg">
<rect x="0.140625" width="146" height="86" rx="12" fill="url(#paint0_linear_4307_2399)"/>
<path d="M37.334 13.7334C42.4814 13.6382 70.5798 13.5453 78.3145 14.2969C80.1737 14.4775 82.5748 15.2933 85.1621 16.4473C87.7388 17.5965 90.4593 19.0624 92.9453 20.5088C95.43 21.9544 97.6739 23.3769 99.2969 24.4385C100.108 24.9692 100.764 25.4096 101.217 25.7168C101.443 25.8701 101.618 25.9905 101.736 26.0723C101.795 26.113 101.841 26.1441 101.871 26.165C101.886 26.1755 101.898 26.1842 101.905 26.1895C101.909 26.1921 101.912 26.194 101.914 26.1953L101.916 26.1963L102.203 25.7871L101.917 26.1973L102.021 26.2695L102.146 26.2842H102.153C102.158 26.2847 102.165 26.286 102.175 26.2871C102.194 26.2893 102.222 26.2926 102.259 26.2969C102.332 26.3055 102.441 26.318 102.581 26.335C102.861 26.3689 103.267 26.419 103.767 26.4844C104.767 26.6152 106.144 26.8069 107.651 27.0479C110.682 27.5324 114.184 28.2099 116.228 28.9912C118.243 29.762 119.438 30.7976 120.14 31.9756C120.846 33.1621 121.086 34.5493 121.086 36.0801V43.7676C121.086 44.5434 120.689 45.2589 119.911 45.7988C119.127 46.3435 117.961 46.7002 116.496 46.7002C113.414 46.7002 108.658 46.7103 105.613 46.7002H105.609C79.657 46.6179 57.3444 46.5381 33.9814 46.1797C32.7181 46.1602 31.1568 46.0759 29.7363 45.7979C28.3817 45.5327 27.2509 45.1079 26.5938 44.4805L26.4688 44.3525C25.4203 43.1949 25.1737 41.3695 25.1475 39.5596C25.0221 31.0937 26.6812 24.092 30.3652 17.6201L30.7129 17.0107L30.0234 16.8809H30.0225C30.0213 16.8806 30.0192 16.8804 30.0166 16.8799C30.0112 16.8788 30.0025 16.8773 29.9912 16.875C29.9682 16.8704 29.9331 16.8631 29.8887 16.8535C29.7996 16.8343 29.6713 16.8046 29.5176 16.7656C29.2083 16.6872 28.803 16.5715 28.4082 16.418C28.0062 16.2617 27.649 16.0801 27.4111 15.8838C27.1691 15.6841 27.142 15.5505 27.1523 15.4717C27.1524 15.471 27.1521 15.4675 27.1543 15.4619C27.1565 15.4561 27.1615 15.4467 27.1699 15.4336C27.1876 15.4062 27.2207 15.3661 27.2793 15.3164C27.3994 15.2145 27.5928 15.1002 27.8721 14.9814C28.4292 14.7446 29.2336 14.5309 30.2207 14.3506C32.1877 13.9913 34.7813 13.7806 37.334 13.7334Z" stroke="#FEFEFE"/>
<path d="M51.8585 41.2582C50.6522 38.3461 47.5143 36.3765 44.3977 36.5753C41.2811 36.7742 38.4126 39.1264 37.577 42.1689C36.7415 45.2114 37.9992 48.7226 40.5684 50.5175C43.1376 52.3124 46.8304 52.2617 49.3495 50.3959C51.8685 48.5301 53.5158 45.0797 51.8585 41.2595V41.2582Z" fill="#FEFEFE"/>
<path d="M48.294 42.7733C47.709 41.3623 46.1895 40.4085 44.6788 40.5047C43.1694 40.601 41.7789 41.741 41.3743 43.2141C40.9697 44.6885 41.5785 46.3897 42.8237 47.2586C44.0675 48.1288 45.8576 48.1034 47.0777 47.199C48.2977 46.2946 49.0957 44.6239 48.2927 42.7721L48.294 42.7733Z" fill="#A1A1A1"/>
<path d="M48.8217 42.4537C48.1015 40.8399 46.3453 39.724 44.579 39.8785C42.8704 40.028 41.3534 41.2301 40.8085 42.8767C40.2799 44.4752 40.8361 46.3955 42.0925 47.4912C43.4717 48.6945 45.5886 48.8655 47.1457 47.9041C48.9458 46.7933 49.6798 44.5753 48.8856 42.6044C48.585 41.8596 47.3724 42.1851 47.6781 42.9413C48.3244 44.5424 47.7307 46.3689 46.0734 47.039C44.4625 47.69 42.6098 46.8756 42.0461 45.2112C41.5238 43.6697 42.2579 42.0306 43.7347 41.3783C45.3143 40.6803 47.0605 41.5683 47.742 43.0933C48.0727 43.8356 49.1524 43.1921 48.823 42.4537H48.8217Z" fill="#FEFEFE"/>
<path d="M110.39 41.2582C109.183 38.3461 106.046 36.3765 102.929 36.5753C99.8124 36.7742 96.9438 39.1264 96.1083 42.1689C95.2728 45.2114 96.5304 48.7226 99.0996 50.5175C101.669 52.3124 105.362 52.2617 107.881 50.3959C110.4 48.5301 112.047 45.0797 110.39 41.2595V41.2582Z" fill="#FEFEFE"/>
<path d="M106.825 42.7733C106.24 41.3623 104.721 40.4085 103.21 40.5047C101.701 40.601 100.31 41.741 99.9056 43.2141C99.501 44.6885 100.11 46.3897 101.355 47.2586C102.599 48.1288 104.389 48.1034 105.609 47.199C106.829 46.2946 107.627 44.6239 106.824 42.7721L106.825 42.7733Z" fill="#A1A1A1"/>
<path d="M107.361 42.4537C106.641 40.8399 104.884 39.724 103.118 39.8785C101.409 40.028 99.8925 41.2301 99.3476 42.8767C98.819 44.4752 99.3751 46.3955 100.632 47.4912C102.011 48.6945 104.128 48.8655 105.685 47.9041C107.485 46.7933 108.219 44.5753 107.425 42.6044C107.124 41.8596 105.911 42.1851 106.217 42.9413C106.864 44.5424 106.27 46.3689 104.612 47.039C103.002 47.69 101.149 46.8756 100.585 45.2112C100.063 43.6697 100.797 42.0306 102.274 41.3783C103.853 40.6803 105.6 41.5683 106.281 43.0933C106.612 43.8356 107.691 43.1921 107.362 42.4537H107.361Z" fill="#FEFEFE"/>
<path d="M34.4614 26.0471C56.574 26.7375 76.8539 26.892 98.5669 27.6115C91.9802 22.6867 84.7133 18.6295 79.655 17.5655C74.7256 16.5282 66.7121 16.5168 59.8473 16.4902C51.9215 16.4598 46.0727 16.4509 38.2809 16.5142C35.8682 16.5332 35.074 17.8949 34.5128 19.7923C34.37 20.2762 34.2622 20.6119 33.1298 24.2168C32.9457 24.8033 33.1361 26.0079 34.4602 26.0484L34.4614 26.0471Z" fill="#D9D9D9"/>
<path d="M34.4624 26.6802C42.883 26.9424 51.3049 27.135 59.7268 27.3098C67.9382 27.4808 76.1509 27.6366 84.3623 27.8392C89.0975 27.9558 93.834 28.0888 98.5679 28.2446C99.2444 28.2674 99.3458 27.4086 98.8836 27.064C94.2098 23.5782 89.1927 20.3558 83.7723 18.1949C79.0985 16.3316 74.0376 16.115 69.0682 15.9668C63.0026 15.7869 56.927 15.8363 50.859 15.8325C47.8913 15.8313 44.9249 15.8376 41.9573 15.8541C40.4591 15.8629 38.8694 15.7211 37.3875 15.9541C36.4229 16.1061 35.5635 16.5697 34.961 17.3538C34.1279 18.438 33.8348 19.8859 33.4289 21.1766C33.2523 21.7402 33.0757 22.3026 32.8978 22.8663C32.7199 23.43 32.4355 24.0658 32.4456 24.6903C32.4656 25.8721 33.3525 26.6004 34.4612 26.6815C35.2654 26.7398 35.2616 25.4731 34.4612 25.4148C33.3212 25.3312 33.796 24.1887 34.0127 23.4984C34.2783 22.6535 34.5438 21.8086 34.8082 20.9625C35.1289 19.9352 35.3456 18.7421 36.0984 17.9441C36.8425 17.1549 37.8835 17.1499 38.8907 17.1423C40.3664 17.1309 41.8421 17.122 43.3177 17.1144C46.0486 17.1017 48.7807 17.0979 51.5116 17.1005C57.1788 17.1055 62.8523 17.0688 68.5182 17.2195C73.167 17.3424 78.0074 17.4412 82.4332 19.0359C88.1354 21.0917 93.4043 24.5459 98.2497 28.1597L98.5654 26.9792C90.24 26.7043 81.9133 26.5054 73.5854 26.3294C65.2575 26.1533 57.1087 26 48.8709 25.8062C44.0668 25.6922 39.2627 25.5656 34.4599 25.4161C33.6532 25.3908 33.6544 26.6574 34.4599 26.6828L34.4624 26.6802Z" fill="#FEFEFE"/>
<path d="M71.584 16.9988C71.9798 20.1604 72.3769 23.322 72.7727 26.4836C72.8729 27.2816 74.1268 27.2917 74.0254 26.4836C73.6295 23.322 73.2324 20.1604 72.8366 16.9988C72.7364 16.2008 71.4825 16.1907 71.584 16.9988Z" fill="#FEFEFE"/>
<path d="M50.3404 16.4785C49.4498 19.6731 48.7283 22.9107 48.1746 26.1812C48.0393 26.9779 49.2469 27.3212 49.3822 26.5181C49.9346 23.2463 50.6574 20.0087 51.548 16.8155C51.7672 16.0301 50.5584 15.6945 50.3404 16.4785Z" fill="#FEFEFE"/>
<path d="M77.8316 31.9562C78.4867 31.9663 79.1406 31.9777 79.7957 31.9879C80.6025 32.0005 80.6025 30.7339 79.7957 30.7212C79.1406 30.7111 78.4867 30.6997 77.8316 30.6895C77.0249 30.6769 77.0249 31.9435 77.8316 31.9562Z" fill="#FEFEFE"/>
<path d="M73.3472 29.5114C73.7994 34.2234 73.9798 38.9569 73.8846 43.6904C73.8683 44.5061 75.121 44.5061 75.1373 43.6904C75.2325 38.9569 75.0521 34.2234 74.5999 29.5114C74.5222 28.707 73.2696 28.6994 73.3472 29.5114Z" fill="#FEFEFE"/>
<path d="M69.4332 31.9885C70.1572 31.9733 70.8825 31.9581 71.6065 31.9417C72.412 31.9239 72.4145 30.6573 71.6065 30.675C70.8825 30.6902 70.1572 30.7054 69.4332 30.7219C68.6277 30.7396 68.6252 32.0063 69.4332 31.9885Z" fill="#FEFEFE"/>
<path d="M47.9386 29.1168C47.7745 31.2245 47.6117 33.3335 47.4476 35.4412C47.385 36.2544 48.6376 36.2494 48.7002 35.4412C48.8643 33.3335 49.0272 31.2245 49.1913 29.1168C49.2539 28.3036 48.0013 28.3087 47.9386 29.1168Z" fill="#FEFEFE"/>
<path d="M97.8178 29.68C98.384 31.6142 98.8575 33.5725 99.2396 35.5523C99.3937 36.3516 100.601 36.0134 100.447 35.2154C100.065 33.2356 99.5916 31.2773 99.0254 29.3431C98.7974 28.5628 97.5886 28.8947 97.8178 29.68Z" fill="#FEFEFE"/>
<path d="M30.4082 29.1164C28.9576 28.6376 27.2891 28.63 25.6481 28.5996C25.4176 29.6725 25.2272 30.7656 25.0781 31.8841C28.1183 31.9423 30.9869 32.0563 33.8104 32.0285C32.8671 30.8378 31.8424 29.5889 30.4082 29.1164Z" fill="#FEFEFE"/>
<path d="M119.517 32.0774C119.224 31.8469 118.867 31.7151 118.514 31.5986C116.437 30.9095 108.549 29.2439 113.355 32.3143C115.016 33.3757 116.756 34.3118 118.555 35.1111C119.743 35.6393 120.288 35.1731 120.314 34.3891C120.321 34.1446 120.092 32.5296 119.517 32.0774Z" fill="#FEFEFE"/>
<path d="M62.9477 66.9421C62.2117 66.9421 61.5504 66.8141 60.9637 66.5581C60.3877 66.2914 59.9344 65.9287 59.6037 65.4701C59.273 65.0007 59.1024 64.4621 59.0917 63.8541H60.6437C60.697 64.3767 60.9104 64.8194 61.2837 65.1821C61.6677 65.5341 62.2224 65.7101 62.9477 65.7101C63.641 65.7101 64.185 65.5394 64.5797 65.1981C64.985 64.8461 65.1877 64.3981 65.1877 63.8541C65.1877 63.4274 65.0704 63.0807 64.8357 62.8141C64.601 62.5474 64.3077 62.3447 63.9557 62.2061C63.6037 62.0674 63.129 61.9181 62.5317 61.7581C61.7957 61.5661 61.2037 61.3741 60.7557 61.1821C60.3184 60.9901 59.9397 60.6914 59.6197 60.2861C59.3104 59.8701 59.1557 59.3154 59.1557 58.6221C59.1557 58.0141 59.3104 57.4754 59.6197 57.0061C59.929 56.5367 60.361 56.1741 60.9157 55.9181C61.481 55.6621 62.1264 55.5341 62.8517 55.5341C63.897 55.5341 64.7504 55.7954 65.4117 56.3181C66.0837 56.8407 66.4624 57.5341 66.5477 58.3981H64.9477C64.8944 57.9714 64.6704 57.5981 64.2757 57.2781C63.881 56.9474 63.3584 56.7821 62.7077 56.7821C62.0997 56.7821 61.6037 56.9421 61.2197 57.2621C60.8357 57.5714 60.6437 58.0087 60.6437 58.5741C60.6437 58.9794 60.7557 59.3101 60.9797 59.5661C61.2144 59.8221 61.497 60.0194 61.8277 60.1581C62.169 60.2861 62.6437 60.4354 63.2517 60.6061C63.9877 60.8087 64.5797 61.0114 65.0277 61.2141C65.4757 61.4061 65.8597 61.7101 66.1797 62.1261C66.4997 62.5314 66.6597 63.0861 66.6597 63.7901C66.6597 64.3341 66.5157 64.8461 66.2277 65.3261C65.9397 65.8061 65.513 66.1954 64.9477 66.4941C64.3824 66.7927 63.7157 66.9421 62.9477 66.9421ZM76.5783 58.0621V66.8301H75.1223V65.5341C74.845 65.9821 74.4556 66.3341 73.9543 66.5901C73.4636 66.8354 72.9196 66.9581 72.3223 66.9581C71.6396 66.9581 71.0263 66.8194 70.4823 66.5421C69.9383 66.2541 69.5063 65.8274 69.1863 65.2621C68.877 64.6967 68.7223 64.0087 68.7223 63.1981V58.0621H70.1623V63.0061C70.1623 63.8701 70.381 64.5367 70.8183 65.0061C71.2556 65.4647 71.853 65.6941 72.6103 65.6941C73.389 65.6941 74.0023 65.4541 74.4503 64.9741C74.8983 64.4941 75.1223 63.7954 75.1223 62.8781V58.0621H76.5783ZM82.3007 65.4861L85.0207 58.0621H86.5727L83.1327 66.8301H81.4367L77.9967 58.0621H79.5647L82.3007 65.4861Z" fill="#FEFEFE"/>
<defs>
<linearGradient id="paint0_linear_4307_2399" x1="0.140625" y1="43" x2="146.141" y2="43" gradientUnits="userSpaceOnUse">
<stop stop-color="#216432"/>
<stop offset="0.894231" stop-color="#114422"/>
</linearGradient>
</defs>
</svg>
