<svg width="24" height="24" viewBox="0 0 24 24" fill="none" xmlns="http://www.w3.org/2000/svg">
<g clip-path="url(#clip0_5243_3567)">
<path d="M20.2637 0.750332H3.74119C3.31369 0.750332 2.90869 0.919082 2.60869 1.21908C1.59619 2.20908 2.30494 3.96783 3.74119 3.96783H9.12994V6.00033H5.46994C4.10119 6.00033 3.56494 8.22033 4.83994 9.02658C4.40119 9.42408 4.08619 9.95658 3.97369 10.5678C3.33244 13.9728 3.34744 17.4866 3.96994 20.8653C4.21744 22.1778 5.37244 23.1303 6.71869 23.1303H17.3274C18.6437 23.1303 19.7649 22.2378 20.0574 20.9591C20.8674 17.4116 20.8187 13.8078 20.0574 10.4703C19.9224 9.88158 19.6112 9.38283 19.1874 9.00783C20.3949 8.22033 19.9524 5.99658 18.5387 5.99658H14.8787V3.96408H20.2674C21.1337 3.96408 21.8762 3.26658 21.8762 2.35533C21.8762 1.44408 21.1524 0.746582 20.2674 0.746582L20.2637 0.750332ZM5.98369 9.19158C6.42244 9.02283 6.70744 9.05283 7.32994 9.05283V13.9503H4.30744C4.37869 12.8403 4.50994 11.7753 4.71244 10.7066C4.84369 10.0016 5.33869 9.43908 5.98369 9.19158ZM16.0674 9.05283V22.3803H12.4449V9.05283H16.0674ZM19.8699 14.7003C19.9674 16.7553 19.7724 18.8328 19.3224 20.7941C19.1237 21.6641 18.3324 22.3803 17.3237 22.3803H16.8137V14.7003H19.8662H19.8699ZM4.26994 14.7003H7.32994V22.3803H6.71869C5.73244 22.3803 4.88869 21.6866 4.70869 20.7266C4.34119 18.7241 4.19869 16.7328 4.26994 14.6966V14.7003ZM11.6949 22.3803H8.07619V9.05283H11.6949V22.3803ZM19.8212 13.9503H16.8174V9.05283C17.3162 9.05283 17.6199 9.02283 18.0624 9.18783C18.6887 9.42408 19.1724 9.95283 19.3262 10.6391C19.5737 11.7228 19.7349 12.8328 19.8212 13.9503ZM18.9324 8.25033C18.7299 8.50158 18.5537 8.46783 18.2837 8.46783C17.9837 8.35908 17.6612 8.30283 17.3274 8.30283C5.80744 8.30283 6.36994 8.25408 5.76994 8.46783H5.46994C4.93369 8.46783 4.64494 7.50033 5.07244 6.97158C5.13994 6.88908 5.27869 6.75033 5.46994 6.75033H18.5349C19.0674 6.75033 19.3637 7.71033 18.9324 8.25033ZM9.87994 6.00033V3.96783H14.1249V6.00033H9.87994ZM20.2637 3.21783H3.74119C2.96869 3.21783 2.59744 2.28033 3.13369 1.75158C3.29869 1.59033 3.51244 1.50033 3.74119 1.50033H20.2637C20.7362 1.50033 21.1224 1.88658 21.1224 2.35908C21.1224 2.83158 20.7174 3.21783 20.2637 3.21783Z" fill="url(#paint0_linear_5243_3567)"/>
</g>
<defs>
<linearGradient id="paint0_linear_5243_3567" x1="2.13281" y1="11.9385" x2="21.8762" y2="11.9385" gradientUnits="userSpaceOnUse">
<stop stop-color="#216432"/>
<stop offset="0.894231" stop-color="#114422"/>
</linearGradient>
<clipPath id="clip0_5243_3567">
<rect width="24" height="24" fill="white"/>
</clipPath>
</defs>
</svg>
