<svg width="19" height="19" viewBox="0 0 19 19" fill="none" xmlns="http://www.w3.org/2000/svg">
<path d="M12.125 8.80957C12.4375 8.80957 12.7031 8.7002 12.9219 8.48145C13.1406 8.2627 13.25 7.99707 13.25 7.68457C13.25 7.37207 13.1406 7.10645 12.9219 6.8877C12.7031 6.66895 12.4375 6.55957 12.125 6.55957C11.8125 6.55957 11.5469 6.66895 11.3281 6.8877C11.1094 7.10645 11 7.37207 11 7.68457C11 7.99707 11.1094 8.2627 11.3281 8.48145C11.5469 8.7002 11.8125 8.80957 12.125 8.80957ZM6.875 8.80957C7.1875 8.80957 7.45312 8.7002 7.67188 8.48145C7.89063 8.2627 8 7.99707 8 7.68457C8 7.37207 7.89063 7.10645 7.67188 6.8877C7.45312 6.66895 7.1875 6.55957 6.875 6.55957C6.5625 6.55957 6.29688 6.66895 6.07812 6.8877C5.85937 7.10645 5.75 7.37207 5.75 7.68457C5.75 7.99707 5.85937 8.2627 6.07812 8.48145C6.29688 8.7002 6.5625 8.80957 6.875 8.80957ZM9.5 13.6846C10.35 13.6846 11.1219 13.4439 11.8156 12.9627C12.5094 12.4814 13.0125 11.8471 13.325 11.0596H5.675C5.9875 11.8471 6.49062 12.4814 7.18437 12.9627C7.87812 13.4439 8.65 13.6846 9.5 13.6846ZM9.5 17.0596C8.4625 17.0596 7.4875 16.8627 6.575 16.4689C5.6625 16.0752 4.86875 15.5408 4.19375 14.8658C3.51875 14.1908 2.98438 13.3971 2.59063 12.4846C2.19687 11.5721 2 10.5971 2 9.55957C2 8.52207 2.19687 7.54707 2.59063 6.63457C2.98438 5.72207 3.51875 4.92832 4.19375 4.25332C4.86875 3.57832 5.6625 3.04395 6.575 2.6502C7.4875 2.25645 8.4625 2.05957 9.5 2.05957C10.5375 2.05957 11.5125 2.25645 12.425 2.6502C13.3375 3.04395 14.1313 3.57832 14.8063 4.25332C15.4813 4.92832 16.0156 5.72207 16.4094 6.63457C16.8031 7.54707 17 8.52207 17 9.55957C17 10.5971 16.8031 11.5721 16.4094 12.4846C16.0156 13.3971 15.4813 14.1908 14.8063 14.8658C14.1313 15.5408 13.3375 16.0752 12.425 16.4689C11.5125 16.8627 10.5375 17.0596 9.5 17.0596ZM9.5 15.5596C11.175 15.5596 12.5938 14.9783 13.7563 13.8158C14.9188 12.6533 15.5 11.2346 15.5 9.55957C15.5 7.88457 14.9188 6.46582 13.7563 5.30332C12.5938 4.14082 11.175 3.55957 9.5 3.55957C7.825 3.55957 6.40625 4.14082 5.24375 5.30332C4.08125 6.46582 3.5 7.88457 3.5 9.55957C3.5 11.2346 4.08125 12.6533 5.24375 13.8158C6.40625 14.9783 7.825 15.5596 9.5 15.5596Z" fill="url(#paint0_linear_4738_2445)"/>
<defs>
<linearGradient id="paint0_linear_4738_2445" x1="2" y1="9.55957" x2="17" y2="9.55957" gradientUnits="userSpaceOnUse">
<stop stop-color="#216432"/>
<stop offset="0.894231" stop-color="#114422"/>
</linearGradient>
</defs>
</svg>
