<svg width="15" height="15" viewBox="0 0 15 15" fill="none" xmlns="http://www.w3.org/2000/svg">
<path d="M7.32915 0.957121C7.50956 0.575191 8.05294 0.575191 8.23335 0.957121L9.95427 4.60039C10.0272 4.75469 10.1737 4.86116 10.343 4.8828L14.3397 5.39366C14.7587 5.44721 14.9266 5.964 14.6191 6.2536L11.686 9.01612C11.5617 9.13312 11.5058 9.3054 11.5375 9.47308L12.2867 13.4321C12.3652 13.8471 11.9256 14.1665 11.5552 13.9635L8.02148 12.0276C7.87182 11.9456 7.69068 11.9456 7.54102 12.0276L4.00731 13.9635C3.63686 14.1665 3.19725 13.8471 3.27579 13.4321L4.025 9.47308C4.05673 9.3054 4.00075 9.13312 3.87653 9.01612L0.943367 6.2536C0.635879 5.964 0.803795 5.44721 1.22278 5.39366L5.21953 4.8828C5.3888 4.86116 5.53535 4.75469 5.60823 4.60039L7.32915 0.957121Z" fill="#FFCC00"/>
</svg>
