<svg width="24" height="25" viewBox="0 0 24 25" fill="none" xmlns="http://www.w3.org/2000/svg">
<path d="M9.38092 16.0839C9.1823 16.9446 10.1155 17.6213 10.8718 17.1651L11.4801 16.7982C11.7996 16.6055 12.1997 16.6066 12.5181 16.8012L13.1232 17.171C13.8787 17.6327 14.8172 16.9573 14.6194 16.0943L14.4594 15.3959C14.3767 15.0351 14.5 14.6582 14.7799 14.4161L15.3157 13.9528C15.9835 13.3752 15.6297 12.2787 14.7502 12.2003L14.0463 12.1377C13.6792 12.105 13.3598 11.873 13.2152 11.5339L12.9165 10.8335C12.5714 10.0244 11.425 10.0229 11.0778 10.831L10.7856 11.5112C10.6405 11.849 10.3217 12.0799 9.9555 12.1125L9.2331 12.1768C8.35605 12.2549 8.00074 13.3465 8.66377 13.9259L9.22394 14.4154C9.50164 14.6581 9.62323 15.0339 9.5403 15.3933L9.38092 16.0839ZM7.84834 21.339C7.09178 21.7954 6.15841 21.1182 6.35754 20.2574L7.31432 16.1211C7.39779 15.7603 7.27497 15.3828 6.99511 15.1402L3.78498 12.3571C3.11745 11.7784 3.4734 10.6817 4.35356 10.6053L8.59988 10.2367C8.96906 10.2046 9.29025 9.97104 9.43451 9.62971L11.0789 5.73899C11.423 4.92472 12.577 4.92472 12.9211 5.73899L14.5655 9.62971C14.7098 9.97104 15.0309 10.2046 15.4001 10.2367L19.6464 10.6053C20.5266 10.6817 20.8826 11.7784 20.215 12.3571L17.0049 15.1402C16.725 15.3828 16.6022 15.7603 16.6857 16.1211L17.6425 20.2574C17.8416 21.1182 16.9082 21.7954 16.1517 21.339L12.5165 19.1462C12.1988 18.9545 11.8012 18.9545 11.4835 19.1462L7.84834 21.339Z" fill="#AF4300"/>
<path d="M9.38092 16.0839C9.1823 16.9446 10.1155 17.6213 10.8718 17.1651L11.4801 16.7982C11.7996 16.6055 12.1997 16.6066 12.5181 16.8012L13.1232 17.171C13.8787 17.6327 14.8172 16.9573 14.6194 16.0943L14.4594 15.3959C14.3767 15.0351 14.5 14.6582 14.7799 14.4161L15.3157 13.9528C15.9835 13.3752 15.6297 12.2787 14.7502 12.2003L14.0463 12.1377C13.6792 12.105 13.3598 11.873 13.2152 11.5339L12.9165 10.8335C12.5714 10.0244 11.425 10.0229 11.0778 10.831L10.7856 11.5112C10.6405 11.849 10.3217 12.0799 9.9555 12.1125L9.2331 12.1768C8.35605 12.2549 8.00074 13.3465 8.66377 13.9259L9.22394 14.4154C9.50164 14.6581 9.62323 15.0339 9.5403 15.3933L9.38092 16.0839ZM7.84834 21.339C7.09178 21.7954 6.15841 21.1182 6.35754 20.2574L7.31432 16.1211C7.39779 15.7603 7.27497 15.3828 6.99511 15.1402L3.78498 12.3571C3.11745 11.7784 3.4734 10.6817 4.35356 10.6053L8.59988 10.2367C8.96906 10.2046 9.29025 9.97104 9.43451 9.62971L11.0789 5.73899C11.423 4.92472 12.577 4.92472 12.9211 5.73899L14.5655 9.62971C14.7098 9.97104 15.0309 10.2046 15.4001 10.2367L19.6464 10.6053C20.5266 10.6817 20.8826 11.7784 20.215 12.3571L17.0049 15.1402C16.725 15.3828 16.6022 15.7603 16.6857 16.1211L17.6425 20.2574C17.8416 21.1182 16.9082 21.7954 16.1517 21.339L12.5165 19.1462C12.1988 18.9545 11.8012 18.9545 11.4835 19.1462L7.84834 21.339Z" fill="#AF4300"/>
</svg>
