<svg width="25" height="24" viewBox="0 0 25 24" fill="none" xmlns="http://www.w3.org/2000/svg">
<path d="M18.5 7.5H17.5C17.22 7.5 17 7.72 17 8C17 8.28 17.22 8.5 17.5 8.5H18.5C19.88 8.5 21 9.62 21 11V12.5H19.91C19.97 12.34 20 12.18 20 12C20 11.17 19.33 10.5 18.5 10.5H15.5C14.67 10.5 14 11.17 14 12C14 12.18 14.04 12.34 14.09 12.5H10.91C10.97 12.34 11 12.18 11 12C11 11.17 10.33 10.5 9.5 10.5H6.5C5.67 10.5 5 11.17 5 12C5 12.18 5.04 12.34 5.09 12.5H4V11C4 9.62 5.12 8.5 6.5 8.5H7.5C7.78 8.5 8 8.28 8 8C8 7.72 7.78 7.5 7.5 7.5H6.5C4.57 7.5 3 9.07 3 11V19.5C3 20.05 3.45 20.5 4 20.5H5C5.55 20.5 6 20.05 6 19.5V19C6 18.72 6.22 18.5 6.5 18.5H18.5C18.78 18.5 19 18.72 19 19V19.5C19 20.05 19.45 20.5 20 20.5H21C21.55 20.5 22 20.05 22 19.5V11C22 9.07 20.43 7.5 18.5 7.5ZM15 12C15 11.72 15.22 11.5 15.5 11.5H18.5C18.78 11.5 19 11.72 19 12C19 12.28 18.78 12.5 18.5 12.5H15.5C15.22 12.5 15 12.28 15 12ZM6 12C6 11.72 6.22 11.5 6.5 11.5H9.5C9.78 11.5 10 11.72 10 12C10 12.28 9.78 12.5 9.5 12.5H6.5C6.22 12.5 6 12.28 6 12ZM6.5 13.5H21V15.5H4V13.5H6.5ZM20 19.5V19C20 18.17 19.33 17.5 18.5 17.5H6.5C5.67 17.5 5 18.17 5 19V19.5H4V16.5H21V19.5H20Z" fill="url(#paint0_linear_4169_1405)"/>
<path d="M11.4389 9.64977C11.7289 9.93976 12.1189 10.0898 12.4989 10.0898C12.8789 10.0898 13.2689 9.93976 13.5589 9.64977L16.3389 6.86977C16.7989 6.40977 16.9089 5.71977 16.6189 5.13977L16.2189 4.33977C15.9689 3.82977 15.4489 3.50977 14.8789 3.50977H10.1189C9.5489 3.50977 9.0289 3.82977 8.7789 4.33977L8.3789 5.13977C8.0889 5.71977 8.1989 6.40977 8.6589 6.86977L11.4389 9.64977ZM9.2689 5.57977L9.6689 4.77977C9.7489 4.60977 9.9289 4.49977 10.1189 4.49977H14.8789C15.0689 4.49977 15.2389 4.60977 15.3289 4.77977L15.7289 5.57977C15.8289 5.76977 15.7889 5.99977 15.6389 6.15977L12.8589 8.93976C12.6589 9.13976 12.3489 9.13976 12.1489 8.93976L9.3689 6.15977C9.2189 6.00977 9.1789 5.77977 9.2789 5.57977H9.2689Z" fill="url(#paint1_linear_4169_1405)"/>
<path d="M11.2808 6.4499C11.5308 6.5699 11.8308 6.4699 11.9508 6.2299C12.1608 5.7999 12.8408 5.7999 13.0608 6.2299C13.1508 6.4099 13.3208 6.5099 13.5108 6.5099C13.5908 6.5099 13.6608 6.4899 13.7308 6.4599C13.9808 6.3399 14.0808 6.0399 13.9508 5.7899C13.6708 5.2399 13.1208 4.8999 12.5008 4.8999C11.8808 4.8999 11.3308 5.2399 11.0508 5.7899C10.9308 6.0399 11.0308 6.3399 11.2708 6.4599L11.2808 6.4499Z" fill="url(#paint2_linear_4169_1405)"/>
<defs>
<linearGradient id="paint0_linear_4169_1405" x1="3" y1="14" x2="22" y2="14" gradientUnits="userSpaceOnUse">
<stop offset="0.9999" stop-color="#216432"/>
<stop offset="1" stop-color="#114422"/>
</linearGradient>
<linearGradient id="paint1_linear_4169_1405" x1="8.21875" y1="6.79977" x2="16.7791" y2="6.79977" gradientUnits="userSpaceOnUse">
<stop offset="0.9999" stop-color="#216432"/>
<stop offset="1" stop-color="#114422"/>
</linearGradient>
<linearGradient id="paint2_linear_4169_1405" x1="11" y1="5.7049" x2="14.0079" y2="5.7049" gradientUnits="userSpaceOnUse">
<stop offset="0.9999" stop-color="#216432"/>
<stop offset="1" stop-color="#114422"/>
</linearGradient>
</defs>
</svg>
