<svg width="9" height="10" viewBox="0 0 9 10" fill="none" xmlns="http://www.w3.org/2000/svg">
<path fill-rule="evenodd" clip-rule="evenodd" d="M4.24356 0.957854L3.082 3.45535L0.308871 3.81254C0.255221 3.81925 0.204641 3.84127 0.163187 3.87599C0.121734 3.9107 0.0911637 3.95662 0.0751382 4.00826C0.0591127 4.0599 0.0583109 4.11506 0.0728287 4.16714C0.0873466 4.21922 0.116569 4.26602 0.156996 4.30192L2.21012 6.14973L1.65606 8.92004C1.64562 8.97301 1.65065 9.02786 1.67054 9.07804C1.69043 9.12823 1.72435 9.17163 1.76824 9.20307C1.81213 9.2345 1.86413 9.25264 1.91805 9.25532C1.97197 9.25799 2.02552 9.2451 2.07231 9.21817L4.49668 7.81192L6.92387 9.21817C6.97066 9.2451 7.02421 9.25799 7.07813 9.25532C7.13204 9.25264 7.18405 9.2345 7.22794 9.20307C7.27183 9.17163 7.30575 9.12823 7.32564 9.07804C7.34553 9.02786 7.35056 8.97301 7.34012 8.92004L6.78606 6.14973L8.83918 4.30192C8.8788 4.26568 8.90721 4.21885 8.92107 4.16698C8.93493 4.11511 8.93364 4.06035 8.91738 4.00919C8.90111 3.95802 8.87054 3.91258 8.82927 3.87823C8.788 3.84388 8.73777 3.82206 8.6845 3.81535L5.91137 3.45535L4.75262 0.957854C4.73025 0.908751 4.69422 0.86712 4.64884 0.837928C4.60346 0.808735 4.55064 0.793213 4.49668 0.793213C4.44272 0.793213 4.3899 0.808735 4.34452 0.837928C4.29914 0.86712 4.26312 0.908751 4.24075 0.957854H4.24356Z" fill="#FFCC00"/>
</svg>
