<svg width="179" height="163" viewBox="0 0 179 163" fill="none" xmlns="http://www.w3.org/2000/svg">
<path d="M155.92 57.6532C155.062 56.1855 155.615 54.3567 156.996 53.5493L163.471 49.7648C164.939 48.907 166.767 49.4588 167.575 50.8411C168.433 52.3079 167.88 54.1376 166.499 54.9449L160.024 58.7294C158.643 59.5368 156.777 59.12 155.92 57.6532ZM133.935 38.0711C132.415 37.4534 131.665 35.5753 132.42 34.0918L135.379 27.2646C135.997 25.7453 137.875 24.996 139.359 25.7505C140.878 26.3674 141.628 28.2455 140.874 29.7298L137.914 36.5553C137.296 38.0746 135.504 38.7744 133.935 38.0711ZM104.922 36.336C103.309 36.6324 101.665 35.4536 101.503 33.797L100.325 26.4505C100.028 24.8368 101.208 23.1943 102.864 23.0313C104.477 22.735 106.119 23.9143 106.282 25.5704L107.46 32.9169C107.758 34.5301 106.624 36.0836 104.922 36.336ZM79.2747 49.9798C78.1457 51.2189 76.2238 51.2997 75.0353 50.257L69.4669 45.2877C68.2279 44.1587 68.1465 42.236 69.1893 41.0474C70.3183 39.8083 72.2407 39.7284 73.4293 40.7711L78.9971 45.7395C80.323 46.819 80.4038 48.7408 79.2747 49.9798ZM67.4565 76.9253C67.2491 78.5523 65.7601 79.77 64.1831 79.6481L56.7833 78.8778C55.1563 78.6705 53.9381 77.1806 54.0596 75.605C54.267 73.978 55.756 72.7603 57.332 72.8805L64.7328 73.6525C66.4461 73.8094 67.6639 75.2984 67.4565 76.9253ZM73.7288 105.691C74.5861 107.158 74.0339 108.988 72.6525 109.795L66.1774 113.579C64.7097 114.437 62.8809 113.885 62.0735 112.503C61.2157 111.035 61.7684 109.207 63.1498 108.399L69.6249 104.615C71.0926 103.757 72.871 104.223 73.7288 105.691ZM95.7141 125.273C97.2334 125.891 97.9836 127.769 97.2286 129.252L94.2692 136.079C93.6514 137.598 91.7734 138.348 90.2894 137.593C88.7706 136.976 88.0204 135.098 88.7744 133.614L91.7348 126.788C92.3526 125.269 94.1443 124.569 95.7141 125.273ZM124.991 128.2C126.625 127.824 128.26 128.838 128.549 130.522L130.146 137.811C130.522 139.446 129.508 141.08 127.824 141.37C126.191 141.746 124.555 140.731 124.266 139.048L122.669 131.757C122.294 130.124 123.358 128.575 124.991 128.2ZM150.374 113.364C151.503 112.125 153.424 112.044 154.613 113.086L160.182 118.057C161.42 119.185 161.502 121.107 160.459 122.296C159.33 123.535 157.408 123.615 156.219 122.572L150.651 117.604C149.412 116.475 149.245 114.603 150.374 113.364ZM162.192 86.4189C162.399 84.7911 163.888 83.5734 165.465 83.6953L172.865 84.4655C174.492 84.6729 175.71 86.1628 175.589 87.7384C175.381 89.3654 173.893 90.584 172.316 90.4629L164.915 89.6909C163.289 89.4835 161.985 88.0459 162.192 86.4189Z" fill="#ECA914"/>
<path d="M77.7031 81.7144C77.6941 102.204 94.2981 118.822 114.787 118.831C135.277 118.84 151.894 102.237 151.903 81.7474V81.7144C151.906 61.2244 135.299 44.6124 114.809 44.6094C94.3191 44.6054 77.7061 61.2124 77.7031 81.7024V81.7144Z" fill="#ECA914"/>
<path d="M152.697 127.616C152.697 109.216 136.897 94.2156 117.497 94.2156C98.0969 94.2156 82.2969 109.116 82.2969 127.616V161.016H117.897C137.097 160.716 152.697 145.916 152.697 127.616Z" fill="#EAEAEA" fill-opacity="0.39"/>
<path d="M130.5 126.015C130.5 115.414 125.7 105.914 118.2 99.4136C118.301 98.4136 118.4 97.4136 118.4 96.4136C118.4 77.1146 102.601 61.4146 83.2 61.4146C63.8 61.4146 48 77.1146 48 96.4136C48 96.7146 48 97.1146 48.101 97.4136C43.7 95.2146 38.7 94.0145 33.5 94.0145C15 94.0145 0 109.015 0 127.515C0 145.615 14.4 160.315 32.4 160.914V161.015H97V160.914C115.5 160.115 130.5 144.815 130.5 126.015Z" fill="#F7F7F7" fill-opacity="0.48"/>
</svg>
