<svg width="146" height="87" viewBox="0 0 146 87" fill="none" xmlns="http://www.w3.org/2000/svg">
<rect y="0.55957" width="146" height="86" rx="12" fill="#EEEEEE"/>
<path d="M37.1934 14.293C42.3408 14.1978 70.4392 14.1049 78.1738 14.8564C80.0331 15.0371 82.4342 15.8529 85.0215 17.0068C87.5982 18.1561 90.3187 19.622 92.8047 21.0684C95.2893 22.514 97.5333 23.9365 99.1562 24.998C99.9676 25.5287 100.624 25.9692 101.076 26.2764C101.302 26.4297 101.477 26.5501 101.596 26.6318C101.655 26.6725 101.7 26.7036 101.73 26.7246C101.746 26.7351 101.757 26.7438 101.765 26.749C101.768 26.7516 101.772 26.7536 101.773 26.7549L101.775 26.7559L102.062 26.3467L101.776 26.7568L101.88 26.8291L102.006 26.8438H102.013C102.017 26.8443 102.025 26.8456 102.034 26.8467C102.053 26.8488 102.081 26.8521 102.118 26.8564C102.192 26.8651 102.301 26.8776 102.44 26.8945C102.721 26.9284 103.126 26.9786 103.626 27.0439C104.626 27.1748 106.004 27.3665 107.511 27.6074C110.542 28.0919 114.043 28.7695 116.087 29.5508C118.102 30.3216 119.297 31.3572 119.999 32.5352C120.706 33.7217 120.945 35.1088 120.945 36.6396V44.3271C120.945 45.103 120.548 45.8185 119.771 46.3584C118.986 46.9031 117.82 47.2598 116.355 47.2598C113.273 47.2598 108.517 47.2699 105.473 47.2598H105.469C79.5164 47.1774 57.2038 47.0977 33.8408 46.7393C32.5774 46.7198 31.0161 46.6355 29.5957 46.3574C28.2411 46.0922 27.1103 45.6675 26.4531 45.04L26.3281 44.9121C25.2797 43.7545 25.0331 41.929 25.0068 40.1191C24.8815 31.6533 26.5406 24.6516 30.2246 18.1797L30.5723 17.5703L29.8828 17.4404H29.8818C29.8807 17.4402 29.8786 17.44 29.876 17.4395C29.8706 17.4384 29.8619 17.4368 29.8506 17.4346C29.8276 17.43 29.7925 17.4227 29.748 17.4131C29.6589 17.3939 29.5307 17.3642 29.377 17.3252C29.0676 17.2468 28.6624 17.1311 28.2676 16.9775C27.8656 16.8212 27.5084 16.6396 27.2705 16.4434C27.0285 16.2436 27.0014 16.1101 27.0117 16.0312C27.0118 16.0306 27.0115 16.0271 27.0137 16.0215C27.0159 16.0157 27.0208 16.0063 27.0293 15.9932C27.047 15.9657 27.0801 15.9257 27.1387 15.876C27.2588 15.774 27.4522 15.6597 27.7314 15.541C28.2886 15.3042 29.0929 15.0905 30.0801 14.9102C32.0471 14.5509 34.6407 14.3402 37.1934 14.293Z" stroke="black"/>
<path d="M51.7179 41.8178C50.5116 38.9057 47.3737 36.936 44.2571 37.1349C41.1405 37.3338 38.2719 39.686 37.4364 42.7285C36.6009 45.771 37.8586 49.2822 40.4277 51.0771C42.9969 52.8719 46.6897 52.8213 49.2088 50.9555C51.7279 49.0897 53.3751 45.6393 51.7179 41.819V41.8178Z" fill="#514A42"/>
<path d="M48.1534 43.3324C47.5684 41.9213 46.0489 40.9675 44.5382 41.0638C43.0288 41.1601 41.6383 42.3001 41.2337 43.7732C40.8291 45.2476 41.4379 46.9487 42.683 47.8177C43.9269 48.6879 45.7169 48.6625 46.937 47.7581C48.1571 46.8537 48.9551 45.183 48.1521 43.3311L48.1534 43.3324Z" fill="#91A6A8"/>
<path d="M48.6811 43.0132C47.9608 41.3995 46.2046 40.2836 44.4384 40.4381C42.7298 40.5876 41.2128 41.7896 40.6679 43.4363C40.1393 45.0348 40.6955 46.9551 41.9519 48.0508C43.331 49.2541 45.448 49.4251 47.0051 48.4637C48.8051 47.3528 49.5392 45.1349 48.745 43.164C48.4444 42.4192 47.2318 42.7447 47.5374 43.5009C48.1838 45.102 47.5901 46.9285 45.9328 47.5985C44.3219 48.2496 42.4692 47.4352 41.9055 45.7708C41.3832 44.2292 42.1172 42.5902 43.5941 41.9378C45.1737 41.2399 46.9199 42.1278 47.6013 43.6529C47.932 44.3952 49.0118 43.7517 48.6824 43.0132H48.6811Z" fill="black"/>
<path d="M110.249 41.8178C109.043 38.9057 105.905 36.936 102.788 37.1349C99.6717 37.3338 96.8032 39.686 95.9677 42.7285C95.1321 45.771 96.3898 49.2822 98.959 51.0771C101.528 52.8719 105.221 52.8213 107.74 50.9555C110.259 49.0897 111.906 45.6393 110.249 41.819V41.8178Z" fill="#514A42"/>
<path d="M106.685 43.3324C106.1 41.9213 104.58 40.9675 103.069 41.0638C101.56 41.1601 100.17 42.3001 99.765 43.7732C99.3604 45.2476 99.9691 46.9487 101.214 47.8177C102.458 48.6879 104.248 48.6625 105.468 47.7581C106.688 46.8537 107.486 45.183 106.683 43.3311L106.685 43.3324Z" fill="#91A6A8"/>
<path d="M107.22 43.0132C106.5 41.3995 104.744 40.2836 102.977 40.4381C101.269 40.5876 99.7519 41.7896 99.207 43.4363C98.6783 45.0348 99.2345 46.9551 100.491 48.0508C101.87 49.2541 103.987 49.4251 105.544 48.4637C107.344 47.3528 108.078 45.1349 107.284 43.164C106.983 42.4192 105.771 42.7447 106.077 43.5009C106.723 45.102 106.129 46.9285 104.472 47.5985C102.861 48.2496 101.008 47.4352 100.445 45.7708C99.9222 44.2292 100.656 42.5902 102.133 41.9378C103.713 41.2399 105.459 42.1278 106.14 43.6529C106.471 44.3952 107.551 43.7517 107.221 43.0132H107.22Z" fill="black"/>
<path d="M34.3208 26.6062C56.4334 27.2965 76.7133 27.4511 98.4263 28.1705C91.8396 23.2458 84.5727 19.1886 79.5143 18.1246C74.585 17.0872 66.5715 17.0758 59.7067 17.0492C51.7809 17.0188 45.932 17.01 38.1403 17.0733C35.7276 17.0923 34.9334 18.454 34.3722 20.3514C34.2293 20.8353 34.1216 21.171 32.9892 24.7759C32.805 25.3623 32.9954 26.5669 34.3195 26.6075L34.3208 26.6062Z" fill="#D9D9D9"/>
<path d="M34.3218 27.2398C42.7424 27.502 51.1643 27.6945 59.5862 27.8693C67.7976 28.0403 76.0103 28.1961 84.2217 28.3988C88.9569 28.5153 93.6933 28.6483 98.4273 28.8041C99.1037 28.8269 99.2052 27.9681 98.743 27.6236C94.0692 24.1377 89.0521 20.9154 83.6317 18.7544C78.9579 16.8912 73.897 16.6746 68.9275 16.5264C62.862 16.3465 56.7864 16.3959 50.7183 16.3921C47.7507 16.3908 44.7843 16.3972 41.8167 16.4136C40.3185 16.4225 38.7288 16.2806 37.2468 16.5137C36.2823 16.6657 35.4229 17.1293 34.8204 17.9134C33.9873 18.9976 33.6942 20.4454 33.2883 21.7362C33.1117 22.2998 32.9351 22.8622 32.7572 23.4259C32.5793 23.9895 32.2949 24.6254 32.3049 25.2499C32.325 26.4317 33.2119 27.16 34.3205 27.2411C35.1248 27.2993 35.121 26.0327 34.3205 25.9744C33.1806 25.8908 33.6554 24.7483 33.8721 24.0579C34.1376 23.2131 34.4032 22.3682 34.6675 21.5221C34.9882 20.4948 35.2049 19.3016 35.9578 18.5036C36.7019 17.7145 37.7429 17.7094 38.7501 17.7018C40.2257 17.6904 41.7014 17.6816 43.1771 17.674C45.908 17.6613 48.6401 17.6575 51.371 17.66C57.0382 17.6651 62.7116 17.6284 68.3776 17.7791C73.0264 17.902 77.8668 18.0008 82.2925 19.5955C87.9948 21.6513 93.2637 25.1055 98.1091 28.7193L98.4248 27.5387C90.0994 27.2639 81.7727 27.065 73.4448 26.8889C65.1168 26.7129 56.968 26.5596 48.7303 26.3658C43.9262 26.2518 39.1221 26.1251 34.3193 25.9757C33.5125 25.9503 33.5138 27.217 34.3193 27.2423L34.3218 27.2398Z" fill="black"/>
<path d="M71.4433 17.5584C71.8392 20.72 72.2363 23.8815 72.6321 27.0431C72.7323 27.8411 73.9862 27.8513 73.8848 27.0431C73.4889 23.8815 73.0918 20.72 72.696 17.5584C72.5958 16.7604 71.3419 16.7502 71.4433 17.5584Z" fill="black"/>
<path d="M50.1998 17.0381C49.3092 20.2326 48.5877 23.4702 48.034 26.7408C47.8987 27.5375 49.1063 27.8808 49.2415 27.0777C49.794 23.8059 50.5167 20.5683 51.4074 17.375C51.6266 16.5897 50.4178 16.254 50.1998 17.0381Z" fill="black"/>
<path d="M77.691 32.5163C78.3461 32.5264 79 32.5378 79.6551 32.5479C80.4618 32.5606 80.4618 31.2939 79.6551 31.2813C79 31.2711 78.3461 31.2597 77.691 31.2496C76.8843 31.2369 76.8843 32.5036 77.691 32.5163Z" fill="black"/>
<path d="M73.2066 30.0709C73.6588 34.7829 73.8392 39.5165 73.744 44.25C73.7277 45.0657 74.9803 45.0657 74.9966 44.25C75.0918 39.5165 74.9114 34.7829 74.4592 30.0709C74.3816 29.2666 73.1289 29.259 73.2066 30.0709Z" fill="black"/>
<path d="M69.2925 32.5481C70.0166 32.5329 70.7419 32.5177 71.4659 32.5012C72.2713 32.4835 72.2738 31.2168 71.4659 31.2346C70.7419 31.2498 70.0166 31.265 69.2925 31.2814C68.4871 31.2992 68.4846 32.5658 69.2925 32.5481Z" fill="black"/>
<path d="M47.798 29.6764C47.6339 31.7841 47.4711 33.8931 47.307 36.0008C47.2443 36.814 48.497 36.809 48.5596 36.0008C48.7237 33.8931 48.8866 31.7841 49.0507 29.6764C49.1133 28.8632 47.8606 28.8682 47.798 29.6764Z" fill="black"/>
<path d="M97.6772 30.2391C98.2434 32.1733 98.7169 34.1316 99.099 36.1114C99.2531 36.9106 100.461 36.5724 100.307 35.7744C99.9245 33.7946 99.451 31.8364 98.8848 29.9022C98.6568 29.1219 97.448 29.4538 97.6772 30.2391Z" fill="black"/>
<path d="M30.2675 29.6765C28.817 29.1977 27.1484 29.1901 25.5075 29.1597C25.277 30.2325 25.0866 31.3257 24.9375 32.4441C27.9777 32.5024 30.8463 32.6164 33.6697 32.5885C32.7265 31.3979 31.7018 30.1489 30.2675 29.6765Z" fill="#ED4C4C"/>
<path d="M119.377 32.637C119.083 32.4064 118.726 32.2747 118.373 32.1582C116.296 31.4691 108.408 29.8034 113.215 32.8738C114.876 33.9353 116.616 34.8714 118.415 35.6706C119.602 36.1988 120.147 35.7327 120.173 34.9486C120.181 34.7042 119.952 33.0892 119.377 32.637Z" fill="#FFC466"/>
<path d="M62.8071 67.5016C62.0711 67.5016 61.4097 67.3736 60.8231 67.1176C60.2471 66.851 59.7937 66.4883 59.4631 66.0296C59.1324 65.5603 58.9617 65.0216 58.9511 64.4136H60.5031C60.5564 64.9363 60.7697 65.379 61.1431 65.7416C61.5271 66.0936 62.0817 66.2696 62.8071 66.2696C63.5004 66.2696 64.0444 66.099 64.4391 65.7576C64.8444 65.4056 65.0471 64.9576 65.0471 64.4136C65.0471 63.987 64.9297 63.6403 64.6951 63.3736C64.4604 63.107 64.1671 62.9043 63.8151 62.7656C63.4631 62.627 62.9884 62.4776 62.3911 62.3176C61.6551 62.1256 61.0631 61.9336 60.6151 61.7416C60.1777 61.5496 59.7991 61.251 59.4791 60.8456C59.1697 60.4296 59.0151 59.875 59.0151 59.1816C59.0151 58.5736 59.1697 58.035 59.4791 57.5656C59.7884 57.0963 60.2204 56.7336 60.7751 56.4776C61.3404 56.2216 61.9857 56.0936 62.7111 56.0936C63.7564 56.0936 64.6097 56.355 65.2711 56.8776C65.9431 57.4003 66.3217 58.0936 66.4071 58.9576H64.8071C64.7537 58.531 64.5297 58.1576 64.1351 57.8376C63.7404 57.507 63.2177 57.3416 62.5671 57.3416C61.9591 57.3416 61.4631 57.5016 61.0791 57.8216C60.6951 58.131 60.5031 58.5683 60.5031 59.1336C60.5031 59.539 60.6151 59.8696 60.8391 60.1256C61.0737 60.3816 61.3564 60.579 61.6871 60.7176C62.0284 60.8456 62.5031 60.995 63.1111 61.1656C63.8471 61.3683 64.4391 61.571 64.8871 61.7736C65.3351 61.9656 65.7191 62.2696 66.0391 62.6856C66.3591 63.091 66.5191 63.6456 66.5191 64.3496C66.5191 64.8936 66.3751 65.4056 66.0871 65.8856C65.7991 66.3656 65.3724 66.755 64.8071 67.0536C64.2417 67.3523 63.5751 67.5016 62.8071 67.5016ZM76.4377 58.6216V67.3896H74.9817V66.0936C74.7044 66.5416 74.315 66.8936 73.8137 67.1496C73.323 67.395 72.779 67.5176 72.1817 67.5176C71.499 67.5176 70.8857 67.379 70.3417 67.1016C69.7977 66.8136 69.3657 66.387 69.0457 65.8216C68.7364 65.2563 68.5817 64.5683 68.5817 63.7576V58.6216H70.0217V63.5656C70.0217 64.4296 70.2404 65.0963 70.6777 65.5656C71.115 66.0243 71.7124 66.2536 72.4697 66.2536C73.2484 66.2536 73.8617 66.0136 74.3097 65.5336C74.7577 65.0536 74.9817 64.355 74.9817 63.4376V58.6216H76.4377ZM82.1601 66.0456L84.8801 58.6216H86.4321L82.9921 67.3896H81.2961L77.8561 58.6216H79.4241L82.1601 66.0456Z" fill="black"/>
</svg>
