<svg width="100" height="101" viewBox="0 0 100 101" fill="none" xmlns="http://www.w3.org/2000/svg">
<path d="M0.4375 5.92676C0.4375 3.16533 2.67608 0.926758 5.4375 0.926758H61.5664C82.5532 0.926758 99.5664 17.9399 99.5664 38.9268V95.0557C99.5664 97.8171 97.3278 100.056 94.5664 100.056H38.4375C17.4507 100.056 0.4375 83.0425 0.4375 62.0557V5.92676Z" fill="url(#paint0_linear_4121_806)"/>
<path d="M8.816 48.5632C8.816 40.2592 10.304 33.7552 13.28 29.0512C16.304 24.3472 21.296 21.9952 28.256 21.9952C35.216 21.9952 40.184 24.3472 43.16 29.0512C46.184 33.7552 47.696 40.2592 47.696 48.5632C47.696 56.9152 46.184 63.4672 43.16 68.2192C40.184 72.9712 35.216 75.3472 28.256 75.3472C21.296 75.3472 16.304 72.9712 13.28 68.2192C10.304 63.4672 8.816 56.9152 8.816 48.5632ZM37.76 48.5632C37.76 45.0112 37.52 42.0352 37.04 39.6352C36.608 37.1872 35.696 35.1952 34.304 33.6592C32.96 32.1232 30.944 31.3552 28.256 31.3552C25.568 31.3552 23.528 32.1232 22.136 33.6592C20.792 35.1952 19.88 37.1872 19.4 39.6352C18.968 42.0352 18.752 45.0112 18.752 48.5632C18.752 52.2112 18.968 55.2832 19.4 57.7792C19.832 60.2272 20.744 62.2192 22.136 63.7552C23.528 65.2432 25.568 65.9872 28.256 65.9872C30.944 65.9872 32.984 65.2432 34.376 63.7552C35.768 62.2192 36.68 60.2272 37.112 57.7792C37.544 55.2832 37.76 52.2112 37.76 48.5632ZM55.5069 36.8272C55.7469 32.0272 57.4269 28.3312 60.5469 25.7392C63.7149 23.0992 67.8669 21.7792 73.0029 21.7792C76.5069 21.7792 79.5069 22.4032 82.0029 23.6512C84.4989 24.8512 86.3709 26.5072 87.6189 28.6192C88.9149 30.6832 89.5629 33.0352 89.5629 35.6752C89.5629 38.6992 88.7709 41.2672 87.1869 43.3792C85.6509 45.4432 83.8029 46.8352 81.6429 47.5552V47.8432C84.4269 48.7072 86.5869 50.2432 88.1229 52.4512C89.7069 54.6592 90.4989 57.4912 90.4989 60.9472C90.4989 63.8272 89.8269 66.3952 88.4829 68.6512C87.1869 70.9072 85.2429 72.6832 82.6509 73.9792C80.1069 75.2272 77.0349 75.8512 73.4349 75.8512C68.0109 75.8512 63.5949 74.4832 60.1869 71.7472C56.7789 69.0112 54.9789 64.9792 54.7869 59.6512H64.5789C64.6749 62.0032 65.4669 63.8992 66.9549 65.3392C68.4909 66.7312 70.5789 67.4272 73.2189 67.4272C75.6669 67.4272 77.5389 66.7552 78.8349 65.4112C80.1789 64.0192 80.8509 62.2432 80.8509 60.0832C80.8509 57.2032 79.9389 55.1392 78.1149 53.8912C76.2909 52.6432 73.4589 52.0192 69.6189 52.0192H67.5309V43.7392H69.6189C76.4349 43.7392 79.8429 41.4592 79.8429 36.8992C79.8429 34.8352 79.2189 33.2272 77.9709 32.0752C76.7709 30.9232 75.0189 30.3472 72.7149 30.3472C70.4589 30.3472 68.7069 30.9712 67.4589 32.2192C66.2589 33.4192 65.5629 34.9552 65.3709 36.8272H55.5069Z" fill="#FEFEFE"/>
<defs>
<linearGradient id="paint0_linear_4121_806" x1="-55.3014" y1="19.3192" x2="245.846" y2="52.6601" gradientUnits="userSpaceOnUse">
<stop stop-color="#216432"/>
<stop offset="0.581731" stop-color="#114422"/>
</linearGradient>
</defs>
</svg>
