<svg width="24" height="25" viewBox="0 0 24 25" fill="none" xmlns="http://www.w3.org/2000/svg">
<path d="M17.9978 8.0596H17.2078L14.4778 5.3296C13.1578 4.0096 10.8478 4.0096 9.52781 5.3296L6.79781 8.0596H6.00781C4.07781 8.0596 2.50781 9.6296 2.50781 11.5596V15.5596C2.50781 17.4896 4.07781 19.0596 6.00781 19.0596H18.0078C19.9378 19.0596 21.5078 17.4896 21.5078 15.5596V11.5596C21.5078 9.6296 19.9378 8.0596 18.0078 8.0596H17.9978ZM10.2278 6.0296C11.1678 5.0896 12.8178 5.0896 13.7678 6.0296L15.7978 8.0596H8.20781L10.2378 6.0296H10.2278ZM20.4978 15.5596C20.4978 16.9396 19.3778 18.0596 17.9978 18.0596H5.99781C4.61781 18.0596 3.49781 16.9396 3.49781 15.5596V11.5596C3.49781 10.1796 4.61781 9.0596 5.99781 9.0596H17.9978C19.3778 9.0596 20.4978 10.1796 20.4978 11.5596V15.5596Z" fill="#AF4300"/>
<path d="M14.8661 14.1095C15.3261 13.7795 15.5061 13.2195 15.3261 12.6795C15.1561 12.1395 14.6761 11.7995 14.1161 11.7995H13.6161C13.4961 11.7995 13.3961 11.7195 13.3561 11.6095L13.2061 11.1395C13.0361 10.5995 12.5561 10.2595 11.9961 10.2595C11.4361 10.2595 10.9561 10.6095 10.7861 11.1395L10.6361 11.6095C10.5961 11.7195 10.4961 11.7995 10.3761 11.7995H9.87612C9.31612 11.7995 8.83612 12.1495 8.66612 12.6795C8.49612 13.2195 8.66612 13.7795 9.12612 14.1095L9.52612 14.3995C9.62612 14.4695 9.66612 14.5895 9.62612 14.7095L9.47612 15.1795C9.30612 15.7195 9.47612 16.2695 9.93612 16.6095C10.3861 16.9395 10.9761 16.9395 11.4361 16.6095L11.8361 16.3195C11.9361 16.2495 12.0661 16.2495 12.1561 16.3195L12.5561 16.6095C12.7861 16.7795 13.0461 16.8595 13.3061 16.8595C13.5661 16.8595 13.8261 16.7795 14.0561 16.6095C14.5161 16.2795 14.6961 15.7195 14.5161 15.1795L14.3661 14.7095C14.3261 14.5995 14.3661 14.4695 14.4661 14.3995L14.8661 14.1095ZM14.2761 13.2995L13.8761 13.5895C13.4261 13.9195 13.2461 14.4895 13.4161 15.0195L13.5661 15.4895C13.6261 15.6595 13.5161 15.7595 13.4661 15.7995C13.4161 15.8395 13.2861 15.8995 13.1461 15.7995L12.7461 15.5095C12.5261 15.3495 12.2561 15.2695 11.9961 15.2695C11.7361 15.2695 11.4661 15.3495 11.2461 15.5095L10.8461 15.7995C10.6961 15.8995 10.5761 15.8295 10.5261 15.7995C10.4761 15.7695 10.3661 15.6595 10.4261 15.4895L10.5761 15.0195C10.7461 14.4895 10.5661 13.9195 10.1161 13.5895L9.71612 13.2995C9.56612 13.1895 9.59612 13.0495 9.61612 12.9895C9.63612 12.9295 9.69612 12.7995 9.87612 12.7995H10.3761C10.9261 12.7995 11.4161 12.4495 11.5861 11.9195L11.7361 11.4495C11.7961 11.2795 11.9361 11.2595 11.9961 11.2595C12.0561 11.2595 12.2061 11.2795 12.2561 11.4495L12.4061 11.9195C12.5761 12.4495 13.0661 12.7995 13.6161 12.7995H14.1161C14.2961 12.7995 14.3561 12.9295 14.3761 12.9895C14.3961 13.0495 14.4261 13.1895 14.2761 13.2995Z" fill="#AF4300"/>
<path d="M18.2222 11.8096H17.7222C17.6022 11.8096 17.5022 11.7296 17.4622 11.6196L17.3122 11.1496C17.1222 10.5596 16.5622 10.1996 15.9322 10.2796C15.6622 10.3096 15.4622 10.5596 15.5022 10.8396C15.5422 11.1096 15.7922 11.2996 16.0622 11.2696C16.1022 11.2696 16.2922 11.2496 16.3622 11.4596L16.5122 11.9296C16.6822 12.4596 17.1722 12.8096 17.7222 12.8096H18.2222C18.4022 12.8096 18.4622 12.9396 18.4822 12.9996C18.5022 13.0596 18.5322 13.1996 18.3822 13.3096L17.9822 13.5996C17.5322 13.9296 17.3522 14.4996 17.5222 15.0196L17.6722 15.4896C17.7322 15.6596 17.6222 15.7596 17.5722 15.7996C17.5222 15.8396 17.3922 15.8996 17.2522 15.7996L16.8522 15.5096C16.4022 15.1796 15.8022 15.1796 15.3522 15.5096C15.1322 15.6696 15.0822 15.9896 15.2422 16.2096C15.4022 16.4296 15.7222 16.4796 15.9422 16.3196C16.0422 16.2496 16.1722 16.2496 16.2622 16.3196L16.6622 16.6096C16.8922 16.7796 17.1522 16.8596 17.4122 16.8596C17.6722 16.8596 17.9322 16.7796 18.1622 16.6096C18.6222 16.2796 18.8022 15.7196 18.6222 15.1896L18.4722 14.7196C18.4322 14.6096 18.4722 14.4796 18.5722 14.4096L18.9722 14.1196C19.4322 13.7896 19.6122 13.2296 19.4322 12.6896C19.2622 12.1496 18.7822 11.8096 18.2222 11.8096Z" fill="#AF4300"/>
<path d="M7.15237 15.5096L6.75237 15.7996C6.60237 15.8996 6.47237 15.8296 6.43237 15.7996C6.38237 15.7596 6.27237 15.6596 6.33237 15.4896L6.48237 15.0196C6.65237 14.4896 6.47237 13.9196 6.02237 13.5896L5.62237 13.2996C5.47237 13.1896 5.50237 13.0496 5.52237 12.9896C5.54237 12.9296 5.60237 12.7996 5.78237 12.7996H6.28237C6.83237 12.7996 7.32237 12.4496 7.49237 11.9196L7.64237 11.4496C7.71237 11.2396 7.90237 11.2596 7.94237 11.2596C8.21237 11.2896 8.46237 11.0996 8.50237 10.8296C8.53237 10.5596 8.34237 10.3096 8.07237 10.2696C7.45237 10.1996 6.89237 10.5496 6.69237 11.1396L6.54237 11.6096C6.50237 11.7196 6.40237 11.7996 6.28237 11.7996H5.78237C5.22237 11.7996 4.74237 12.1496 4.57237 12.6796C4.40237 13.2196 4.57237 13.7796 5.03237 14.1096L5.43237 14.3996C5.53237 14.4696 5.57237 14.5896 5.53237 14.7096L5.38237 15.1796C5.21237 15.7196 5.38237 16.2696 5.84237 16.6096C6.07237 16.7796 6.33237 16.8596 6.59237 16.8596C6.85237 16.8596 7.11237 16.7796 7.34237 16.6096L7.74237 16.3196C7.84237 16.2496 7.97237 16.2496 8.06237 16.3196C8.28237 16.4796 8.60237 16.4296 8.76237 16.2096C8.92237 15.9896 8.87237 15.6696 8.65237 15.5096C8.20237 15.1796 7.60237 15.1796 7.15237 15.5096Z" fill="#AF4300"/>
</svg>
