<svg width="18" height="18" viewBox="0 0 18 18" fill="none" xmlns="http://www.w3.org/2000/svg">
<path d="M16.5547 0.25H1.55469C1.22317 0.25 0.905224 0.381696 0.670804 0.616116C0.436384 0.850537 0.304688 1.16848 0.304688 1.5V16.5C0.304688 16.8315 0.436384 17.1495 0.670804 17.3839C0.905224 17.6183 1.22317 17.75 1.55469 17.75H16.5547C16.8862 17.75 17.2042 17.6183 17.4386 17.3839C17.673 17.1495 17.8047 16.8315 17.8047 16.5V1.5C17.8047 1.16848 17.673 0.850537 17.4386 0.616116C17.2042 0.381696 16.8862 0.25 16.5547 0.25ZM6.55469 14H2.80469V8.0625H6.55469V14ZM15.3047 10.0938C15.3218 10.4344 15.2103 10.769 14.9922 11.0312C15.0925 11.2245 15.146 11.4386 15.1484 11.6562C15.1613 11.9001 15.091 12.1411 14.9491 12.3398C14.8072 12.5385 14.602 12.6831 14.3672 12.75C14.2891 13.375 13.6172 14 12.9609 14H7.80469V8.0625L9.41406 4.42188C9.5061 4.25917 9.64955 4.13164 9.82191 4.05929C9.99428 3.98695 10.1858 3.97389 10.3664 4.02217C10.547 4.07044 10.7064 4.17732 10.8197 4.32602C10.9329 4.47472 10.9936 4.65683 10.9922 4.84375C10.98 4.98795 10.9485 5.12985 10.8984 5.26562L10.3047 7.125H13.8984C14.6016 7.125 15.3047 7.67188 15.3047 8.375C15.2902 8.67704 15.1809 8.96682 14.9922 9.20312C15.1032 9.3218 15.1883 9.46226 15.2421 9.61559C15.2959 9.76891 15.3172 9.93174 15.3047 10.0938Z" fill="#FFB700" stroke="#B38000" stroke-width="0.221875"/>
</svg>
