<svg width="146" height="87" viewBox="0 0 146 87" fill="none" xmlns="http://www.w3.org/2000/svg">
<rect y="0.55957" width="146" height="86" rx="12" fill="#EEEEEE"/>
<path d="M60.7334 12.2842C66.5248 12.2723 72.5744 12.2132 77.5898 12.2969C80.097 12.3387 82.3373 12.4165 84.1514 12.5527C85.982 12.6902 87.3286 12.8845 88.0791 13.1416C89.2082 13.5289 90.535 14.4208 91.8975 15.4951C93.257 16.5671 94.5828 17.7616 95.75 18.7451V18.7461C98.7933 21.3103 101.097 23.391 102.952 24.8896C104.809 26.3899 106.317 27.3943 107.818 27.7764C109.789 28.2775 113.223 29.375 114.928 30.3545C116.874 31.4723 118.135 33.6013 118.709 35.8691C119.296 38.189 119.643 40.237 119.858 43.1748C120.003 45.1453 119.519 46.1691 118.732 46.7471C117.892 47.3642 116.579 47.5788 114.818 47.6006C86.9707 47.9435 59.1188 47.8118 31.2764 47.2051H31.2754C29.6993 47.1715 28.2067 47.0876 27.1152 46.2715C26.2767 45.6446 25.8144 44.7043 25.582 43.585C25.3779 42.6016 25.3587 41.5161 25.4023 40.457L25.4238 40.0049C25.8739 31.9515 26.7782 23.9244 28.1299 15.9736C28.4004 14.3786 28.7541 13.5101 29.3613 13.0039C29.8958 12.5585 30.7124 12.3227 32.1074 12.2715L32.7422 12.2607C42.0708 12.2687 51.4032 12.3027 60.7334 12.2842Z" stroke="black"/>
<path d="M24.4828 44.8476C24.4947 43.5812 25.5276 42.5614 26.798 42.5627C29.0301 42.5627 31.2661 42.5627 33.5035 42.5627C34.2779 42.5627 34.9045 43.1062 34.9045 43.7764V48.077C34.9045 48.7471 34.2779 49.2906 33.5035 49.2906H26.7967C25.5263 49.2906 24.4934 48.2709 24.4815 47.0058C24.4749 46.3079 24.4749 45.6114 24.4815 44.8463L24.4828 44.8476Z" fill="#B4C0C1"/>
<path d="M48.9746 43.3555C47.7042 40.3227 44.3996 38.2714 41.1174 38.4785C37.8353 38.6856 34.8143 41.1353 33.9344 44.3041C33.0545 47.4728 34.379 51.1296 37.0847 52.9989C39.7903 54.8682 43.6793 54.8154 46.3322 52.8722C48.9851 50.929 50.7198 47.3356 48.9746 43.3569V43.3555Z" fill="#514A42"/>
<path d="M45.2072 44.9319C44.5912 43.4623 42.991 42.469 41.4 42.5692C39.8104 42.6695 38.3461 43.8567 37.92 45.391C37.4939 46.9265 38.135 48.6982 39.4463 49.6032C40.7563 50.5095 42.6414 50.4831 43.9263 49.5412C45.2112 48.5992 46.0515 46.8592 45.2059 44.9306L45.2072 44.9319Z" fill="#91A6A8"/>
<path d="M45.7814 44.5994C45.0229 42.9187 43.1734 41.7565 41.3133 41.9175C39.5139 42.0731 37.9164 43.325 37.3425 45.04C36.7858 46.7048 37.3716 48.7047 38.6947 49.8458C40.1472 51.0991 42.3766 51.2771 44.0164 50.2759C45.912 49.1189 46.6851 46.809 45.8487 44.7564C45.5321 43.9807 44.2551 44.3197 44.577 45.1073C45.2577 46.7747 44.6324 48.677 42.8871 49.3749C41.1418 50.0727 39.2395 49.2047 38.6459 47.4713C38.0958 45.8658 38.8689 44.1588 40.4242 43.4794C42.0877 42.7525 43.9266 43.6773 44.6443 45.2656C44.9926 46.0386 46.1297 45.3685 45.7828 44.5994H45.7814Z" fill="black"/>
<path d="M121.468 44.8476C121.458 43.5812 120.585 42.5614 119.511 42.5627C117.623 42.5627 115.733 42.5627 113.841 42.5627C113.187 42.5627 112.656 43.1062 112.656 43.7764V48.077C112.656 48.7471 113.187 49.2906 113.841 49.2906H119.512C120.586 49.2906 121.461 48.2709 121.47 47.0058C121.475 46.3079 121.475 45.6114 121.47 44.8463L121.468 44.8476Z" fill="#B4C0C1"/>
<path d="M110.623 43.3555C109.353 40.3227 106.048 38.2714 102.766 38.4785C99.4837 38.6856 96.4628 41.1353 95.5829 44.3041C94.703 47.4728 96.0274 51.1296 98.7331 52.9989C101.439 54.8682 105.328 54.8154 107.981 52.8722C110.634 50.929 112.368 47.3356 110.623 43.3569V43.3555Z" fill="#514A42"/>
<path d="M106.856 44.9319C106.24 43.4623 104.639 42.469 103.048 42.5692C101.459 42.6695 99.9945 43.8567 99.5684 45.391C99.1423 46.9265 99.7835 48.6982 101.095 49.6032C102.405 50.5095 104.29 50.4831 105.575 49.5412C106.86 48.5992 107.7 46.8592 106.854 44.9306L106.856 44.9319Z" fill="#91A6A8"/>
<path d="M107.422 44.5994C106.663 42.9187 104.813 41.7565 102.953 41.9175C101.154 42.0731 99.5565 43.325 98.9826 45.04C98.4088 46.7549 99.0117 48.7047 100.335 49.8458C101.787 51.0991 104.017 51.2771 105.656 50.2759C107.552 49.1189 108.325 46.809 107.489 44.7564C107.172 43.9807 105.895 44.3197 106.217 45.1073C106.898 46.7747 106.273 48.677 104.527 49.3749C102.782 50.0727 100.88 49.2047 100.286 47.4713C99.7359 45.8658 100.509 44.1588 102.064 43.4794C103.728 42.7525 105.567 43.6773 106.284 45.2656C106.633 46.0386 107.77 45.3685 107.423 44.5994H107.422Z" fill="black"/>
<path d="M48.1497 15.052C43.5998 14.8844 39.0446 14.8726 34.4947 15.0164C32.8272 15.0691 32.38 15.5401 32.2692 17.1653C32.0753 20.0478 31.88 22.9289 31.6861 25.8113C31.545 27.8996 32.0383 28.7189 34.4195 28.8547C38.9602 29.1133 43.5127 29.1463 48.056 28.955C49.3871 28.8983 49.8145 28.5302 49.8448 27.0685C49.9134 23.8128 49.982 20.5583 50.0506 17.3025C50.0823 15.8211 49.7894 14.9953 48.1497 15.0533V15.052Z" fill="#D9D9D9"/>
<path d="M68.6818 15.0798C64.1319 14.9123 59.5767 14.9004 55.0268 15.0442C53.3594 15.097 52.8475 15.564 52.8013 17.1932C52.7064 20.565 52.7644 23.0464 52.8066 26.3062C52.833 28.3984 53.4768 28.839 55.8606 28.93C60.9355 29.1253 63.8193 29.1042 68.5881 28.9815C69.9205 28.9472 70.3466 28.5567 70.377 27.0951C70.4456 23.8393 70.5142 20.5848 70.5828 17.3291C70.6144 15.8476 70.3216 15.0218 68.6818 15.0798Z" fill="#D9D9D9"/>
<path d="M82.7825 14.9254C80.4633 14.9254 80.024 14.9228 75.6206 15.0375C73.9531 15.0811 73.4413 15.5573 73.3951 17.1865C73.3001 20.5583 73.3581 23.0398 73.4004 26.2995C73.4267 28.3917 74.0692 28.8614 76.4543 28.9234C82.0305 29.0685 88.9853 29.0949 93.4719 29.0949C95.5879 29.0949 95.5708 27.2863 95.6222 26.6992C95.7607 25.1333 93.4178 22.9738 88.2374 18.2075C85.5396 15.7261 84.9143 14.9254 82.7825 14.9241V14.9254Z" fill="#D9D9D9"/>
<path d="M48.1525 14.3925C45.4838 14.2962 42.8137 14.25 40.1436 14.258C38.7862 14.2619 37.4301 14.2804 36.0726 14.312C35.1254 14.3345 34.0503 14.2408 33.1387 14.5548C31.3855 15.1576 31.5992 17.3779 31.499 18.8659C31.4106 20.1759 31.3222 21.4858 31.2338 22.7958C31.152 24.0042 30.999 25.231 31.0082 26.442C31.0188 27.81 31.5807 28.9023 32.9553 29.2981C33.9658 29.5896 35.0859 29.5514 36.1267 29.5976C37.4367 29.6556 38.7479 29.6952 40.0605 29.7163C42.7227 29.7585 45.402 29.7625 48.0601 29.6121C48.7329 29.5738 49.4585 29.4854 49.9439 28.9657C50.5086 28.3601 50.5006 27.4539 50.5165 26.6808C50.5785 23.768 50.6392 20.8553 50.7012 17.9425C50.7196 17.0758 50.808 16.085 50.3305 15.3107C49.8529 14.5363 48.9796 14.378 48.1538 14.3912C47.328 14.4044 47.3029 15.7236 48.1538 15.7104C48.6841 15.7025 49.1696 15.7275 49.3266 16.3001C49.5416 17.0863 49.3806 18.0401 49.3635 18.8408C49.3173 21.0254 49.2712 23.21 49.225 25.3946C49.2144 25.9091 49.2052 26.4222 49.192 26.9367C49.1841 27.2494 49.2184 27.6913 49.0456 27.9684C48.7778 28.3984 47.9572 28.2968 47.5351 28.314C45.2634 28.4011 42.9892 28.4314 40.7149 28.4063C38.5303 28.3826 36.3219 28.3615 34.1426 28.1728C33.6532 28.1306 33.0002 28.058 32.644 27.6728C32.3314 27.3338 32.3248 26.8022 32.3261 26.3682C32.3327 24.268 32.5952 22.1415 32.7364 20.0466C32.8089 18.978 32.8168 17.8831 32.9606 16.8225C33.0239 16.3568 33.1255 15.9492 33.6044 15.7909C33.9711 15.6695 34.3774 15.68 34.7574 15.6682C35.413 15.6471 36.07 15.6312 36.7269 15.618C37.9525 15.593 39.178 15.5798 40.4035 15.5771C42.9865 15.5719 45.5695 15.6194 48.1498 15.7117C48.9994 15.742 48.9981 14.4229 48.1498 14.3925H48.1525Z" fill="black"/>
<path d="M68.6867 14.4203C65.8874 14.3187 63.0854 14.2725 60.2835 14.287C58.926 14.2936 57.5699 14.3147 56.2124 14.3504C55.2982 14.3741 54.2415 14.2884 53.3907 14.692C52.7627 14.9902 52.3881 15.5548 52.2482 16.2263C52.0187 17.3238 52.111 18.523 52.1018 19.6377C52.0807 21.9806 52.0174 24.367 52.1664 26.7059C52.2588 28.1412 52.8986 29.1728 54.3761 29.4433C55.4367 29.6372 56.5396 29.6161 57.6134 29.6491C58.7479 29.6847 59.8837 29.7111 61.0196 29.7243C63.2239 29.7493 65.4283 29.7164 67.6314 29.6636C68.4651 29.6438 69.4624 29.7361 70.1906 29.2441C70.841 28.8061 70.9953 28.0093 71.0349 27.2771C71.1945 24.3116 71.1629 21.3236 71.2249 18.3541C71.2446 17.4096 71.4069 16.2408 70.8924 15.3833C70.4215 14.5997 69.5429 14.4044 68.6854 14.4176C67.8279 14.4308 67.8345 15.75 68.6854 15.7368C69.2659 15.7276 69.7276 15.7711 69.8714 16.3898C70.0706 17.2447 69.907 18.2591 69.8885 19.1259C69.8397 21.4384 69.7909 23.7523 69.7421 26.0648C69.7315 26.5846 69.9268 27.7666 69.4532 28.1531C69.2791 28.2942 68.969 28.3009 68.7593 28.314C68.2303 28.347 67.696 28.3431 67.167 28.3549C65.3228 28.3972 63.4772 28.4235 61.633 28.4103C59.6173 28.3958 57.5949 28.3668 55.5832 28.256C55.0726 28.2283 54.3299 28.227 53.9038 27.8853C53.5608 27.6109 53.5107 27.1136 53.4843 26.7046C53.3564 24.706 53.4105 22.6705 53.4144 20.668C53.4157 19.5942 53.4289 18.5217 53.4579 17.4478C53.4711 16.9756 53.4144 16.2434 53.8537 15.9321C54.1228 15.7421 54.5357 15.7263 54.8497 15.7078C55.4776 15.6722 56.1082 15.6682 56.7375 15.6537C58.0501 15.6234 59.364 15.6062 60.6766 15.6023C63.3466 15.593 66.0167 15.6405 68.6854 15.7368C69.535 15.7672 69.5337 14.448 68.6854 14.4176L68.6867 14.4203Z" fill="black"/>
<path d="M82.7812 14.2659C81.148 14.2659 79.5175 14.2817 77.8844 14.3213C76.6892 14.3503 75.2724 14.1788 74.1352 14.6168C73.2342 14.9637 72.8648 15.7737 72.7672 16.6853C72.6076 18.1773 72.6801 19.7274 72.6828 21.226C72.6854 22.7246 72.7118 24.2773 72.7316 25.8036C72.7448 26.7442 72.7158 27.8193 73.3424 28.591C73.8912 29.2678 74.7513 29.4472 75.5771 29.5316C76.9768 29.6754 78.4134 29.6292 79.8196 29.6543C81.3301 29.6807 82.8419 29.6992 84.3524 29.7137C87.1609 29.7401 89.9695 29.7519 92.7781 29.7546C93.8189 29.7546 94.8835 29.7348 95.6064 28.8694C96.0879 28.2929 96.2225 27.5515 96.27 26.8233C96.3505 25.6057 95.5946 24.5965 94.8466 23.7087C93.0419 21.5663 90.8507 19.7221 88.7954 17.829C87.7744 16.8885 86.7876 15.841 85.6267 15.0666C84.7653 14.4902 83.8049 14.2751 82.7786 14.2659C81.929 14.258 81.929 15.5772 82.7786 15.5851C83.5358 15.5917 84.2073 15.7262 84.8524 16.1352C85.7257 16.6879 86.4657 17.4689 87.219 18.1681C89.0421 19.8593 90.9075 21.5122 92.6554 23.2826C93.4746 24.1137 94.5418 25.1268 94.9007 26.1993C94.9956 26.483 94.9772 26.8312 94.9059 27.2415C94.7767 27.9948 94.3466 28.4011 93.5643 28.4327C91.2135 28.5264 88.8363 28.4288 86.4842 28.413C83.7825 28.3945 81.0808 28.3641 78.3791 28.3087C77.3145 28.2863 76.1589 28.3786 75.1154 28.1386C74.4703 27.9895 74.1972 27.6742 74.0996 27.0199C73.9175 25.7943 74.031 24.4751 74.0165 23.2377C74.0007 21.8803 73.9941 20.5215 74.0125 19.1641C74.0218 18.3963 73.9967 17.6087 74.0706 16.8436C74.1022 16.5138 74.1524 16.1299 74.4413 15.9254C74.8199 15.6576 75.4386 15.7038 75.8726 15.6906C76.5731 15.6708 77.2723 15.6537 77.9727 15.6379C79.5756 15.5996 81.1771 15.5838 82.7799 15.5851C83.6281 15.5851 83.6308 14.2659 82.7799 14.2659H82.7812Z" fill="black"/>
<path d="M65.0747 33.3507C65.7857 33.3533 66.4954 33.3573 67.2065 33.3599C68.0561 33.3639 68.0561 32.0447 67.2065 32.0407C66.4954 32.0381 65.7857 32.0341 65.0747 32.0315C64.2251 32.0275 64.2251 33.3467 65.0747 33.3507Z" fill="black"/>
<path d="M76.172 33.6647C77.0506 33.637 77.9279 33.6093 78.8065 33.5815C79.6851 33.5538 79.6574 32.236 78.8065 32.2624C77.9556 32.2887 77.0506 32.3178 76.172 32.3455C75.2934 32.3732 75.3211 33.691 76.172 33.6647Z" fill="black"/>
<path d="M71.4215 29.9077C71.3648 34.6515 71.3068 39.3967 71.2501 44.1405C71.2395 44.99 72.5587 44.99 72.5693 44.1405C72.626 39.3967 72.684 34.6515 72.7407 29.9077C72.7513 29.0581 71.4321 29.0581 71.4215 29.9077Z" fill="black"/>
<path d="M51.0677 30.0961C50.8355 33.6025 50.7445 37.1156 50.7946 40.6286C50.8065 41.4768 52.1257 41.4794 52.1138 40.6286C52.0637 37.1156 52.1547 33.6025 52.3869 30.0961C52.4423 29.2492 51.1231 29.2518 51.0677 30.0961Z" fill="black"/>
<path d="M92.4488 45.3711C93.6308 41.7961 96.3299 38.9005 99.7703 37.3953C100.546 37.0562 99.8758 35.9191 99.1041 36.2568C95.3523 37.8979 92.458 41.1431 91.1771 45.0215C90.9106 45.8289 92.1836 46.1758 92.4488 45.3724V45.3711Z" fill="black"/>
<path d="M89.6571 16.3989C92.963 19.375 96.2676 22.3511 99.5735 25.3272C101.786 27.3192 103.215 28.1028 106.605 26.7836C103.552 25.2705 95.1173 17.2841 91.6188 14.6497C91.0304 14.8132 90.442 14.9781 89.855 15.1417C89.0358 15.3699 89.049 15.8528 89.6584 16.4002L89.6571 16.3989Z" fill="#D9D9D9"/>
<path d="M91.128 14.0996C90.3194 14.3252 88.797 14.4479 88.5807 15.4756C88.3643 16.5032 89.5529 17.1958 90.1597 17.7419C92.1689 19.5506 94.178 21.3592 96.1871 23.1691C97.1594 24.0437 98.1277 24.9236 99.1039 25.7943C99.7885 26.4064 100.5 27.0291 101.314 27.4657C102.964 28.3522 104.73 28.1477 106.444 27.5449C107.239 27.2652 106.896 25.9895 106.093 26.2732C104.73 26.752 103.312 27.0423 101.98 26.3273C100.442 25.5014 99.1817 24.0925 97.8981 22.9369C96.2782 21.4779 94.6582 20.0189 93.0369 18.5612C92.2586 17.8607 91.4816 17.1602 90.7032 16.461C90.5106 16.2869 90.3035 16.1206 90.1202 15.936C90.0291 15.8594 89.9487 15.7724 89.8827 15.6734L89.8431 15.8476C90.3207 15.6062 90.9658 15.5178 91.4789 15.374C92.2955 15.1458 91.9486 13.8727 91.128 14.1023V14.0996Z" fill="black"/>
<path d="M26.8344 37.8465C27.0784 37.8372 27.3423 37.8201 27.5283 37.6618C27.742 37.481 27.7869 37.1737 27.8146 36.8953C27.9372 35.6988 28.0309 34.4983 28.0982 33.2965C28.1232 32.8454 28.1021 32.3085 27.7222 32.0644C27.5072 31.9272 27.2354 31.9272 26.9808 31.9325C26.494 31.9431 26.0073 31.9536 25.5205 31.9628C25.3358 33.9443 25.1775 35.9283 25.0469 37.915C25.6418 37.8913 26.2381 37.8689 26.8331 37.8451L26.8344 37.8465Z" fill="#ED4C4C"/>
<path d="M112.565 34.6343C112.094 34.9759 112.282 35.7081 112.516 36.241C112.959 37.2463 113.496 38.3452 114.52 38.7422C115.252 39.0259 116.158 38.9428 116.944 38.9282C118.355 38.9032 118.984 38.9217 119.866 38.9296C119.686 37.8505 119.464 36.8268 119.19 35.745C119.069 35.2688 118.916 34.7952 118.736 34.3335C116.927 34.377 115.119 34.4192 113.309 34.4628C113.049 34.4694 112.772 34.4812 112.562 34.6329L112.565 34.6343Z" fill="#FFC466"/>
<path d="M47.0243 61.214V62.398H43.9843V72.366H42.5283V62.398H39.4723V61.214H47.0243ZM50.2725 65.022C50.5285 64.5206 50.8912 64.1313 51.3605 63.854C51.8405 63.5766 52.4219 63.438 53.1045 63.438V64.942H52.7205C51.0885 64.942 50.2725 65.8273 50.2725 67.598V72.366H48.8165V63.598H50.2725V65.022ZM54.2413 67.95C54.2413 67.054 54.4226 66.27 54.7853 65.598C55.148 64.9153 55.644 64.3873 56.2733 64.014C56.9133 63.6406 57.6226 63.454 58.4013 63.454C59.1693 63.454 59.836 63.6193 60.4013 63.95C60.9666 64.2806 61.388 64.6966 61.6653 65.198V63.598H63.1373V72.366H61.6653V70.734C61.3773 71.246 60.9453 71.6726 60.3693 72.014C59.804 72.3446 59.1426 72.51 58.3853 72.51C57.6066 72.51 56.9026 72.318 56.2733 71.934C55.644 71.55 55.148 71.0113 54.7853 70.318C54.4226 69.6246 54.2413 68.8353 54.2413 67.95ZM61.6653 67.966C61.6653 67.3046 61.532 66.7286 61.2653 66.238C60.9986 65.7473 60.636 65.374 60.1773 65.118C59.7293 64.8513 59.2333 64.718 58.6893 64.718C58.1453 64.718 57.6493 64.846 57.2013 65.102C56.7533 65.358 56.396 65.7313 56.1293 66.222C55.8626 66.7126 55.7293 67.2886 55.7293 67.95C55.7293 68.622 55.8626 69.2086 56.1293 69.71C56.396 70.2006 56.7533 70.5793 57.2013 70.846C57.6493 71.102 58.1453 71.23 58.6893 71.23C59.2333 71.23 59.7293 71.102 60.1773 70.846C60.636 70.5793 60.9986 70.2006 61.2653 69.71C61.532 69.2086 61.6653 68.6273 61.6653 67.966ZM68.8618 71.022L71.5818 63.598H73.1338L69.6938 72.366H67.9978L64.5578 63.598H66.1258L68.8618 71.022ZM82.5665 67.646C82.5665 67.9233 82.5505 68.2166 82.5185 68.526H75.5105C75.5639 69.39 75.8572 70.0673 76.3905 70.558C76.9345 71.038 77.5905 71.278 78.3585 71.278C78.9879 71.278 79.5105 71.134 79.9265 70.846C80.3532 70.5473 80.6519 70.1526 80.8225 69.662H82.3905C82.1559 70.5046 81.6865 71.1926 80.9825 71.726C80.2785 72.2486 79.4039 72.51 78.3585 72.51C77.5265 72.51 76.7799 72.3233 76.1185 71.95C75.4679 71.5766 74.9559 71.0486 74.5825 70.366C74.2092 69.6726 74.0225 68.8726 74.0225 67.966C74.0225 67.0593 74.2039 66.2646 74.5665 65.582C74.9292 64.8993 75.4359 64.3766 76.0865 64.014C76.7479 63.6406 77.5052 63.454 78.3585 63.454C79.1905 63.454 79.9265 63.6353 80.5665 63.998C81.2065 64.3606 81.6972 64.862 82.0385 65.502C82.3905 66.1313 82.5665 66.846 82.5665 67.646ZM81.0625 67.342C81.0625 66.7873 80.9399 66.3126 80.6945 65.918C80.4492 65.5126 80.1132 65.2086 79.6865 65.006C79.2705 64.7926 78.8065 64.686 78.2945 64.686C77.5585 64.686 76.9292 64.9206 76.4065 65.39C75.8945 65.8593 75.6012 66.51 75.5265 67.342H81.0625ZM85.9444 60.526V72.366H84.4884V60.526H85.9444ZM89.8819 60.526V72.366H88.4259V60.526H89.8819ZM100.363 67.646C100.363 67.9233 100.347 68.2166 100.315 68.526H93.3074C93.3607 69.39 93.6541 70.0673 94.1874 70.558C94.7314 71.038 95.3874 71.278 96.1554 71.278C96.7847 71.278 97.3074 71.134 97.7234 70.846C98.1501 70.5473 98.4487 70.1526 98.6194 69.662H100.187C99.9527 70.5046 99.4834 71.1926 98.7794 71.726C98.0754 72.2486 97.2007 72.51 96.1554 72.51C95.3234 72.51 94.5767 72.3233 93.9154 71.95C93.2647 71.5766 92.7527 71.0486 92.3794 70.366C92.0061 69.6726 91.8194 68.8726 91.8194 67.966C91.8194 67.0593 92.0007 66.2646 92.3634 65.582C92.7261 64.8993 93.2327 64.3766 93.8834 64.014C94.5447 63.6406 95.3021 63.454 96.1554 63.454C96.9874 63.454 97.7234 63.6353 98.3634 63.998C99.0034 64.3606 99.4941 64.862 99.8354 65.502C100.187 66.1313 100.363 66.846 100.363 67.646ZM98.8594 67.342C98.8594 66.7873 98.7367 66.3126 98.4914 65.918C98.2461 65.5126 97.9101 65.2086 97.4834 65.006C97.0674 64.7926 96.6034 64.686 96.0914 64.686C95.3554 64.686 94.7261 64.9206 94.2034 65.39C93.6914 65.8593 93.3981 66.51 93.3234 67.342H98.8594ZM103.741 65.022C103.997 64.5206 104.36 64.1313 104.829 63.854C105.309 63.5766 105.891 63.438 106.573 63.438V64.942H106.189C104.557 64.942 103.741 65.8273 103.741 67.598V72.366H102.285V63.598H103.741V65.022Z" fill="black"/>
</svg>
