<svg width="28" height="28" viewBox="0 0 28 28" fill="none" xmlns="http://www.w3.org/2000/svg">
<path d="M24.3112 5.37839C23.7153 4.78223 23.0078 4.30931 22.2291 3.98665C21.4504 3.664 20.6158 3.49792 19.7729 3.49792C18.93 3.49792 18.0953 3.664 17.3166 3.98665C16.5379 4.30931 15.8304 4.78223 15.2345 5.37839L13.9979 6.61505L12.7612 5.37839C11.5576 4.17475 9.92507 3.49855 8.22286 3.49855C6.52065 3.49855 4.88817 4.17475 3.68453 5.37839C2.48089 6.58203 1.80469 8.21452 1.80469 9.91672C1.80469 11.6189 2.48089 13.2514 3.68453 14.4551L4.92119 15.6917L13.9979 24.7684L23.0745 15.6917L24.3112 14.4551C24.9074 13.8592 25.3803 13.1517 25.7029 12.373C26.0256 11.5943 26.1917 10.7596 26.1917 9.91672C26.1917 9.07382 26.0256 8.23918 25.7029 7.46047C25.3803 6.68177 24.9074 5.97427 24.3112 5.37839Z" stroke="#246132" stroke-width="2" stroke-linecap="round" stroke-linejoin="round"/>
</svg>
