<svg width="22" height="17" viewBox="0 0 22 17" fill="none" xmlns="http://www.w3.org/2000/svg">
<path d="M21.5448 2.52747C20.7714 2.85863 19.9534 3.07872 19.1161 3.18099C19.9985 2.66702 20.6583 1.85315 20.9703 0.893594C20.1442 1.37451 19.2405 1.71322 18.2981 1.89507C17.7202 1.28892 16.9699 0.867476 16.1446 0.685533C15.3194 0.50359 14.4576 0.569564 13.6711 0.874879C12.8846 1.18019 12.2099 1.71072 11.7346 2.39749C11.2594 3.08426 11.0056 3.89549 11.0063 4.72572C11.0031 5.04253 11.0359 5.35871 11.104 5.66839C9.42718 5.58768 7.78655 5.16048 6.2894 4.41471C4.79225 3.66894 3.4723 2.62139 2.41585 1.34054C1.87345 2.25075 1.70537 3.32983 1.9459 4.35755C2.18644 5.38527 2.81746 6.28414 3.71016 6.87069C3.04323 6.853 2.3904 6.6782 1.80668 6.36104V6.40612C1.80778 7.36162 2.14419 8.28758 2.75928 9.02813C3.37437 9.76868 4.23059 10.2786 5.1838 10.4721C4.82319 10.5654 4.45154 10.6112 4.07862 10.6083C3.81085 10.613 3.54334 10.5893 3.28074 10.5376C3.55316 11.3588 4.07819 12.0769 4.78355 12.5931C5.48891 13.1093 6.33992 13.3982 7.21943 13.4199C5.72743 14.5653 3.88738 15.1867 1.99331 15.1848C1.65611 15.1869 1.3191 15.1679 0.984375 15.1278C2.91175 16.347 5.15766 16.9919 7.45053 16.9846C15.2068 16.9846 19.4476 10.6776 19.4476 5.21058C19.4476 5.02758 19.4411 4.85114 19.4321 4.67572C20.2635 4.09166 20.9795 3.36367 21.5448 2.52747Z" fill="#FEFEFE"/>
</svg>
