<svg width="100" height="101" viewBox="0 0 100 101" fill="none" xmlns="http://www.w3.org/2000/svg">
<path d="M0.4375 5.92676C0.4375 3.16533 2.67608 0.926758 5.4375 0.926758H61.5664C82.5532 0.926758 99.5664 17.9399 99.5664 38.9268V95.0557C99.5664 97.8171 97.3278 100.056 94.5664 100.056H38.4375C17.4507 100.056 0.4375 83.0425 0.4375 62.0557V5.92676Z" fill="url(#paint0_linear_4121_799)"/>
<path d="M10.7848 48.5632C10.7848 40.2592 12.2728 33.7552 15.2488 29.0512C18.2728 24.3472 23.2648 21.9952 30.2248 21.9952C37.1848 21.9952 42.1528 24.3472 45.1288 29.0512C48.1528 33.7552 49.6648 40.2592 49.6648 48.5632C49.6648 56.9152 48.1528 63.4672 45.1288 68.2192C42.1528 72.9712 37.1848 75.3472 30.2248 75.3472C23.2648 75.3472 18.2728 72.9712 15.2488 68.2192C12.2728 63.4672 10.7848 56.9152 10.7848 48.5632ZM39.7288 48.5632C39.7288 45.0112 39.4888 42.0352 39.0088 39.6352C38.5768 37.1872 37.6648 35.1952 36.2728 33.6592C34.9288 32.1232 32.9128 31.3552 30.2248 31.3552C27.5368 31.3552 25.4968 32.1232 24.1048 33.6592C22.7608 35.1952 21.8488 37.1872 21.3688 39.6352C20.9368 42.0352 20.7208 45.0112 20.7208 48.5632C20.7208 52.2112 20.9368 55.2832 21.3688 57.7792C21.8008 60.2272 22.7128 62.2192 24.1048 63.7552C25.4968 65.2432 27.5368 65.9872 30.2248 65.9872C32.9128 65.9872 34.9528 65.2432 36.3448 63.7552C37.7368 62.2192 38.6488 60.2272 39.0808 57.7792C39.5128 55.2832 39.7288 52.2112 39.7288 48.5632ZM60.4996 64.1152C65.1076 60.2752 68.7796 57.0832 71.5156 54.5392C74.2516 51.9472 76.5316 49.2592 78.3556 46.4752C80.1796 43.6912 81.0916 40.9552 81.0916 38.2672C81.0916 35.8192 80.5156 33.8992 79.3636 32.5072C78.2116 31.1152 76.4356 30.4192 74.0356 30.4192C71.6356 30.4192 69.7876 31.2352 68.4916 32.8672C67.1956 34.4512 66.5236 36.6352 66.4756 39.4192H56.6836C56.8756 33.6592 58.5796 29.2912 61.7956 26.3152C65.0596 23.3392 69.1876 21.8512 74.1796 21.8512C79.6516 21.8512 83.8516 23.3152 86.7796 26.2432C89.7076 29.1232 91.1716 32.9392 91.1716 37.6912C91.1716 41.4352 90.1636 45.0112 88.1476 48.4192C86.1316 51.8272 83.8276 54.8032 81.2356 57.3472C78.6436 59.8432 75.2596 62.8672 71.0836 66.4192H92.3236V74.7712H56.7556V67.2832L60.4996 64.1152Z" fill="#FEFEFE"/>
<defs>
<linearGradient id="paint0_linear_4121_799" x1="-55.3014" y1="19.3192" x2="245.846" y2="52.6601" gradientUnits="userSpaceOnUse">
<stop stop-color="#216432"/>
<stop offset="0.581731" stop-color="#114422"/>
</linearGradient>
</defs>
</svg>
