<svg width="41" height="40" viewBox="0 0 41 40" fill="none" xmlns="http://www.w3.org/2000/svg">
<g clip-path="url(#clip0_4412_3227)">
<path d="M20 13.3333C16.6667 13.3333 11.6667 11.6667 11.6667 11.6667L20 5L28.3333 11.6667C28.3333 11.6667 23.3333 13.3333 20 13.3333ZM20 13.3333C15.4439 15.9368 8.33333 20 8.33333 20C8.33333 20 15 21.6667 20 21.6667M20 13.3333C24.5562 15.9368 31.6667 20 31.6667 20C31.6667 20 25 21.6667 20 21.6667M20 21.6667C14.1421 24.2702 5 28.3333 5 28.3333C5 28.3333 14.1061 30 20 30C25.8938 30 35 28.3333 35 28.3333C35 28.3333 25.8578 24.2702 20 21.6667Z" stroke="#AF4300" stroke-width="2" stroke-linecap="round" stroke-linejoin="round"/>
<path d="M16.6641 30H23.3307V35H16.6641V30Z" stroke="#AF4300" stroke-width="2" stroke-linecap="round" stroke-linejoin="round"/>
</g>
<defs>
<clipPath id="clip0_4412_3227">
<rect width="40" height="40" fill="white" transform="translate(0.359375)"/>
</clipPath>
</defs>
</svg>
