<svg width="52" height="52" viewBox="0 0 52 52" fill="none" xmlns="http://www.w3.org/2000/svg">
<path d="M6.5 23.8333H13C14.1493 23.8333 15.2515 24.2899 16.0641 25.1025C16.8768 25.9152 17.3333 27.0174 17.3333 28.1667V34.6667C17.3333 35.8159 16.8768 36.9181 16.0641 37.7308C15.2515 38.5435 14.1493 39 13 39H10.8333C9.68406 39 8.58186 38.5435 7.7692 37.7308C6.95655 36.9181 6.5 35.8159 6.5 34.6667V23.8333ZM6.5 23.8333C6.5 21.2726 7.00438 18.7369 7.98435 16.371C8.96432 14.0052 10.4007 11.8555 12.2114 10.0447C14.0222 8.23401 16.1718 6.79765 18.5377 5.81768C20.9035 4.83771 23.4392 4.33333 26 4.33333C28.5608 4.33333 31.0965 4.83771 33.4623 5.81768C35.8282 6.79765 37.9778 8.23401 39.7886 10.0447C41.5993 11.8555 43.0357 14.0052 44.0157 16.371C44.9956 18.7369 45.5 21.2726 45.5 23.8333M45.5 23.8333V34.6667C45.5 35.8159 45.0435 36.9181 44.2308 37.7308C43.4181 38.5435 42.3159 39 41.1667 39H39C37.8507 39 36.7485 38.5435 35.9359 37.7308C35.1232 36.9181 34.6667 35.8159 34.6667 34.6667V28.1667C34.6667 27.0174 35.1232 25.9152 35.9359 25.1025C36.7485 24.2899 37.8507 23.8333 39 23.8333H45.5Z" stroke="url(#paint0_linear_4002_381)" stroke-width="4" stroke-linecap="round" stroke-linejoin="round"/>
<path d="M45.5 34.6667V39C45.5 41.2985 44.5869 43.5029 42.9616 45.1283C41.3363 46.7536 39.1319 47.6667 36.8333 47.6667H26" stroke="url(#paint1_linear_4002_381)" stroke-width="4" stroke-linecap="round" stroke-linejoin="round"/>
<defs>
<linearGradient id="paint0_linear_4002_381" x1="6.5" y1="21.6667" x2="45.5" y2="21.6667" gradientUnits="userSpaceOnUse">
<stop stop-color="#216432"/>
<stop offset="0.894231" stop-color="#114422"/>
</linearGradient>
<linearGradient id="paint1_linear_4002_381" x1="26" y1="41.1667" x2="45.5" y2="41.1667" gradientUnits="userSpaceOnUse">
<stop stop-color="#216432"/>
<stop offset="0.894231" stop-color="#114422"/>
</linearGradient>
</defs>
</svg>
