<svg width="52" height="52" viewBox="0 0 52 52" fill="none" xmlns="http://www.w3.org/2000/svg">
<path d="M43.3307 21.6668C43.3307 32.485 31.3296 43.7517 27.2996 47.2313C26.9241 47.5136 26.4671 47.6663 25.9974 47.6663C25.5277 47.6663 25.0707 47.5136 24.6952 47.2313C20.6652 43.7517 8.66406 32.485 8.66406 21.6668C8.66406 17.0697 10.4902 12.6609 13.7409 9.41031C16.9915 6.15968 21.4003 4.3335 25.9974 4.3335C30.5945 4.3335 35.0033 6.15968 38.2539 9.41031C41.5045 12.6609 43.3307 17.0697 43.3307 21.6668Z" fill="url(#paint0_linear_4443_3354)" stroke="url(#paint1_linear_4443_3354)" stroke-width="3" stroke-linecap="round" stroke-linejoin="round"/>
<path d="M26 28.1665C29.5899 28.1665 32.5 25.2564 32.5 21.6665C32.5 18.0767 29.5899 15.1665 26 15.1665C22.4101 15.1665 19.5 18.0767 19.5 21.6665C19.5 25.2564 22.4101 28.1665 26 28.1665Z" stroke="#FEFEFE" stroke-width="2" stroke-linecap="round" stroke-linejoin="round"/>
<defs>
<linearGradient id="paint0_linear_4443_3354" x1="8.66406" y1="25.9999" x2="43.3307" y2="25.9999" gradientUnits="userSpaceOnUse">
<stop stop-color="#216432"/>
<stop offset="0.894231" stop-color="#114422"/>
</linearGradient>
<linearGradient id="paint1_linear_4443_3354" x1="8.66406" y1="25.9999" x2="43.3307" y2="25.9999" gradientUnits="userSpaceOnUse">
<stop offset="0.9999" stop-color="#216432"/>
<stop offset="1" stop-color="#114422"/>
</linearGradient>
</defs>
</svg>
