<svg width="52" height="52" viewBox="0 0 52 52" fill="none" xmlns="http://www.w3.org/2000/svg">
<path d="M26.0026 47.6668C37.9688 47.6668 47.6693 37.9663 47.6693 26.0002C47.6693 14.034 37.9688 4.3335 26.0026 4.3335C14.0364 4.3335 4.33594 14.034 4.33594 26.0002C4.33594 37.9663 14.0364 47.6668 26.0026 47.6668Z" fill="url(#paint0_linear_4443_3363)" stroke="#FEFEFE" stroke-width="3" stroke-linecap="round" stroke-linejoin="round"/>
<path d="M26 39C33.1797 39 39 33.1797 39 26C39 18.8203 33.1797 13 26 13C18.8203 13 13 18.8203 13 26C13 33.1797 18.8203 39 26 39Z" fill="url(#paint1_linear_4443_3363)" stroke="#FEFEFE" stroke-width="3" stroke-linecap="round" stroke-linejoin="round"/>
<path d="M25.9974 30.3332C28.3906 30.3332 30.3307 28.3931 30.3307 25.9998C30.3307 23.6066 28.3906 21.6665 25.9974 21.6665C23.6042 21.6665 21.6641 23.6066 21.6641 25.9998C21.6641 28.3931 23.6042 30.3332 25.9974 30.3332Z" fill="url(#paint2_linear_4443_3363)" stroke="#FEFEFE" stroke-width="3" stroke-linecap="round" stroke-linejoin="round"/>
<defs>
<linearGradient id="paint0_linear_4443_3363" x1="4.33594" y1="26.0002" x2="47.6693" y2="26.0002" gradientUnits="userSpaceOnUse">
<stop stop-color="#216432"/>
<stop offset="0.894231" stop-color="#114422"/>
</linearGradient>
<linearGradient id="paint1_linear_4443_3363" x1="13" y1="26" x2="39" y2="26" gradientUnits="userSpaceOnUse">
<stop stop-color="#216432"/>
<stop offset="0.894231" stop-color="#114422"/>
</linearGradient>
<linearGradient id="paint2_linear_4443_3363" x1="21.6641" y1="25.9998" x2="30.3307" y2="25.9998" gradientUnits="userSpaceOnUse">
<stop stop-color="#216432"/>
<stop offset="0.894231" stop-color="#114422"/>
</linearGradient>
</defs>
</svg>
