<svg width="52" height="52" viewBox="0 0 52 52" fill="none" xmlns="http://www.w3.org/2000/svg">
<path d="M6.5 23.8335H13C14.1493 23.8335 15.2515 24.29 16.0641 25.1027C16.8768 25.9154 17.3333 27.0176 17.3333 28.1668V34.6668C17.3333 35.8161 16.8768 36.9183 16.0641 37.731C15.2515 38.5436 14.1493 39.0002 13 39.0002H10.8333C9.68406 39.0002 8.58186 38.5436 7.7692 37.731C6.95655 36.9183 6.5 35.8161 6.5 34.6668V23.8335ZM6.5 23.8335C6.5 21.2727 7.00438 18.737 7.98435 16.3712C8.96432 14.0053 10.4007 11.8557 12.2114 10.0449C14.0222 8.23417 16.1718 6.79781 18.5377 5.81785C20.9035 4.83788 23.4392 4.3335 26 4.3335C28.5608 4.3335 31.0965 4.83788 33.4623 5.81785C35.8282 6.79781 37.9778 8.23417 39.7886 10.0449C41.5993 11.8557 43.0357 14.0053 44.0157 16.3712C44.9956 18.737 45.5 21.2727 45.5 23.8335M45.5 23.8335V34.6668C45.5 35.8161 45.0435 36.9183 44.2308 37.731C43.4181 38.5436 42.3159 39.0002 41.1667 39.0002H39C37.8507 39.0002 36.7485 38.5436 35.9359 37.731C35.1232 36.9183 34.6667 35.8161 34.6667 34.6668V28.1668C34.6667 27.0176 35.1232 25.9154 35.9359 25.1027C36.7485 24.29 37.8507 23.8335 39 23.8335H45.5Z" stroke="url(#paint0_linear_4443_3388)" stroke-width="4" stroke-linecap="round" stroke-linejoin="round"/>
<path d="M45.5 34.6665V38.9998C45.5 41.2984 44.5869 43.5028 42.9616 45.1281C41.3363 46.7534 39.1319 47.6665 36.8333 47.6665H26" stroke="url(#paint1_linear_4443_3388)" stroke-width="4" stroke-linecap="round" stroke-linejoin="round"/>
<defs>
<linearGradient id="paint0_linear_4443_3388" x1="6.5" y1="21.6668" x2="45.5" y2="21.6668" gradientUnits="userSpaceOnUse">
<stop stop-color="#216432"/>
<stop offset="0.894231" stop-color="#114422"/>
</linearGradient>
<linearGradient id="paint1_linear_4443_3388" x1="26" y1="41.1665" x2="45.5" y2="41.1665" gradientUnits="userSpaceOnUse">
<stop stop-color="#216432"/>
<stop offset="0.894231" stop-color="#114422"/>
</linearGradient>
</defs>
</svg>
