<svg width="43" height="46" viewBox="0 0 43 46" fill="none" xmlns="http://www.w3.org/2000/svg">
<g filter="url(#filter0_d_4224_1292)">
<path d="M21.8319 4.37497C17.2994 4.25247 13.0119 5.91497 9.77437 9.08247C6.51938 12.2325 4.73438 16.4675 4.73438 21C4.73438 28.315 9.63438 34.8775 16.6344 36.9425C17.0369 37.065 17.4569 37.1175 17.8769 37.1175C18.8044 37.1175 19.6969 36.82 20.4669 36.2425C21.5869 35.4025 22.2344 34.125 22.2344 32.725V26.25C22.2344 25.76 21.8494 25.375 21.3594 25.375C20.8694 25.375 20.4844 25.76 20.4844 26.25V32.725C20.4844 33.565 20.0994 34.335 19.4169 34.8425C18.7519 35.3325 17.9119 35.49 17.1244 35.2625C10.8594 33.4075 6.48438 27.545 6.48438 21C6.48438 16.94 8.07687 13.16 10.9994 10.3425C13.9044 7.52497 17.7019 6.03747 21.7969 6.14247C29.5144 6.35247 35.9894 12.81 36.2344 20.5275C36.4444 27.0375 32.4544 32.8825 26.3294 35.0525C25.8744 35.21 25.6294 35.7175 25.8044 36.1725C25.9619 36.6275 26.4694 36.8725 26.9244 36.6975C33.7844 34.265 38.2294 27.755 38.0019 20.475C37.7219 11.8475 30.4769 4.65497 21.8669 4.40997L21.8319 4.37497Z" fill="#AF4300"/>
<path d="M18.2625 22.1374C17.9125 22.4874 17.9125 23.0299 18.2625 23.3799C18.6125 23.7299 19.155 23.7299 19.505 23.3799C20.52 22.3649 22.2 22.3649 23.215 23.3799C23.39 23.5549 23.6175 23.6424 23.8275 23.6424C24.0375 23.6424 24.2825 23.5549 24.44 23.3799C24.79 23.0299 24.79 22.4874 24.44 22.1374C22.7425 20.4399 19.96 20.4399 18.245 22.1374H18.2625Z" fill="#AF4300"/>
<path d="M26.9238 20.895C27.2738 20.545 27.2738 20.0025 26.9238 19.6525C25.4363 18.165 23.4588 17.3425 21.3588 17.3425C19.2588 17.3425 17.2813 18.165 15.7938 19.6525C15.4438 20.0025 15.4438 20.545 15.7938 20.895C16.1438 21.245 16.6862 21.245 17.0362 20.895C19.3463 18.585 23.3887 18.585 25.6987 20.895C25.8737 21.07 26.1013 21.1575 26.3113 21.1575C26.5213 21.1575 26.7663 21.07 26.9238 20.895Z" fill="#AF4300"/>
<path d="M28.1669 18.41C28.3419 18.585 28.5694 18.6725 28.7794 18.6725C28.9894 18.6725 29.2344 18.585 29.3919 18.41C29.7419 18.06 29.7419 17.5175 29.3919 17.1675C24.9644 12.74 17.7369 12.74 13.3094 17.1675C12.9594 17.5175 12.9594 18.06 13.3094 18.41C13.6594 18.76 14.2019 18.76 14.5519 18.41C18.2969 14.665 24.4044 14.665 28.1669 18.41Z" fill="#AF4300"/>
</g>
<defs>
<filter id="filter0_d_4224_1292" x="-3.64062" y="0" width="50" height="50" filterUnits="userSpaceOnUse" color-interpolation-filters="sRGB">
<feFlood flood-opacity="0" result="BackgroundImageFix"/>
<feColorMatrix in="SourceAlpha" type="matrix" values="0 0 0 0 0 0 0 0 0 0 0 0 0 0 0 0 0 0 127 0" result="hardAlpha"/>
<feOffset dy="4"/>
<feGaussianBlur stdDeviation="2"/>
<feComposite in2="hardAlpha" operator="out"/>
<feColorMatrix type="matrix" values="0 0 0 0 0 0 0 0 0 0 0 0 0 0 0 0 0 0 0.25 0"/>
<feBlend mode="normal" in2="BackgroundImageFix" result="effect1_dropShadow_4224_1292"/>
<feBlend mode="normal" in="SourceGraphic" in2="effect1_dropShadow_4224_1292" result="shape"/>
</filter>
</defs>
</svg>
