<svg width="25" height="24" viewBox="0 0 25 24" fill="none" xmlns="http://www.w3.org/2000/svg">
<path d="M12.5747 2.49995C9.98469 2.42995 7.53469 3.37995 5.68469 5.18995C3.82469 6.98995 2.80469 9.40995 2.80469 11.9999C2.80469 16.1799 5.60469 19.9299 9.60469 21.1099C9.83469 21.1799 10.0747 21.2099 10.3147 21.2099C10.8447 21.2099 11.3547 21.0399 11.7947 20.7099C12.4347 20.2299 12.8047 19.4999 12.8047 18.6999V14.9999C12.8047 14.7199 12.5847 14.4999 12.3047 14.4999C12.0247 14.4999 11.8047 14.7199 11.8047 14.9999V18.6999C11.8047 19.1799 11.5847 19.6199 11.1947 19.9099C10.8147 20.1899 10.3347 20.2799 9.88469 20.1499C6.30469 19.0899 3.80469 15.7399 3.80469 11.9999C3.80469 9.67995 4.71469 7.51995 6.38469 5.90995C8.04469 4.29995 10.2147 3.44995 12.5547 3.50995C16.9647 3.62995 20.6647 7.31995 20.8047 11.7299C20.9247 15.4499 18.6447 18.7899 15.1447 20.0299C14.8847 20.1199 14.7447 20.4099 14.8447 20.6699C14.9347 20.9299 15.2247 21.0699 15.4847 20.9699C19.4047 19.5799 21.9447 15.8599 21.8147 11.6999C21.6547 6.76995 17.5147 2.65995 12.5947 2.51995L12.5747 2.49995Z" fill="#AF4300"/>
<path d="M10.5328 12.6501C10.3328 12.8501 10.3328 13.1601 10.5328 13.3601C10.7328 13.5601 11.0428 13.5601 11.2428 13.3601C11.8228 12.7801 12.7828 12.7801 13.3628 13.3601C13.4628 13.4601 13.5928 13.5101 13.7128 13.5101C13.8328 13.5101 13.9728 13.4601 14.0628 13.3601C14.2628 13.1601 14.2628 12.8501 14.0628 12.6501C13.0928 11.6801 11.5028 11.6801 10.5228 12.6501H10.5328Z" fill="#AF4300"/>
<path d="M15.4866 11.9399C15.6866 11.7399 15.6866 11.4299 15.4866 11.2299C14.6366 10.3799 13.5066 9.90991 12.3066 9.90991C11.1066 9.90991 9.97656 10.3799 9.12656 11.2299C8.92656 11.4299 8.92656 11.7399 9.12656 11.9399C9.32656 12.1399 9.63656 12.1399 9.83656 11.9399C11.1566 10.6199 13.4666 10.6199 14.7866 11.9399C14.8866 12.0399 15.0166 12.0899 15.1366 12.0899C15.2566 12.0899 15.3966 12.0399 15.4866 11.9399Z" fill="#AF4300"/>
<path d="M16.1947 10.5201C16.2947 10.6201 16.4247 10.6701 16.5447 10.6701C16.6647 10.6701 16.8047 10.6201 16.8947 10.5201C17.0947 10.3201 17.0947 10.0101 16.8947 9.8101C14.3647 7.2801 10.2347 7.2801 7.70469 9.8101C7.50469 10.0101 7.50469 10.3201 7.70469 10.5201C7.90469 10.7201 8.21469 10.7201 8.41469 10.5201C10.5547 8.3801 14.0447 8.3801 16.1947 10.5201Z" fill="#AF4300"/>
</svg>
